<?xml version="1.0" encoding="UTF-8" standalone="no"?>
<svg width="15px" height="16px" viewBox="0 0 15 16" version="1.1" xmlns="http://www.w3.org/2000/svg" xmlns:xlink="http://www.w3.org/1999/xlink">
    <!-- Generator: Sketch 40.2 (33826) - http://www.bohemiancoding.com/sketch -->
    <title>ic-web-3</title>
    <desc>Created with Sketch.</desc>
    <defs></defs>
    <g id="Page-1" stroke="none" stroke-width="1" fill="none" fill-rule="evenodd">
        <path d="M14.0020409,15 L1.00204089,15 C0.799040891,14.176 1.08404089,12.855 1.41204089,12.441 C1.91604089,12.168 4.11104089,11.559 6.00204089,11.113 L6.00204089,9.52 C4.74404089,8.668 4.00204089,6.809 4.00204089,5.121 C4.00204089,2.844 4.58404089,0.996 7.50204089,0.996 C10.4160409,0.996 10.9980409,2.844 10.9980409,5.121 C10.9980409,6.809 10.2560409,8.668 9.00204089,9.52 L9.00204089,11.098 C10.8850409,11.551 13.0920409,12.168 13.6040409,12.441 C13.9240409,12.859 14.2050409,14.176 14.0020409,15 M14.2440409,11.602 C13.8890409,11.23 11.0960409,10.5 9.77504089,10.172 C11.1700409,9.066 12.0060409,7.027 12.0060409,5.105 C12.0060409,2.285 11.1860409,0 7.50204089,0 C3.81404089,0 2.99804089,2.285 2.99804089,5.105 C2.99804089,7.031 3.83804089,9.078 5.23604089,10.18 C3.88904089,10.512 1.13904089,11.223 0.768040891,11.602 C-0.0139591087,12.398 -0.329959109,14.801 0.451040891,16 L14.5530409,16 C15.3300409,14.801 15.0220409,12.398 14.2440409,11.602" id="ic-web-3" fill="#FFFFFF"></path>
    </g>
</svg>