<?xml version="1.0" encoding="UTF-8" standalone="no"?>
<svg width="16px" height="16px" viewBox="0 0 16 16" version="1.1" xmlns="http://www.w3.org/2000/svg" xmlns:xlink="http://www.w3.org/1999/xlink">
    <!-- Generator: Sketch 40.2 (33826) - http://www.bohemiancoding.com/sketch -->
    <title>ic-web-1</title>
    <desc>Created with Sketch.</desc>
    <defs></defs>
    <g id="Page-1" stroke="none" stroke-width="1" fill="none" fill-rule="evenodd">
        <path d="M15,9 L1,9 L1,1.5 C1,1.223 1.223,1 1.5,1 L14.5,1 C14.773,1 15,1.223 15,1.5 L15,9 Z M15,11.5 C15,11.773 14.773,12 14.5,12 L1.5,12 C1.223,12 1,11.773 1,11.5 L1,10 L15,10 L15,11.5 Z M10,15 L6,15 L6,13 L10,13 L10,15 Z M15,0 L1,0 C0.445,0 0,0.445 0,1 L0,12 C0,12.551 0.445,13 1,13 L5,13 L5,15 L4,15 L4,16 L12,16 L12,15 L11,15 L11,13 L15,13 C15.555,13 16,12.551 16,12 L16,1 C16,0.445 15.555,0 15,0 L15,0 Z" id="ic-web-1" fill="#FFFFFF"></path>
    </g>
</svg>