<?xml version="1.0" encoding="UTF-8" standalone="no"?>
<svg width="15px" height="14px" viewBox="0 0 15 14" version="1.1" xmlns="http://www.w3.org/2000/svg" xmlns:xlink="http://www.w3.org/1999/xlink">
    <!-- Generator: Sketch 40.2 (33826) - http://www.bohemiancoding.com/sketch -->
    <title>ic-web-2</title>
    <desc>Created with Sketch.</desc>
    <defs></defs>
    <g id="Page-1" stroke="none" stroke-width="1" fill="none" fill-rule="evenodd">
        <path d="M9,0 L9,1.012 C11.836,1.488 14,3.949 14,6.922 C14,9.895 11.836,12.356 9,12.832 L9,13.84 C12.391,13.356 15,10.445 15,6.922 C15,3.399 12.391,0.488 9,0 L9,0 Z M12,6.922 C12,5.16 10.695,3.715 9,3.473 L9,4.473 C10.141,4.703 11,5.711 11,6.922 C11,8.129 10.141,9.137 9,9.371 L9,10.371 C10.695,10.125 12,8.684 12,6.922 L12,6.922 Z M4,4.297 L7,2.422 L7,11.422 L4,9.547 L4,4.297 Z M3,8.922 L1.5,8.922 C1.223,8.922 1,8.699 1,8.422 L1,5.422 C1,5.145 1.223,4.922 1.5,4.922 L3,4.922 L3,8.922 Z M1,3.922 C0.449,3.922 0,4.371 0,4.922 L0,8.922 C0,9.473 0.449,9.922 1,9.922 L3,9.922 L8,12.922 L8,0.922 L3,3.922 L1,3.922 Z" id="ic-web-2" fill="#FFFFFF"></path>
    </g>
</svg>