<?xml version="1.0" standalone="no"?><!DOCTYPE svg PUBLIC "-//W3C//DTD SVG 1.1//EN" "http://www.w3.org/Graphics/SVG/1.1/DTD/svg11.dtd"><svg role="img" aria-labelledby="able_4fb31bd45fc42c0ffb2b3d5421d22772" viewBox="0 0 109 38" preserveAspectRatio="xMinYMin meet" xmlns:xlink="http://www.w3.org/1999/xlink" version="1.1" xmlns="http://www.w3.org/2000/svg"><defs xmlns="http://www.w3.org/1999/xhtml"><style type="text/css"><![CDATA[
.ng-animate.item:not(.left):not(.right) { transition: left 0s ease-in-out; }
[ng\:cloak], [ng-cloak], [data-ng-cloak], [x-ng-cloak], .ng-cloak, .x-ng-cloak, .ng-hide:not(.ng-hide-animate) { display: none !important; }
ng\:form { display: block; }]]></style></defs><title id="able_4fb31bd45fc42c0ffb2b3d5421d22772">Able Lending</title><defs><path id="a" d="M0 .3h108V38H0V.2z"/><path id="c" d="M0 .3h108V38H0V.2z"/></defs><g fill="none" fill-rule="evenodd" style="&#10;    fill: #959da5;&#10;"><path d="M54.7 26.3a6 6 0 0 1-6-6 6 6 0 0 1 6-6.2 6 6 0 0 1 6 6.2 6 6 0 0 1-6 6m0-14.4c-4.6 0-8.3 3.8-8.3 8.4 0 4.6 3.7 8.3 8.3 8.3a8.3 8.3 0 0 0 6-2.7v1.6c0 .6.6 1 1.2 1h1v-8.2c0-4.6-3.7-8.4-8.3-8.4" fill="#00ABD6" style="&#10;    fill: #959da5;&#10;"/><mask id="b" fill="#fff"><use xlink:href="#a"/></mask><path d="M93.8 19c.5-2.8 3-5 6-5s5.4 2.2 6 5h-12zm14.3 1.2c0-4.6-3.6-8.4-8.2-8.4s-8.4 3.8-8.4 8.4c0 4.5 3.8 8.3 8.4 8.3a8.3 8.3 0 0 0 6.6-3.3c1-1.2 1-1.8 1-1.8-2.5 0-2.4 0-2.8.5a6 6 0 0 1-4.8 2.3 6 6 0 0 1-6-5H107a1 1 0 0 0 1-1z" fill="#00ABD6" mask="url(#b)" style="&#10;    fill: #959da5;&#10;"/><path d="M74 26.3a6 6 0 0 1-6-6 6 6 0 0 1 6-6.2 6 6 0 0 1 6.2 6.2 6 6 0 0 1-6.2 6M74 12a8.3 8.3 0 0 0-6 2.7V9a1 1 0 0 0-1.2-1h-1V20c0 4.6 3.7 8.3 8.2 8.3 4.6 0 8.4-3.7 8.4-8.3 0-4.6-3.8-8.4-8.4-8.4m13-4h-1.2v19.6c0 .6.5 1 1 1H88V9a1 1 0 0 0-1-1" fill="#00ABD6" style="&#10;    fill: #959da5;&#10;"/><mask id="d" fill="#fff"><use xlink:href="#c"/></mask><path d="M29.3 25a5.7 5.7 0 0 1-1.6.3c-2.7 0-4.6-2-6-4a3295.2 3295.2 0 0 1-4.2-6.3l.8-.6a1 1 0 0 1 1.4.3c1 1.2 3 4 3.7 5.3 2 2.8 3.5 3.7 5.4 3a4.2 4.2 0 0 0 2.5-2 4 4 0 0 0 .3-3 4 4 0 0 0-2-2.5 4.2 4.2 0 0 0-3.2-.4 4.2 4.2 0 0 0-2 1.4A1 1 0 0 1 23 15a6.2 6.2 0 0 1 2.8-1.8 6.2 6.2 0 0 1 4.7.5 6.2 6.2 0 0 1 3 3.7c1 3.2-1 6.7-4.2 7.7zm-9-1a1 1 0 0 1-1.5-.4L15 18.2c-1.8-2.8-3.3-3.7-5.2-3a4.2 4.2 0 0 0-2.5 2 4 4 0 0 0-.3 3A4 4 0 0 0 9 23a4.2 4.2 0 0 0 3.2.3 4.2 4.2 0 0 0 2-1 1 1 0 1 1 1.4 1.2 6.2 6.2 0 0 1-2.8 2 6.2 6.2 0 0 1-4.8-.6A6.2 6.2 0 0 1 5 21C4 17.5 6 14 9.2 13A5.7 5.7 0 0 1 11 13c2.6 0 4.4 2 5.8 4l4.3 6.3-.8.6zM19.2 0C8.6.3 0 8.6 0 19.3 0 29.7 8.6 38 19.3 38s19.3-8.2 19.3-19C38.6 8.6 30 .3 19.3.3z" fill="#00ABD6" mask="url(#d)" style="&#10;    fill: #959da5;&#10;"/></g></svg>