<?xml version="1.0" encoding="utf-8"?>
<!-- Generator: Adobe Illustrator 17.1.0, SVG Export Plug-In . SVG Version: 6.00 Build 0)  -->
<!DOCTYPE svg PUBLIC "-//W3C//DTD SVG 1.1//EN" "http://www.w3.org/Graphics/SVG/1.1/DTD/svg11.dtd">
<svg version="1.1" id="Слой_1" xmlns="http://www.w3.org/2000/svg" xmlns:xlink="http://www.w3.org/1999/xlink" x="0px" y="0px"
	 viewBox="0 0 701.5 701.5" enable-background="new 0 0 701.5 701.5" xml:space="preserve">
<g>
	<g>
		<g>
			<path fill="none" d="M620.7,418.6c-5.6,0-11.1-1-16.1-2.9c-0.3,1.8-0.7,3.8-1,5.7c-0.6,3.9-1.6,7.7-2.3,10.6
				c-0.7,2.9-1.1,4.8-1.1,4.8l36.3,9.3c0,0,0.5-2.2,1.3-5.5c0.7-3.3,1.9-7.7,2.6-12.2c0.4-2.2,0.8-4.5,1.2-6.6
				c0.4-2.1,0.7-4,0.9-5.7c0.2-1.2,0.3-2.2,0.4-3.1C636.2,416.6,628.7,418.6,620.7,418.6z"/>
		</g>
		<polygon fill-rule="evenodd" clip-rule="evenodd" fill="#4E507E" points="621.6,433.2 618,432.4 616.6,438.5 620.2,439.4 		"/>
		<polygon fill-rule="evenodd" clip-rule="evenodd" fill="#4E507E" points="623.8,422.1 620.2,421.4 619.1,427.6 622.7,428.3 		"/>
	</g>
	<g>
		<g>
			<path fill="none" d="M600.2,436.9c0,0,0,0.1-0.1,0.3c-0.1,0.2-0.2,0.5-0.3,1c-0.2,0.8-0.6,2-1,3.4c-0.4,1.4-0.9,3.1-1.4,4.9
				c-0.3,0.9-0.5,1.8-0.8,2.7c-0.3,0.9-0.6,1.9-0.9,2.8c-0.6,1.9-1.3,3.7-1.9,5.5c-0.6,1.8-1.1,3.4-1.7,4.8
				c-1.1,2.8-1.8,4.6-1.8,4.6l34.9,13.8c0,0,0.8-2.1,2.1-5.3c0.7-1.6,1.3-3.5,2-5.5c0.7-2,1.4-4.2,2.1-6.3c0.4-1.1,0.7-2.2,1.1-3.2
				c0.3-1.1,0.6-2.1,0.9-3.2c0.6-2,1.1-4,1.6-5.6c0.5-1.6,0.9-3,1.1-4c0.1-0.5,0.2-0.9,0.3-1.1c0.1-0.3,0.1-0.4,0.1-0.4L600.2,436.9
				z"/>
		</g>
		<path fill-rule="evenodd" clip-rule="evenodd" fill="#4E507E" d="M612.2,466l-3.5-1.3c0,0-0.1,0.4-0.3,0.9c-0.2,0.6-0.5,1.3-0.8,2
			c-0.6,1.5-1.1,2.9-1.1,2.9l3.5,1.3c0,0,0.6-1.5,1.2-2.9c0.3-0.7,0.6-1.5,0.8-2C612.1,466.4,612.2,466,612.2,466z"/>
		<polygon fill-rule="evenodd" clip-rule="evenodd" fill="#4E507E" points="615.9,455.2 612.3,454.1 610.3,460 613.8,461.2 		"/>
		<polygon fill-rule="evenodd" clip-rule="evenodd" fill="#4E507E" points="619,444.4 615.3,443.4 613.6,449.4 617.2,450.5 		"/>
	</g>
	<g>
		<g>
			<path fill="none" d="M590.4,466.9c0,0-0.7,1.8-1.8,4.6c-1.2,2.7-2.8,6.3-4.4,9.9c-0.8,1.8-1.7,3.6-2.6,5.2
				c-0.8,1.6-1.6,3.2-2.3,4.5c-0.7,1.3-1.2,2.4-1.6,3.2c-0.4,0.7-0.7,1.2-0.7,1.2l32.8,18.1c0,0,0.3-0.5,0.8-1.4
				c0.5-0.9,1.1-2.1,1.9-3.7c0.8-1.5,1.7-3.3,2.7-5.2c1-1.9,2-3.9,2.9-6c1.9-4.1,3.8-8.3,5.1-11.4c1.3-3.2,2.1-5.3,2.1-5.3
				L590.4,466.9z"/>
		</g>
		<polygon fill-rule="evenodd" clip-rule="evenodd" fill="#4E507E" points="598.7,497.3 595.3,495.6 592.5,501.2 595.8,502.9 		"/>
		<path fill-rule="evenodd" clip-rule="evenodd" fill="#4E507E" d="M603.6,487.1l-3.4-1.6c0,0-0.6,1.4-1.3,2.8
			c-0.3,0.7-0.6,1.4-0.9,2c-0.3,0.5-0.4,0.9-0.4,0.9l3.4,1.6c0,0,0.2-0.4,0.4-0.9c0.2-0.5,0.6-1.3,0.9-2
			C602.9,488.5,603.6,487.1,603.6,487.1z"/>
		<path fill-rule="evenodd" clip-rule="evenodd" fill="#4E507E" d="M608.1,476.7l-3.5-1.4c0,0-0.6,1.5-1.1,2.9
			c-0.3,0.7-0.6,1.4-0.9,2c-0.2,0.5-0.4,0.9-0.4,0.9l3.4,1.5c0,0,0.2-0.4,0.4-0.9c0.2-0.5,0.6-1.3,0.9-2
			C607.5,478.2,608.1,476.7,608.1,476.7z"/>
	</g>
	<g>
		<g>
			<path fill="none" d="M577,495.5c0,0-1,1.7-2.5,4.3c-0.7,1.3-1.6,2.8-2.5,4.4c-0.9,1.6-2.1,3.2-3.1,4.9c-1.1,1.7-2.1,3.3-3.1,4.9
				c-0.5,0.8-1,1.5-1.5,2.2c-0.5,0.7-1,1.3-1.4,1.9c-1.7,2.4-2.9,4-2.9,4l30.3,22.1c0,0,1.3-1.8,3.3-4.6c0.5-0.7,1-1.4,1.6-2.2
				c0.6-0.8,1.2-1.6,1.7-2.5c1.1-1.8,2.4-3.7,3.6-5.6c1.2-1.9,2.5-3.8,3.6-5.6c1.1-1.8,2.1-3.6,2.9-5c1.7-3,2.8-4.9,2.8-4.9
				L577,495.5z"/>
		</g>
		<polygon fill-rule="evenodd" clip-rule="evenodd" fill="#4E507E" points="581.4,526.7 578.3,524.6 574.6,529.7 577.7,531.8 		"/>
		<polygon fill-rule="evenodd" clip-rule="evenodd" fill="#4E507E" points="587.5,517.1 584.3,515.2 581,520.4 584.1,522.5 		"/>
		<polygon fill-rule="evenodd" clip-rule="evenodd" fill="#4E507E" points="593.3,507.4 590,505.5 586.9,511 590.1,512.9 		"/>
	</g>
	<g>
		<g>
			<path fill="none" d="M586.9,548.8C586.9,548.8,586.9,548.7,586.9,548.8c1.1-1.4,1.9-2.6,2.5-3.4c0.6-0.8,0.9-1.3,0.9-1.3
				L560,522.1c0,0-0.3,0.4-0.8,1.1c-0.2,0.3-0.4,0.6-0.7,0.9C570.9,528.2,581.2,537.2,586.9,548.8z"/>
		</g>
	</g>
	<g>
		<g>
			<path fill="none" d="M438.9,618.2c0-2.2,0.2-4.3,0.5-6.5c-0.1,0-0.3,0.1-0.4,0.1c-2.8,0.9-4.7,1.6-4.7,1.6l11.6,35.7
				c0,0,1.4-0.5,3.6-1.2C442.9,639.7,438.9,629.4,438.9,618.2z"/>
		</g>
	</g>
	<g>
		<g>
			<path fill="none" d="M434.3,613.5c0,0-0.5,0.2-1.3,0.4c-0.4,0.1-0.9,0.3-1.5,0.5c-0.6,0.2-1.2,0.4-1.9,0.6
				c-2.8,0.8-6.6,1.9-10.4,3c-3.8,0.9-7.7,1.8-10.6,2.4c-1.4,0.4-2.7,0.5-3.5,0.7c-0.9,0.2-1.3,0.2-1.3,0.2l7,36.8
				c0,0,0.6-0.1,1.5-0.3c1-0.2,2.4-0.4,4-0.8c3.3-0.8,7.7-1.8,12.2-2.8c4.4-1.2,8.7-2.5,12-3.4c0.8-0.2,1.6-0.4,2.2-0.6
				c0.7-0.2,1.2-0.4,1.7-0.6c0.9-0.3,1.5-0.5,1.5-0.5L434.3,613.5z"/>
		</g>
		<path fill-rule="evenodd" clip-rule="evenodd" fill="#4E507E" d="M416.1,639.2l-0.8-3.7c0,0-1.5,0.4-3,0.7
			c-1.5,0.4-3.1,0.6-3.1,0.6l0.7,3.7c0,0,1.6-0.3,3.1-0.6C414.6,639.6,416.1,639.2,416.1,639.2z"/>
		<path fill-rule="evenodd" clip-rule="evenodd" fill="#4E507E" d="M427.2,636.5l-1-3.6c0,0-1.5,0.4-3,0.8c-1.5,0.4-3,0.7-3,0.7
			l0.9,3.6c0,0,1.5-0.4,3.1-0.7C425.7,637,427.2,636.5,427.2,636.5z"/>
		<path fill-rule="evenodd" clip-rule="evenodd" fill="#4E507E" d="M438.1,633.4l-1.1-3.6c0,0-0.4,0.1-0.9,0.3
			c-0.6,0.2-1.3,0.4-2.1,0.6c-1.5,0.4-3,0.9-3,0.9l1,3.6c0,0,1.5-0.4,3-0.9c0.8-0.2,1.5-0.4,2.1-0.6
			C437.7,633.5,438.1,633.4,438.1,633.4z"/>
	</g>
	<g>
		<g>
			<path fill="none" d="M403.7,621.3c0,0-1.9,0.3-4.9,0.9c-1.5,0.2-3.1,0.6-5,0.8c-1.8,0.2-3.8,0.5-5.8,0.7c-2,0.3-3.9,0.5-5.8,0.7
				c-1.8,0.1-3.6,0.3-5,0.4c-3,0.2-4.9,0.4-4.9,0.4l2.3,37.4c0,0,2.3-0.2,5.7-0.4c1.7-0.1,3.7-0.3,5.8-0.4c2.1-0.3,4.4-0.6,6.6-0.8
				c2.3-0.3,4.5-0.6,6.6-0.8c2.1-0.3,4.1-0.7,5.7-1c3.4-0.6,5.6-1,5.6-1L403.7,621.3z"/>
		</g>
		<polygon fill-rule="evenodd" clip-rule="evenodd" fill="#4E507E" points="382.5,644.6 382.1,640.9 375.9,641.3 376.2,645.1 		"/>
		<polygon fill-rule="evenodd" clip-rule="evenodd" fill="#4E507E" points="393.7,643.3 393.2,639.5 387,640.3 387.5,644.1 		"/>
		<polygon fill-rule="evenodd" clip-rule="evenodd" fill="#4E507E" points="404.9,641.5 404.3,637.8 398.1,638.9 398.7,642.6 		"/>
	</g>
	<g>
		<g>
			<path fill="none" d="M372.4,625.2c0,0-0.5,0-1.4,0.1c-0.4,0-1,0.1-1.6,0.1c-0.6,0-1.3,0-2,0c-3,0.1-6.9,0.2-10.9,0.3
				c-4-0.1-7.9-0.2-10.9-0.3c-0.7,0-1.4,0-2,0c-0.6,0-1.1-0.1-1.6-0.1c-0.9-0.1-1.4-0.1-1.4-0.1l-2.3,37.4c0,0,0.6,0,1.6,0.1
				c0.5,0,1.1,0.1,1.8,0.1c0.7,0,1.5,0,2.3,0.1c3.4,0.1,7.9,0.2,12.5,0.3c4.5-0.1,9.1-0.2,12.5-0.3c0.8,0,1.6,0,2.3-0.1
				c0.7-0.1,1.3-0.1,1.8-0.1c1-0.1,1.6-0.1,1.6-0.1L372.4,625.2z"/>
		</g>
		<path fill-rule="evenodd" clip-rule="evenodd" fill="#4E507E" d="M348.4,645.6l0.1-3.7c0,0-1.6,0-3.1-0.1c-0.8,0-1.6,0-2.1-0.1
			c-0.6,0-1-0.1-1-0.1l-0.2,3.7c0,0,0.4,0,1,0.1c0.6,0,1.4,0,2.2,0.1C346.8,645.6,348.4,645.6,348.4,645.6z"/>
		<path fill-rule="evenodd" clip-rule="evenodd" fill="#4E507E" d="M359.7,645.8l0-3.7c0,0-1.6,0-3.1,0.1c-1.6,0-3.1-0.1-3.1-0.1
			l0,3.7c0,0,1.6,0,3.2,0.1C358.2,645.8,359.7,645.8,359.7,645.8z"/>
		<path fill-rule="evenodd" clip-rule="evenodd" fill="#4E507E" d="M371.1,645.5l-0.2-3.7c0,0-0.4,0-1,0c-0.6,0-1.4,0-2.1,0.1
			c-1.6,0-3.1,0.1-3.1,0.1l0.1,3.7c0,0,1.6,0,3.2-0.1c0.8,0,1.6,0,2.2-0.1C370.7,645.5,371.1,645.5,371.1,645.5z"/>
	</g>
	<g>
		<g>
			<path fill="none" d="M340.8,625.2c0,0-2-0.2-4.9-0.4c-1.5-0.1-3.2-0.2-5-0.4c-1.8-0.2-3.8-0.5-5.8-0.7c-2-0.2-3.9-0.5-5.8-0.7
				c-1.8-0.2-3.5-0.6-5-0.8c-2.9-0.5-4.9-0.9-4.9-0.9l-7,36.8c0,0,2.2,0.4,5.6,1c1.7,0.3,3.6,0.7,5.7,1c2.1,0.3,4.4,0.6,6.6,0.8
				c2.3,0.3,4.5,0.6,6.6,0.8c2.1,0.2,4.1,0.3,5.8,0.4c3.4,0.3,5.7,0.4,5.7,0.4L340.8,625.2z"/>
		</g>
		<polygon fill-rule="evenodd" clip-rule="evenodd" fill="#4E507E" points="314.4,642.6 315,638.9 308.9,637.8 308.2,641.5 		"/>
		<polygon fill-rule="evenodd" clip-rule="evenodd" fill="#4E507E" points="325.7,644.1 326.1,640.3 319.9,639.5 319.4,643.3 		"/>
		<polygon fill-rule="evenodd" clip-rule="evenodd" fill="#4E507E" points="337,645.1 337.2,641.3 331,640.9 330.6,644.6 		"/>
	</g>
	<g>
		<g>
			<path fill="none" d="M309.5,621.3c0,0-0.5-0.1-1.3-0.2c-0.8-0.2-2.1-0.3-3.5-0.7c-2.9-0.7-6.7-1.6-10.6-2.4
				c-3.8-1.1-7.6-2.1-10.4-3c-0.7-0.2-1.4-0.4-1.9-0.6c-0.6-0.2-1.1-0.4-1.5-0.5c-0.8-0.3-1.3-0.4-1.3-0.4l-11.6,35.7
				c0,0,0.5,0.2,1.5,0.5c0.5,0.2,1,0.4,1.7,0.6c0.7,0.2,1.4,0.4,2.2,0.6c3.3,0.9,7.6,2.2,12,3.4c4.4,1,8.8,2,12.2,2.8
				c1.7,0.4,3.1,0.6,4,0.8c1,0.2,1.5,0.3,1.5,0.3L309.5,621.3z"/>
		</g>
		<path fill-rule="evenodd" clip-rule="evenodd" fill="#4E507E" d="M281.1,635.2l1-3.6c0,0-1.5-0.4-3-0.9c-0.8-0.2-1.5-0.4-2.1-0.6
			c-0.6-0.2-0.9-0.3-0.9-0.3l-1.1,3.6c0,0,0.4,0.1,0.9,0.3c0.6,0.2,1.3,0.4,2.1,0.6C279.6,634.7,281.1,635.2,281.1,635.2z"/>
		<path fill-rule="evenodd" clip-rule="evenodd" fill="#4E507E" d="M292.1,638.1l0.9-3.6c0,0-1.5-0.4-3-0.7c-1.5-0.4-3-0.8-3-0.8
			l-1,3.6c0,0,1.5,0.4,3.1,0.8C290.6,637.7,292.1,638.1,292.1,638.1z"/>
		<path fill-rule="evenodd" clip-rule="evenodd" fill="#4E507E" d="M303.2,640.6l0.7-3.7c0,0-0.4-0.1-1-0.2
			c-0.6-0.1-1.3-0.3-2.1-0.5c-1.5-0.4-3-0.7-3-0.7l-0.8,3.7c0,0,1.5,0.4,3.1,0.7c0.8,0.2,1.5,0.4,2.1,0.5
			C302.8,640.5,303.2,640.6,303.2,640.6z"/>
	</g>
	<g>
		<g>
			<path fill="none" d="M274.2,611.9c-0.2-0.1-0.5-0.2-0.7-0.2c0.7,12.6-3.5,25.5-12.7,35.3c0.4,0.1,0.8,0.3,1.1,0.4
				c3.2,1.1,5.4,1.8,5.4,1.8l11.6-35.7C278.9,613.5,277,612.9,274.2,611.9z"/>
		</g>
	</g>
	<g>
		<g>
			<path fill="none" d="M133.9,538.6c1.3-2,2.7-3.8,4.2-5.6l-15.2,11.1c0,0,0.3,0.5,0.9,1.3c0.6,0.8,1.4,2,2.5,3.3
				c0.2,0.2,0.4,0.5,0.6,0.8C128.7,545.5,131.1,541.9,133.9,538.6z"/>
		</g>
	</g>
	<g>
		<g>
			<path fill="none" d="M152.8,521.6c-0.5-0.7-1.3-1.9-2.5-3.5c-0.4-0.6-0.9-1.3-1.4-1.9c-0.5-0.7-1-1.4-1.5-2.2
				c-1-1.6-2.1-3.2-3.1-4.9c-1.1-1.7-2.2-3.3-3.1-4.9c-0.9-1.6-1.8-3.1-2.5-4.4c-1.5-2.6-2.5-4.3-2.5-4.3l-32.8,18.1
				c0,0,1.1,2,2.8,4.9l2.9,5c1.1,1.8,2.4,3.7,3.6,5.6c1.2,1.9,2.5,3.8,3.6,5.6c0.6,0.9,1.2,1.7,1.7,2.5c0.6,0.8,1.1,1.5,1.6,2.2
				c2,2.8,3.3,4.6,3.3,4.6l15.2-11.1C142.2,528.4,147.2,524.4,152.8,521.6z"/>
		</g>
		<polygon fill-rule="evenodd" clip-rule="evenodd" fill="#4E507E" points="123,512.8 126.3,510.9 123.2,505.5 119.9,507.3 		"/>
		<polygon fill-rule="evenodd" clip-rule="evenodd" fill="#4E507E" points="129.1,522.4 132.2,520.4 128.8,515.1 125.6,517.1 		"/>
		<polygon fill-rule="evenodd" clip-rule="evenodd" fill="#4E507E" points="135.5,531.8 138.5,529.6 134.9,524.5 131.8,526.6 		"/>
	</g>
	<g>
		<g>
			<path fill="none" d="M136.2,495.5c0,0-0.2-0.4-0.7-1.2c-0.4-0.8-1-1.9-1.6-3.2c-0.7-1.3-1.5-2.9-2.3-4.5
				c-0.8-1.6-1.8-3.4-2.6-5.2c-1.6-3.6-3.3-7.2-4.4-9.9c-1.1-2.8-1.8-4.6-1.8-4.6l-34.9,13.8c0,0,0.8,2.1,2.1,5.3
				c1.3,3.1,3.2,7.3,5.1,11.4c0.9,2.1,2,4.1,2.9,6c1,1.9,1.9,3.7,2.7,5.2c0.8,1.5,1.4,2.8,1.9,3.7c0.5,0.9,0.8,1.4,0.8,1.4
				L136.2,495.5z"/>
		</g>
		<path fill-rule="evenodd" clip-rule="evenodd" fill="#4E507E" d="M107.5,482.5l3.4-1.5c0,0-0.2-0.4-0.4-0.9
			c-0.2-0.5-0.6-1.2-0.9-2c-0.6-1.5-1.1-2.9-1.1-2.9l-3.5,1.4c0,0,0.6,1.5,1.2,2.9c0.3,0.7,0.6,1.4,0.9,2
			C107.3,482.1,107.5,482.5,107.5,482.5z"/>
		<path fill-rule="evenodd" clip-rule="evenodd" fill="#4E507E" d="M112.2,492.8l3.4-1.6c0,0-0.2-0.3-0.4-0.9
			c-0.2-0.5-0.6-1.2-0.9-2c-0.6-1.4-1.3-2.8-1.3-2.8l-3.4,1.6c0,0,0.7,1.4,1.3,2.9c0.3,0.7,0.7,1.4,0.9,2
			C112,492.4,112.2,492.8,112.2,492.8z"/>
		<polygon fill-rule="evenodd" clip-rule="evenodd" fill="#4E507E" points="117.4,502.9 120.7,501.1 117.8,495.5 114.5,497.2 		"/>
	</g>
	<g>
		<g>
			<path fill="none" d="M122.8,466.9c0,0-0.7-1.8-1.8-4.6c-0.6-1.4-1.1-3-1.7-4.8c-0.6-1.8-1.2-3.6-1.9-5.5
				c-0.3-0.9-0.6-1.9-0.9-2.8c-0.3-0.9-0.5-1.9-0.8-2.7c-0.5-1.8-1-3.4-1.4-4.9c-0.4-1.4-0.7-2.6-1-3.4c-0.1-0.4-0.2-0.7-0.3-1
				c-0.1-0.2-0.1-0.3-0.1-0.3l-36.3,9.3c0,0,0,0.1,0.1,0.4c0.1,0.3,0.2,0.6,0.3,1.1c0.3,1,0.7,2.3,1.1,4c0.5,1.6,1,3.5,1.6,5.6
				c0.3,1,0.6,2.1,0.9,3.2c0.4,1.1,0.7,2.1,1.1,3.2c0.7,2.2,1.5,4.3,2.1,6.3c0.7,2,1.3,3.9,2,5.5c1.2,3.2,2.1,5.3,2.1,5.3
				L122.8,466.9z"/>
		</g>
		<polygon fill-rule="evenodd" clip-rule="evenodd" fill="#4E507E" points="95.9,450.4 99.5,449.3 97.8,443.3 94.2,444.3 		"/>
		<polygon fill-rule="evenodd" clip-rule="evenodd" fill="#4E507E" points="99.3,461.2 102.9,460 100.9,454.1 97.3,455.2 		"/>
		<path fill-rule="evenodd" clip-rule="evenodd" fill="#4E507E" d="M103.2,471.9l3.5-1.3c0,0-0.6-1.5-1.1-2.9
			c-0.3-0.7-0.6-1.5-0.7-2c-0.2-0.6-0.3-0.9-0.3-0.9l-3.5,1.3c0,0,0.1,0.4,0.3,0.9c0.2,0.6,0.5,1.3,0.8,2
			C102.6,470.4,103.2,471.9,103.2,471.9z"/>
	</g>
	<g>
		<g>
			<path fill="none" d="M113,436.9c0,0-0.4-1.9-1.1-4.8c-0.6-2.9-1.7-6.7-2.3-10.6c-0.3-1.9-0.7-3.9-1-5.7c-0.3-1.8-0.6-3.5-0.8-5
				c-0.4-2.9-0.6-4.9-0.6-4.9L70,410.5c0,0,0.3,2.3,0.7,5.6c0.2,1.7,0.5,3.6,0.9,5.7c0.4,2.1,0.8,4.3,1.2,6.6
				c0.7,4.5,1.9,8.9,2.6,12.2c0.8,3.3,1.3,5.5,1.3,5.5L113,436.9z"/>
		</g>
		<path fill-rule="evenodd" clip-rule="evenodd" fill="#4E507E" d="M88.4,417.1l3.7-0.6c0,0-0.3-1.5-0.5-3.1
			c-0.2-1.5-0.4-3.1-0.4-3.1l-3.7,0.5c0,0,0.2,1.6,0.4,3.1C88.1,415.6,88.4,417.1,88.4,417.1z"/>
		<polygon fill-rule="evenodd" clip-rule="evenodd" fill="#4E507E" points="90.4,428.3 94.1,427.6 93,421.4 89.3,422.1 		"/>
		<polygon fill-rule="evenodd" clip-rule="evenodd" fill="#4E507E" points="93,439.3 96.6,438.5 95.2,432.4 91.5,433.2 		"/>
	</g>
	<g>
		<g>
			<path fill="none" d="M105.7,390.1c-0.1-1-0.1-2-0.2-2.9c0-1,0-1.9-0.1-2.9c0-0.7,0-1.3,0-2c-5.6,2.3-11.6,3.6-18,3.6
				c-6.9,0-13.6-1.6-19.5-4.3c0,1.3,0.1,2.7,0.1,4.1c0,1.1,0.1,2.2,0.1,3.3c0.1,1.1,0.2,2.2,0.2,3.4c0.4,4.5,0.6,9.1,1,12.4
				c0.4,3.4,0.7,5.6,0.7,5.6l37.2-4.7c0,0-0.3-2-0.6-4.9C106.2,398,106,394.1,105.7,390.1z"/>
		</g>
		<polygon fill-rule="evenodd" clip-rule="evenodd" fill="#4E507E" points="85.9,394.5 89.6,394.2 89.2,388 85.4,388.2 		"/>
		<path fill-rule="evenodd" clip-rule="evenodd" fill="#4E507E" d="M86.9,405.8l3.7-0.4c0,0-0.2-1.5-0.4-3.1
			c-0.1-0.8-0.1-1.6-0.2-2.1c0-0.6-0.1-1-0.1-1l-3.7,0.3c0,0,0,0.4,0.1,1c0.1,0.6,0.1,1.4,0.2,2.2C86.7,404.2,86.9,405.8,86.9,405.8
			z"/>
	</g>
	<g>
		<g>
			<path fill="none" d="M145.3,238.1c0.7-1.2,1.5-2.3,2.2-3.4c0.5-0.8,1-1.5,1.5-2.2c0.5-0.7,1-1.3,1.4-1.9c1.7-2.4,2.9-4,2.9-4
				l-30.3-22.1c0,0-1.3,1.8-3.3,4.6c-0.5,0.7-1,1.4-1.6,2.2c-0.6,0.8-1.2,1.6-1.7,2.5c-1.1,1.8-2.3,3.7-3.6,5.5
				C125.8,221,137.5,228,145.3,238.1z"/>
		</g>
		<polygon fill-rule="evenodd" clip-rule="evenodd" fill="#4E507E" points="131.8,222 134.9,224.1 138.5,219 135.5,216.8 		"/>
	</g>
	<g>
		<g>
			<path fill="none" d="M153.2,226.6c0,0,0.3-0.4,0.8-1.1c0.5-0.7,1.2-1.7,2.1-2.9c1.8-2.3,4.3-5.4,6.7-8.5c2.6-3,5.2-6,7.1-8.2
				c1-1.1,1.9-2,2.4-2.6c0.6-0.6,0.9-1,0.9-1L146,176.6c0,0-0.4,0.4-1.1,1.1c-0.7,0.7-1.7,1.7-2.8,3c-2.2,2.6-5.2,6-8.2,9.4
				c-2.8,3.5-5.6,7.1-7.7,9.8c-1.1,1.3-1.9,2.5-2.5,3.3c-0.6,0.8-0.9,1.3-0.9,1.3L153.2,226.6z"/>
		</g>
		<path fill-rule="evenodd" clip-rule="evenodd" fill="#4E507E" d="M152.7,195l2.8,2.5c0,0,1-1.2,2-2.4c0.5-0.6,1-1.2,1.4-1.6
			c0.4-0.4,0.7-0.7,0.7-0.7l-2.8-2.5c0,0-0.3,0.3-0.7,0.7c-0.4,0.4-1,1-1.5,1.6C153.8,193.8,152.7,195,152.7,195z"/>
		<path fill-rule="evenodd" clip-rule="evenodd" fill="#4E507E" d="M145.4,203.7l2.9,2.4c0,0,0.2-0.3,0.6-0.8
			c0.4-0.5,0.8-1.1,1.3-1.7c1-1.2,2-2.4,2-2.4l-2.9-2.4c0,0-1,1.2-2.1,2.4c-0.5,0.6-1,1.2-1.4,1.7
			C145.7,203.4,145.4,203.7,145.4,203.7z"/>
		<path fill-rule="evenodd" clip-rule="evenodd" fill="#4E507E" d="M138.4,212.6l3,2.2c0,0,0.2-0.3,0.6-0.8c0.4-0.5,0.8-1.1,1.3-1.7
			c1-1.2,1.9-2.5,1.9-2.5l-3-2.3c0,0-1,1.2-2,2.5c-0.5,0.6-1,1.2-1.3,1.7C138.7,212.3,138.4,212.6,138.4,212.6z"/>
	</g>
	<g>
		<g>
			<path fill="none" d="M173.3,202.2c0,0,1.4-1.4,3.4-3.6c2-2.2,4.9-4.8,7.8-7.6c2.8-2.8,5.8-5.3,8.1-7.3c2.2-1.9,3.7-3.2,3.7-3.2
				l-23.9-28.9c0,0-1.7,1.5-4.3,3.7c-2.6,2.2-6.1,5.1-9.3,8.3c-3.3,3.1-6.6,6.2-8.9,8.7c-2.3,2.5-3.9,4.1-3.9,4.1L173.3,202.2z"/>
		</g>
		<polygon fill-rule="evenodd" clip-rule="evenodd" fill="#4E507E" points="176.8,170.9 179.3,173.7 184,169.6 181.6,166.8 		"/>
		<polygon fill-rule="evenodd" clip-rule="evenodd" fill="#4E507E" points="168.5,178.6 171.1,181.3 175.6,177 173.1,174.2 		"/>
		<path fill-rule="evenodd" clip-rule="evenodd" fill="#4E507E" d="M160.5,186.6l2.7,2.6c0,0,1.1-1.1,2.2-2.3
			c0.5-0.6,1.1-1.1,1.5-1.6c0.4-0.4,0.7-0.7,0.7-0.7l-2.6-2.7c0,0-0.3,0.3-0.7,0.7c-0.4,0.4-1,1-1.5,1.6
			C161.6,185.5,160.5,186.6,160.5,186.6z"/>
	</g>
	<g>
		<g>
			<path fill="none" d="M196.3,180.6c0,0,0.4-0.3,1.1-0.9c0.7-0.5,1.7-1.3,2.8-2.2c1.2-0.9,2.5-2,4-3.1c0.7-0.6,1.5-1.2,2.3-1.8
				c0.8-0.6,1.6-1.1,2.4-1.7c1.6-1.1,3.2-2.3,4.7-3.4c0.8-0.5,1.5-1.1,2.2-1.6c0.7-0.5,1.4-0.9,2-1.3c2.5-1.6,4.2-2.7,4.2-2.7
				l-20.1-31.6c0,0-1.9,1.2-4.8,3.1c-0.7,0.5-1.5,0.9-2.3,1.5c-0.8,0.6-1.6,1.2-2.5,1.8c-1.7,1.2-3.6,2.5-5.4,3.9
				c-0.9,0.7-1.8,1.3-2.8,2c-0.9,0.7-1.7,1.4-2.6,2c-1.7,1.3-3.2,2.5-4.6,3.6c-1.3,1.1-2.5,1.9-3.2,2.5c-0.8,0.6-1.2,1-1.2,1
				L196.3,180.6z"/>
		</g>
		<path fill-rule="evenodd" clip-rule="evenodd" fill="#4E507E" d="M203.7,149.9l2.1,3.1c0,0,0.3-0.2,0.8-0.6
			c0.5-0.3,1.1-0.7,1.8-1.2c1.3-0.8,2.6-1.7,2.6-1.7l-2-3.1c0,0-1.3,0.9-2.7,1.7c-0.7,0.4-1.3,0.8-1.8,1.2
			C204,149.7,203.7,149.9,203.7,149.9z"/>
		<polygon fill-rule="evenodd" clip-rule="evenodd" fill="#4E507E" points="194.4,156.5 196.7,159.5 201.8,155.9 199.6,152.8 		"/>
		<polygon fill-rule="evenodd" clip-rule="evenodd" fill="#4E507E" points="185.5,163.5 187.9,166.4 192.8,162.5 190.5,159.6 		"/>
	</g>
	<g>
		<g>
			<path fill="none" d="M221.9,162c0,0,1.7-1.1,4.2-2.7c2.6-1.5,6-3.4,9.4-5.4l1.3-0.7c0.4-0.2,0.9-0.4,1.3-0.7
				c0.9-0.4,1.7-0.9,2.5-1.3c1.6-0.8,3.2-1.6,4.5-2.3c1.3-0.7,2.4-1.3,3.2-1.6c0.8-0.4,1.2-0.6,1.2-0.6l-16-33.9
				c0,0-0.5,0.2-1.4,0.6c-0.9,0.4-2.2,1.1-3.7,1.8c-1.5,0.8-3.3,1.7-5.2,2.7c-0.9,0.5-1.9,1-2.9,1.5c-0.5,0.3-1,0.5-1.5,0.8
				l-1.5,0.8c-3.9,2.3-7.9,4.5-10.8,6.2c-2.9,1.8-4.8,3.1-4.8,3.1L221.9,162z"/>
		</g>
		<polygon fill-rule="evenodd" clip-rule="evenodd" fill="#4E507E" points="233,132.6 234.8,135.9 240.3,133 238.7,129.7 		"/>
		<path fill-rule="evenodd" clip-rule="evenodd" fill="#4E507E" d="M223,137.9l1.8,3.3c0,0,1.4-0.8,2.7-1.6c1.3-0.8,2.7-1.5,2.7-1.5
			l-1.8-3.3c0,0-1.4,0.7-2.8,1.5C224.4,137.1,223,137.9,223,137.9z"/>
		<path fill-rule="evenodd" clip-rule="evenodd" fill="#4E507E" d="M213.3,143.7l2,3.2c0,0,1.3-0.8,2.6-1.7c1.4-0.8,2.7-1.6,2.7-1.6
			l-1.9-3.2c0,0-1.4,0.8-2.7,1.6C214.6,142.9,213.3,143.7,213.3,143.7z"/>
	</g>
	<g>
		<g>
			<path fill="none" d="M249.5,146.8c0,0,1.8-0.8,4.5-2c1.3-0.6,2.9-1.3,4.6-2.1c1.7-0.7,3.6-1.4,5.4-2.1c1.8-0.7,3.7-1.5,5.4-2.1
				c1.7-0.7,3.4-1.2,4.8-1.7c2.8-0.9,4.7-1.6,4.7-1.6l-11.6-35.7c0,0-2.2,0.7-5.4,1.8c-1.6,0.6-3.5,1.1-5.5,1.9
				c-2,0.8-4.1,1.6-6.2,2.4c-2.1,0.8-4.2,1.7-6.2,2.5c-1.9,0.9-3.8,1.7-5.3,2.4c-3.1,1.4-5.2,2.3-5.2,2.3L249.5,146.8z"/>
		</g>
		<polygon fill-rule="evenodd" clip-rule="evenodd" fill="#4E507E" points="264.3,118.9 265.6,122.4 271.5,120.4 270.3,116.9 		"/>
		<polygon fill-rule="evenodd" clip-rule="evenodd" fill="#4E507E" points="253.7,123 255.1,126.5 260.9,124.2 259.6,120.7 		"/>
		<polygon fill-rule="evenodd" clip-rule="evenodd" fill="#4E507E" points="243.3,127.6 244.9,131 250.6,128.4 249.1,124.9 		"/>
	</g>
	<g>
		<g>
			<path fill="none" d="M304.3,111.6c0-2.7,0.2-5.3,0.7-7.9l-2.5-13.1c0,0-0.6,0.1-1.5,0.3c-1,0.2-2.4,0.4-4,0.8
				c-3.3,0.8-7.7,1.8-12.2,2.8c-4.4,1.2-8.7,2.5-12,3.4c-0.8,0.2-1.6,0.4-2.2,0.6c-0.7,0.2-1.2,0.4-1.7,0.6
				c-0.9,0.3-1.5,0.5-1.5,0.5l11.6,35.7c0,0,0.5-0.2,1.3-0.4c0.4-0.1,0.9-0.3,1.5-0.5c0.6-0.2,1.2-0.4,1.9-0.6
				c2.8-0.8,6.6-1.9,10.4-3c3.8-0.9,7.7-1.8,10.6-2.4c1-0.2,1.8-0.4,2.6-0.5C305.3,122.7,304.3,117.2,304.3,111.6z"/>
		</g>
		<path fill-rule="evenodd" clip-rule="evenodd" fill="#4E507E" d="M297,109.4l0.8,3.7c0,0,1.5-0.4,3-0.7c1.5-0.4,3.1-0.6,3.1-0.6
			l-0.7-3.7c0,0-1.6,0.3-3.1,0.6C298.6,109.1,297,109.4,297,109.4z"/>
		<path fill-rule="evenodd" clip-rule="evenodd" fill="#4E507E" d="M286,112.1l1,3.6c0,0,1.5-0.4,3-0.8c1.5-0.4,3-0.7,3-0.7
			l-0.9-3.6c0,0-1.5,0.4-3.1,0.7C287.5,111.7,286,112.1,286,112.1z"/>
		<path fill-rule="evenodd" clip-rule="evenodd" fill="#4E507E" d="M275.1,115.2l1.1,3.6c0,0,0.4-0.1,0.9-0.3
			c0.6-0.2,1.3-0.4,2.1-0.6c1.5-0.4,3-0.9,3-0.9l-1-3.6c0,0-1.5,0.4-3,0.9c-0.8,0.2-1.5,0.4-2.1,0.6
			C275.5,115.1,275.1,115.2,275.1,115.2z"/>
	</g>
	<g>
		<g>
			<path fill="none" d="M310,89.2c-0.7,0.1-1.3,0.2-1.9,0.3c-3.4,0.6-5.6,1-5.6,1l2.5,13.1C305.8,98.5,307.6,93.6,310,89.2z"/>
		</g>
	</g>
	<g>
		<g>
			<path fill="none" d="M474.5,110.5c-0.6-0.3-1.2-0.5-1.8-0.8c0.3,2.1,0.5,4.3,0.5,6.5c0,11.3-4.1,21.7-10.8,30
				c0.8,0.4,1.3,0.6,1.3,0.6l16-33.9C479.6,112.9,477.6,111.9,474.5,110.5z"/>
		</g>
	</g>
	<g>
		<g>
			<path fill="none" d="M463.6,146.8c0,0,0.5,0.2,1.2,0.6c0.8,0.3,1.9,0.9,3.2,1.6c1.3,0.7,2.9,1.5,4.5,2.3c0.8,0.4,1.7,0.9,2.5,1.3
				c0.4,0.2,0.9,0.4,1.3,0.7l1.3,0.7c3.4,2,6.8,3.9,9.4,5.4c2.5,1.6,4.2,2.7,4.2,2.7l20.1-31.6c0,0-1.9-1.2-4.8-3.1
				c-2.9-1.7-6.9-4-10.8-6.2l-1.5-0.8c-0.5-0.3-1-0.5-1.5-0.8c-1-0.5-2-1-2.9-1.5c-1.9-1-3.7-1.9-5.2-2.7c-1.5-0.8-2.8-1.4-3.7-1.8
				c-0.9-0.4-1.4-0.6-1.4-0.6L463.6,146.8z"/>
		</g>
		<path fill-rule="evenodd" clip-rule="evenodd" fill="#4E507E" d="M494.5,140.5l-1.9,3.2c0,0,1.4,0.8,2.7,1.6
			c1.3,0.8,2.6,1.7,2.6,1.7l2-3.2c0,0-1.3-0.9-2.7-1.7C495.9,141.2,494.5,140.5,494.5,140.5z"/>
		<path fill-rule="evenodd" clip-rule="evenodd" fill="#4E507E" d="M484.6,134.9l-1.8,3.3c0,0,1.4,0.7,2.7,1.5
			c1.4,0.8,2.7,1.6,2.7,1.6l1.8-3.3c0,0-1.4-0.8-2.7-1.6C486.1,135.6,484.6,134.9,484.6,134.9z"/>
		<polygon fill-rule="evenodd" clip-rule="evenodd" fill="#4E507E" points="474.6,129.7 472.9,133.1 478.5,135.9 480.2,132.6 		"/>
	</g>
	<g>
		<g>
			<path fill="none" d="M491.3,162c0,0,1.7,1.1,4.2,2.7c0.6,0.4,1.3,0.8,2,1.3c0.7,0.5,1.4,1,2.2,1.6c1.5,1.1,3.1,2.2,4.7,3.4
				c0.8,0.6,1.6,1.1,2.4,1.7c0.8,0.6,1.5,1.2,2.3,1.8c1.5,1.1,2.8,2.2,4,3.1c1.2,0.9,2.1,1.7,2.8,2.2c0.7,0.5,1.1,0.9,1.1,0.9
				l23.9-28.9c0,0-0.4-0.4-1.2-1c-0.8-0.6-1.9-1.5-3.2-2.5c-1.3-1.1-2.9-2.3-4.6-3.6c-0.8-0.7-1.7-1.3-2.6-2c-0.9-0.6-1.8-1.3-2.8-2
				c-1.8-1.3-3.7-2.6-5.4-3.9c-0.9-0.6-1.7-1.2-2.5-1.8c-0.8-0.6-1.6-1-2.3-1.5c-2.9-1.8-4.8-3.1-4.8-3.1L491.3,162z"/>
		</g>
		<polygon fill-rule="evenodd" clip-rule="evenodd" fill="#4E507E" points="522.7,159.6 520.4,162.6 525.3,166.4 527.7,163.5 		"/>
		<polygon fill-rule="evenodd" clip-rule="evenodd" fill="#4E507E" points="513.6,152.9 511.4,155.9 516.5,159.5 518.8,156.5 		"/>
		<path fill-rule="evenodd" clip-rule="evenodd" fill="#4E507E" d="M504.2,146.5l-2,3.1c0,0,1.3,0.8,2.6,1.7
			c1.3,0.8,2.6,1.7,2.6,1.7l2.1-3.1c0,0-1.3-0.9-2.6-1.8C505.6,147.3,504.2,146.5,504.2,146.5z"/>
	</g>
	<g>
		<g>
			<path fill="none" d="M516.9,180.6c0,0,1.5,1.3,3.7,3.2c2.2,1.9,5.3,4.5,8.1,7.3c2.8,2.7,5.8,5.4,7.8,7.6c2,2.1,3.4,3.6,3.4,3.6
				l27.3-25.7c0,0-1.6-1.6-3.9-4.1c-2.3-2.5-5.7-5.6-8.9-8.7c-3.2-3.2-6.7-6.1-9.3-8.3c-2.6-2.2-4.3-3.7-4.3-3.7L516.9,180.6z"/>
		</g>
		<path fill-rule="evenodd" clip-rule="evenodd" fill="#4E507E" d="M548.4,182.1l-2.6,2.7c0,0,0.3,0.3,0.7,0.7
			c0.4,0.4,0.9,1,1.5,1.6c1.1,1.1,2.2,2.3,2.2,2.3l2.7-2.6c0,0-1.1-1.1-2.2-2.3c-0.5-0.6-1.1-1.1-1.5-1.6
			C548.6,182.4,548.4,182.1,548.4,182.1z"/>
		<polygon fill-rule="evenodd" clip-rule="evenodd" fill="#4E507E" points="540.1,174.3 537.6,177 542.1,181.3 544.7,178.6 		"/>
		<polygon fill-rule="evenodd" clip-rule="evenodd" fill="#4E507E" points="531.6,166.8 529.2,169.7 533.9,173.8 536.4,170.9 		"/>
	</g>
	<g>
		<g>
			<path fill="none" d="M539.8,202.2c0,0,0.3,0.4,0.9,1c0.6,0.6,1.5,1.5,2.4,2.6c1.9,2.2,4.5,5.2,7.1,8.2c2.4,3.1,4.9,6.2,6.7,8.5
				c0.9,1.1,1.6,2.2,2.1,2.9c0.5,0.7,0.8,1.1,0.8,1.1l30.3-22.1c0,0-0.3-0.5-0.9-1.3c-0.6-0.8-1.4-2-2.5-3.3
				c-2.1-2.7-4.9-6.3-7.7-9.8c-3-3.4-5.9-6.9-8.2-9.4c-1.1-1.3-2.1-2.3-2.8-3c-0.7-0.7-1.1-1.1-1.1-1.1L539.8,202.2z"/>
		</g>
		<path fill-rule="evenodd" clip-rule="evenodd" fill="#4E507E" d="M570.9,207.7l-3,2.3c0,0,1,1.2,1.9,2.5c0.5,0.6,1,1.2,1.3,1.7
			c0.3,0.5,0.6,0.8,0.6,0.8l3-2.2c0,0-0.2-0.3-0.6-0.8c-0.4-0.5-0.9-1.1-1.3-1.7C571.9,208.9,570.9,207.7,570.9,207.7z"/>
		<path fill-rule="evenodd" clip-rule="evenodd" fill="#4E507E" d="M563.7,198.9l-2.9,2.4c0,0,1,1.2,2,2.4c0.5,0.6,1,1.2,1.3,1.7
			c0.4,0.5,0.6,0.8,0.6,0.8l2.9-2.4c0,0-0.2-0.3-0.6-0.8c-0.4-0.5-0.8-1.1-1.4-1.7C564.8,200.1,563.7,198.9,563.7,198.9z"/>
		<path fill-rule="evenodd" clip-rule="evenodd" fill="#4E507E" d="M556.3,190.4l-2.8,2.5c0,0,0.3,0.3,0.7,0.7
			c0.4,0.4,0.9,1,1.4,1.6c1,1.2,2,2.4,2,2.4l2.8-2.5c0,0-1-1.2-2.1-2.4c-0.5-0.6-1-1.2-1.5-1.6C556.5,190.7,556.3,190.4,556.3,190.4
			z"/>
	</g>
	<g>
		<g>
			<path fill="none" d="M560,226.6c0,0,1.1,1.6,2.9,4c0.4,0.6,0.9,1.3,1.4,1.9c0.5,0.7,1,1.4,1.5,2.2c1,1.6,2.1,3.2,3.1,4.9
				c1.1,1.7,2.2,3.3,3.1,4.9c0.9,1.6,1.8,3.1,2.5,4.4c1.5,2.6,2.5,4.3,2.5,4.3l32.8-18.1c0,0-1.1-2-2.8-4.9c-0.8-1.5-1.8-3.2-2.9-5
				c-1.1-1.8-2.4-3.7-3.6-5.6c-1.2-1.9-2.5-3.8-3.6-5.6c-0.6-0.9-1.2-1.7-1.7-2.5c-0.6-0.8-1.1-1.5-1.6-2.2c-2-2.8-3.3-4.6-3.3-4.6
				L560,226.6z"/>
		</g>
		<polygon fill-rule="evenodd" clip-rule="evenodd" fill="#4E507E" points="590.1,235.8 586.9,237.7 590,243.2 593.3,241.3 		"/>
		<polygon fill-rule="evenodd" clip-rule="evenodd" fill="#4E507E" points="584.1,226.2 581,228.3 584.3,233.5 587.5,231.5 		"/>
		<polygon fill-rule="evenodd" clip-rule="evenodd" fill="#4E507E" points="577.7,216.9 574.7,219 578.3,224.1 581.4,222 		"/>
	</g>
	<g>
		<g>
			<path fill="none" d="M579.3,257.6c0.7,1.3,1.5,2.9,2.3,4.5c0,0,0,0.1,0.1,0.1c8.4-7.3,19.3-11.7,31-11.7c1.7,0,3.4,0.1,5.1,0.3
				c-0.8-1.9-1.8-3.7-2.7-5.5c-1-1.9-1.9-3.7-2.7-5.2c-0.8-1.5-1.4-2.8-1.9-3.7c-0.5-0.9-0.8-1.4-0.8-1.4L577,253.2
				c0,0,0.2,0.4,0.7,1.2C578,255.1,578.6,256.2,579.3,257.6z"/>
		</g>
		<polygon fill-rule="evenodd" clip-rule="evenodd" fill="#4E507E" points="595.8,245.8 592.5,247.6 595.3,253.1 598.7,251.4 		"/>
	</g>
</g>
<g>
	<circle fill="#C8E2FC" cx="359.2" cy="370.4" r="108.7"/>
	<path fill="none" stroke="#34376B" stroke-width="2.5" stroke-linecap="round" stroke-miterlimit="10" d="M260.2,310.5
		c13-20.7,29.4-33.6,57.1-42.4c57.2-18.2,118.5,12.4,137.2,69.4c18.7,57.1-12.4,118.5-69.4,137.2c-57.1,18.7-118.5-12.4-137.2-69.4
		c-8.9-27-6.6-55,4.4-79"/>
</g>
<path fill="none" stroke="#B4CDE0" stroke-width="2.5" stroke-linecap="round" stroke-miterlimit="10" d="M221.9,464.8"/>
<g>
	
		<rect x="336" y="407.7" transform="matrix(1 7.697004e-003 -7.697004e-003 1 3.2104 -2.7241)" fill="#F3BA99" width="39" height="16.1"/>
	<g>
		
			<ellipse transform="matrix(-0.9999 -1.283053e-002 1.283053e-002 -0.9999 805.0203 715.6752)" fill="#F6D6B4" cx="404.8" cy="355.3" rx="10.1" ry="13.6"/>
	</g>
	<g>
		
			<ellipse transform="matrix(-0.9999 -1.283053e-002 1.283053e-002 -0.9999 620.2886 706.8702)" fill="#F6D6B4" cx="312.4" cy="351.4" rx="10.1" ry="13.6"/>
	</g>
	<g>
		<path fill="#F6D6B4" d="M345.4,412.1l22.3,0.3c20.1,0.3,36.6-16.7,36.8-37.9l0.4-32.7c0.3-21.2-15.8-38.6-35.9-38.8l-22.3-0.3
			c-20.1-0.3-36.6,16.7-36.8,37.9l-0.4,32.7C309.3,394.4,325.3,411.8,345.4,412.1z"/>
	</g>
	<g>
		<path fill="#F3BA99" d="M383.2,407.6c-0.1,0-0.1,0-0.2,0c-0.6,0.1-1.1,0.2-1.7,0.3c-0.1,0-0.2,0-0.3,0c-0.6,0.1-1.2,0.2-1.9,0.3
			c0,0,0,0-0.1,0c-0.7,0.1-1.3,0.1-2,0.2c-0.1,0-0.2,0-0.3,0c-0.5,0-1.1,0.1-1.6,0.1c-0.2,0-0.4,0-0.6,0c-0.5,0-0.9,0-1.4,0.1
			c-0.2,0-0.4,0-0.6,0c-0.6,0-1.3,0-1.9,0c-0.8,0-1.6,0-2.4-0.1c-0.2,0-0.3,0-0.5,0c-0.8,0-1.5-0.1-2.3-0.2c-0.1,0-0.2,0-0.4,0
			c-0.7-0.1-1.4-0.2-2.1-0.2c-0.1,0-0.3,0-0.4,0c-0.7-0.1-1.5-0.2-2.2-0.4c-0.2,0-0.3-0.1-0.5-0.1c-1.5-0.3-3-0.6-4.5-1
			c-0.2,0-0.3-0.1-0.5-0.1c-0.7-0.2-1.4-0.4-2.2-0.6c-0.1,0-0.2-0.1-0.3-0.1c-0.7-0.2-1.3-0.4-2-0.7c-0.1,0-0.2-0.1-0.3-0.1
			c-0.7-0.2-1.4-0.5-2.1-0.8c-0.1-0.1-0.3-0.1-0.4-0.2c-1.4-0.6-2.8-1.2-4.2-1.9c-0.1-0.1-0.3-0.1-0.4-0.2c-0.7-0.3-1.3-0.7-2-1
			c-0.1,0-0.2-0.1-0.2-0.1c-0.6-0.3-1.2-0.7-1.9-1.1c-0.1,0-0.2-0.1-0.2-0.1c-0.6-0.4-1.3-0.8-1.9-1.2c-0.1-0.1-0.2-0.1-0.3-0.2
			c-1.3-0.8-2.6-1.7-3.8-2.6c-0.1-0.1-0.2-0.1-0.3-0.2c-0.6-0.5-1.2-0.9-1.8-1.4c0,0-0.1-0.1-0.1-0.1c-0.6-0.5-1.1-1-1.7-1.5
			c-0.1,0-0.1-0.1-0.2-0.1c-0.6-0.5-1.1-1-1.7-1.6c-0.1-0.1-0.1-0.1-0.2-0.2c-1.1-1.1-2.2-2.2-3.3-3.4c-0.1-0.1-0.1-0.1-0.2-0.2
			c-0.5-0.6-1-1.2-1.5-1.8c0,0,0,0-0.1-0.1c-0.5-0.6-1-1.2-1.5-1.8c0,0-0.1-0.1-0.1-0.1c-0.5-0.6-1-1.3-1.4-1.9
			c0-0.1-0.1-0.1-0.1-0.2c-0.9-1.3-1.8-2.6-2.6-4c0-0.1-0.1-0.1-0.1-0.2c-0.4-0.7-0.8-1.4-1.2-2.1c0,0,0,0,0,0
			c-0.4-0.7-0.8-1.4-1.2-2.2c0,0,0,0,0-0.1c-0.4-0.7-0.7-1.4-1.1-2.2c0-0.1-0.1-0.1-0.1-0.2c-0.7-1.5-1.3-3-1.9-4.5
			c0-0.1,0-0.1-0.1-0.2c-0.3-0.8-0.5-1.5-0.8-2.3l-0.1,9.9c-0.3,21.2,15.8,38.6,35.9,38.8l22.3,0.3c7.1,0.1,13.8-2,19.4-5.6l0,0
			C385.8,407,384.5,407.3,383.2,407.6z"/>
	</g>
	
		<line fill="none" stroke="#F3BA99" stroke-width="3" stroke-linecap="round" stroke-miterlimit="10" x1="363" y1="366.2" x2="352.8" y2="366.1"/>
	<g>
		<path fill="#FFFFFF" d="M373,383.8c0,0.2,0,0.4,0,0.5c-0.1,7.7-6.8,13.9-15.1,13.8c-8.2-0.1-14.8-6.4-14.7-14.1c0-0.2,0-0.4,0-0.5
			L373,383.8z"/>
	</g>
	<g>
		<path fill="#CA8A6B" d="M404.5,373.3"/>
		<g>
			<path fill="none" stroke="#FFFFFF" stroke-width="0.2363" stroke-miterlimit="10" d="M404.5,373.3"/>
		</g>
	</g>
	<g>
		<path fill="#34376B" d="M381,352"/>
		<g>
			<path fill="#34376B" d="M381,354.5c3.2,0,3.2-5,0-5S377.7,354.5,381,354.5L381,354.5z"/>
		</g>
	</g>
	<g>
		<g>
			<path fill="#34376B" d="M333.2,353.3c3.2,0,3.2-5,0-5C329.9,348.3,329.9,353.3,333.2,353.3L333.2,353.3z"/>
		</g>
	</g>
	<path fill="none" stroke="#8A5D3B" stroke-width="3" stroke-linecap="round" stroke-miterlimit="10" d="M327.1,335.3
		c0,0,7.5-4.6,15.2,0.2"/>
	<path fill="none" stroke="#8A5D3B" stroke-width="3" stroke-linecap="round" stroke-miterlimit="10" d="M384.7,335
		c0,0-7.4-4.8-15.2-0.2"/>
	<path fill="#34376B" d="M430.2,426.6c-19.5-7.8-42.8-7.3-42.8-7.3s3.8-1.1-59.6-0.5c-23,0.2-38.3,4-48.5,8.6l0.2,9.2
		c17.5,23.2,45.4,38.2,76.7,38.2c31.3,0,56.1-14,73.6-37.1L430.2,426.6z"/>
	<path fill="#FFFFFF" d="M359.3,472.7l15.8-53.9c-7.7-0.2-19.9-0.6-39,0l15.1,53.8L359.3,472.7z"/>
	<polygon fill="#34376B" points="347.7,418.5 363.3,418.5 359.3,473.6 351,473.5 	"/>
	<path fill="#8A5D3B" d="M339.3,293c0,0-14.4-16.5-30.8,0c-16.3,16.5,1.8,51.2,1.8,51.2s9.4-30.3,25.7-31.4
		C352.4,311.6,339.3,293,339.3,293z"/>
	<path fill="#8A5D3B" d="M355.5,277.8c0,0-48.4,5.8-22,35.2c22,14.4,28.4-1.9,47.2,2.3c18.8,4.1,23.8,29,23.8,29
		S431.8,275.8,355.5,277.8z"/>
</g>
<g>
	<circle fill="#65D8F0" cx="96.7" cy="299.7" r="77.5"/>
	<path fill="none" stroke="#34376B" stroke-width="2.5" stroke-linecap="round" stroke-miterlimit="10" d="M29.1,251.4
		c6.9-7.9,14.3-14.7,26.3-21.7c37-21.6,84.8-5.2,104.6,32.8s5.2,84.8-32.8,104.6c-38,19.8-84.8,5.2-104.6-32.8
		c-11.8-22.6-11.4-48.5-1-69.8"/>
	<g>
		<path fill="#FFFFFF" d="M98.7,289c0.3-0.4,0.6-0.9,0.9-1.3c1.7-2.6,4-4.6,6.7-6.1c3.3-1.8,6.8-2.7,10.6-2.8
			c3.8-0.1,7.6,0.3,11.2,1.6c4.1,1.4,7.2,4,9.4,7.7c1.8,3,2.7,6.2,3.2,9.6c0.3,2.1,0.6,4.3,0.7,6.4c0.1,6.1,0.1,12.1,0.2,18.2
			c0,7,0,14,0,21c0,0.3,0,0.5,0,0.9c-0.3,0-0.6,0-0.9,0c-6.1,0-12.2,0-18.3,0c-0.9,0-0.9,0-0.9-0.9c0-11.1,0-22.2,0-33.3
			c0-2.9-0.3-5.8-1.5-8.5c-1.4-3.2-3.8-4.8-7.2-5.2c-2.3-0.2-4.6,0-6.8,0.9c-2.4,1-4,2.8-5.1,5.1c-1,2.3-1.5,4.8-1.5,7.3
			c-0.1,11.2-0.1,22.4-0.1,33.7c0,1.1,0.1,1-1,1c-6,0-12.1,0-18.1,0c-0.9,0-0.9,0-0.9-0.8c0-20.8,0-41.5,0-62.3c0-0.9,0-0.9,0.9-0.9
			c5.8,0,11.6,0,17.4,0c0.9,0,0.9,0,0.9,0.9c0,2.4,0,4.8,0,7.2c0,0.2,0,0.4,0,0.7C98.6,289,98.7,289,98.7,289z"/>
		<path fill="#FFFFFF" d="M47.1,344.3c0-0.3,0-0.6,0-0.8c0-20.8,0-41.5,0-62.3c0-0.9,0-0.9,0.9-0.9c6,0,12.1,0,18.1,0c0.9,0,1,0,1,1
			c0,20.7,0,41.4,0,62.2c0,0.9,0,0.9-0.9,0.9c-6.1,0-12.1,0-18.2,0C47.7,344.3,47.5,344.3,47.1,344.3z"/>
		<path fill="#FFFFFF" d="M45.5,260c-0.1-6.3,5.3-11.6,11.7-11.5c6.3,0.1,11.5,5.1,11.5,11.6c0,6.5-5,11.6-11.7,11.6
			C50.5,271.7,45.5,266.5,45.5,260z"/>
		<path fill="none" stroke="#34376B" stroke-width="2.5" stroke-linecap="round" stroke-miterlimit="10" d="M101.4,288.2
			c0.3-0.4,0.6-0.9,0.9-1.3c1.7-2.6,4-4.6,6.7-6.1c3.3-1.8,6.8-2.7,10.6-2.8c3.8-0.1,7.6,0.3,11.2,1.6c4.1,1.4,7.2,4,9.4,7.7
			c1.8,3,2.7,6.2,3.2,9.6c0.3,2.1,0.6,4.3,0.7,6.4c0.1,6.1,0.1,12.1,0.2,18.2c0,7,0,14,0,21c0,0.3,0,0.5,0,0.9c-0.3,0-0.6,0-0.9,0
			c-6.1,0-12.2,0-18.3,0c-0.9,0-0.9,0-0.9-0.9c0-11.1,0-22.2,0-33.3c0-2.9-0.3-5.8-1.5-8.5c-1.4-3.2-3.8-4.8-7.2-5.2
			c-2.3-0.2-4.6,0-6.8,0.9c-2.4,1-4,2.8-5.1,5.1c-1,2.3-1.5,4.8-1.5,7.3c-0.1,11.2-0.1,22.4-0.1,33.7c0,1.1,0.1,1-1,1
			c-6,0-12.1,0-18.1,0c-0.9,0-0.9,0-0.9-0.8c0-20.8,0-41.5,0-62.3c0-0.9,0-0.9,0.9-0.9c5.8,0,11.6,0,17.4,0c0.9,0,0.9,0,0.9,0.9
			c0,2.4,0,4.8,0,7.2c0,0.2,0,0.4,0,0.7C101.3,288.1,101.3,288.2,101.4,288.2z"/>
		<path fill="none" stroke="#34376B" stroke-width="2.5" stroke-linecap="round" stroke-miterlimit="10" d="M49.8,343.4
			c0-0.3,0-0.6,0-0.8c0-20.8,0-41.5,0-62.3c0-0.9,0-0.9,0.9-0.9c6,0,12.1,0,18.1,0c0.9,0,1,0,1,1c0,20.7,0,41.4,0,62.2
			c0,0.9,0,0.9-0.9,0.9c-6.1,0-12.1,0-18.2,0C50.3,343.4,50.1,343.4,49.8,343.4z"/>
		<path fill="none" stroke="#34376B" stroke-width="2.5" stroke-linecap="round" stroke-miterlimit="10" d="M48.2,259.2
			c-0.1-6.3,5.3-11.6,11.7-11.5c6.3,0.1,11.5,5.1,11.5,11.6c0,6.5-5,11.6-11.7,11.6C53.2,270.9,48.1,265.6,48.2,259.2z"/>
	</g>
</g>
<g>
	<circle fill="#4960C1" cx="611.8" cy="338.9" r="77.5"/>
	<path fill="none" stroke="#34376B" stroke-width="2.5" stroke-linecap="round" stroke-miterlimit="10" d="M544.2,290.6
		c6.9-7.9,14.3-14.7,26.3-21.7c37-21.6,84.8-5.2,104.6,32.8s5.2,84.8-32.8,104.6c-38,19.8-84.8,5.2-104.6-32.8
		c-11.8-22.6-11.4-48.5-1-69.8"/>
	<g>
		<path fill="#FFFFFF" d="M560.9,300.5c4.3,3.7,8,7.3,12.1,10.4c5.8,4.5,12.2,8.3,19.5,10c4.3,1,8.7,1.8,13,2.7
			c1.8,0.4,2.5-0.2,2.3-2.1c-1.5-11.1,3.9-18.4,13.4-23c6.7-3.3,18.9-3.5,24.9,3.4c1.5,1.7,3,1.7,5,0.9c3.3-1.4,6.6-2.5,10.4-3.9
			c-0.2,5.1-3.9,7.4-6.8,11.4c2.2-0.3,3.8-0.5,5.3-0.8c0.6-0.1,1.2-0.6,1.9-0.7c0.7-0.1,1.4,0.1,2.1,0.2c-0.2,0.7-0.1,1.6-0.6,2.1
			c-2,2.2-4.3,4.3-6.2,6.6c-0.9,1-1.6,2.3-1.8,3.6c-0.9,5.4-1.1,10.9-2.3,16.2c-1.6,7.1-4.3,13.9-8.2,20.1
			c-5.5,8.8-12.5,16.2-21.6,21c-4.9,2.6-10.2,4.4-15.5,6.2c-6.6,2.3-13.4,2.7-20.4,2.6c-6.5-0.1-12.6-1.2-18.6-3.8
			c-3.3-1.4-6.6-2.8-9.8-4.3c-0.9-0.4-1.6-1.1-2.3-2.1c11.4,0.4,21.8-2.2,31.3-9.3c-2.6-0.7-4.6-1.2-6.7-1.8
			c-6.5-2-10.5-6.6-13.4-12.5c-0.8-1.6-0.3-2.4,1.6-2.3c1.5,0.1,3,0,4.5,0c0-0.2,0-0.5,0-0.7c-2-1.1-4.1-2.2-6-3.4
			c-4.6-3-7.3-7.2-8.4-12.6c-0.3-1.4-0.8-2.7-1-4.1c-0.3-1.7,0.4-2.1,2-1.4c1.6,0.6,3.3,0.9,5.2,1c-6-7.3-8.5-15.3-6.9-24.4
			C559.1,304.1,560.1,302.3,560.9,300.5z"/>
		<path fill="none" stroke="#34376B" stroke-width="2.5" stroke-linecap="round" stroke-miterlimit="10" d="M563.5,299.6
			c4.3,3.7,8,7.3,12.1,10.4c5.8,4.5,12.2,8.3,19.5,10c4.3,1,8.7,1.8,13,2.7c1.8,0.4,2.5-0.2,2.3-2.1c-1.5-11.1,3.9-18.4,13.4-23
			c6.7-3.3,18.9-3.5,24.9,3.4c1.5,1.7,3,1.7,5,0.9c3.3-1.4,6.6-2.5,10.4-3.9c-0.2,5.1-3.9,7.4-6.8,11.4c2.2-0.3,3.8-0.5,5.3-0.8
			c0.6-0.1,1.2-0.6,1.9-0.7c0.7-0.1,1.4,0.1,2.1,0.2c-0.2,0.7-0.1,1.6-0.6,2.1c-2,2.2-4.3,4.3-6.2,6.6c-0.9,1-1.6,2.3-1.8,3.6
			c-0.9,5.4-1.1,10.9-2.3,16.2c-1.6,7.1-4.3,13.9-8.2,20.1c-5.5,8.8-12.5,16.2-21.6,21c-4.9,2.6-10.2,4.4-15.5,6.2
			c-6.6,2.3-13.4,2.7-20.4,2.6c-6.5-0.1-12.6-1.2-18.6-3.8c-3.3-1.4-6.6-2.8-9.8-4.3c-0.9-0.4-1.6-1.1-2.3-2.1
			c11.4,0.4,21.8-2.2,31.3-9.3c-2.6-0.7-4.6-1.2-6.7-1.8c-6.5-2-10.5-6.6-13.4-12.5c-0.8-1.6-0.3-2.4,1.6-2.3c1.5,0.1,3,0,4.5,0
			c0-0.2,0-0.5,0-0.7c-2-1.1-4.1-2.2-6-3.4c-4.6-3-7.3-7.2-8.4-12.6c-0.3-1.4-0.8-2.7-1-4.1c-0.3-1.7,0.4-2.1,2-1.4
			c1.6,0.6,3.3,0.9,5.2,1c-6-7.3-8.5-15.3-6.9-24.4C561.7,303.2,562.8,301.5,563.5,299.6z"/>
	</g>
</g>
<path fill="none" stroke="#B4CDE0" stroke-width="2.5" stroke-linecap="round" stroke-miterlimit="10" d="M94,464.8"/>
<g>
	<circle fill="#6CDDB5" cx="206.7" cy="587.9" r="77.5"/>
	<path fill="none" stroke="#34376B" stroke-width="2.5" stroke-linecap="round" stroke-miterlimit="10" d="M139.1,539.5
		c6.9-7.9,14.3-14.7,26.3-21.7c37-21.6,84.8-5.2,104.6,32.8c19.8,38,5.2,84.8-32.8,104.6c-38,19.8-84.8,5.2-104.6-32.8
		c-11.8-22.6-11.4-48.5-1-69.8"/>
	<path fill="#FFFFFF" d="M202.5,535.1c2,0.3,4,0.6,5.9,1c5.2,1.2,10,3.5,14.2,6.9c4.4,3.5,7.7,7.7,10.2,12.7
		c3.1,6.5,3.9,13.4,3.3,20.5c-0.7,8.1-2.8,15.8-5.6,23.3c-2.5,6.7-5.5,13.2-9.1,19.5c-2.8,5-5.7,10-8.9,14.8
		c-3.7,5.5-7.7,10.8-11.6,16.2c-0.2,0.3-0.4,0.5-0.8,0.9c-0.9-1.1-1.8-2.2-2.6-3.3c-3.2-4.4-6.5-8.7-9.4-13.2
		c-3.1-4.8-6-9.7-8.8-14.6c-4.4-7.8-8.1-15.9-11-24.4c-2.1-6.4-3.7-12.9-4.2-19.7c-0.5-6.4,0.1-12.6,2.7-18.5c2.1-5,5.3-9.4,9.4-13
		c6-5.3,13.1-8.2,21-9c0.2,0,0.4-0.1,0.5-0.1C199.2,535.1,200.8,535.1,202.5,535.1z M200,549.6c-11.9,0-21.7,9.8-21.7,21.7
		c0,12,9.7,21.7,21.7,21.7c12,0,21.7-9.7,21.7-21.7C221.8,559.3,212,549.6,200,549.6z"/>
	<path fill="none" stroke="#34376B" stroke-width="2.5" stroke-linecap="round" stroke-miterlimit="10" d="M206.5,534.1
		c2,0.3,4,0.6,5.9,1c5.2,1.2,10,3.5,14.2,6.9c4.4,3.5,7.7,7.7,10.2,12.7c3.1,6.5,3.9,13.4,3.3,20.5c-0.7,8.1-2.8,15.8-5.6,23.3
		c-2.5,6.7-5.5,13.2-9.1,19.5c-2.8,5-5.7,10-8.9,14.8c-3.7,5.5-7.7,10.8-11.6,16.2c-0.2,0.3-0.4,0.5-0.8,0.9
		c-0.9-1.1-1.8-2.2-2.6-3.3c-3.2-4.4-6.5-8.7-9.4-13.2c-3.1-4.8-6-9.7-8.8-14.6c-4.4-7.8-8.1-15.9-11-24.4
		c-2.1-6.4-3.7-12.9-4.2-19.7c-0.5-6.4,0.1-12.6,2.7-18.5c2.1-5,5.3-9.4,9.4-13c6-5.3,13.1-8.2,21-9c0.2,0,0.4-0.1,0.5-0.1
		C203.2,534.1,204.9,534.1,206.5,534.1z M204,548.6c-11.9,0-21.7,9.8-21.7,21.7c0,12,9.7,21.7,21.7,21.7c12,0,21.7-9.7,21.7-21.7
		C225.8,558.3,216,548.6,204,548.6z"/>
</g>
<g>
	<circle fill="#FEDB7D" cx="515.6" cy="584.1" r="77.5"/>
	<path fill="none" stroke="#34376B" stroke-width="2.5" stroke-linecap="round" stroke-miterlimit="10" d="M448.1,535.8
		c6.9-7.9,14.3-14.7,26.3-21.7c37-21.6,84.8-5.2,104.6,32.8c19.8,38,5.2,84.8-32.8,104.6c-38,19.8-84.8,5.2-104.6-32.8
		c-11.8-22.6-11.4-48.5-1-69.8"/>
	<path fill="#FFFFFF" d="M456.7,612.5l-9.7-42.8c-1.8-8.1,5.7-16.7,16.7-19.2L532,535c11-2.5,21.5,2.1,23.3,10.1l11.6,51.3
		c1.8,8.1-5.7,16.7-16.7,19.2L482,631.1c-11,2.5-21.5-2.1-23.3-10.1L456.7,612.5"/>
	<path fill="none" stroke="#34376B" stroke-width="2.5" stroke-linecap="round" stroke-miterlimit="10" d="M460.6,610.1l-9.7-42.8
		c-1.8-8.1,5.7-16.7,16.7-19.2l68.3-15.4c11-2.5,21.5,2.1,23.3,10.1l11.6,51.3c1.8,8.1-5.7,16.7-16.7,19.2l-68.3,15.4
		c-11,2.5-21.5-2.1-23.3-10.1L460.6,610.1"/>
	<polyline fill="none" stroke="#34376B" stroke-width="2.5" stroke-linecap="round" stroke-miterlimit="10" points="467.7,568.4 
		511.6,584.3 544.3,551 	"/>
	
		<line fill="none" stroke="#34376B" stroke-width="2.5" stroke-linecap="round" stroke-miterlimit="10" x1="497.8" y1="580" x2="479.2" y2="604.9"/>
	
		<line fill="none" stroke="#34376B" stroke-width="2.5" stroke-linecap="round" stroke-miterlimit="10" x1="525.3" y1="573.8" x2="552.3" y2="586.3"/>
</g>
<g>
	<circle fill="#F4888E" cx="391.8" cy="125.2" r="77.5"/>
	<path fill="none" stroke="#34376B" stroke-width="2.5" stroke-linecap="round" stroke-miterlimit="10" d="M324.2,76.8
		c6.9-7.9,14.3-14.7,26.3-21.7c37-21.6,84.8-5.2,104.6,32.8c19.8,38,5.2,84.8-32.8,104.6s-84.8,5.2-104.6-32.8
		c-11.8-22.6-11.4-48.5-1-69.8"/>
	<path fill="#FFFFFF" d="M393,93.5l-11.7-22.3c0,0-18.9,4.1-33.1,17.3c-14.2,13.2,10.8,57.2,10.8,57.2c10,19.3,22.6,28.8,34.4,29.3
		c11.8,0.5,33.1-17.3,33.1-17.3l-13.4-25.6l-23.1,12.1l-20.2-38.6L393,93.5z"/>
	<path fill="none" stroke="#34376B" stroke-width="2.5" stroke-linecap="round" stroke-miterlimit="10" d="M395.7,92.2L384,69.9
		c0,0-18.9,4.1-33.1,17.3c-14.2,13.2,10.8,57.2,10.8,57.2c10,19.3,22.6,28.8,34.4,29.3c11.8,0.5,33.1-17.3,33.1-17.3l-13.4-25.6
		l-23.1,12.1l-20.2-38.6L395.7,92.2z"/>
</g>
<line fill="none" stroke="#34376B" stroke-width="2.5" stroke-linecap="round" stroke-miterlimit="10" x1="189.9" y1="312.3" x2="236.8" y2="326.9"/>
<line fill="none" stroke="#34376B" stroke-width="2.5" stroke-linecap="round" stroke-miterlimit="10" x1="374.7" y1="211.3" x2="369.5" y2="249.4"/>
<line fill="none" stroke="#34376B" stroke-width="2.5" stroke-linecap="round" stroke-miterlimit="10" x1="476.6" y1="344.3" x2="518.3" y2="344.3"/>
<line fill="none" stroke="#34376B" stroke-width="2.5" stroke-linecap="round" stroke-miterlimit="10" x1="426.4" y1="475.1" x2="456.5" y2="510.5"/>
<line fill="none" stroke="#34376B" stroke-width="2.5" stroke-linecap="round" stroke-miterlimit="10" x1="247" y1="510.3" x2="275.1" y2="480.7"/>
</svg>
