<?xml version="1.0" encoding="UTF-8" standalone="no"?>
<svg width="720px" height="610px" viewBox="0 0 720 610" version="1.1" xmlns="http://www.w3.org/2000/svg" xmlns:xlink="http://www.w3.org/1999/xlink">
    <!-- Generator: Sketch 40.2 (33826) - http://www.bohemiancoding.com/sketch -->
    <title>1.3</title>
    <desc>Created with Sketch.</desc>
    <defs></defs>
    <g id="Page-1" stroke="none" stroke-width="1" fill="none" fill-rule="evenodd">
        <g id="1.3" transform="translate(2.000000, 1.000000)">
            <rect id="Rectangle-path" fill="#C8E2FC" x="117.3" y="415.5" width="99.5" height="61.4"></rect>
            <polyline id="Shape" stroke="#34376B" stroke-width="2.5" points="112.4 425 112.4 479.3 211.9 479.3 211.9 427.1"></polyline>
            <polygon id="Shape" fill="#34376B" points="244 431.9 248.1 419.9 280.4 426.2 276.3 438.2"></polygon>
            <polygon id="Shape" fill="#34376B" points="231 453.9 222.6 446.4 247.6 419.8 256 427.3"></polygon>
            <polygon id="Shape" fill="#34376B" points="255.7 465.4 264.7 471.3 285.3 443.8 276.3 437.9"></polygon>
            <polygon id="Shape" fill="#34376B" points="234.5 459.1 232 470.6 263.7 472.5 266.2 461"></polygon>
            <g id="shoulder_4_" transform="translate(351.000000, 243.000000)">
                <rect id="Rectangle-path" fill="#B4CDE0" transform="translate(41.542035, 103.770985) rotate(28.392338) translate(-41.542035, -103.770985) " x="21.1923164" y="54.5716654" width="40.6994371" height="98.3986391"></rect>
                <path d="M105.1,90.5 C108.4,87.2 111.2,83.4 113.5,79.1 C127,54.2 117.6,23.1 92.5,9.5 C67.4,-4.1 36.3,5.2 22.8,30.1 C20.5,34.4 18.9,38.9 17.9,43.4 L105.1,90.5 L105.1,90.5 Z" id="Shape" fill="#D3E5F5"></path>
                <path d="M14.8,40.3 C14.8,40.3 27,-5.9 67.5,0.9 C108,7.8 125.5,41.5 118.6,64.7 C111.7,87.9 107.3,89.8 107.3,89.8 L18.1,42.5" id="Shape" stroke="#34376B" stroke-width="2.5"></path>
            </g>
            <g id="forearm_4_" transform="translate(263.000000, 373.000000)">
                <path d="M148.2,11.9 C135.7,15.5 131.9,16.2 119.3,14.3 C110.8,13 100.2,8.6 90.3,5.3 C90.3,5.3 76.5,1.8 69.1,4 C63.6,6.1 58.1,8.5 52.5,11.2 C30.6,21.6 12.3,34.3 0.3,46.5 L20.7,89.3 C37.7,87.7 59.1,81.5 81,71.1 C118.1,53.3 144.9,29.1 148.2,11.9 L148.2,11.9 Z" id="Shape" fill="#D3E5F5"></path>
                <path d="M10.9,69 L20.5,89.2 C37.5,87.6 58.9,81.4 80.8,71 C87.7,67.7 94.2,64.2 100.3,60.6 C72.4,75.6 40,77.9 10.9,69 L10.9,69 Z" id="Shape" fill="#B4CDE0"></path>
                <path d="M2.8,45.3 C2.8,45.3 25.7,16.2 70.6,2.1 C98.9,-2.2 103.5,3.6 113.8,8.9 C125.2,14.7 152.2,10.2 152.2,10.2 C152.2,10.2 134.1,71.7 24.9,91.5 L4,48" id="Shape" stroke="#34376B" stroke-width="2.5"></path>
            </g>
            <g id="wheel_l_2_" transform="translate(309.000000, 522.000000)" fill="#D3E5F5">
                <path d="M81.1,28 C71.6,11.3 57.1,0.7 40.9,0.7 C24.7,0.7 10.2,11.3 0.7,28 L81.1,28 L81.1,28 Z" id="Shape"></path>
            </g>
            <g id="wheel_l_1_" transform="translate(309.000000, 522.000000)" stroke="#34376B" stroke-width="2.5">
                <path d="M81.1,28 C71.6,11.3 57.1,0.7 40.9,0.7 C24.7,0.7 10.2,11.3 0.7,28 L81.1,28 L81.1,28 Z" id="Shape"></path>
            </g>
            <g id="head_1_" transform="translate(409.000000, 87.000000)">
                <circle id="Oval" fill="#D3E5F5" cx="104.3" cy="108.7" r="103.7"></circle>
                <path d="M10.7,104.9 C10.7,75.1 22.3,47.5 41.1,26.6 C16.6,45.6 0.7,75.3 0.7,108.7 C0.7,153.3 28.8,191.3 68.3,205.9 C34,185.1 10.7,147.3 10.7,104.9 L10.7,104.9 Z" id="Shape" fill="#B4CDE0"></path>
                <path d="M68.4,143.6 C86.6,146 114.2,145.7 128.7,144.6 C161.9,142 193.6,137.2 204.8,134.2 C206.9,126 208,117.5 208,108.7 C208,96.9 206,85.5 202.4,75 C170.6,83.9 137.6,88.5 104.2,88.5 C70.9,88.5 38,83.9 6.4,75.1 C2.8,85.6 0.8,96.9 0.8,108.7 C0.8,116 1.6,123 3,129.9 C10.6,133.4 55.2,141.9 68.4,143.6 L68.4,143.6 Z" id="Shape" fill="#FFFFFF"></path>
                <circle id="Oval" fill="#65D8F0" cx="77.2" cy="115.4" r="25.8"></circle>
                <circle id="Oval" stroke="#34376B" stroke-width="2.5" cx="72.9" cy="115.4" r="25.8"></circle>
                <path d="M14.2,54.4 C34.3,14.3 79.9,-4.9 124.2,2.3 C161.3,8.3 191.3,33.5 204,66.9" id="Shape" stroke="#34376B" stroke-width="2.5"></path>
                <path d="M68.4,143.6 C86.6,146 114.2,145.7 128.7,144.6 C161.9,142 193.6,137.2 204.8,134.2 C206.9,126 208,117.5 208,108.7 C208,96.9 206,85.5 202.4,75 C170.6,83.9 137.6,88.5 104.2,88.5 C70.9,88.5 38,83.9 6.4,75.1 C2.8,85.6 0.8,96.9 0.8,108.7 C0.8,116 1.6,123 3,129.9 C10.6,133.4 55.2,141.9 68.4,143.6 L68.4,143.6 Z" id="Shape" stroke="#34376B" stroke-width="2.5"></path>
            </g>
            <g id="body_1_" transform="translate(387.000000, 245.000000)">
                <rect id="Rectangle-path" fill="#B4CDE0" x="37.5" y="188.7" width="159.9" height="47.9"></rect>
                <path d="M237.5,262.4 C224.1,240.8 199.3,226.3 171,226.3 L67.2,226.3 C38.8,226.3 14,240.8 0.7,262.4 L237.5,262.4 L237.5,262.4 Z" id="Shape" fill="#D3E5F5"></path>
                <path d="M237.5,262.4 C224.1,240.8 199.3,226.3 171,226.3 L67.2,226.3 C38.8,226.3 14,240.8 0.7,262.4 L237.5,262.4 L237.5,262.4 Z" id="Shape" stroke="#34376B" stroke-width="2.5"></path>
                <path d="M196.4,0.5 C169.8,8 142.1,12 114.2,12 C88.2,12 62.6,8.6 37.7,2.1 C17.6,33.5 5.1,76.7 5.1,124.4 C5.1,149.9 8.7,174.1 15,195.9 L142.9,195.9 L142.9,215.1 L213.5,215.1 C224,188.7 230,157.7 230,124.5 C230,75.9 217.1,32.1 196.4,0.5 L196.4,0.5 Z" id="Shape" fill="#D3E5F5"></path>
                <path d="M14.1,192.7 C14.1,192.7 -13.9,66.4 43.1,0.6 C43.1,0.6 113.2,18.5 188.4,0.6" id="Shape" stroke="#34376B" stroke-width="2.5"></path>
                <path d="M198.3,6.7 C198.3,6.7 255.1,119.8 208.8,212.1 L142.9,212.7 L142.9,192.7 L21.8,192.7" id="Shape" stroke="#34376B" stroke-width="2.5"></path>
                <ellipse id="Oval" fill="#6CDDB5" transform="translate(67.991160, 85.621140) rotate(8.157652) translate(-67.991160, -85.621140) " cx="67.99116" cy="85.62114" rx="22.5004232" ry="36.2006809"></ellipse>
                <ellipse id="Oval" stroke="#34376B" stroke-width="2.50004702" transform="translate(62.287890, 84.219750) rotate(8.157652) translate(-62.287890, -84.219750) " cx="62.28789" cy="84.21975" rx="22.5004232" ry="36.2006809"></ellipse>
            </g>
            <g id="wheel_r_1_" transform="translate(437.000000, 521.000000)">
                <g id="Group">
                    <path d="M81.6,29 C72.1,11.8 57.4,0.8 40.9,0.8 C24.4,0.8 9.7,11.8 0.2,29 L81.6,29 L81.6,29 Z" id="Shape" fill="#D3E5F5"></path>
                    <path d="M3.2,29 C8,20.4 14.3,12.6 21.6,6.1 C13.1,10.9 5.7,18.9 0.1,29 L3.2,29 L3.2,29 Z" id="Shape" fill="#B4CDE0"></path>
                    <path d="M81.6,29 C72.1,11.8 57.4,0.8 40.9,0.8 C24.4,0.8 9.7,11.8 0.2,29 L81.6,29 L81.6,29 Z" id="Shape" stroke="#34376B" stroke-width="2.5"></path>
                </g>
            </g>
            <g id="PALM_3_" transform="translate(466.000000, 304.000000)" fill="#34376B">
                <g id="Group" transform="translate(11.000000, 0.000000)">
                    <polygon id="Shape" points="25.4 6.1 37 0.9 54.4 28.9 42.8 34"></polygon>
                    <polygon id="Shape" points="0.4 11.5 0.2 0.2 36.7 0.5 36.9 11.8"></polygon>
                </g>
                <g id="Group" transform="translate(0.000000, 20.000000)">
                    <polygon id="Shape" points="20.1 21.8 22 33 58.2 29.2 56.3 18"></polygon>
                    <polygon id="Shape" points="10.8 0.8 0.1 7.2 21.4 33.1 32.1 26.7"></polygon>
                </g>
            </g>
            <g id="shoulder_3_" transform="translate(564.000000, 235.000000)">
                <rect id="Rectangle-path" fill="#B5CEE2" x="31.8" y="59.5" width="40.7" height="98.4"></rect>
                <path d="M101.7,66.9 C103,62.4 103.7,57.7 103.7,52.8 C103.7,24.5 80.6,1.6 52.2,1.6 C23.8,1.6 0.7,24.5 0.7,52.8 C0.7,57.7 1.4,62.4 2.7,66.9 L101.7,66.9 L101.7,66.9 Z" id="Shape" fill="#D3E5F5"></path>
                <path d="M52.2,1.6 C41.9,1.6 32.3,4.6 24.3,9.8 C31.2,6.1 39,4.1 47.2,4.1 C74.3,4.1 97,26.7 97,53.9 C97,58.4 96.4,62.8 95.2,67 L101.8,67 C103.1,62.5 103.8,57.8 103.8,52.9 C103.7,24.5 80.6,1.6 52.2,1.6 L52.2,1.6 Z" id="Shape" fill="#B4CDE0"></path>
                <path d="M1.8,64.5 C1.8,64.5 -9.3,18 29.7,4.9 C68.7,-8.2 100,13.4 104.8,37 C109.7,60.7 106.7,64.5 106.7,64.5 L5.7,64.9" id="Shape" stroke="#34376B" stroke-width="2.5"></path>
            </g>
            <g id="forearm_3_" transform="translate(507.000000, 314.000000)">
                <path d="M143.6,86.6 C132.4,79.8 129.3,77.5 122.2,67.1 C117.3,60 113.3,49.2 109.1,39.7 C109.1,39.7 102.3,27.3 95.6,23.2 C90.3,20.6 84.8,18.2 79,15.9 C56.5,6.9 34.7,2.1 17.6,1.6 L0.1,45.7 C12.9,57.1 32,68.5 54.5,77.5 C92.8,92.7 128.8,95.9 143.6,86.6 L143.6,86.6 Z" id="Shape" fill="#D3E5F5"></path>
                <path d="M38.5,70.3 C37.6,69.9 36.7,69.5 35.9,69.1 C41.8,72.1 48,74.9 54.6,77.5 C92.9,92.7 128.9,95.9 143.7,86.7 C134.6,81.2 130.8,78.6 125.8,72.1 C98.2,82.3 67,82.5 38.5,70.3 L38.5,70.3 Z" id="Shape" fill="#B4CDE0"></path>
                <path d="M21.9,1 C21.9,1 58.8,-1.7 99.5,21.9 C121.8,39.9 120.6,47.2 123.6,58.3 C127,70.6 148.5,87.5 148.5,87.5 C148.5,87.5 90.9,115.6 2.6,48.4 L20.6,3.6" id="Shape" stroke="#34376B" stroke-width="2.5"></path>
            </g>
            <rect id="Rectangle-path" fill="#FEDB7D" x="41.1" y="514.4" width="642.5" height="40.2"></rect>
            <rect id="Rectangle-path" fill="#FEDB7D" x="5.3" y="472.6" width="711.9" height="41.7"></rect>
            <rect id="Rectangle-path" stroke="#34376B" stroke-width="2.5" x="0.2" y="472.6" width="711.9" height="41.7"></rect>
            <rect id="Rectangle-path" fill="#C8E2FC" x="15.7" y="231.2" width="313.3" height="184.3"></rect>
            <path d="M32.5,401.3 C35.7,401.3 35.7,396.3 32.5,396.3 C29.3,396.3 29.3,401.3 32.5,401.3 L32.5,401.3 L32.5,401.3 Z" id="Shape" fill="#34376B"></path>
            <path d="M52.3,401.3 C55.5,401.3 55.5,396.3 52.3,396.3 C49.1,396.3 49,401.3 52.3,401.3 L52.3,401.3 L52.3,401.3 Z" id="Shape" fill="#34376B"></path>
            <path d="M73.4,401.3 C76.6,401.3 76.6,396.3 73.4,396.3 C70.2,396.3 70.2,401.3 73.4,401.3 L73.4,401.3 L73.4,401.3 Z" id="Shape" fill="#34376B"></path>
            <g id="Group" transform="translate(138.000000, 278.000000)" stroke="#34376B" stroke-width="2.5" fill="#E8F2FB">
                <path d="M56.4,24.9 C45.7,31 46.3,47.9 58.6,53.4 C57.3,56.1 56.1,58.9 54.7,61.5 C52.9,64.7 50.7,67.6 47.9,70 C45.8,71.8 43.4,72.4 40.7,71.7 C38.4,71 36.1,70.4 33.9,69.7 C31.6,69 29.3,69.1 27,69.8 C25,70.4 22.9,71 20.9,71.7 C18.6,72.5 16.4,72.1 14.5,70.6 C12.8,69.2 11.3,67.7 9.9,66 C4.8,59.7 1.8,52.5 0.6,44.5 C-0.1,39.6 -4.15778523e-14,34.7 1.8,30.1 C4.1,24.4 7.8,20.1 14,18.5 C17.3,17.6 20.4,18.2 23.5,19.2 C25,19.7 26.5,20.1 28,20.7 C29.3,21.3 30.5,21 31.8,20.6 C35,19.7 38.1,18.6 41.3,18 C46.8,16.9 53.9,20.3 56.4,24.9 L56.4,24.9 Z" id="Shape"></path>
                <path d="M43.4,0.8 C44.7,8.4 36.6,18.3 29.6,16.8 C27.8,10.2 36.4,0.2 43.4,0.8 L43.4,0.8 Z" id="Shape"></path>
            </g>
            <polyline id="Shape" stroke="#34376B" stroke-width="2.5" points="10.8 417.9 10.8 233.7 324.1 233.7"></polyline>
            <polyline id="Shape" stroke="#34376B" stroke-width="2.5" points="324.1 242.4 324.1 417.9 15.2 417.9"></polyline>
            <path d="M73.4,398.8 C81.4,421.2 85.3,446.4 83.3,470.1 C82.3,481.3 79.6,492.4 75,502.8 C61,534.1 10.7,556.2 5.3,608.7" id="Shape" stroke="#34376B" stroke-width="2.5"></path>
            <path d="M37,514.4 L37,549" id="Shape" stroke="#34376B" stroke-width="2.5"></path>
            <path d="M678.5,516.3 L678.5,552.3" id="Shape" stroke="#34376B" stroke-width="2.5"></path>
            <polygon id="Shape" fill="#8CEDEA" points="387.2 0.3 387.2 55.7 413.1 109 387.2 99.7 387.2 158.5 236.3 158.5 236.3 0.3"></polygon>
            <polyline id="Shape" stroke="#34376B" stroke-width="2.5" points="233 8.7 233 0.3 383.9 0.3 383.9 55.7 409.7 109 383.9 99.7 383.9 119.5"></polyline>
            <polyline id="Shape" stroke="#34376B" stroke-width="2.5" points="383.9 126.7 383.9 158.5 233 158.5 233 13.5"></polyline>
            <path d="M253.394184,21.6570586 L253.394184,39.3166 L255.673679,39.3166 L255.673679,31.0370524 L264.215238,31.0370524 L264.215238,39.3166 L266.520935,39.3166 L266.520935,21.6570586 L264.215238,21.6570586 L264.215238,29.0457688 L255.673679,29.0457688 L255.673679,21.6570586 L253.394184,21.6570586 Z M280.590925,33.3951514 C280.617127,33.1593415 280.669529,32.7925261 280.669529,32.3209063 C280.669529,29.9890084 279.569083,26.3470555 275.429309,26.3470555 C271.734954,26.3470555 269.481659,29.360182 269.481659,33.1855426 C269.481659,37.0109032 271.813557,39.578611 275.717521,39.578611 C277.735006,39.578611 279.123664,39.1593934 279.935898,38.792578 L279.542881,37.1419087 C278.678245,37.5087241 277.682603,37.7969362 276.031934,37.7969362 C273.726237,37.7969362 271.734954,36.5130823 271.682551,33.3951514 L280.590925,33.3951514 Z M271.708753,31.7444821 C271.89216,30.146215 272.914003,27.9977248 275.245901,27.9977248 C277.83981,27.9977248 278.468636,30.2772205 278.442435,31.7444821 L271.708753,31.7444821 Z M281.848578,26.6352676 L286.538575,38.3209582 C286.64338,38.6091703 286.695782,38.792578 286.695782,38.9235835 C286.695782,39.054589 286.617178,39.2379967 286.512374,39.4738066 C285.988352,40.6528561 285.202319,41.5436935 284.573493,42.0415144 C283.892264,42.6179386 283.132432,42.984754 282.556008,43.1681617 L283.132432,45.1070431 C283.708856,45.0022387 284.835504,44.6092222 285.962151,43.6135804 C287.534217,42.2511232 288.660864,40.0240297 290.311533,35.6746471 L293.770079,26.6352676 L291.333376,26.6352676 L288.818071,34.07638 C288.503658,34.9934185 288.241647,35.9628592 288.005837,36.7226911 L287.953434,36.7226911 C287.743826,35.9628592 287.429413,34.9672174 287.1412,34.1287822 L284.363884,26.6352676 L281.848578,26.6352676 Z M295.00153,42.3821287 C295.735161,41.150677 296.88801,38.2423549 297.490635,36.0152614 L294.922927,36.2772724 C294.634715,38.1899527 293.927285,40.9934704 293.350861,42.5393353 L295.00153,42.3821287 Z M305.901188,39.2641978 C307.054036,39.3952033 308.416494,39.4738066 310.040962,39.4738066 C313.473306,39.4738066 316.19822,38.5829692 317.84889,36.9322999 C319.499559,35.3078317 320.390396,32.9497327 320.390396,30.0676117 C320.390396,27.2116918 319.473358,25.168006 317.901292,23.7269455 C316.355427,22.285885 314.023529,21.5260531 310.748392,21.5260531 C308.940516,21.5260531 307.289846,21.6832597 305.901188,21.8928685 L305.901188,39.2641978 Z M308.180684,23.5697389 C308.783309,23.4387334 309.674146,23.333929 310.853196,23.333929 C315.674198,23.333929 318.032297,25.9802401 318.006096,30.146215 C318.006096,34.9148152 315.359785,37.6397296 310.48638,37.6397296 C309.595543,37.6397296 308.757108,37.6135285 308.180684,37.5087241 L308.180684,23.5697389 Z M332.3905,39.3166 C332.233294,38.4519637 332.180891,37.3777186 332.180891,36.2772724 L332.180891,31.5348733 C332.180891,28.9933666 331.237652,26.3470555 327.359889,26.3470555 C325.761622,26.3470555 324.241958,26.7924742 323.193914,27.4737028 L323.717936,28.9933666 C324.608773,28.4169424 325.840225,28.050127 327.019275,28.050127 C329.613183,28.050127 329.901396,29.9366062 329.901396,30.9846502 L329.901396,31.2466612 C325.00179,31.2204601 322.276875,32.8973305 322.276875,35.9628592 C322.276875,37.7969362 323.58693,39.6048121 326.154638,39.6048121 C327.962514,39.6048121 329.324971,38.7139747 330.032401,37.7183329 L330.111004,37.7183329 L330.294412,39.3166 L332.3905,39.3166 Z M329.953798,35.0458207 C329.953798,35.2816306 329.901396,35.5436416 329.822792,35.7794515 C329.455977,36.8536966 328.407933,37.9017406 326.757264,37.9017406 C325.578214,37.9017406 324.582572,37.1943109 324.582572,35.7008482 C324.582572,33.2379448 327.438492,32.7925261 329.953798,32.8449283 L329.953798,35.0458207 Z M334.119773,26.6352676 L338.940775,39.3166 L341.141668,39.3166 L346.119877,26.6352676 L343.709375,26.6352676 L341.246472,33.7619668 C340.827254,34.9148152 340.460439,35.9628592 340.172227,37.0109032 L340.093624,37.0109032 C339.831613,35.9628592 339.490998,34.9148152 339.071781,33.7619668 L336.582676,26.6352676 L334.119773,26.6352676 Z M358.224785,33.3951514 C358.250986,33.1593415 358.303388,32.7925261 358.303388,32.3209063 C358.303388,29.9890084 357.202942,26.3470555 353.063168,26.3470555 C349.368813,26.3470555 347.115518,29.360182 347.115518,33.1855426 C347.115518,37.0109032 349.447416,39.578611 353.35138,39.578611 C355.368865,39.578611 356.757523,39.1593934 357.569757,38.792578 L357.176741,37.1419087 C356.312104,37.5087241 355.316463,37.7969362 353.665793,37.7969362 C351.360097,37.7969362 349.368813,36.5130823 349.316411,33.3951514 L358.224785,33.3951514 Z M349.342612,31.7444821 C349.526019,30.146215 350.547862,27.9977248 352.87976,27.9977248 C355.473669,27.9977248 356.102496,30.2772205 356.076295,31.7444821 L349.342612,31.7444821 Z M363.150592,34.2335866 L363.517407,21.6570586 L361.002101,21.6570586 L361.368917,34.2335866 L363.150592,34.2335866 Z M362.259754,39.6048121 C363.202994,39.6048121 363.805619,38.8973824 363.805619,37.9803439 C363.805619,37.0371043 363.202994,36.3558757 362.259754,36.3558757 C361.368917,36.3558757 360.713889,37.0371043 360.713889,37.9803439 C360.713889,38.8973824 361.342716,39.6048121 362.259754,39.6048121 L362.259754,39.6048121 Z" id="Hey,-Dave!" fill="#000000"></path>
            <path d="M369.5,51.8 L247.8,51.8" id="Shape" stroke="#34376B" stroke-width="2.5"></path>
            <path d="M361.4,69.3 L317.9,69.3" id="Shape" stroke="#34376B" stroke-width="2.5"></path>
            <path d="M303.2,69.3 L247.8,69.3" id="Shape" stroke="#34376B" stroke-width="2.5"></path>
            <path d="M361.4,85.3 L294.5,85.3" id="Shape" stroke="#34376B" stroke-width="2.5"></path>
            <path d="M284.1,86 L247.5,86" id="Shape" stroke="#34376B" stroke-width="2.5"></path>
            <path d="M334.9,104.1 L309,104.1" id="Shape" stroke="#34376B" stroke-width="2.5"></path>
            <path d="M293.8,104.1 L247.8,104.1" id="Shape" stroke="#34376B" stroke-width="2.5"></path>
            <path d="M350.2,123 L248.6,123" id="Shape" stroke="#34376B" stroke-width="2.5"></path>
        </g>
    </g>
</svg>