<?xml version="1.0" encoding="utf-8"?>
<!-- Generator: Adobe Illustrator 17.1.0, SVG Export Plug-In . SVG Version: 6.00 Build 0)  -->
<!DOCTYPE svg PUBLIC "-//W3C//DTD SVG 1.1//EN" "http://www.w3.org/Graphics/SVG/1.1/DTD/svg11.dtd">
<svg version="1.1" id="Слой_1" xmlns="http://www.w3.org/2000/svg" xmlns:xlink="http://www.w3.org/1999/xlink" x="0px" y="0px"
	 viewBox="0 0 735.6 735.6" enable-background="new 0 0 735.6 735.6" xml:space="preserve">
<g id="PALM_1_">
	<g>
		<polygon fill="#B5CEE2" points="172.5,271 177.5,284.8 191.7,291.8 194.6,306.7 80.7,312.5 		"/>
		<path fill="none" stroke="#34376B" stroke-width="2.5" stroke-linecap="round" stroke-miterlimit="10" d="M173,272.1l4.5,12.7
			l14.2,7l2.9,14.9l-114.4,5.1l92-40C172.5,271.7,172.8,271.8,173,272.1z"/>
		<polygon fill="#9D87DA" points="73.4,314.9 135.5,264.6 173.4,271.3 		"/>
		<path fill="none" stroke="#34376B" stroke-width="2.5" stroke-linecap="round" stroke-miterlimit="10" d="M73.4,314.9l62.1-50.3
			l37.2,6.6c0.2,0,0.2,0.3,0,0.4L73.4,314.9z"/>
		<polygon fill="#9D87DA" points="72.2,315.6 190.7,275.4 245.1,283.1 		"/>
		<polygon fill="none" stroke="#34376B" stroke-width="2.5" stroke-linecap="round" stroke-miterlimit="10" points="72.2,315.6 
			190.7,275.4 245.1,283.1 		"/>
	</g>
	<g>
		<polygon fill="#34376B" points="186.7,314.2 198,317.4 196.1,346.8 184.8,343.6 		"/>
		<polygon fill="#34376B" points="165.3,303.5 171.1,295.5 198,316.9 192.2,324.8 		"/>
	</g>
	<g>
		<polygon fill="#34376B" points="155.8,329.4 151.3,338.3 180,356.6 184.5,347.8 		"/>
		<polygon fill="#34376B" points="159.9,309.5 148.7,307.7 150.8,337.9 162.1,339.8 		"/>
	</g>
</g>
<g id="forearm_1_">
	
		<rect x="189.3" y="338" transform="matrix(-0.8869 0.4619 -0.4619 -0.8869 566.969 632.5944)" fill="#B5CEE2" width="33.6" height="95.5"/>
</g>
<g id="shoulder_1_">
	
		<rect x="265.1" y="350.7" transform="matrix(0.4613 0.8872 -0.8872 0.4613 513.4721 -31.6176)" fill="#B5CEE2" width="35.4" height="112.7"/>
	<path fill="#D3E5F5" d="M345.2,423.1c5.1-1.4,10.1-3.3,15.1-5.9c28.8-14.9,42.8-44.8,31.4-66.8c-11.4-21.9-43.9-27.6-72.7-12.6
		c-5,2.6-9.5,5.6-13.5,9L345.2,423.1z"/>
	<path fill="#B5CEE2" d="M386.6,343.2c-19.2-9.1-42.3-9.6-62.2,0.8c-5.5,2.9-10.5,6.4-14.9,10.5l-4-7.7c4-3.4,8.5-6.4,13.5-9
		C344.2,324.7,372.4,327.4,386.6,343.2z"/>
	<path fill="none" stroke="#34376B" stroke-width="2.5" stroke-linecap="round" stroke-miterlimit="10" d="M314,363.1l31.2,60
		c5.1-1.4,10.1-3.3,15.1-5.9c28.8-14.9,42.8-44.8,31.4-66.8c-11.4-21.9-43.9-27.6-72.7-12.6c-5,2.6-9.5,5.6-13.5,9l4.3,8.3"/>
	<circle fill="#D3E5F5" cx="236" cy="432" r="22.7"/>
	
		<circle fill="none" stroke="#34376B" stroke-width="2.5" stroke-linecap="round" stroke-miterlimit="10" cx="236" cy="432" r="22.7"/>
</g>
<ellipse fill="#D3E5F5" cx="431.7" cy="297.6" rx="90" ry="100.2"/>
<path fill="#B5CEE2" d="M432.4,211.5c-35.9,0-67.8,20.3-84.6,49.9c13-37.5,45.7-64.1,84-64.1c36.4,0,67.8,24.1,81.9,58.7
	C496.2,229.4,466.1,211.5,432.4,211.5z"/>
<path fill="none" stroke="#34376B" stroke-width="2.5" stroke-linecap="round" stroke-miterlimit="10" d="M347.8,260.3
	c13-37.5,45.7-64.1,84-64.1c37.3,0,69.3,25.2,82.9,61.2"/>
<path fill="#FFFFFF" d="M400.5,331.3c15.8,2.3,39.8,2.1,52.4,1c28.8-2.5,56.4-7.1,66.1-10c1.8-7.9,2.8-16.2,2.8-24.7
	c0-11.4-1.7-22.4-4.9-32.6c-27.6,8.6-56.3,13.1-85.3,13.1c-28.9,0-57.5-4.4-84.9-13c-3.1,10.2-4.9,21.1-4.9,32.5
	c0,7,0.7,13.9,1.9,20.5C350.4,321.5,389.1,329.6,400.5,331.3z"/>
<path fill="none" stroke="#34376B" stroke-width="2.5" stroke-linecap="round" stroke-miterlimit="10" d="M400.5,331.3
	c15.8,2.3,39.8,2.1,52.4,1c28.8-2.5,56.4-7.1,66.1-10c1.8-7.9,2.8-16.2,2.8-24.7c0-11.4-1.7-22.4-4.9-32.6
	c-27.6,8.6-56.3,13.1-85.3,13.1c-28.9,0-57.5-4.4-84.9-13c-3.1,10.2-4.9,21.1-4.9,32.5c0,7,0.7,13.9,1.9,20.5
	C350.4,321.5,389.1,329.6,400.5,331.3z"/>
<ellipse fill="#65D8F0" cx="402.9" cy="303.5" rx="23.9" ry="26.7"/>
<ellipse fill="none" stroke="#34376B" stroke-width="2.5" stroke-linecap="round" stroke-miterlimit="10" cx="399.5" cy="303.5" rx="23.9" ry="26.7"/>
<path fill="none" stroke="#34376B" stroke-width="2.5" stroke-linecap="round" stroke-miterlimit="10" d="M436.5,207.2
	c5.8,1.5,13.6,1.5,18.2-1.8c5.5-3.8,7.9-14.3,2.3-19.2c-7-6.1-15.3,2.5-7.3,8.5c5.4,4,12.6,2.7,17.4-0.9
	c6.1-4.6,10.1-10.9,10.4-18.5c0.2-6.1-5.7-13.2-12.5-8.6c-2.2,1.5-3.6,6.9-2.2,9.3c1.9,3.3,8.1,3.2,11.3,3.8
	c7.3,1.3,13.3,0.9,18.8-5.1c3.9-4.3,5.4-10.8,4.5-16.5c-0.9-5.6-9.9-16.7-14.1-7.8c-6.4,13.5,23.1,25.9,27.8,10.1"/>
<g id="body_3_">
	<rect x="379" y="461.1" fill="#34376B" width="90.7" height="86.8"/>
	<path fill="#34376B" d="M465.4,641H379c-13.5,0-24.4-9.9-24.4-22.1v-30.7c0-12.2,10.9-22.1,24.4-22.1h86.4
		c13.5,0,24.4,9.9,24.4,22.1v30.7C489.8,631.1,478.9,641,465.4,641z"/>
	<path fill="#D3E5F5" d="M520.3,466.4c-3.3-43.3-13.4-82-28-111.4c-23.1,8.6-47.1,13.2-71.4,13.2c-22.5,0-44.8-3.9-66.4-11.4
		c-14.2,29.1-24,67.1-27.2,109.6H520.3z"/>
	<path fill="#B5CEE2" d="M328.7,466.4h-1.4c3.2-42.4,13-80.4,27.2-109.6c14.2,4.9,28.8,8.3,43.5,10
		C359.7,385,332.1,422.7,328.7,466.4z"/>
	<path fill="none" stroke="#34376B" stroke-width="2.5" stroke-linecap="round" stroke-miterlimit="10" d="M363.9,360.7
		c-5.5-1.4-4.1-1.9-9.5-3.8c-14.2,29.1-24,67.1-27.2,109.6h193c-3.3-43.3-13.4-82-28-111.4c-23.1,8.6-47.1,13.2-71.4,13.2
		c-16.9,0-33.7-2.2-50.1-6.4"/>
	<path fill="#D3E5F5" d="M328.2,537.8c1.5,14.3,3.7,28.1,6.6,41.1h111v22h61.3c5.7-19.1,9.9-40.4,12.3-63H328.2z"/>
	<path fill="none" stroke="#34376B" stroke-width="2.5" stroke-linecap="round" stroke-miterlimit="10" d="M339.6,537.8h-11.4
		c1.5,14.3,3.7,28.1,6.6,41.1h111v22h61.3c5.7-19.1,9.9-40.4,12.3-63H351"/>
	<polygon fill="#FEDB7D" points="415.8,423.2 404,433.1 401.3,448.3 388.2,440.1 372.9,442.3 376.6,427.3 369.9,413.4 385.3,412.3 
		396.4,401.6 402.2,415.9 	"/>
	<polygon fill="none" stroke="#34376B" stroke-width="2.5" stroke-linecap="round" stroke-miterlimit="10" points="411.3,420.9 
		399.5,430.8 396.8,446 383.7,437.9 368.4,440 372.1,425 365.3,411.1 380.7,410 391.9,399.3 397.6,413.6 	"/>
</g>
<g id="PALM_7_">
	<g>
		<polygon fill="#34376B" points="342.7,495 351.8,487.5 374.8,505.9 365.7,513.3 		"/>
		<polygon fill="#34376B" points="321.7,506.3 318.5,497 351.4,487.2 354.6,496.5 		"/>
	</g>
	<g>
		<polygon fill="#34376B" points="337.5,529 342.2,537.8 373.7,524.7 369,515.9 		"/>
		<polygon fill="#34376B" points="323.5,514.2 315.6,522.4 341.6,538 349.6,529.8 		"/>
	</g>
</g>
<g id="forearm_6_">
	
		<rect x="392.9" y="466.2" transform="matrix(1.316088e-002 0.9999 -0.9999 1.316088e-002 918.1362 97.4743)" fill="#B5CEE2" width="33.6" height="95.5"/>
</g>
<g id="shoulder_7_">
	
		<rect x="454.6" y="403.4" transform="matrix(0.9726 0.2323 -0.2323 0.9726 119.7392 -97.1396)" fill="#B5CEE2" width="35.4" height="112.7"/>
	<path fill="#D3E5F5" d="M525.2,423.1c2.3-4.7,4.1-9.8,5.4-15.3c7.5-31.5-5.9-61.7-29.9-67.5s-49.6,15.2-57.1,46.7
		c-1.3,5.4-2,10.8-2.1,16.1L525.2,423.1z"/>
	<path fill="#B5CEE2" d="M492.3,339.4c-19.1,8.7-34.2,25.6-39.4,47.2c-1.5,6.3-2,12.6-1.8,18.8l-9.6-2.3c0.1-5.2,0.8-10.6,2.1-16.1
		C450.3,359.2,471,339.7,492.3,339.4z"/>
	<path fill="none" stroke="#34376B" stroke-width="2.5" stroke-linecap="round" stroke-miterlimit="10" d="M459.5,407.4l65.8,15.7
		c2.3-4.7,4.1-9.8,5.4-15.3c7.5-31.5-5.9-61.7-29.9-67.5s-49.6,15.2-57.1,46.7c-1.3,5.4-2,10.8-2.1,16.1l9.1,2.2"/>
	<circle fill="#D3E5F5" cx="460.5" cy="511.5" r="22.7"/>
	
		<circle fill="none" stroke="#34376B" stroke-width="2.5" stroke-linecap="round" stroke-miterlimit="10" cx="460.5" cy="511.5" r="22.7"/>
</g>
<g id="wheel_l_2_">
	<path fill="#D3E5F5" d="M387.6,645.4c-9.1-15.9-22.9-26.1-38.4-26.1s-29.3,10.2-38.4,26.1H387.6z"/>
</g>
<g id="wheel_l_1_">
	<path fill="none" stroke="#34376B" stroke-width="2.5" stroke-linecap="round" stroke-miterlimit="10" d="M387.6,645.4
		c-9.1-15.9-22.9-26.1-38.4-26.1s-29.3,10.2-38.4,26.1H387.6z"/>
</g>
<g id="wheel_r_1_">
	<g>
		<path fill="#D3E5F5" d="M510.2,645.4c-9.1-16.4-23.1-26.9-38.8-26.9s-29.8,10.5-38.8,26.9H510.2z"/>
		<path fill="#B4CDE0" d="M435.4,645.4c4.6-8.2,10.6-15.6,17.6-21.9c-8.1,4.6-15.2,12.2-20.5,21.9H435.4z"/>
		<path fill="none" stroke="#34376B" stroke-width="2.5" stroke-linecap="round" stroke-miterlimit="10" d="M510.2,645.4
			c-9.1-16.4-23.1-26.9-38.8-26.9s-29.8,10.5-38.8,26.9H510.2z"/>
	</g>
</g>
<rect x="55.5" y="611.4" fill="#FEDB7D" width="629.3" height="38.3"/>
<rect x="20.5" y="571.5" fill="#FEDB7D" width="697.3" height="39.8"/>
<rect x="15.5" y="571.5" fill="none" stroke="#34376B" stroke-width="2.5" stroke-linecap="round" stroke-miterlimit="10" width="697.3" height="39.8"/>
<line fill="none" stroke="#34376B" stroke-width="2.5" stroke-linecap="round" stroke-miterlimit="10" x1="50.5" y1="611.4" x2="50.5" y2="644.4"/>
<line fill="none" stroke="#34376B" stroke-width="2.5" stroke-linecap="round" stroke-miterlimit="10" x1="679.9" y1="613.2" x2="679.9" y2="647.5"/>
<g>
	
		<line fill="none" stroke="#34376B" stroke-width="2.5" stroke-linecap="round" stroke-miterlimit="10" x1="698.7" y1="515.4" x2="572" y2="515.4"/>
	
		<line fill="none" stroke="#34376B" stroke-width="2.5" stroke-linecap="round" stroke-miterlimit="10" x1="679.1" y1="521.4" x2="560.3" y2="521.4"/>
	
		<line fill="none" stroke="#34376B" stroke-width="2.5" stroke-linecap="round" stroke-miterlimit="10" x1="693.6" y1="528.1" x2="602.2" y2="528.1"/>
	
		<line fill="none" stroke="#34376B" stroke-width="2.5" stroke-linecap="round" stroke-miterlimit="10" x1="693.6" y1="534.9" x2="606.5" y2="534.9"/>
	
		<line fill="none" stroke="#34376B" stroke-width="2.5" stroke-linecap="round" stroke-miterlimit="10" x1="679.1" y1="541.6" x2="572" y2="541.6"/>
	
		<line fill="none" stroke="#34376B" stroke-width="2.5" stroke-linecap="round" stroke-miterlimit="10" x1="698.7" y1="548.7" x2="606.5" y2="548.7"/>
	
		<line fill="none" stroke="#34376B" stroke-width="2.5" stroke-linecap="round" stroke-miterlimit="10" x1="698.7" y1="556.4" x2="585.7" y2="556.4"/>
	
		<line fill="none" stroke="#34376B" stroke-width="2.5" stroke-linecap="round" stroke-miterlimit="10" x1="672.3" y1="563.1" x2="553" y2="563.1"/>
</g>
<g>
	
		<line fill="none" stroke="#34376B" stroke-width="2.5" stroke-linecap="round" stroke-miterlimit="10" x1="567.4" y1="459" x2="694.2" y2="459"/>
	
		<line fill="none" stroke="#34376B" stroke-width="2.5" stroke-linecap="round" stroke-miterlimit="10" x1="587.1" y1="465.1" x2="705.9" y2="465.1"/>
	
		<line fill="none" stroke="#34376B" stroke-width="2.5" stroke-linecap="round" stroke-miterlimit="10" x1="572.6" y1="471.8" x2="664" y2="471.8"/>
	
		<line fill="none" stroke="#34376B" stroke-width="2.5" stroke-linecap="round" stroke-miterlimit="10" x1="572.6" y1="478.5" x2="659.7" y2="478.5"/>
	
		<line fill="none" stroke="#34376B" stroke-width="2.5" stroke-linecap="round" stroke-miterlimit="10" x1="587.1" y1="485.2" x2="694.2" y2="485.2"/>
	
		<line fill="none" stroke="#34376B" stroke-width="2.5" stroke-linecap="round" stroke-miterlimit="10" x1="567.4" y1="492.4" x2="659.7" y2="492.4"/>
	
		<line fill="none" stroke="#34376B" stroke-width="2.5" stroke-linecap="round" stroke-miterlimit="10" x1="567.4" y1="500" x2="680.5" y2="500"/>
	
		<line fill="none" stroke="#34376B" stroke-width="2.5" stroke-linecap="round" stroke-miterlimit="10" x1="593.9" y1="506.8" x2="713.2" y2="506.8"/>
</g>
<g>
	
		<line fill="none" stroke="#34376B" stroke-width="2.5" stroke-linecap="round" stroke-miterlimit="10" x1="227.3" y1="496.6" x2="89.8" y2="496.6"/>
	
		<line fill="none" stroke="#34376B" stroke-width="2.5" stroke-linecap="round" stroke-miterlimit="10" x1="206" y1="505" x2="77.1" y2="505"/>
	
		<line fill="none" stroke="#34376B" stroke-width="2.5" stroke-linecap="round" stroke-miterlimit="10" x1="221.7" y1="514.2" x2="122.6" y2="514.2"/>
	
		<line fill="none" stroke="#34376B" stroke-width="2.5" stroke-linecap="round" stroke-miterlimit="10" x1="221.7" y1="523.5" x2="127.2" y2="523.5"/>
	
		<line fill="none" stroke="#34376B" stroke-width="2.5" stroke-linecap="round" stroke-miterlimit="10" x1="206" y1="532.8" x2="89.8" y2="532.8"/>
	
		<line fill="none" stroke="#34376B" stroke-width="2.5" stroke-linecap="round" stroke-miterlimit="10" x1="227.3" y1="542.6" x2="127.2" y2="542.6"/>
	
		<line fill="none" stroke="#34376B" stroke-width="2.5" stroke-linecap="round" stroke-miterlimit="10" x1="227.3" y1="553.2" x2="104.6" y2="553.2"/>
	
		<line fill="none" stroke="#34376B" stroke-width="2.5" stroke-linecap="round" stroke-miterlimit="10" x1="198.6" y1="562.4" x2="69.2" y2="562.4"/>
</g>
<g>
	<polygon fill="#B5CEE2" points="614.5,217.3 617.3,225.2 625.5,229.2 627.2,237.8 561.6,241.2 	"/>
	<path fill="none" stroke="#34376B" stroke-width="2.5" stroke-linecap="round" stroke-miterlimit="10" d="M614.7,217.9l2.6,7.3
		l8.2,4l1.7,8.6l-65.9,2.9l53-23C614.5,217.6,614.7,217.7,614.7,217.9z"/>
	<polygon fill="#F4888E" points="557.4,242.5 593.2,213.5 614.9,217.4 	"/>
	<path fill="none" stroke="#34376B" stroke-width="2.5" stroke-linecap="round" stroke-miterlimit="10" d="M557.4,242.5l35.8-29
		l21.4,3.8c0.1,0,0.1,0.2,0,0.2L557.4,242.5z"/>
	<polygon fill="#F4888E" points="556.7,243 624.9,219.8 656.3,224.2 	"/>
	<polygon fill="none" stroke="#34376B" stroke-width="2.5" stroke-linecap="round" stroke-miterlimit="10" points="556.7,243 
		624.9,219.8 656.3,224.2 	"/>
</g>
<g>
	<polygon fill="#B5CEE2" points="249.5,159.9 252.5,172.9 248.8,181.7 253.2,195.3 306,178.4 	"/>
	<path fill="none" stroke="#34376B" stroke-width="2.5" stroke-linecap="round" stroke-miterlimit="10" d="M249.7,161l2.8,11.9
		l-3.7,8.8l4.4,13.6l49.3-16.4c1.1-0.4,1.1-2,0-2.3l-52.5-16.1C249.7,160.5,249.6,160.7,249.7,161z"/>
	<path fill="#FEDB7D" d="M307.8,177.4l-44-30.1c-0.2-0.1-0.4-0.1-0.6,0l-13.5,12.4c-0.3,0.2-0.2,0.7,0.2,0.8l57.4,17.7
		C307.9,178.4,308.2,177.7,307.8,177.4z"/>
	<path fill="none" stroke="#34376B" stroke-width="2.5" stroke-linecap="round" stroke-miterlimit="10" d="M309.1,178.3l-45.6-31.2
		l-14,13c-0.1,0.1,0,0.3,0.1,0.3l59.3,18.2C309.1,178.7,309.3,178.4,309.1,178.3z"/>
	<path fill="#FEDB7D" d="M307,178.8L243,167.2l-21.3,17.2l85.2-4.7C307.5,179.7,307.5,178.9,307,178.8z"/>
	<path fill="none" stroke="#34376B" stroke-width="2.5" stroke-linecap="round" stroke-miterlimit="10" d="M307,178.7L243,167.2
		l-21.3,17.2l85.2-4.7C309.7,178.7,307.5,178.8,307,178.7z"/>
</g>
<g>
	<polygon fill="#B5CEE2" points="609.5,373.3 606.6,386.3 599.4,392.7 597.5,406.8 652.4,414.5 	"/>
	<path fill="none" stroke="#34376B" stroke-width="2.5" stroke-linecap="round" stroke-miterlimit="10" d="M609.3,374.4l-2.7,12
		l-7.2,6.4l-2,14.1l51.5,6.6c1.2,0.1,1.8-1.3,1-2.1l-40.3-37.2C609.5,373.9,609.3,374.1,609.3,374.4z"/>
	<path fill="#65D8F0" d="M654.4,414.4l-26.6-46.2c-0.1-0.2-0.3-0.3-0.5-0.2l-17.5,5.3c-0.3,0.1-0.4,0.5-0.2,0.8l44.1,40.8
		C654.1,415.3,654.7,414.8,654.4,414.4z"/>
	<path fill="none" stroke="#34376B" stroke-width="2.5" stroke-linecap="round" stroke-miterlimit="10" d="M655.2,415.7l-27.5-47.8
		l-18.3,5.6c-0.1,0-0.1,0.3,0,0.4l45.5,42.2C655.1,416.2,655.3,415.9,655.2,415.7z"/>
	<path fill="#65D8F0" d="M653.1,415.2l-52.6-38.1l-26.7,6.3l78.8,32.7C653.2,416.3,653.6,415.6,653.1,415.2z"/>
	<path fill="none" stroke="#34376B" stroke-width="2.5" stroke-linecap="round" stroke-miterlimit="10" d="M653.1,415.2l-52.6-38.1
		l-26.7,6.3l78.8,32.7C655.6,416.4,653.6,415.5,653.1,415.2z"/>
</g>
</svg>
