<?xml version="1.0" encoding="UTF-8" standalone="no"?>
<svg width="1318px" height="878px" viewBox="0 0 1318 878" version="1.1" xmlns="http://www.w3.org/2000/svg" xmlns:xlink="http://www.w3.org/1999/xlink">
    <!-- Generator: Sketch 40.2 (33826) - http://www.bohemiancoding.com/sketch -->
    <title>2.2</title>
    <desc>Created with Sketch.</desc>
    <defs></defs>
    <g id="Page-1" stroke="none" stroke-width="1" fill="none" fill-rule="evenodd">
        <g id="2.2" transform="translate(-28.000000, -291.000000)">
            <g id="background" transform="translate(560.000000, 838.000000)" stroke="#F02F5E" stroke-width="5">
                <path d="M0.5,0.1 L776.7,0.1" id="Shape"></path>
            </g>
            <g id="boy_1">
                <g id="Group" transform="translate(670.000000, 294.000000)">
                    <circle id="Oval" fill="#C8E2FC" cx="162.6" cy="151.7" r="151.3"></circle>
                    <path d="M24.8,68.3 C42.8,39.5 65.7,21.6 104.3,9.3 C183.9,-16.1 269.1,26.5 295.2,105.9 C321.2,185.3 278,270.7 198.6,296.8 C119.2,322.9 33.8,279.6 7.7,200.2 C-4.6,162.6 -1.4,123.7 13.8,90.3" id="Shape" stroke="#34376B" stroke-width="2.5"></path>
                </g>
                <g id="Group">
                    <rect id="Rectangle-path" fill="#F3BA99" transform="translate(827.374264, 508.814716) rotate(0.440997) translate(-827.374264, -508.814716) " x="800.22346" y="497.614384" width="54.3016084" height="22.4006635"></rect>
                    <ellipse id="Oval" fill="#F6D6B4" transform="translate(895.929943, 424.688105) rotate(180.735168) translate(-895.929943, -424.688105) " cx="895.929943" cy="424.688105" rx="13.9997524" ry="18.8996658"></ellipse>
                    <ellipse id="Oval" fill="#F6D6B4" transform="translate(767.455781, 419.388281) rotate(180.735168) translate(-767.455781, -419.388281) " cx="767.455781" cy="419.388281" rx="13.9997524" ry="18.8996658"></ellipse>
                    <path d="M813.3,503.7 L844.4,504.1 C872.3,504.5 895.3,480.9 895.7,451.4 L896.3,405.9 C896.7,376.4 874.3,352.2 846.4,351.9 L815.3,351.5 C787.4,351.1 764.4,374.7 764,404.2 L763.4,449.7 C763,479.1 785.4,503.3 813.3,503.7 L813.3,503.7 Z" id="Shape" fill="#F6D6B4"></path>
                    <path d="M870,496.5 C865,498.5 859.7,500 854.2,500.8 C848.7,502.1 843,502.9 837.2,502.9 C799.9,502.9 768.4,473.9 764.2,437.6 C764,437 763.8,436.4 763.6,435.8 L763.4,449.6 C763,479.1 785.4,503.3 813.3,503.6 L844.4,504 C854.3,504.1 863.6,501.2 871.4,496.2 L871.4,496.2 C870.9,496.3 870.5,496.4 870,496.5 L870,496.5 Z" id="Shape" fill="#F3BA99"></path>
                    <path d="M837.8,439.9 L823.6,439.7" id="Shape" stroke="#F3BA99" stroke-width="3"></path>
                    <path d="M851.8,464.4 L851.8,465.2 C851.7,475.9 842.3,484.5 830.9,484.4 C819.5,484.3 810.3,475.4 810.5,464.7 L810.5,463.9 L851.8,464.4 L851.8,464.4 Z" id="Shape" fill="#FFFFFF"></path>
                    <g></g>
                    <g transform="translate(860.000000, 417.000000)" id="Shape" fill="#34376B">
                        <path d="M2.8,5.6 C6,5.6 6,0.6 2.8,0.6 C-0.4,0.6 -0.4,5.6 2.8,5.6 L2.8,5.6 L2.8,5.6 Z"></path>
                    </g>
                    <path d="M796.3,420.9 C799.5,420.9 799.5,415.9 796.3,415.9 C793.1,415.9 793.1,420.9 796.3,420.9 L796.3,420.9 L796.3,420.9 Z" id="Shape" fill="#34376B"></path>
                    <path d="M931.4,524 C904.3,513.1 871.8,513.8 871.8,513.8 C871.8,513.8 877.1,512.3 788.9,513.2 C756.9,513.5 735.6,518.7 721.4,525.2 L721.7,538 C746.1,570.3 784.8,591.2 828.4,591.2 C871.9,591.2 906.5,571.8 930.8,539.6 L931.4,524 L931.4,524 Z" id="Shape" fill="#34376B"></path>
                    <path d="M832.7,588 L854.6,513 C843.8,512.8 826.9,512.2 800.3,513 L821.3,587.9 L832.7,588 L832.7,588 Z" id="Shape" fill="#FFFFFF"></path>
                    <polygon id="Shape" fill="#34376B" points="816.6 512.6 838.3 512.6 832.7 589.3 821.2 589.2"></polygon>
                    <path d="M791.7,398 C791.7,398 801.7,391.8 812,398.3" id="Shape" stroke="#8A5D3B" stroke-width="3"></path>
                    <path d="M868.4,397.6 C868.4,397.6 858.6,391.2 848.1,397.3" id="Shape" stroke="#8A5D3B" stroke-width="3"></path>
                    <path d="M807.8,341.6 C807.8,341.6 788.6,319.6 766.8,341.6 C745.1,363.6 769.2,409.7 769.2,409.7 C769.2,409.7 781.7,369.3 803.5,367.8 C825.3,366.4 807.8,341.6 807.8,341.6 L807.8,341.6 Z" id="Shape" fill="#8A5D3B"></path>
                    <path d="M829.4,321.4 C829.4,321.4 765,329.1 800.1,368.3 C829.4,387.5 837.9,365.8 862.9,371.3 C887.9,376.8 894.6,409.9 894.6,409.9 C894.6,409.9 931.1,318.8 829.4,321.4 L829.4,321.4 Z" id="Shape" fill="#8A5D3B"></path>
                </g>
            </g>
            <g id="Слой_23" transform="translate(29.000000, 436.000000)">
                <g id="Group" transform="translate(711.000000, 203.000000)">
                    <circle id="Oval" fill="#FFFFFF" cx="85.6" cy="79.2" r="78.8"></circle>
                    <path d="M13.8,35.7 C23.2,20.7 35.1,11.4 55.2,5 C96.7,-8.2 141.1,14 154.7,55.3 C168.3,96.7 145.7,141.2 104.4,154.8 C63,168.4 18.5,145.8 4.9,104.5 C-1.5,84.9 0.1,64.6 8.1,47.2" id="Shape" stroke="#34376B" stroke-width="2.5"></path>
                </g>
                <ellipse id="Oval" fill="#E8F2FB" cx="661.8" cy="676.3" rx="655.1" ry="56.6"></ellipse>
                <ellipse id="Oval" fill="#C8E2FC" cx="266" cy="671.3" rx="163.2" ry="20"></ellipse>
                <g id="PALM_2_" transform="translate(414.000000, 20.000000)">
                    <g id="Group" transform="translate(0.000000, 270.000000)" fill="#34376B">
                        <polygon id="Shape" points="27 10.2 14.4 6.6 0.6 37.6 13.2 41.3"></polygon>
                        <polygon id="Shape" points="53.4 12.3 52 0.7 14.7 6 16 17.6"></polygon>
                    </g>
                    <g id="PALM_15_" transform="translate(42.000000, 0.000000)">
                        <g id="Group">
                            <rect id="Rectangle-path" fill="#6CDDB5" x="0.6" y="0" width="56.7" height="639"></rect>
                            <path d="M13,5.2 L13,639" id="Shape" stroke="#717275" stroke-width="3"></path>
                            <path d="M13,39.7 L33.9,39.7" id="Shape" stroke="#717275" stroke-width="3"></path>
                            <path d="M13,88.5 L33.9,88.5" id="Shape" stroke="#717275" stroke-width="3"></path>
                            <path d="M13,134.9 L33.9,134.9" id="Shape" stroke="#717275" stroke-width="3"></path>
                            <path d="M13,183.7 L33.9,183.7" id="Shape" stroke="#717275" stroke-width="3"></path>
                            <path d="M13,232.9 L33.9,232.9" id="Shape" stroke="#717275" stroke-width="3"></path>
                            <path d="M13,281.7 L33.9,281.7" id="Shape" stroke="#717275" stroke-width="3"></path>
                            <path d="M13,328.1 L33.9,328.1" id="Shape" stroke="#717275" stroke-width="3"></path>
                            <path d="M13,376.9 L33.9,376.9" id="Shape" stroke="#717275" stroke-width="3"></path>
                            <path d="M13,425.9 L33.9,425.9" id="Shape" stroke="#717275" stroke-width="3"></path>
                            <path d="M13,474.7 L33.9,474.7" id="Shape" stroke="#717275" stroke-width="3"></path>
                            <path d="M13,521.1 L33.9,521.1" id="Shape" stroke="#717275" stroke-width="3"></path>
                            <path d="M13,569.9 L33.9,569.9" id="Shape" stroke="#717275" stroke-width="3"></path>
                            <path d="M13,619.1 L33.9,619.1" id="Shape" stroke="#717275" stroke-width="3"></path>
                        </g>
                    </g>
                    <g id="Group" transform="translate(10.000000, 291.000000)" fill="#34376B">
                        <polygon id="Shape" points="38.7 23.5 38.4 35.2 0.8 36.4 1.2 24.7"></polygon>
                        <polygon id="Shape" points="45.4 0.7 57.2 5.7 39 35.2 27.2 30.2"></polygon>
                    </g>
                </g>
                <g id="forearm_2_" transform="translate(331.000000, 313.000000)" fill="#B5CEE2">
                    <rect id="Rectangle-path" transform="translate(55.389300, 43.452860) rotate(61.092314) translate(-55.389300, -43.452860) " x="34.3392924" y="-7.19715823" width="42.1000152" height="101.300036"></rect>
                </g>
                <g id="shoulder_2_" transform="translate(270.000000, 219.000000)">
                    <g id="Group" transform="translate(34.000000, 56.000000)">
                        <rect id="Rectangle-path" fill="#B5CEE2" transform="translate(30.710420, 54.124910) rotate(169.215970) translate(-30.710420, -54.124910) " x="9.66126517" y="3.27695167" width="42.0983097" height="101.695917"></rect>
                        <circle id="Oval" fill="#D3E5F5" cx="36.8" cy="102" r="25.8"></circle>
                        <circle id="Oval" stroke="#34376B" stroke-width="2.5" cx="36.8" cy="102" r="25.8"></circle>
                    </g>
                    <path d="M6.3,77.2 C4.1,72.9 2.5,68.2 1.6,63.3 C-3.9,34.6 15.1,6.8 44,1.3 C72.9,-4.2 100.8,14.6 106.2,43.3 C107.1,48.3 107.3,53.2 106.9,58 L6.3,77.2 L6.3,77.2 Z" id="Shape" fill="#D3E5F5"></path>
                    <path d="M88.7,61.5 L6.3,77.2 C4.1,72.9 2.5,68.2 1.6,63.3 C-3.9,34.6 15.1,6.8 44,1.3 C72.9,-4.2 100.8,14.6 106.2,43.3 C107.1,48.3 107.3,53.2 106.9,58 L97.1,59.9" id="Shape" stroke="#34376B" stroke-width="2.5"></path>
                </g>
                <g id="wheel_l_2_" transform="translate(248.000000, 446.000000)" fill="#D3E5F5">
                    <ellipse id="Oval" cx="80.5" cy="114.8" rx="80.2" ry="114.6"></ellipse>
                </g>
                <g id="wheel_l_1_" transform="translate(326.000000, 459.000000)" fill="#B5CEE2">
                    <path d="M39.9,0.4 C61,25.3 73.8,57.4 73.8,92 C73.8,144.7 44,191.5 0.7,216.3 C1.3,216.3 1.9,216.4 2.6,216.4 C46.9,216.4 82.8,165.1 82.8,101.8 C82.7,57.8 65.3,19.6 39.9,0.4 L39.9,0.4 Z" id="Shape"></path>
                </g>
                <g id="wheel_l_4_" transform="translate(248.000000, 446.000000)" stroke="#34376B" stroke-width="2.5">
                    <ellipse id="Oval" cx="80.5" cy="114.8" rx="80.2" ry="114.6"></ellipse>
                </g>
                <circle id="Oval" fill="#D3E5F5" cx="223.3" cy="172.9" r="107.1"></circle>
                <path d="M224.5,81.6 C264,81.6 299.6,101.2 322,131.2 C305.7,92.8 267.7,65.8 223.3,65.8 C176.1,65.8 136,96.4 121.7,138.8 C143.5,104.7 181.7,81.6 224.5,81.6 L224.5,81.6 Z" id="Shape" fill="#B5CEE2"></path>
                <path d="M320.8,128.6 C303.9,91.6 266.6,65.8 223.2,65.8 C179.9,65.8 142.7,91.5 125.7,128.4" id="Shape" stroke="#34376B" stroke-width="2.5"></path>
                <path d="M260.5,209 C241.7,211.5 213.1,211.2 198.2,210 C163.9,207.3 131.1,202.4 119.5,199.3 C117.4,190.9 116.2,182 116.2,172.9 C116.2,160.7 118.3,149 122,138 C154.8,147.2 189,152 223.5,152 C257.9,152 291.9,147.2 324.6,138.1 C328.3,149 330.4,160.7 330.4,172.9 C330.4,180.4 329.6,187.7 328.2,194.8 C320.1,198.5 274.1,207.2 260.5,209 L260.5,209 Z" id="Shape" fill="#FFFFFF"></path>
                <path d="M260.5,209 C241.7,211.5 213.1,211.2 198.2,210 C163.9,207.3 131.1,202.4 119.5,199.3 C117.4,190.9 116.2,182 116.2,172.9 C116.2,160.7 118.3,149 122,138 C154.8,147.2 189,152 223.5,152 C257.9,152 291.9,147.2 324.6,138.1 C328.3,149 330.4,160.7 330.4,172.9 C330.4,180.4 329.6,187.7 328.2,194.8 C320.1,198.5 274.1,207.2 260.5,209 L260.5,209 Z" id="Shape" stroke="#34376B" stroke-width="2.5"></path>
                <circle id="Oval" fill="#65D8F0" cx="253.3" cy="180.7" r="28.5"></circle>
                <circle id="Oval" stroke="#34376B" stroke-width="2.5" cx="257.6" cy="179.3" r="28.5"></circle>
                <rect id="Rectangle-path" fill="#D3E5F5" x="205.2" y="47.9" width="25.1" height="21.7"></rect>
                <rect id="Rectangle-path" stroke="#34376B" stroke-width="2.5" x="205.2" y="47.9" width="25.1" height="21.7"></rect>
                <circle id="Oval" fill="#FEDB7D" cx="219.6" cy="26.2" r="26"></circle>
                <path d="M191.7,17.7 C191.1,19.6 190.7,20.4 190.7,26.3 C190.7,40.7 202.3,52.3 216.7,52.3 C231.1,52.3 242.7,40.7 242.7,26.3 C242.7,11.9 231.1,0.3 216.7,0.3 C208.2,0.3 200.7,4.4 195.9,10.6" id="Shape" stroke="#34376B" stroke-width="2.5"></path>
                <rect id="Rectangle-path" fill="#34376B" x="191.2" y="420.4" width="97.5" height="123.8"></rect>
                <path d="M318.1,583.3 L163,583.3 C150.1,583.3 139.7,572.9 139.7,560 L139.7,559.5 C139.7,546.6 150.1,536.2 163,536.2 L318.2,536.2 C331.1,536.2 341.5,546.6 341.5,559.5 L341.5,560 C341.4,572.9 331,583.3 318.1,583.3 L318.1,583.3 Z" id="Shape" fill="#D3E5F5"></path>
                <path d="M260,583.3 L318.1,583.3 C331,583.3 341.4,572.9 341.4,560 L341.4,559.5 C341.4,559.1 341.4,558.8 341.3,558.4 C317.2,573 289.5,581.9 260,583.3 L260,583.3 Z" id="Shape" fill="#B5CEE2"></path>
                <path d="M318.1,583.3 L163,583.3 C150.1,583.3 139.7,572.9 139.7,560 L139.7,559.5 C139.7,546.6 150.1,536.2 163,536.2 L318.2,536.2 C331.1,536.2 341.5,546.6 341.5,559.5 L341.5,560 C341.4,572.9 331,583.3 318.1,583.3 L318.1,583.3 Z" id="Shape" stroke="#34376B" stroke-width="2.5"></path>
                <path d="M222.9,242.7 C256.2,242.7 289,236.5 319.7,224.9 L356,333.9 C358.2,340.4 358.3,347.5 356.4,354.1 L322,472.4 L130,471.4 L92.5,354.3 C90.6,348.3 90.4,341.9 91.9,335.7 L120.2,222.5 C152.6,235.7 187.5,242.7 222.9,242.7 L222.9,242.7 Z" id="Shape" fill="#D3E5F5"></path>
                <path d="M215.9,466 C176.6,466 140.5,449.4 114.5,423 L130,471.4 L322.1,472.3 L356.4,354 C357.6,350 358,345.8 357.6,341.6 C348.3,411.1 287.6,466 215.9,466 L215.9,466 Z" id="Shape" fill="#B5CEE2"></path>
                <path d="M169.9,238.4 C190,243.1 202.1,242.6 223,242.6 C256.3,242.6 289.1,236.4 319.8,224.8 L352.8,324 C357.1,336.9 357.4,350.8 353.6,363.9 L322.1,472.3 L130,471.4 L95.4,363.3 C91.6,351.4 91.2,338.7 94.2,326.6 L120.2,222.6 C133.5,228 147.3,232.3 161.3,235.6" id="Shape" stroke="#34376B" stroke-width="2.5"></path>
                <rect id="Rectangle-path" fill="#F4888E" x="260.2" y="289.2" width="46.7" height="63.7"></rect>
                <g id="Group" transform="translate(264.000000, 285.000000)" stroke-width="2.5" stroke="#34376B">
                    <polyline id="Shape" points="41.4 0 0.4 0 0.4 23.4"></polyline>
                    <polyline id="Shape" points="0.4 33.4 0.4 63.7 47.1 63.7 47.1 0"></polyline>
                </g>
                <g id="wheel_r_2_" transform="translate(68.000000, 445.000000)" fill="#D3E5F5">
                    <g id="Group">
                        <ellipse id="Oval" cx="80.9" cy="114.6" rx="80.2" ry="114.6"></ellipse>
                        <ellipse id="Oval" cx="74" cy="114.8" rx="17.1" ry="23.5"></ellipse>
                    </g>
                </g>
                <g id="wheel_r_1_" transform="translate(146.000000, 461.000000)" fill="#B5CEE2">
                    <path d="M44.9,0.9 C63.8,25.2 75.2,55.5 75.2,88.1 C75.2,141.3 44.9,188.4 0.9,213 C1.6,213 2.2,213.1 2.9,213.1 C47.2,213.1 83.1,161.8 83.1,98.5 C83.1,57.3 67.8,21.1 44.9,0.9 L44.9,0.9 Z" id="Shape"></path>
                </g>
                <g id="wheel_r_3_" transform="translate(70.000000, 446.000000)" stroke-width="2.5" stroke="#34376B">
                    <g id="Group">
                        <ellipse id="Oval" cx="80.3" cy="115" rx="80.2" ry="114.6"></ellipse>
                        <ellipse id="Oval" cx="73.5" cy="115.2" rx="17.1" ry="23.5"></ellipse>
                    </g>
                </g>
                <g id="PALM_3_" transform="translate(0.000000, 137.000000)">
                    <g id="Group" transform="translate(180.000000, 64.000000)" fill="#34376B">
                        <polygon id="Shape" points="11.4 26.4 0.8 34 16.7 64.1 27.3 56.4"></polygon>
                        <polygon id="Shape" points="29.3 6.9 19.4 0.8 0.5 33.5 10.5 39.6"></polygon>
                    </g>
                    <g id="Group">
                        <path d="M264.4,87 C258,86.8 251.5,88.8 246.1,93.1 C246.1,93.1 243.6,95.1 241.7,92.6 L202.7,43.6 C200.9,40.9 203.2,39.2 203.3,39.2 C208.7,34.9 212.1,29 213.3,22.7 L195.9,1 C189.5,0.8 183.1,2.7 177.7,6.9 C165.9,16.2 163.6,32.9 172.1,45 L172.1,45 L236.4,125.4 C246.4,135.3 262.3,136.3 273.6,127.3 C279,123 282.3,117.1 283.5,110.8 L264.4,87 L264.4,87 Z" id="Shape" fill="#6CDDB5"></path>
                        <path d="M265.8,87 C259.4,86.8 252.9,88.8 247.5,93.1 C247.5,93.1 245,95.1 243.1,92.6 L204.1,43.6 C202.3,40.9 204.6,39.2 204.7,39.2 C210.1,34.9 213.5,29 214.7,22.7 L197.3,1 C190.9,0.8 184.5,2.7 179.1,6.9 C167.3,16.2 165,32.9 173.5,45 L173.5,45 L237.8,125.4 C247.8,135.3 263.7,136.3 275,127.3 C280.4,123 283.7,117.1 284.9,110.8 L265.8,87 L265.8,87 Z" id="Shape" stroke="#34376B" stroke-width="2.5"></path>
                        <path d="M276.3,127.7 C281,136.6 287.6,146.9 279.2,156.2 C268.4,168.1 260.9,151.8 268.9,151.4 C272.4,151.2 279.7,160.3 280.4,163.2 C282,169.9 279.2,170.2 275.3,175.3 C268.8,183.9 258,196.9 250.8,180 C260.5,164.9 267.2,188.9 265.8,197.2 C264.9,202.5 263,207.8 257.5,210.4 C253.4,212.3 243.6,212.9 243.9,206 C244.1,201.8 250.8,200.4 253.6,203.1 C257.9,207.4 252.3,216.7 249.6,219.8 C245.4,224.6 236.2,231.1 229.6,230.5 C224.9,230 217.5,224.1 223.3,219 C234.9,208.8 233.8,234.7 233.7,239 C233.4,246.6 234.4,250.8 227,254.4 C223.3,256.2 215.9,257.8 212.8,254.2 C204.4,244.6 234.2,243 223.3,263.6 C218.6,272.5 202.8,283.9 192.1,277.9 C186.3,274.7 182.1,264.1 191.9,264.5 C199.3,264.8 199.3,272.4 198.5,278.6 C197.2,289.5 185.1,298.4 173.6,297.8 C167.7,297.5 162.8,296.6 162.4,289.3 C161.9,280.6 168.7,281.7 171.2,289.4 C175.5,302.1 159.1,309.2 149.7,312.2 C142.1,314.6 138.5,316 134,308.2 C131.6,303.9 130.4,296.9 134.7,294.1 C146.5,286.5 146.1,312.5 143.4,317.9 C140.2,324.3 121.5,334.1 113.9,330.4 C98.5,322.8 120,300.7 117.7,322.9 C116.6,333 95,353.2 86.2,342.5 C78.1,332.6 96.8,319.5 98.6,337.9 C99.8,350.2 92.9,357.7 81.5,359.7 C73.3,361.2 52.7,366.9 47.2,358.5 C41.2,349.4 54.9,334.5 56.8,352.8 C58.1,366 54,369.4 42.6,375.1 C15.4,388.6 15.5,388.2 0.4,421.6" id="Shape" stroke="#34376B" stroke-width="2.5"></path>
                    </g>
                    <g id="Group" transform="translate(209.000000, 68.000000)" fill="#34376B">
                        <polygon id="Shape" points="22.8 26.4 31.8 34 9.6 64.3 0.6 56.7"></polygon>
                        <polygon id="Shape" points="9 7.1 20.2 0.9 32.2 33.5 21 39.7"></polygon>
                    </g>
                </g>
                <g id="shoulder_3_" transform="translate(63.000000, 226.000000)">
                    <rect id="Rectangle-path" fill="#B5CEE2" transform="translate(93.702785, 95.133085) rotate(135.773837) translate(-93.702785, -95.133085) " x="72.6525555" y="44.2825305" width="42.1004591" height="101.701109"></rect>
                    <path d="M26.8,99.9 C22.6,97.5 18.7,94.5 15.2,90.9 C-5.2,69.9 -4.6,36.3 16.4,15.8 C37.4,-4.7 71.1,-4.4 91.5,16.6 C95,20.2 97.9,24.2 100.2,28.5 L26.8,99.9 L26.8,99.9 Z" id="Shape" fill="#D3E5F5"></path>
                    <path d="M86.9,41.4 L26.8,99.9 C22.6,97.5 18.7,94.5 15.2,90.9 C-5.2,69.9 -4.6,36.3 16.4,15.8 C37.4,-4.7 71.1,-4.4 91.5,16.6 C95,20.2 97.9,24.2 100.2,28.5 L93.1,35.5" id="Shape" stroke="#34376B" stroke-width="2.5"></path>
                </g>
                <g id="forearm_7_" transform="translate(162.000000, 251.000000)">
                    <rect id="Rectangle-path" fill="#B5CEE2" transform="translate(40.052470, 54.096950) rotate(9.194825) translate(-40.052470, -54.096950) " x="19.0014188" y="3.4444206" width="42.1021024" height="101.305059"></rect>
                    <circle id="Oval" fill="#D3E5F5" cx="26.2" cy="106.8" r="25.8"></circle>
                    <circle id="Oval" stroke="#34376B" stroke-width="2.5" cx="26.2" cy="106.8" r="25.8"></circle>
                </g>
                <path d="M756.471273,302.854585 C758.861881,304.423422 763.643097,306.141671 769.096672,306.141671 C780.750886,306.141671 786.802112,299.34338 786.802112,291.573904 C786.802112,284.775612 781.94619,280.293222 775.96967,279.097918 L775.96967,278.948505 C781.94619,276.782017 784.93445,272.523746 784.93445,267.518411 C784.93445,261.616597 780.601472,255.938903 771.039041,255.938903 C765.809586,255.938903 760.878957,257.806566 758.338936,259.674228 L760.057185,264.455444 C762.148967,262.961314 765.884292,261.243065 769.76903,261.243065 C775.820257,261.243065 778.285571,264.679564 778.285571,268.564302 C778.285571,274.316702 772.234345,276.782017 767.453129,276.782017 L763.79251,276.782017 L763.79251,281.712646 L767.453129,281.712646 C773.803181,281.712646 779.929114,284.626199 780.003821,291.424491 C780.078527,295.458642 777.4638,300.83751 769.021965,300.83751 C764.464869,300.83751 760.131892,298.969847 758.264229,297.774543 L756.471273,302.854585 Z M811.231138,255.938903 C801.36988,255.938903 794.347469,264.903683 794.347469,281.1897 C794.496882,297.251598 800.921641,306.141671 810.409366,306.141671 C821.167102,306.141671 827.293035,297.027478 827.293035,280.517342 C827.293035,265.053096 821.465928,255.938903 811.231138,255.938903 L811.231138,255.938903 Z M810.857605,261.018945 C817.655897,261.018945 820.718863,268.863128 820.718863,280.816168 C820.718863,293.217447 817.506484,301.061629 810.782899,301.061629 C804.806379,301.061629 800.921641,293.889805 800.921641,281.264407 C800.921641,268.041356 805.105205,261.018945 810.857605,261.018945 L810.857605,261.018945 Z" id="30" fill="#000000"></path>
                <g id="Group" transform="translate(1067.000000, 202.000000)">
                    <circle id="Oval" fill="#FFFFFF" cx="84.8" cy="79.3" r="78.8"></circle>
                    <path d="M13,35.9 C22.4,20.9 34.3,11.6 54.4,5.2 C95.9,-8 140.3,14.2 153.9,55.5 C167.5,96.9 144.9,141.4 103.6,155 C62.2,168.6 17.7,146 4.1,104.7 C-2.3,85.1 -0.7,64.8 7.3,47.4" id="Shape" stroke="#34376B" stroke-width="2.5"></path>
                </g>
                <path d="M1142.90369,304.5064 L1142.90369,299.052825 L1121.08939,299.052825 L1121.08939,298.903412 L1124.97413,295.3175 C1135.20892,285.456242 1141.70839,278.209712 1141.70839,269.244932 C1141.70839,262.297227 1137.3007,255.125403 1126.84179,255.125403 C1121.2388,255.125403 1116.45759,257.217185 1113.0958,260.056033 L1115.18758,264.687836 C1117.42877,262.820173 1121.08939,260.578978 1125.49708,260.578978 C1132.74361,260.578978 1135.13421,265.136074 1135.13421,270.066704 C1135.05951,277.387941 1129.45652,283.663286 1117.05524,295.466913 L1111.90049,300.472249 L1111.90049,304.5064 L1142.90369,304.5064 Z M1166.43624,255.125403 C1156.57498,255.125403 1149.55257,264.090183 1149.55257,280.3762 C1149.70198,296.438098 1156.12674,305.328171 1165.61447,305.328171 C1176.3722,305.328171 1182.49814,296.213978 1182.49814,279.703842 C1182.49814,264.239596 1176.67103,255.125403 1166.43624,255.125403 L1166.43624,255.125403 Z M1166.06271,260.205445 C1172.861,260.205445 1175.92396,268.049628 1175.92396,280.002668 C1175.92396,292.403947 1172.71158,300.24813 1165.988,300.24813 C1160.01148,300.24813 1156.12674,293.076305 1156.12674,280.450907 C1156.12674,267.227856 1160.3103,260.205445 1166.06271,260.205445 L1166.06271,260.205445 Z" id="20" fill="#000000"></path>
            </g>
            <g id="boy_2">
                <g id="PALM_4_" transform="translate(1023.000000, 291.000000)">
                    <g id="Group">
                        <circle id="Oval" fill="#C8E2FC" cx="161.2" cy="152.8" r="152.5"></circle>
                        <path d="M25.2,70.1 C43.4,41 66.5,23 105.3,10.6 C185.6,-15 271.5,27.9 297.7,108 C324,188 280.4,274.2 200.3,300.4 C120.2,326.6 34.1,283.1 7.9,203 C-4.5,165.1 -1.3,125.8 14,92.2" id="Shape" stroke="#34376B" stroke-width="2.5"></path>
                    </g>
                </g>
                <g id="Group">
                    <path d="M1279.4,526.4 C1252.3,515.5 1219.9,516.2 1219.9,516.2 C1219.9,516.2 1225.2,514.7 1137,515.6 C1105,515.9 1083.8,521.1 1069.6,527.6 L1069.9,540.4 C1094.3,572.7 1133,593.5 1176.5,593.5 C1220,593.5 1254.5,574.1 1278.8,542 L1279.4,526.4 L1279.4,526.4 Z" id="Shape" fill="#9D87DA"></path>
                    <rect id="Rectangle-path" fill="#F3BA99" transform="translate(1177.085277, 506.215459) rotate(0.440997) translate(-1177.085277, -506.215459) " x="1149.93447" y="495.015127" width="54.3016084" height="22.4006635"></rect>
                    <path d="M1127.3,538.6 L1125.9,538.6 C1105.8,538.6 1089.6,526.8 1089.6,512.2 L1089.6,363.6 C1089.6,349 1105.9,337.2 1125.9,337.2 L1127.3,337.2 C1147.4,337.2 1163.6,349 1163.6,363.6 L1163.6,512.2 C1163.6,526.7 1147.4,538.6 1127.3,538.6 L1127.3,538.6 Z" id="Shape" fill="#EEBF56"></path>
                    <path d="M1228,538.6 L1227.3,538.6 C1208.6,538.6 1193.4,527.3 1193.4,513.4 L1193.4,374.4 C1193.4,360.5 1208.6,349.2 1227.3,349.2 L1228,349.2 C1246.7,349.2 1261.9,360.5 1261.9,374.4 L1261.9,513.4 C1261.9,527.3 1246.7,538.6 1228,538.6 L1228,538.6 Z" id="Shape" fill="#EEBF56"></path>
                    <ellipse id="Oval" fill="#F6D6B4" transform="translate(1245.525700, 422.185795) rotate(180.735168) translate(-1245.525700, -422.185795) " cx="1245.5257" cy="422.185795" rx="13.9997524" ry="18.7996675"></ellipse>
                    <ellipse id="Oval" fill="#F6D6B4" transform="translate(1117.057558, 416.893205) rotate(180.735168) translate(-1117.057558, -416.893205) " cx="1117.05756" cy="416.893205" rx="13.9997524" ry="18.7996675"></ellipse>
                    <path d="M1162.9,501.2 L1193.9,501.6 C1221.8,502 1244.7,478.4 1245.1,448.9 L1245.7,403.5 C1246.1,374.1 1223.8,349.9 1195.9,349.5 L1164.9,349.1 C1137,348.7 1114.1,372.3 1113.7,401.8 L1113.1,447.2 C1112.7,476.6 1135,500.8 1162.9,501.2 L1162.9,501.2 Z" id="Shape" fill="#F6D6B4"></path>
                    <path d="M1180.1,500.5 C1150,500.5 1123.7,481 1113.5,454.1 C1116.4,480.3 1137.3,500.7 1163,501.1 L1194,501.5 C1217.9,501.8 1238.2,484.5 1243.7,461 C1231.8,484.3 1207.6,500.5 1180.1,500.5 L1180.1,500.5 Z" id="Shape" fill="#F3BA99"></path>
                    <path d="M1187.4,437.5 L1173.2,437.3" id="Shape" stroke="#F3BA99" stroke-width="3"></path>
                    <path d="M1201.3,461.9 L1201.3,462.7 C1201.2,473.4 1191.8,482 1180.4,481.8 C1169,481.7 1159.8,472.8 1160,462.1 L1160,461.3 L1201.3,461.9 L1201.3,461.9 Z" id="Shape" fill="#FFFFFF"></path>
                    <g></g>
                    <g transform="translate(1209.000000, 415.000000)" id="Shape" fill="#34376B">
                        <path d="M3.4,5.1 C6.6,5.1 6.6,0.1 3.4,0.1 C0.2,0.1 0.1,5.1 3.4,5.1 L3.4,5.1 L3.4,5.1 Z"></path>
                    </g>
                    <path d="M1145.9,418.5 C1149.1,418.5 1149.1,413.5 1145.9,413.5 C1142.7,413.5 1142.7,418.5 1145.9,418.5 L1145.9,418.5 L1145.9,418.5 Z" id="Shape" fill="#34376B"></path>
                    <path d="M1137.5,394.5 C1137.5,394.5 1147.9,388 1158.7,394.8" id="Shape" stroke="#EEBF56" stroke-width="3"></path>
                    <path d="M1217.6,394 C1217.6,394 1207.4,387.3 1196.4,393.7" id="Shape" stroke="#EEBF56" stroke-width="3"></path>
                    <path d="M1125.2,349.1 C1125.2,349.1 1141.3,301.4 1199.4,313.4 C1251,324.1 1263.9,361.9 1261.8,384.9 C1259.7,407.9 1237.7,403.5 1237.7,403.5 C1237.7,403.5 1218.3,376.7 1197.6,380.2 C1176.9,383.7 1119,399.5 1125.2,349.1 L1125.2,349.1 Z" id="Shape" fill="#EEBF56"></path>
                </g>
            </g>
            <g id="paper_1" transform="translate(707.000000, 828.000000)" stroke="#717275" stroke-width="3" fill="#717275">
                <g id="Group" transform="translate(0.000000, 183.000000)">
                    <path d="M228.8,0.7 L30,0.7" id="Shape"></path>
                    <path d="M197.9,10.7 L11.8,10.7" id="Shape"></path>
                    <path d="M220.7,21.8 L77.4,21.8" id="Shape"></path>
                    <path d="M220.7,32.9 L84.1,32.9" id="Shape"></path>
                    <path d="M197.9,44 L30,44" id="Shape"></path>
                    <path d="M228.8,55.8 L84.1,55.8" id="Shape"></path>
                    <path d="M228.8,68.5 L51.5,68.5" id="Shape"></path>
                    <path d="M187.2,79.6 L0.3,79.6" id="Shape"></path>
                </g>
                <g id="Group" transform="translate(22.000000, 93.000000)">
                    <path d="M0.9,0.9 L199.6,0.9" id="Shape"></path>
                    <path d="M31.7,10.9 L217.9,10.9" id="Shape"></path>
                    <path d="M8.9,22 L152.3,22" id="Shape"></path>
                    <path d="M8.9,33.1 L145.6,33.1" id="Shape"></path>
                    <path d="M31.7,44.2 L199.6,44.2" id="Shape"></path>
                    <path d="M0.9,56 L145.6,56" id="Shape"></path>
                    <path d="M0.9,68.7 L178.2,68.7" id="Shape"></path>
                    <path d="M42.4,79.8 L229.4,79.8" id="Shape"></path>
                </g>
                <g id="Group" transform="translate(13.000000, 0.000000)">
                    <path d="M229.3,0.1 L30.6,0.1" id="Shape"></path>
                    <path d="M198.5,10.1 L12.3,10.1" id="Shape"></path>
                    <path d="M221.3,21.2 L78,21.2" id="Shape"></path>
                    <path d="M221.3,32.3 L84.6,32.3" id="Shape"></path>
                    <path d="M198.5,43.4 L30.6,43.4" id="Shape"></path>
                    <path d="M229.3,55.3 L84.6,55.3" id="Shape"></path>
                    <path d="M229.3,67.9 L52,67.9" id="Shape"></path>
                    <path d="M187.8,79 L0.8,79" id="Shape"></path>
                </g>
            </g>
            <g id="paper_2" transform="translate(1133.000000, 1007.000000)" stroke-width="3" stroke="#717275" fill="#717275">
                <g id="Group">
                    <path d="M0.6,79.8 L175.4,79.8" id="Shape"></path>
                    <path d="M27.7,69.8 L191.5,69.8" id="Shape"></path>
                    <path d="M7.7,58.7 L133.8,58.7" id="Shape"></path>
                    <path d="M7.7,47.6 L127.9,47.6" id="Shape"></path>
                    <path d="M27.7,36.5 L175.4,36.5" id="Shape"></path>
                    <path d="M0.6,24.7 L127.9,24.7" id="Shape"></path>
                    <path d="M0.6,12 L156.6,12" id="Shape"></path>
                    <path d="M37.2,0.9 L201.6,0.9" id="Shape"></path>
                </g>
            </g>
            <g id="icon_sms2" transform="translate(587.000000, 704.000000)">
                <g id="Group" transform="translate(3.000000, 298.000000)">
                    <circle id="Oval" fill="#FFFFFF" cx="51.8" cy="51.5" r="50.9"></circle>
                    <path d="M10.9,20.7 C15.5,15.5 20.3,11.1 28.2,6.5 C52.5,-7.7 83.9,3.1 96.9,28 C109.9,52.9 100.3,83.7 75.4,96.7 C50.5,109.7 19.7,100.1 6.7,75.2 C-1.1,60.3 -0.8,43.4 6,29.4" id="Shape" stroke="#34376B" stroke-width="2.5"></path>
                    <path d="M79.5,30.7 L50.6,30.9 C47.4,30.9 44.9,33.5 44.9,36.7 L45,54 C45,57.7 48,60.6 51.7,60.6 L73.7,60.4 C75.7,60.4 77.5,61.2 78.8,62.7 L86,72.2 L85.7,36.9 C85.7,33.5 82.9,30.7 79.5,30.7 L79.5,30.7 Z" id="Shape" fill="#F4888E"></path>
                    <path d="M76.8,28.1 L47.9,28.3 C44.7,28.3 42.2,30.9 42.2,34.1 L42.3,51.4 C42.3,55.1 45.3,58 49,58 L71,57.8 C73,57.8 74.8,58.6 76.1,60.1 L83.3,69.6 L83,34.3 C83.1,30.9 80.3,28.1 76.8,28.1 L76.8,28.1 Z" id="Shape" stroke="#34376B" stroke-width="2.5"></path>
                    <path d="M34.3,42 L63.2,41.5 C66.4,41.4 69,44 69,47.1 L69.3,64.4 C69.4,68.1 66.4,71.1 62.8,71.2 L40.8,71.6 C38.8,71.6 37,72.5 35.7,74 L28.8,83.6 L28.2,48.3 C28.1,44.9 30.8,42 34.3,42 L34.3,42 Z" id="Shape" fill="#FEDB7D"></path>
                    <path d="M31.7,39.3 L60.6,38.8 C63.8,38.7 66.4,41.3 66.4,44.4 L66.7,61.7 C66.8,65.4 63.8,68.4 60.2,68.5 L38.2,68.9 C36.2,68.9 34.4,69.8 33.1,71.3 L26.2,80.9 L25.6,45.6 C25.5,42.3 28.2,39.4 31.7,39.3 L31.7,39.3 Z" id="Shape" stroke="#34376B" stroke-width="2.5"></path>
                </g>
                <g id="Group" transform="translate(29.000000, 200.000000)">
                    <circle id="Oval" fill="#FFFFFF" cx="51.1" cy="50.4" r="50.2"></circle>
                    <path d="M29.2,71.3 L22,49.3 C20.6,45.2 24.1,40.3 29.8,38.4 L64.9,26.9 C70.5,25 76.3,26.9 77.6,31.1 L86.2,57.5 C87.6,61.6 84.1,66.5 78.4,68.4 L43.3,79.9 C37.7,81.8 31.9,79.9 30.6,75.7 L29.2,71.3" id="Shape" fill="#FEDB7D"></path>
                    <path d="M26.6,69.6 L19.4,47.6 C18,43.5 21.5,38.6 27.2,36.7 L62.3,25.2 C67.9,23.3 73.7,25.2 75,29.4 L83.6,55.8 C85,59.9 81.5,64.8 75.8,66.7 L40.7,78.2 C35.1,80.1 29.3,78.2 28,74 L26.6,69.6" id="Shape" stroke="#34376B" stroke-width="2.5"></path>
                    <polyline id="Shape" stroke="#34376B" stroke-width="2.5" points="28.3 47.4 52.1 53.5 67.6 34.5"></polyline>
                    <path d="M44.6,52 L36.1,66" id="Shape" stroke="#34376B" stroke-width="2.5"></path>
                    <path d="M58.7,47.4 L73.6,52.6" id="Shape" stroke="#34376B" stroke-width="2.5"></path>
                    <path d="M9.1,22.2 C15.1,12.6 22.7,6.7 35.5,2.6 C61.9,-5.8 90.2,8.3 98.9,34.7 C107.5,61.1 93.2,89.4 66.8,98.1 C40.4,106.7 12.1,92.4 3.4,66 C-0.7,53.5 0.4,40.6 5.4,29.5" id="Shape" stroke="#34376B" stroke-width="2.5"></path>
                </g>
                <g id="Group" transform="translate(0.000000, 97.000000)">
                    <circle id="Oval" fill="#FFFFFF" cx="51.7" cy="51.9" r="50.9"></circle>
                    <path d="M10.8,21 C15.4,15.8 20.2,11.4 28.1,6.8 C52.4,-7.4 83.8,3.4 96.8,28.3 C109.8,53.2 100.2,84 75.3,97 C50.4,110 19.6,100.4 6.6,75.5 C-1.2,60.6 -0.9,43.7 5.9,29.7" id="Shape" stroke="#34376B" stroke-width="2.5"></path>
                    <path d="M75.7,47 C69.7,34 54.3,41.5 49.5,46.9 C41.9,41.4 37.3,39.9 37.3,39.9 C34.1,39.2 22.2,37.1 22.5,51.3 C23,75.6 50.3,90.2 50.3,90.2 C50.3,90.2 84.3,65.7 75.7,47 L75.7,47 Z" id="Shape" fill="#F4888E"></path>
                    <path d="M77.6,44 C71.6,31 56.2,38.5 51.4,43.9 C43.8,38.4 39.2,36.9 39.2,36.9 C36,36.2 24.1,34.1 24.4,48.3 C24.9,72.6 52.2,87.2 52.2,87.2 C52.2,87.2 86.2,62.7 77.6,44 L77.6,44 Z" id="Shape" stroke="#34376B" stroke-width="2.5"></path>
                </g>
                <g id="Group" transform="translate(436.000000, 301.000000)">
                    <circle id="Oval" fill="#FFFFFF" cx="49.6" cy="50.2" r="48.6"></circle>
                    <path d="M20.3,52.1 L28.7,31.3 C30.3,27.4 35.9,25.9 41.3,28.1 L74.4,41.5 C79.7,43.6 82.8,48.6 81.2,52.5 L71.2,77.4 C69.6,81.3 64,82.8 58.6,80.6 L25.5,67.2 C20.2,65.1 17.1,60.1 18.7,56.2 L20.3,52.1" id="Shape" fill="#FEDB7D"></path>
                    <path d="M19.5,49.2 L27.9,28.4 C29.5,24.5 35.1,23 40.5,25.2 L73.6,38.6 C78.9,40.7 82,45.7 80.4,49.6 L70.4,74.5 C68.8,78.4 63.2,79.9 57.8,77.7 L24.7,64.3 C19.4,62.2 16.3,57.2 17.9,53.3 L19.5,49.2" id="Shape" stroke="#34376B" stroke-width="2.5"></path>
                    <polyline id="Shape" stroke="#34376B" stroke-width="2.5" points="34.6 33.8 48.4 53.2 71.8 48.8"></polyline>
                    <path d="M43.8,47.4 L28.8,52.4" id="Shape" stroke="#34376B" stroke-width="2.5"></path>
                    <path d="M57.1,52.8 L64.9,65.9" id="Shape" stroke="#34376B" stroke-width="2.5"></path>
                    <path d="M36,3.2 C46.4,-0.2 55.7,0.2 67.8,5.2 C92.6,15.5 104.8,43.6 94.7,68.5 C84.7,93.4 56.3,105.5 31.4,95.4 C6.5,85.4 -5.6,57 4.5,32.1 C9.3,20.3 18.1,11.4 28.8,6.3" id="Shape" stroke="#34376B" stroke-width="2.5"></path>
                </g>
                <g id="Group" transform="translate(423.000000, 201.000000)">
                    <circle id="Oval" fill="#FFFFFF" cx="50.1" cy="50.3" r="49.3"></circle>
                    <path d="M10.6,20.4 C15,15.4 19.7,11.1 27.3,6.6 C50.8,-7.2 81.2,3.3 93.8,27.5 C106.4,51.7 97.1,81.4 73,94 C48.9,106.6 19.1,97.3 6.5,73.1 C-1,58.7 -0.7,42.3 5.8,28.7" id="Shape" stroke="#34376B" stroke-width="2.5"></path>
                    <path d="M76.9,30.1 L48.9,30.3 C45.8,30.3 43.4,32.8 43.4,35.9 L43.5,52.7 C43.5,56.3 46.4,59.1 50,59.1 L71.3,58.9 C73.2,58.9 75,59.7 76.2,61.1 L83.1,70.3 L82.8,36.1 C83,32.8 80.3,30.1 76.9,30.1 L76.9,30.1 Z" id="Shape" fill="#F4888E"></path>
                    <path d="M74.4,27.6 L46.4,27.8 C43.3,27.8 40.9,30.3 40.9,33.4 L41,50.2 C41,53.8 43.9,56.6 47.5,56.6 L68.8,56.4 C70.7,56.4 72.5,57.2 73.7,58.6 L80.6,67.8 L80.3,33.6 C80.5,30.3 77.7,27.6 74.4,27.6 L74.4,27.6 Z" id="Shape" stroke="#34376B" stroke-width="2.5"></path>
                    <path d="M33.2,41 L61.2,40.5 C64.3,40.4 66.8,42.9 66.9,46 L67.2,62.8 C67.3,66.4 64.4,69.3 60.9,69.3 L39.6,69.7 C37.7,69.7 35.9,70.6 34.7,72.1 L28,81.4 L27.4,47.2 C27.1,43.8 29.8,41.1 33.2,41 L33.2,41 Z" id="Shape" fill="#FEDB7D"></path>
                    <path d="M30.6,38.5 L58.6,38 C61.7,37.9 64.2,40.4 64.3,43.5 L64.6,60.3 C64.7,63.9 61.8,66.8 58.3,66.8 L37,67.2 C35.1,67.2 33.3,68.1 32.1,69.6 L25.4,78.9 L24.8,44.7 C24.6,41.3 27.3,38.5 30.6,38.5 L30.6,38.5 Z" id="Shape" stroke="#34376B" stroke-width="2.5"></path>
                </g>
                <g id="Group" transform="translate(30.000000, 0.000000)">
                    <circle id="Oval" fill="#FFFFFF" cx="50.5" cy="50.7" r="49.5"></circle>
                    <path d="M10.8,20.6 C15.2,15.6 19.9,11.2 27.6,6.7 C51.2,-7.1 81.8,3.4 94.5,27.7 C107.2,52 97.8,81.9 73.5,94.6 C49.2,107.3 19.3,97.9 6.6,73.6 C-1,59.1 -0.7,42.6 5.9,29" id="Shape" stroke="#34376B" stroke-width="2.5"></path>
                    <path d="M55.5,21.5 L29,47.5 C24,52.4 21.3,59.3 22.1,66.3 C22.7,71.5 25.1,76.7 31.6,78.7 C37,80.4 42.6,78.7 47.1,75.3 C60.9,64.6 69.4,55.8 74,50.4 C77.7,46.1 80.4,40.1 78.5,34.8 C77.2,31.3 76.4,30.1 70.3,29.5 C64.4,29 58.7,33 54.6,37.3 L40.8,51 C38.1,53.8 35.2,56.2 35.2,60.1 C35.2,64.3 38.5,66.8 45.1,63.6 C45.8,63.3 46.4,62.9 46.9,62.4 C59.1,51.3 64.9,45.6 64.9,45.6" id="Shape" stroke="#34376B" stroke-width="2.5"></path>
                </g>
            </g>
        </g>
    </g>
</svg>