<?xml version="1.0" encoding="utf-8"?>
<!-- Generator: Adobe Illustrator 17.1.0, SVG Export Plug-In . SVG Version: 6.00 Build 0)  -->
<!DOCTYPE svg PUBLIC "-//W3C//DTD SVG 1.1//EN" "http://www.w3.org/Graphics/SVG/1.1/DTD/svg11.dtd">
<svg version="1.1" id="Слой_1" xmlns="http://www.w3.org/2000/svg" xmlns:xlink="http://www.w3.org/1999/xlink" x="0px" y="0px"
	 viewBox="0 0 641.2 641.2" enable-background="new 0 0 641.2 641.2" xml:space="preserve">
<polygon fill="#6CDDB5" points="219.8,567.2 512.7,567.2 512.7,495.3 535.4,472.6 219.8,472.6 "/>
<polygon fill="#C8E2FC" points="517.6,433.7 117.3,433.7 117.3,368.3 86.2,347.6 517.6,347.6 "/>
<polygon fill="#C8E2FC" points="455.4,156.4 116.3,156.4 116.3,87.2 90,65.3 455.4,65.3 "/>
<polygon fill="#6CDDB5" points="188.1,293.9 527.2,293.9 527.2,224.7 553.5,202.8 188.1,202.8 "/>
<line fill="none" stroke="#65D8F0" stroke-width="2.5" stroke-linecap="round" stroke-miterlimit="10" x1="153.5" y1="97.6" x2="240.4" y2="97.6"/>
<line fill="none" stroke="#65D8F0" stroke-width="2.5" stroke-linecap="round" stroke-miterlimit="10" x1="256.6" y1="97.6" x2="343.4" y2="97.6"/>
<line fill="none" stroke="#65D8F0" stroke-width="2.5" stroke-linecap="round" stroke-miterlimit="10" x1="354.7" y1="97.6" x2="399.2" y2="97.6"/>
<line fill="none" stroke="#65D8F0" stroke-width="2.5" stroke-linecap="round" stroke-miterlimit="10" x1="154.2" y1="115" x2="279.4" y2="115"/>
<line fill="none" stroke="#65D8F0" stroke-width="2.5" stroke-linecap="round" stroke-miterlimit="10" x1="153.7" y1="132" x2="220.4" y2="132"/>
<line fill="none" stroke="#65D8F0" stroke-width="2.5" stroke-linecap="round" stroke-miterlimit="10" x1="297.7" y1="115" x2="338.5" y2="115"/>
<line fill="none" stroke="#65D8F0" stroke-width="2.5" stroke-linecap="round" stroke-miterlimit="10" x1="149.7" y1="377.9" x2="197.3" y2="377.9"/>
<line fill="none" stroke="#65D8F0" stroke-width="2.5" stroke-linecap="round" stroke-miterlimit="10" x1="220" y1="377.9" x2="332.8" y2="377.9"/>
<line fill="none" stroke="#65D8F0" stroke-width="2.5" stroke-linecap="round" stroke-miterlimit="10" x1="353.7" y1="377.3" x2="424.8" y2="377.3"/>
<line fill="none" stroke="#65D8F0" stroke-width="2.5" stroke-linecap="round" stroke-miterlimit="10" x1="149.5" y1="397.6" x2="262.6" y2="397.6"/>
<line fill="none" stroke="#65D8F0" stroke-width="2.5" stroke-linecap="round" stroke-miterlimit="10" x1="284.2" y1="397.6" x2="355" y2="397.6"/>
<line fill="none" stroke="#FFFFFF" stroke-width="2.5" stroke-linecap="round" stroke-miterlimit="10" x1="220.3" y1="254.8" x2="308.6" y2="254.8"/>
<line fill="none" stroke="#FFFFFF" stroke-width="2.5" stroke-linecap="round" stroke-miterlimit="10" x1="334.1" y1="234.8" x2="473.2" y2="234.8"/>
<line fill="none" stroke="#FFFFFF" stroke-width="2.5" stroke-linecap="round" stroke-miterlimit="10" x1="220.3" y1="272" x2="258.8" y2="272"/>
<line fill="none" stroke="#FFFFFF" stroke-width="2.5" stroke-linecap="round" stroke-miterlimit="10" x1="280.7" y1="272" x2="366.8" y2="272"/>
<line fill="none" stroke="#FFFFFF" stroke-width="2.5" stroke-linecap="round" stroke-miterlimit="10" x1="221" y1="288" x2="283.8" y2="288"/>
<line fill="none" stroke="#FFFFFF" stroke-width="2.5" stroke-linecap="round" stroke-miterlimit="10" x1="311.7" y1="268" x2="397.8" y2="268"/>
<line fill="none" stroke="#FFFFFF" stroke-width="2.5" stroke-linecap="round" stroke-miterlimit="10" x1="243.6" y1="503.4" x2="321.2" y2="503.4"/>
<line fill="none" stroke="#FFFFFF" stroke-width="2.5" stroke-linecap="round" stroke-miterlimit="10" x1="348" y1="503.4" x2="449.1" y2="503.4"/>
<line fill="none" stroke="#FFFFFF" stroke-width="2.5" stroke-linecap="round" stroke-miterlimit="10" x1="243.6" y1="522.1" x2="377.6" y2="522.1"/>
<line fill="none" stroke="#FFFFFF" stroke-width="2.5" stroke-linecap="round" stroke-miterlimit="10" x1="242.9" y1="520.1" x2="295.3" y2="520.1"/>
<line fill="none" stroke="#FFFFFF" stroke-width="2.5" stroke-linecap="round" stroke-miterlimit="10" x1="402.7" y1="522.1" x2="469.9" y2="522.1"/>
<g>
	<g>
		<circle fill="#C8E2FC" cx="55.2" cy="387.7" r="36.5"/>
		<path fill="none" stroke="#34376B" stroke-width="1.5" stroke-linecap="round" stroke-miterlimit="10" d="M21.9,367.6
			c4.3-7,9.9-11.3,19.2-14.2c19.2-6.1,39.8,4.2,46.1,23.3c6.3,19.2-4.2,39.8-23.3,46.1s-40.1-4.1-46.1-23.3c-3-9.5-3-14.1-0.9-21.7"
			/>
	</g>
	<g>
		
			<rect x="47.4" y="400.2" transform="matrix(1 7.697004e-003 -7.697004e-003 1 3.1027 -0.4031)" fill="#F3BA99" width="13.1" height="5.4"/>
		<g>
			
				<ellipse transform="matrix(-0.9999 -1.283053e-002 1.283053e-002 -0.9999 136.0101 766.0611)" fill="#F6D6B4" cx="70.5" cy="382.6" rx="3.4" ry="4.6"/>
		</g>
		<g>
			
				<ellipse transform="matrix(-0.9999 -1.283053e-002 1.283053e-002 -0.9999 73.995 763.1052)" fill="#F6D6B4" cx="39.4" cy="381.3" rx="3.4" ry="4.6"/>
		</g>
		<g>
			<path fill="#F6D6B4" d="M50.5,401.7l7.5,0.1c6.7,0.1,12.3-5.6,12.4-12.7l0.1-11c0.1-7.1-5.3-12.9-12-13l-7.5-0.1
				c-6.7-0.1-12.3,5.6-12.4,12.7l-0.1,11C38.4,395.7,43.8,401.6,50.5,401.7z"/>
		</g>
		<g>
			<path fill="#F3BA99" d="M63.2,400.2C63.2,400.2,63.2,400.2,63.2,400.2c-0.3,0-0.5,0.1-0.6,0.1c0,0-0.1,0-0.1,0
				c-0.2,0-0.4,0.1-0.6,0.1c0,0,0,0,0,0c-0.2,0-0.4,0-0.7,0.1c0,0-0.1,0-0.1,0c-0.2,0-0.4,0-0.5,0c-0.1,0-0.1,0-0.2,0
				c-0.2,0-0.3,0-0.5,0c-0.1,0-0.1,0-0.2,0c-0.2,0-0.4,0-0.6,0c-0.3,0-0.5,0-0.8,0c-0.1,0-0.1,0-0.2,0c-0.3,0-0.5,0-0.8-0.1
				c0,0-0.1,0-0.1,0c-0.2,0-0.5-0.1-0.7-0.1c0,0-0.1,0-0.1,0c-0.3,0-0.5-0.1-0.7-0.1c-0.1,0-0.1,0-0.2,0c-0.5-0.1-1-0.2-1.5-0.3
				c-0.1,0-0.1,0-0.2,0c-0.2-0.1-0.5-0.1-0.7-0.2c0,0-0.1,0-0.1,0c-0.2-0.1-0.4-0.1-0.7-0.2c0,0-0.1,0-0.1,0
				c-0.2-0.1-0.5-0.2-0.7-0.3c0,0-0.1,0-0.1-0.1c-0.5-0.2-0.9-0.4-1.4-0.6c0,0-0.1,0-0.1-0.1c-0.2-0.1-0.4-0.2-0.7-0.3
				c0,0-0.1,0-0.1,0c-0.2-0.1-0.4-0.2-0.6-0.4c0,0-0.1,0-0.1,0c-0.2-0.1-0.4-0.3-0.6-0.4c0,0-0.1,0-0.1-0.1
				c-0.4-0.3-0.9-0.6-1.3-0.9c0,0-0.1,0-0.1-0.1c-0.2-0.2-0.4-0.3-0.6-0.5c0,0,0,0,0,0c-0.2-0.2-0.4-0.3-0.6-0.5c0,0,0,0-0.1,0
				c-0.2-0.2-0.4-0.3-0.6-0.5c0,0,0,0-0.1-0.1c-0.4-0.4-0.7-0.7-1.1-1.1c0,0,0,0-0.1-0.1c-0.2-0.2-0.4-0.4-0.5-0.6c0,0,0,0,0,0
				c-0.2-0.2-0.3-0.4-0.5-0.6c0,0,0,0,0,0c-0.2-0.2-0.3-0.4-0.5-0.6c0,0,0,0,0-0.1c-0.3-0.4-0.6-0.9-0.9-1.3c0,0,0,0,0-0.1
				c-0.1-0.2-0.3-0.5-0.4-0.7c0,0,0,0,0,0c-0.1-0.2-0.3-0.5-0.4-0.7c0,0,0,0,0,0c-0.1-0.2-0.2-0.5-0.4-0.7c0,0,0,0,0-0.1
				c-0.2-0.5-0.4-1-0.6-1.5c0,0,0,0,0-0.1c-0.1-0.3-0.2-0.5-0.3-0.8l0,3.3c-0.1,7.1,5.3,12.9,12,13l7.5,0.1c2.4,0,4.6-0.7,6.5-1.9
				l0,0C64.1,400,63.7,400.1,63.2,400.2z"/>
		</g>
		<g>
			<path fill="#FFFFFF" d="M59.8,392.2c0,0.1,0,0.1,0,0.2c0,2.6-2.3,4.7-5.1,4.6c-2.8,0-5-2.2-4.9-4.7c0-0.1,0-0.1,0-0.2L59.8,392.2
				z"/>
		</g>
		<g>
			<path fill="#CA8A6B" d="M70.4,388.7"/>
			<g>
				<path fill="none" stroke="#FFFFFF" stroke-width="0.2363" stroke-miterlimit="10" d="M70.4,388.7"/>
			</g>
		</g>
		<path fill="#F4888E" d="M38.8,377.2c0,0-3.8-11,2.1-13.1c0,0-2-4.7,3.9-4.6c0,0,1.8-7,7.3-2.3s4.9-3.1,6.9,1.4c0,0,10,0.2,7,5.7
			c0,0,6.5,3.4,3.9,5.7c0,0,3.2,1.3,0.7,7.4c0,0-4.2-7.7-9.1-5.9s-5.9,5.4-12.8,0.1S38.8,377.2,38.8,377.2z"/>
		<path fill="#34376B" d="M76.1,406.2c-6.2-2.3-13.6-2.2-13.6-2.2s1.2-0.3-18.9-0.1c-7.3,0.1-12.1,1.2-15.4,2.5l0.1,2.7
			c5.6,6.9,14.4,11.3,24.3,11.3c9.9,0,17.8-4.1,23.3-11L76.1,406.2z"/>
		<path fill="#FFFFFF" d="M55.2,420.5l5.3-16.6c-2.6,0-6.7-0.2-13.1,0l5.1,16.6L55.2,420.5z"/>
		<polygon fill="#34376B" points="51.3,403.8 56.6,403.8 55.2,420.9 52.4,420.9 		"/>
	</g>
</g>
<g>
	<circle fill="#C8E2FC" cx="59.9" cy="103.7" r="36.5"/>
	<path fill="none" stroke="#34376B" stroke-width="1.5" stroke-linecap="round" stroke-miterlimit="10" d="M26.7,83.5
		c4.3-7,9.9-11.3,19.2-14.2c19.2-6.1,39.8,4.2,46.1,23.3c6.3,19.2-4.2,39.8-23.3,46.1s-40.1-4.1-46.1-23.3c-3-9.5-3-14.1-0.9-21.7"
		/>
</g>
<g>
	
		<rect x="52.1" y="116.2" transform="matrix(1 7.697004e-003 -7.697004e-003 1 0.9168 -0.4481)" fill="#F3BA99" width="13.1" height="5.4"/>
	<g>
		
			<ellipse transform="matrix(-0.9999 -1.283053e-002 1.283053e-002 -0.9999 149.1696 198.1221)" fill="#F6D6B4" cx="75.2" cy="98.6" rx="3.4" ry="4.6"/>
	</g>
	<g>
		
			<ellipse transform="matrix(-0.9999 -1.283053e-002 1.283053e-002 -0.9999 87.1545 195.1663)" fill="#F6D6B4" cx="44.2" cy="97.3" rx="3.4" ry="4.6"/>
	</g>
	<g>
		<path fill="#F6D6B4" d="M55.3,117.7l7.5,0.1c6.7,0.1,12.3-5.6,12.4-12.7l0.1-11c0.1-7.1-5.3-12.9-12-13l-7.5-0.1
			c-6.7-0.1-12.3,5.6-12.4,12.7l-0.1,11C43.1,111.7,48.5,117.6,55.3,117.7z"/>
	</g>
	<g>
		<path fill="#F3BA99" d="M68,116.1C67.9,116.2,67.9,116.2,68,116.1c-0.3,0-0.5,0.1-0.6,0.1c0,0-0.1,0-0.1,0c-0.2,0-0.4,0.1-0.6,0.1
			c0,0,0,0,0,0c-0.2,0-0.4,0-0.7,0.1c0,0-0.1,0-0.1,0c-0.2,0-0.4,0-0.5,0c-0.1,0-0.1,0-0.2,0c-0.2,0-0.3,0-0.5,0c-0.1,0-0.1,0-0.2,0
			c-0.2,0-0.4,0-0.6,0c-0.3,0-0.5,0-0.8,0c-0.1,0-0.1,0-0.2,0c-0.3,0-0.5,0-0.8-0.1c0,0-0.1,0-0.1,0c-0.2,0-0.5-0.1-0.7-0.1
			c0,0-0.1,0-0.1,0c-0.3,0-0.5-0.1-0.7-0.1c-0.1,0-0.1,0-0.2,0c-0.5-0.1-1-0.2-1.5-0.3c-0.1,0-0.1,0-0.2,0c-0.2-0.1-0.5-0.1-0.7-0.2
			c0,0-0.1,0-0.1,0c-0.2-0.1-0.4-0.1-0.7-0.2c0,0-0.1,0-0.1,0c-0.2-0.1-0.5-0.2-0.7-0.3c0,0-0.1,0-0.1-0.1c-0.5-0.2-0.9-0.4-1.4-0.6
			c0,0-0.1,0-0.1-0.1c-0.2-0.1-0.4-0.2-0.7-0.3c0,0-0.1,0-0.1,0c-0.2-0.1-0.4-0.2-0.6-0.4c0,0-0.1,0-0.1,0c-0.2-0.1-0.4-0.3-0.6-0.4
			c0,0-0.1,0-0.1-0.1c-0.4-0.3-0.9-0.6-1.3-0.9c0,0-0.1,0-0.1-0.1c-0.2-0.2-0.4-0.3-0.6-0.5c0,0,0,0,0,0c-0.2-0.2-0.4-0.3-0.6-0.5
			c0,0,0,0-0.1,0c-0.2-0.2-0.4-0.3-0.6-0.5c0,0,0,0-0.1-0.1c-0.4-0.4-0.7-0.7-1.1-1.1c0,0,0,0-0.1-0.1c-0.2-0.2-0.4-0.4-0.5-0.6
			c0,0,0,0,0,0c-0.2-0.2-0.3-0.4-0.5-0.6c0,0,0,0,0,0c-0.2-0.2-0.3-0.4-0.5-0.6c0,0,0,0,0-0.1c-0.3-0.4-0.6-0.9-0.9-1.3
			c0,0,0,0,0-0.1c-0.1-0.2-0.3-0.5-0.4-0.7c0,0,0,0,0,0c-0.1-0.2-0.3-0.5-0.4-0.7c0,0,0,0,0,0c-0.1-0.2-0.2-0.5-0.4-0.7
			c0,0,0,0,0-0.1c-0.2-0.5-0.4-1-0.6-1.5c0,0,0,0,0-0.1c-0.1-0.3-0.2-0.5-0.3-0.8l0,3.3c-0.1,7.1,5.3,12.9,12,13l7.5,0.1
			c2.4,0,4.6-0.7,6.5-1.9l0,0C68.9,116,68.4,116.1,68,116.1z"/>
	</g>
	<g>
		<path fill="#FFFFFF" d="M64.6,108.2c0,0.1,0,0.1,0,0.2c0,2.6-2.3,4.7-5.1,4.6c-2.8,0-5-2.2-4.9-4.7c0-0.1,0-0.1,0-0.2L64.6,108.2z
			"/>
	</g>
	<g>
		<path fill="#CA8A6B" d="M75.1,104.6"/>
		<g>
			<path fill="none" stroke="#FFFFFF" stroke-width="0.2363" stroke-miterlimit="10" d="M75.1,104.6"/>
		</g>
	</g>
	<path fill="#F4888E" d="M43.6,93.1c0,0-3.8-11,2.1-13.1c0,0-2-4.7,3.9-4.6c0,0,1.8-7,7.3-2.3c5.5,4.6,4.9-3.1,6.9,1.4
		c0,0,10,0.2,7,5.7c0,0,6.5,3.4,3.9,5.7c0,0,3.2,1.3,0.7,7.4c0,0-4.2-7.7-9.1-5.9c-5,1.8-5.9,5.4-12.8,0.1
		C46.6,82.3,43.6,93.1,43.6,93.1z"/>
	<path fill="#34376B" d="M80.9,122.2c-6.2-2.3-13.6-2.2-13.6-2.2s1.2-0.3-18.9-0.1c-7.3,0.1-12.1,1.2-15.4,2.5l0.1,2.7
		c5.6,6.9,14.4,11.3,24.3,11.3c9.9,0,17.8-4.1,23.3-11L80.9,122.2z"/>
	<path fill="#FFFFFF" d="M60,136.5l5.3-16.6c-2.6,0-6.7-0.2-13.1,0l5.1,16.6L60,136.5z"/>
	<polygon fill="#34376B" points="56.1,119.8 61.3,119.8 60,136.9 57.2,136.9 	"/>
</g>
<g>
	<g>
		<circle fill="#C8E2FC" cx="589.2" cy="240.9" r="36.5"/>
		<path fill="none" stroke="#34376B" stroke-width="1.5" stroke-linecap="round" stroke-miterlimit="10" d="M556,220.8
			c4.3-7,9.9-11.3,19.2-14.2c19.2-6.1,39.8,4.2,46.1,23.3c6.3,19.2-4.2,39.8-23.3,46.1c-19.2,6.3-40.1-4.1-46.1-23.3
			c-3-9.5-3-14.1-0.9-21.7"/>
	</g>
	<g>
		<defs>
			<circle id="SVGID_1_" cx="586.8" cy="240.9" r="36.5"/>
		</defs>
		<clipPath id="SVGID_2_">
			<use xlink:href="#SVGID_1_"  overflow="visible"/>
		</clipPath>
		<g clip-path="url(#SVGID_2_)">
			<polygon fill="#34376B" points="538.3,290.7 538.4,288 545.4,287.4 545.3,290.1 			"/>
			<polygon fill="#34376B" points="536.9,296 534.7,294.9 538.3,288 540.5,289 			"/>
			<polygon fill="#34376B" points="543.5,297.3 545.8,298 548.6,290.7 546.3,290 			"/>
			<polygon fill="#34376B" points="538.6,297 538.8,299.7 545.8,298.1 545.6,295.4 			"/>
			<g id="shoulder_8_">
				
					<rect x="558.4" y="255.4" transform="matrix(0.9928 0.1194 -0.1194 0.9928 35.7662 -65.2789)" fill="#B4CDE0" width="8.7" height="21.1"/>
				<path fill="#D3E5F5" d="M574.4,258.3c0.4-0.9,0.7-1.9,0.8-2.9c0.7-6-3.6-11.5-9.7-12.2c-6.1-0.7-11.6,3.6-12.3,9.6
					c-0.1,1-0.1,2.1,0.1,3L574.4,258.3z"/>
				<path fill="none" stroke="#34376B" stroke-width="0.5" stroke-linecap="round" stroke-miterlimit="10" d="M552.5,255.4
					c0,0-1.2-10.2,7.4-12c8.6-1.8,14.8,3.5,15.2,8.7s-0.3,5.9-0.3,5.9l-21.5-2.4"/>
			</g>
			<g id="forearm_3_">
				<path fill="#D3E5F5" d="M570,271.1c-2.4,1.5-3.1,1.8-5.8,2.2c-1.8,0.2-4.3,0-6.5-0.2c0,0-3,0.1-4.5,1c-1,0.8-2,1.6-3,2.5
					c-3.9,3.4-6.9,7.1-8.7,10.3l6.7,7.6c3.4-1.3,7.5-3.9,11.4-7.3C566.2,281.4,570.3,274.9,570,271.1z"/>
				<path fill="#B4CDE0" d="M545,291l3.2,3.6c3.4-1.3,7.5-3.9,11.4-7.3c1.2-1.1,2.4-2.2,3.4-3.3C558.1,288.7,551.6,291.1,545,291z"
					/>
				<path fill="none" stroke="#34376B" stroke-width="2.5" stroke-linecap="round" stroke-miterlimit="10" d="M542,286.6
					c0,0,3-7.3,11.4-12.9c5.6-2.6,6.9-1.6,9.3-1.1c2.7,0.5,8-2,8-2s-0.1,13.7-21.5,24.3l-6.9-7.7"/>
			</g>
			<g id="wheel_l_8_">
				<ellipse fill="#D3E5F5" cx="563.9" cy="316.3" rx="15.1" ry="21.6"/>
			</g>
			<g id="wheel_l_7_">
				
					<ellipse fill="none" stroke="#34376B" stroke-width="2.5" stroke-linecap="round" stroke-miterlimit="10" cx="563.9" cy="316.3" rx="15.1" ry="21.6"/>
			</g>
			<g id="head_4_">
				<circle fill="#D3E5F5" cx="585.2" cy="235.8" r="22.2"/>
				<path fill="#B4CDE0" d="M565.1,235c0-6.4,2.5-12.3,6.5-16.8c-5.3,4.1-8.7,10.4-8.7,17.6c0,9.6,6,17.7,14.5,20.9
					C570.1,252.2,565.1,244.1,565.1,235z"/>
				<path fill="#FFFFFF" d="M577.4,243.3c3.9,0.5,9.8,0.5,12.9,0.2c7.1-0.6,13.9-1.6,16.3-2.2c0.4-1.8,0.7-3.6,0.7-5.5
					c0-2.5-0.4-5-1.2-7.2c-6.8,1.9-13.9,2.9-21.1,2.9c-7.1,0-14.2-1-21-2.9c-0.8,2.3-1.2,4.7-1.2,7.2c0,1.6,0.2,3.1,0.5,4.5
					C565.1,241.1,574.6,243,577.4,243.3z"/>
				<circle fill="#65D8F0" cx="578.4" cy="237.3" r="5.5"/>
				
					<circle fill="none" stroke="#34376B" stroke-width="0.5" stroke-linecap="round" stroke-miterlimit="10" cx="578.4" cy="237.3" r="5.5"/>
				<path fill="none" stroke="#34376B" stroke-width="0.5" stroke-linecap="round" stroke-miterlimit="10" d="M565.8,224.2
					c4.3-8.6,14.1-12.7,23.6-11.2c8,1.3,13,5.9,15.7,13"/>
				<path fill="none" stroke="#34376B" stroke-width="0.5" stroke-linecap="round" stroke-miterlimit="10" d="M577.4,243.3
					c3.9,0.5,9.8,0.5,12.9,0.2c7.1-0.6,13.9-1.6,16.3-2.2c0.4-1.8,0.7-3.6,0.7-5.5c0-2.5-0.4-5-1.2-7.2c-6.8,1.9-13.9,2.9-21.1,2.9
					c-7.1,0-14.2-1-21-2.9c-0.8,2.3-1.2,4.7-1.2,7.2c0,1.6,0.2,3.1,0.5,4.5C565.1,241.1,574.6,243,577.4,243.3z"/>
			</g>
			<g id="body_4_">
				<rect x="566.1" y="286.9" fill="#B4CDE0" width="34.3" height="10.3"/>
				<path fill="#D3E5F5" d="M594.7,333.3h-22.2c-9.1,0-16.5-7-16.5-15.6v-7.1c0-8.6,7.4-15.6,16.5-15.6h22.2c9.1,0,16.5,7,16.5,15.6
					v7.1C611.3,326.3,603.8,333.3,594.7,333.3z"/>
				<path fill="#B4CDE0" d="M585.4,333.3c-1.7,0-3.3-0.1-4.9-0.4c-13.1-0.9-23.7-12-23.7-25.3c0-0.8,0-1.6,0.1-2.4
					c-0.7,1.7-1,3.5-1,5.4v7.1c0,8.6,7.4,15.6,16.5,15.6h16.7C587.9,333.3,586.7,333.2,585.4,333.3z"/>
				<path fill="none" stroke="#34376B" stroke-width="2.5" stroke-linecap="round" stroke-miterlimit="10" d="M594.7,333.3h-22.2
					c-9.1,0-16.5-7-16.5-15.6v-7.1c0-8.6,7.4-15.6,16.5-15.6h22.2c9.1,0,16.5,7,16.5,15.6v7.1C611.3,326.3,603.8,333.3,594.7,333.3z
					"/>
				<path fill="#D3E5F5" d="M600.2,246.5c-5.7,1.6-11.6,2.5-17.6,2.5c-5.6,0-11.1-0.7-16.4-2.1c-4.3,6.7-7,16-7,26.2
					c0,5.5,0.8,10.7,2.1,15.3h27.4v4.1h15.1c2.2-5.7,3.5-12.3,3.5-19.4C607.4,262.7,604.6,253.3,600.2,246.5z"/>
				<path fill="none" stroke="#34376B" stroke-width="0.5" stroke-linecap="round" stroke-miterlimit="10" d="M561.1,287.8
					c0,0-6-27.1,6.2-41.2c0,0,15,3.8,31.2,0"/>
				<path fill="none" stroke="#34376B" stroke-width="0.5" stroke-linecap="round" stroke-miterlimit="10" d="M600.6,247.8
					c0,0,12.2,24.3,2.2,44.1l-14.1,0.1v-4.3h-26"/>
				
					<ellipse transform="matrix(0.9899 0.1419 -0.1419 0.9899 43.301 -78.392)" fill="#6CDDB5" cx="571.4" cy="264.5" rx="4.8" ry="7.8"/>
				
					<ellipse transform="matrix(0.9899 0.1419 -0.1419 0.9899 43.301 -78.392)" fill="none" stroke="#34376B" stroke-width="0.5" stroke-linecap="round" stroke-miterlimit="10" cx="571.4" cy="264.5" rx="4.8" ry="7.8"/>
			</g>
			<g id="wheel_r_4_">
				<g>
					<ellipse fill="#D3E5F5" cx="601.2" cy="316.1" rx="15.1" ry="21.6"/>
					<path fill="#B4CDE0" d="M587,314.9c0-7.4,3.3-14.2,8.6-18.9c-5.6,3.2-9.5,10.9-9.5,20c0,11.9,6.8,21.6,15.1,21.6
						c0.1,0,0.1,0,0.2,0C592.9,333.5,587,324.8,587,314.9z"/>
					
						<ellipse fill="none" stroke="#34376B" stroke-width="2.5" stroke-linecap="round" stroke-miterlimit="10" cx="601.2" cy="316.1" rx="15.1" ry="21.6"/>
					
						<ellipse fill="none" stroke="#34376B" stroke-width="2.5" stroke-linecap="round" stroke-miterlimit="10" cx="602" cy="316.1" rx="3.5" ry="4.9"/>
				</g>
			</g>
			<g id="shoulder_7_">
				<rect x="602.8" y="257" fill="#B5CEE2" width="8.7" height="21.1"/>
				<path fill="#D3E5F5" d="M617.8,258.6c0.3-1,0.4-2,0.4-3c0-6.1-4.9-11-11.1-11s-11.1,4.9-11.1,11c0,1,0.2,2.1,0.4,3H617.8z"/>
				<path fill="#B4CDE0" d="M607.2,244.6c-2.2,0-4.3,0.6-6,1.8c1.5-0.8,3.2-1.2,4.9-1.2c5.8,0,10.7,4.9,10.7,10.7
					c0,1-0.1,1.9-0.4,2.8h1.4c0.3-1,0.4-2,0.4-3C618.3,249.5,613.3,244.6,607.2,244.6z"/>
				<path fill="none" stroke="#34376B" stroke-width="0.5" stroke-linecap="round" stroke-miterlimit="10" d="M596.4,258.1
					c0,0-2.4-10,6-12.8c8.4-2.8,15.1,1.8,16.1,6.9c1,5.1,0.4,5.9,0.4,5.9l-21.7,0.1"/>
			</g>
		</g>
	</g>
	<path fill="none" stroke="#34376B" stroke-width="1.5" stroke-linecap="round" stroke-miterlimit="10" d="M556,220.8
		c4.3-7,9.9-11.3,19.2-14.2c19.2-6.1,39.8,4.2,46.1,23.3c6.3,19.2-4.2,39.8-23.3,46.1c-19.2,6.3-40.1-4.1-46.1-23.3
		c-3-9.5-3-14.1-0.9-21.7"/>
</g>
<g>
	<g>
		<circle fill="#C8E2FC" cx="586.1" cy="509.1" r="36.5"/>
		<path fill="none" stroke="#34376B" stroke-width="1.5" stroke-linecap="round" stroke-miterlimit="10" d="M552.9,488.9
			c4.3-7,9.9-11.3,19.2-14.2c19.2-6.1,39.8,4.2,46.1,23.3s-4.2,39.8-23.3,46.1c-19.2,6.3-40.1-4.1-46.1-23.3c-3-9.5-3-14.1-0.9-21.7
			"/>
	</g>
	<g>
		<defs>
			<circle id="SVGID_3_" cx="583.7" cy="509.1" r="36.5"/>
		</defs>
		<clipPath id="SVGID_4_">
			<use xlink:href="#SVGID_3_"  overflow="visible"/>
		</clipPath>
		<g clip-path="url(#SVGID_4_)">
			<polygon fill="#34376B" points="535.2,558.8 535.3,556.1 542.3,555.5 542.2,558.2 			"/>
			<polygon fill="#34376B" points="533.8,564.1 531.6,563.1 535.2,556.1 537.4,557.2 			"/>
			<polygon fill="#34376B" points="540.4,565.4 542.7,566.1 545.5,558.8 543.2,558.1 			"/>
			<polygon fill="#34376B" points="535.5,565.1 535.7,567.8 542.7,566.2 542.5,563.6 			"/>
			<g id="shoulder_4_">
				
					<rect x="555.3" y="523.5" transform="matrix(0.9928 0.1194 -0.1194 0.9928 67.7514 -62.9901)" fill="#B4CDE0" width="8.7" height="21.1"/>
				<path fill="#D3E5F5" d="M571.3,526.4c0.4-0.9,0.7-1.9,0.8-2.9c0.7-6-3.6-11.5-9.7-12.2c-6.1-0.7-11.6,3.6-12.3,9.6
					c-0.1,1-0.1,2.1,0.1,3L571.3,526.4z"/>
				<path fill="none" stroke="#34376B" stroke-width="0.5" stroke-linecap="round" stroke-miterlimit="10" d="M549.3,523.5
					c0,0-1.2-10.2,7.4-12c8.6-1.8,14.8,3.5,15.2,8.7c0.5,5.2-0.3,5.9-0.3,5.9l-21.5-2.4"/>
			</g>
			<g id="forearm_2_">
				<path fill="#D3E5F5" d="M566.9,539.3c-2.4,1.5-3.1,1.8-5.8,2.2c-1.8,0.2-4.3,0-6.5-0.2c0,0-3,0.1-4.5,1c-1,0.8-2,1.6-3,2.5
					c-3.9,3.4-6.9,7.1-8.7,10.3l6.7,7.6c3.4-1.3,7.5-3.9,11.4-7.3C563.1,549.6,567.2,543,566.9,539.3z"/>
				<path fill="#B4CDE0" d="M541.9,559.1l3.2,3.6c3.4-1.3,7.5-3.9,11.4-7.3c1.2-1.1,2.4-2.2,3.4-3.3
					C555,556.9,548.4,559.2,541.9,559.1z"/>
				<path fill="none" stroke="#34376B" stroke-width="2.5" stroke-linecap="round" stroke-miterlimit="10" d="M538.9,554.7
					c0,0,3-7.3,11.4-12.9c5.6-2.6,6.9-1.6,9.3-1.1c2.7,0.5,8-2,8-2s-0.1,13.7-21.5,24.3l-6.9-7.7"/>
			</g>
			<g id="wheel_l_2_">
				<ellipse fill="#D3E5F5" cx="560.8" cy="584.5" rx="15.1" ry="21.6"/>
			</g>
			<g id="wheel_l_1_">
				
					<ellipse fill="none" stroke="#34376B" stroke-width="2.5" stroke-linecap="round" stroke-miterlimit="10" cx="560.8" cy="584.5" rx="15.1" ry="21.6"/>
			</g>
			<g id="head_1_">
				<circle fill="#D3E5F5" cx="582" cy="504" r="22.2"/>
				<path fill="#B4CDE0" d="M562,503.2c0-6.4,2.5-12.3,6.5-16.8c-5.3,4.1-8.7,10.4-8.7,17.6c0,9.6,6,17.7,14.5,20.9
					C567,520.4,562,512.3,562,503.2z"/>
				<path fill="#FFFFFF" d="M574.3,511.5c3.9,0.5,9.8,0.5,12.9,0.2c7.1-0.6,13.9-1.6,16.3-2.2c0.4-1.8,0.7-3.6,0.7-5.5
					c0-2.5-0.4-5-1.2-7.2c-6.8,1.9-13.9,2.9-21.1,2.9c-7.1,0-14.2-1-21-2.9c-0.8,2.3-1.2,4.7-1.2,7.2c0,1.6,0.2,3.1,0.5,4.5
					C561.9,509.3,571.5,511.1,574.3,511.5z"/>
				<circle fill="#65D8F0" cx="575.3" cy="505.4" r="5.5"/>
				
					<circle fill="none" stroke="#34376B" stroke-width="0.5" stroke-linecap="round" stroke-miterlimit="10" cx="575.3" cy="505.4" r="5.5"/>
				<path fill="none" stroke="#34376B" stroke-width="0.5" stroke-linecap="round" stroke-miterlimit="10" d="M562.7,492.3
					c4.3-8.6,14.1-12.7,23.6-11.2c8,1.3,13,5.9,15.7,13"/>
				<path fill="none" stroke="#34376B" stroke-width="0.5" stroke-linecap="round" stroke-miterlimit="10" d="M574.3,511.5
					c3.9,0.5,9.8,0.5,12.9,0.2c7.1-0.6,13.9-1.6,16.3-2.2c0.4-1.8,0.7-3.6,0.7-5.5c0-2.5-0.4-5-1.2-7.2c-6.8,1.9-13.9,2.9-21.1,2.9
					c-7.1,0-14.2-1-21-2.9c-0.8,2.3-1.2,4.7-1.2,7.2c0,1.6,0.2,3.1,0.5,4.5C561.9,509.3,571.5,511.1,574.3,511.5z"/>
			</g>
			<g id="body_1_">
				<rect x="563" y="555" fill="#B4CDE0" width="34.3" height="10.3"/>
				<path fill="#D3E5F5" d="M591.6,601.4h-22.2c-9.1,0-16.5-7-16.5-15.6v-7.1c0-8.6,7.4-15.6,16.5-15.6h22.2c9.1,0,16.5,7,16.5,15.6
					v7.1C608.1,594.4,600.7,601.4,591.6,601.4z"/>
				<path fill="#B4CDE0" d="M582.3,601.4c-1.7,0-3.3-0.1-4.9-0.4c-13.1-0.9-23.7-12-23.7-25.3c0-0.8,0-1.6,0.1-2.4
					c-0.7,1.7-1,3.5-1,5.4v7.1c0,8.6,7.4,15.6,16.5,15.6h16.7C584.8,601.4,583.6,601.4,582.3,601.4z"/>
				<path fill="none" stroke="#34376B" stroke-width="2.5" stroke-linecap="round" stroke-miterlimit="10" d="M591.6,601.4h-22.2
					c-9.1,0-16.5-7-16.5-15.6v-7.1c0-8.6,7.4-15.6,16.5-15.6h22.2c9.1,0,16.5,7,16.5,15.6v7.1C608.1,594.4,600.7,601.4,591.6,601.4z
					"/>
				<path fill="#D3E5F5" d="M597.1,514.7c-5.7,1.6-11.6,2.5-17.6,2.5c-5.6,0-11.1-0.7-16.4-2.1c-4.3,6.7-7,16-7,26.2
					c0,5.5,0.8,10.7,2.1,15.3h27.4v4.1h15.1c2.2-5.7,3.5-12.3,3.5-19.4C604.3,530.8,601.5,521.4,597.1,514.7z"/>
				<path fill="none" stroke="#34376B" stroke-width="0.5" stroke-linecap="round" stroke-miterlimit="10" d="M558,555.9
					c0,0-6-27.1,6.2-41.2c0,0,15,3.8,31.2,0"/>
				<path fill="none" stroke="#34376B" stroke-width="0.5" stroke-linecap="round" stroke-miterlimit="10" d="M597.5,516
					c0,0,12.2,24.3,2.2,44.1l-14.1,0.1v-4.3h-26"/>
				
					<ellipse transform="matrix(0.9899 0.1419 -0.1419 0.9899 81.3097 -75.2384)" fill="#6CDDB5" cx="568.3" cy="532.6" rx="4.8" ry="7.8"/>
				
					<ellipse transform="matrix(0.9899 0.1419 -0.1419 0.9899 81.3097 -75.2384)" fill="none" stroke="#34376B" stroke-width="0.5" stroke-linecap="round" stroke-miterlimit="10" cx="568.3" cy="532.6" rx="4.8" ry="7.8"/>
			</g>
			<g id="wheel_r_1_">
				<g>
					<ellipse fill="#D3E5F5" cx="598.1" cy="584.2" rx="15.1" ry="21.6"/>
					<path fill="#B4CDE0" d="M583.9,583c0-7.4,3.3-14.2,8.6-18.9c-5.6,3.2-9.5,10.9-9.5,20c0,11.9,6.8,21.6,15.1,21.6
						c0.1,0,0.1,0,0.2,0C589.8,601.6,583.9,592.9,583.9,583z"/>
					
						<ellipse fill="none" stroke="#34376B" stroke-width="2.5" stroke-linecap="round" stroke-miterlimit="10" cx="598.1" cy="584.2" rx="15.1" ry="21.6"/>
					
						<ellipse fill="none" stroke="#34376B" stroke-width="2.5" stroke-linecap="round" stroke-miterlimit="10" cx="598.9" cy="584.3" rx="3.5" ry="4.9"/>
				</g>
			</g>
			<g id="shoulder_3_">
				<rect x="599.7" y="525.2" fill="#B5CEE2" width="8.7" height="21.1"/>
				<path fill="#D3E5F5" d="M614.7,526.8c0.3-1,0.4-2,0.4-3c0-6.1-4.9-11-11.1-11s-11.1,4.9-11.1,11c0,1,0.2,2.1,0.4,3H614.7z"/>
				<path fill="#B4CDE0" d="M604.1,512.8c-2.2,0-4.3,0.6-6,1.8c1.5-0.8,3.2-1.2,4.9-1.2c5.8,0,10.7,4.9,10.7,10.7
					c0,1-0.1,1.9-0.4,2.8h1.4c0.3-1,0.4-2,0.4-3C615.2,517.7,610.2,512.8,604.1,512.8z"/>
				<path fill="none" stroke="#34376B" stroke-width="0.5" stroke-linecap="round" stroke-miterlimit="10" d="M593.3,526.2
					c0,0-2.4-10,6-12.8c8.4-2.8,15.1,1.8,16.1,6.9c1,5.1,0.4,5.9,0.4,5.9l-21.7,0.1"/>
			</g>
		</g>
	</g>
	<path fill="none" stroke="#34376B" stroke-width="1.5" stroke-linecap="round" stroke-miterlimit="10" d="M552.9,488.9
		c4.3-7,9.9-11.3,19.2-14.2c19.2-6.1,39.8,4.2,46.1,23.3s-4.2,39.8-23.3,46.1c-19.2,6.3-40.1-4.1-46.1-23.3c-3-9.5-3-14.1-0.9-21.7"
		/>
</g>
</svg>
