<?xml version="1.0" encoding="UTF-8" standalone="no"?>
<svg width="656px" height="663px" viewBox="0 0 656 663" version="1.1" xmlns="http://www.w3.org/2000/svg" xmlns:xlink="http://www.w3.org/1999/xlink">
    <!-- Generator: Sketch 40.2 (33826) - http://www.bohemiancoding.com/sketch -->
    <title>3.1</title>
    <desc>Created with Sketch.</desc>
    <defs></defs>
    <g id="Page-1" stroke="none" stroke-width="1" fill="none" fill-rule="evenodd">
        <g id="3.1" transform="translate(1.000000, 1.000000)">
            <ellipse id="Oval" fill="#E8F2FB" cx="324.7" cy="636.6" rx="302.4" ry="25.4"></ellipse>
            <ellipse id="Oval" fill="#C8E2FC" cx="331.4" cy="643.6" rx="113.6" ry="16.5"></ellipse>
            <g id="PALM_4_" transform="translate(530.000000, 184.000000)">
                <g id="Group" transform="translate(0.000000, 78.000000)" fill="#34376B">
                    <polygon id="Shape" points="21.1 7.6 13.7 4.3 0 28.6 7.4 31.9"></polygon>
                    <polygon id="Shape" points="37.6 10.1 38.5 0.8 13.9 3.9 13 13.2"></polygon>
                </g>
                <g id="Group" transform="translate(5.000000, 0.000000)">
                    <circle id="Oval" fill="#FFFFFF" cx="59.2" cy="59.8" r="58.5"></circle>
                    <path d="M12.2,24.3 C17.4,18.4 23,13.2 32.1,7.9 C60,-8.4 96.1,4 111.1,32.7 C126.1,61.4 115,96.7 86.3,111.7 C57.7,126.7 22.3,115.6 7.3,86.9 C-1.6,69.8 -1.3,50.3 6.5,34.2" id="Shape" stroke="#34376B" stroke-width="2.5"></path>
                    <path d="M13.1717,72.0577 C14.9317,72.2577 17.0117,72.3777 19.4917,72.3777 C24.7317,72.3777 28.8917,71.0177 31.4117,68.4977 C33.9317,66.0177 35.2917,62.4177 35.2917,58.0177 C35.2917,53.6577 33.8917,50.5377 31.4917,48.3377 C29.1317,46.1377 25.5717,44.9777 20.5717,44.9777 C17.8117,44.9777 15.2917,45.2177 13.1717,45.5377 L13.1717,72.0577 Z M16.6517,48.0977 C17.5717,47.8977 18.9317,47.7377 20.7317,47.7377 C28.0917,47.7377 31.6917,51.7777 31.6517,58.1377 C31.6517,65.4177 27.6117,69.5777 20.1717,69.5777 C18.8117,69.5777 17.5317,69.5377 16.6517,69.3777 L16.6517,48.0977 Z M53.7717,56.6177 L43.2917,56.6177 L43.2917,48.0977 L54.3717,48.0977 L54.3717,45.1777 L39.8117,45.1777 L39.8117,72.1377 L54.9717,72.1377 L54.9717,69.2177 L43.2917,69.2177 L43.2917,59.4977 L53.7717,59.4977 L53.7717,56.6177 Z M73.4117,63.6577 L76.2917,72.1377 L80.0117,72.1377 L70.8117,45.1777 L66.6117,45.1777 L57.4517,72.1377 L61.0517,72.1377 L63.8517,63.6577 L73.4117,63.6577 Z M64.5717,60.9377 L67.2117,53.1377 C67.7317,51.4977 68.1717,49.8577 68.5717,48.2577 L68.6517,48.2577 C69.0517,49.8177 69.4517,51.4177 70.0517,53.1777 L72.6917,60.9377 L64.5717,60.9377 Z M83.9717,72.1377 L98.9717,72.1377 L98.9717,69.2177 L87.4517,69.2177 L87.4517,45.1777 L83.9717,45.1777 L83.9717,72.1377 Z M105.7717,64.3777 L106.3317,45.1777 L102.4917,45.1777 L103.0517,64.3777 L105.7717,64.3777 Z M104.4117,72.5777 C105.8517,72.5777 106.7717,71.4977 106.7717,70.0977 C106.7717,68.6577 105.8517,67.6177 104.4117,67.6177 C103.0517,67.6177 102.0517,68.6577 102.0517,70.0977 C102.0517,71.4977 103.0117,72.5777 104.4117,72.5777 L104.4117,72.5777 Z" id="DEAL!" fill="#F4888E"></path>
                </g>
                <g id="Group" transform="translate(8.000000, 92.000000)" fill="#34376B">
                    <polygon id="Shape" points="26.9 18.2 24.8 27.5 0.7 27.3 2.8 17.9"></polygon>
                    <polygon id="Shape" points="34.7 0.2 41.5 4.6 25.2 27.5 18.5 23.1"></polygon>
                </g>
            </g>
            <g id="PALM_1_" transform="translate(0.000000, 161.000000)">
                <g id="Group" transform="translate(78.000000, 93.000000)" fill="#34376B">
                    <polygon id="Shape" points="11.8 17.6 10.2 25.9 38.1 33.9 39.6 25.6"></polygon>
                    <polygon id="Shape" points="10.3 0.4 0.7 1.6 9.7 25.8 19.4 24.5"></polygon>
                </g>
                <g id="Group">
                    <circle id="Oval" fill="#FFFFFF" cx="59.1" cy="59.4" r="58.5"></circle>
                    <path d="M33.6,83.8 L25.2,58.2 C23.6,53.4 27.7,47.7 34.3,45.5 L75.2,32.1 C81.8,29.9 88.5,32.1 90,37 L100.1,67.7 C101.7,72.5 97.6,78.2 91,80.4 L50.1,93.8 C43.5,96 36.8,93.8 35.3,88.9 L33.6,83.8" id="Shape" fill="#FEDB7D"></path>
                    <path d="M30.6,81.8 L22.2,56.2 C20.6,51.4 24.7,45.7 31.3,43.5 L72.2,30.1 C78.8,27.9 85.5,30.1 87,35 L97.1,65.7 C98.7,70.5 94.6,76.2 88,78.4 L47.1,91.8 C40.5,94 33.8,91.8 32.3,86.9 L30.6,81.8" id="Shape" stroke="#34376B" stroke-width="2.5"></path>
                    <polyline id="Shape" stroke="#34376B" stroke-width="2.5" points="32.5 55.9 60.2 63.1 78.3 40.9"></polyline>
                    <path d="M51.5,61.3 L41.6,77.6" id="Shape" stroke="#34376B" stroke-width="2.5"></path>
                    <path d="M68,55.9 L85.2,62" id="Shape" stroke="#34376B" stroke-width="2.5"></path>
                    <path d="M10.1,26.6 C17.1,15.4 25.9,8.5 40.8,3.8 C71.6,-6 104.6,10.5 114.6,41.2 C124.6,71.9 108,104.9 77.3,115 C46.6,125.1 13.5,108.3 3.5,77.6 C-1.3,63.1 7.99360578e-15,48 5.9,35.1" id="Shape" stroke="#34376B" stroke-width="2.5"></path>
                </g>
                <g id="Group" transform="translate(91.000000, 79.000000)" fill="#34376B">
                    <polygon id="Shape" points="20.3 11.8 30.2 11.6 35.8 36 25.8 36.1"></polygon>
                    <polygon id="Shape" points="0.3 8.2 3.1 0.3 30.1 11.2 27.3 19.1"></polygon>
                </g>
            </g>
            <g id="shoulder_1_" transform="translate(163.000000, 227.000000)">
                <rect id="Rectangle-path" fill="#B5CEE2" transform="translate(54.556450, 72.821390) rotate(54.269175) translate(-54.556450, -72.821390) " x="39.9058989" y="26.1696351" width="29.3011022" height="93.3035099"></rect>
                <path d="M107.5,78.5 C111.5,76.8 115.4,74.6 119.2,71.9 C141,56.2 148.9,30.1 137,13.5 C125.1,-3.1 97.7,-3.9 76,11.8 C72.2,14.5 68.9,17.5 66,20.8 L107.5,78.5 L107.5,78.5 Z" id="Shape" fill="#D3E5F5"></path>
                <path d="M121.7,69.9 C141.5,54.1 148.4,29.4 136.9,13.5 C133.5,8.8 128.9,5.3 123.5,3.2 C134.4,24.2 133.5,49.7 121.7,69.9 L121.7,69.9 Z" id="Shape" fill="#B4CDE0"></path>
                <path d="M76.7,34.1 L109.4,79.5 C113.4,77.8 117.3,75.6 121.1,72.9 C142.9,57.2 150.8,31.1 138.9,14.5 C127,-2.1 99.6,-2.9 77.9,12.8 C74.1,15.5 70.8,18.5 67.9,21.8 L72.4,28.1" id="Shape" stroke="#34376B" stroke-width="2.5"></path>
                <circle id="Oval" fill="#D3E5F5" cx="19.1" cy="98.8" r="18.8"></circle>
            </g>
            <g id="forearm_1_" transform="translate(107.000000, 264.000000)">
                <rect id="Rectangle-path" fill="#B5CEE2" transform="translate(39.913660, 35.616920) rotate(127.213668) translate(-39.913660, -35.616920) " x="26.0134098" y="-3.88379099" width="27.8005004" height="79.001422"></rect>
                <circle id="Oval" fill="#D3E5F5" cx="75.1" cy="63.5" r="18.8"></circle>
                <circle id="Oval" stroke="#34376B" stroke-width="2.5" cx="75.1" cy="63.5" r="18.8"></circle>
            </g>
            <g id="head_2_" transform="translate(261.000000, 45.000000)">
                <ellipse id="Oval" fill="#D3E5F5" cx="75.3" cy="143.4" rx="74.5" ry="82.9"></ellipse>
                <path d="M3.6,110 C14.7,79.8 43.3,57.7 74.4,57.7 C105.8,57.7 135.4,79.3 146.4,109.9" id="Shape" stroke="#34376B" stroke-width="2.5"></path>
                <path d="M49.5,171.3 C62.6,173.2 82.4,173 92.8,172.1 C116.6,170 139.4,166.2 147.5,163.8 C149,157.3 149.8,150.4 149.8,143.4 C149.8,133.9 148.4,124.9 145.7,116.4 C122.9,123.5 99.1,127.2 75.1,127.2 C51.2,127.2 27.6,123.5 4.8,116.5 C2.2,124.9 0.8,134 0.8,143.4 C0.8,149.2 1.3,154.9 2.4,160.4 C8,163.2 40,169.9 49.5,171.3 L49.5,171.3 Z" id="Shape" fill="#FFFFFF"></path>
                <ellipse id="Oval" fill="#65D8F0" cx="54.3" cy="148.3" rx="19.8" ry="22"></ellipse>
                <ellipse id="Oval" stroke="#34376B" stroke-width="2.5" cx="51.5" cy="148.3" rx="19.8" ry="22"></ellipse>
                <path d="M49.5,171.3 C62.6,173.2 82.4,173 92.8,172.1 C116.6,170 139.4,166.2 147.5,163.8 C149,157.3 149.8,150.4 149.8,143.4 C149.8,133.9 148.4,124.9 145.7,116.4 C122.9,123.5 99.1,127.2 75.1,127.2 C51.2,127.2 27.6,123.5 4.8,116.5 C2.2,124.9 0.8,134 0.8,143.4 C0.8,149.2 1.3,154.9 2.4,160.4 C8,163.2 40,169.9 49.5,171.3 L49.5,171.3 Z" id="Shape" stroke="#34376B" stroke-width="2.5"></path>
                <polyline id="Shape" stroke="#34376B" stroke-width="2.5" points="75.3 72.9 96.8 58.4 75.3 45.4 96.8 17.8 80.4 0.2"></polyline>
            </g>
            <g id="Group" transform="translate(410.000000, 0.000000)">
                <circle id="Oval" fill="#FFFFFF" cx="59.1" cy="60" r="58.5"></circle>
                <path d="M12.1,24.5 C17.3,18.6 22.9,13.4 32,8.1 C59.9,-8.2 96,4.2 111,32.9 C126,61.6 114.9,96.9 86.2,111.9 C57.5,126.9 22.2,115.8 7.2,87.1 C-1.7,70 -1.4,50.5 6.4,34.4" id="Shape" stroke="#34376B" stroke-width="2.5"></path>
                <path d="M70,37.1 L61.2,20.3 C61.2,20.3 46.9,23.4 36.2,33.4 C25.5,43.3 44.4,76.6 44.4,76.6 C52,91.1 61.4,98.3 70.3,98.7 C79.2,99.1 95.3,85.6 95.3,85.6 L85.2,66.3 L67.8,75.4 L52.6,46.3 L70,37.1 L70,37.1 Z" id="Shape" fill="#6CDDB5"></path>
                <path d="M66,36.1 L57.2,19.3 C57.2,19.3 42.9,22.4 32.2,32.4 C21.5,42.3 40.4,75.6 40.4,75.6 C48,90.1 57.4,97.3 66.3,97.7 C75.2,98.1 91.3,84.6 91.3,84.6 L81.2,65.3 L63.8,74.4 L48.6,45.3 L66,36.1 L66,36.1 Z" id="Shape" stroke="#34376B" stroke-width="2.5"></path>
            </g>
            <g id="Group" transform="translate(152.000000, 1.000000)">
                <circle id="Oval" fill="#FFFFFF" cx="58.8" cy="59.3" r="58.5"></circle>
                <path d="M11.9,23.8 C17.1,17.9 22.7,12.7 31.8,7.4 C59.7,-8.9 95.8,3.5 110.8,32.2 C125.8,60.9 114.7,96.2 86,111.2 C57.3,126.2 22,115.1 7,86.4 C-1.9,69.3 -1.6,49.8 6.2,33.7" id="Shape" stroke="#34376B" stroke-width="2.5"></path>
                <path d="M90.7,35.4 L57.5,35.7 C53.9,35.7 50.9,38.7 51,42.4 L51.2,62.3 C51.2,66.5 54.7,69.9 58.9,69.9 L84.2,69.7 C86.5,69.7 88.6,70.7 90.1,72.4 L98.3,83.3 L98,42.7 C97.9,38.5 94.6,35.3 90.7,35.4 L90.7,35.4 Z" id="Shape" fill="#F4888E"></path>
                <path d="M87.7,32.3 L54.5,32.6 C50.9,32.6 47.9,35.6 48,39.3 L48.2,59.2 C48.2,63.4 51.7,66.8 55.9,66.8 L81.2,66.6 C83.5,66.6 85.6,67.6 87.1,69.3 L95.3,80.2 L95,39.6 C94.9,35.5 91.6,32.3 87.7,32.3 L87.7,32.3 Z" id="Shape" stroke="#34376B" stroke-width="2.5"></path>
                <path d="M38.7,48.2 L71.9,47.6 C75.5,47.5 78.5,50.4 78.6,54.1 L78.9,74 C79,78.2 75.6,81.7 71.4,81.8 L46.1,82.2 C43.8,82.2 41.7,83.3 40.3,85 L32.3,96.1 L31.6,55.5 C31.6,51.6 34.7,48.3 38.7,48.2 L38.7,48.2 Z" id="Shape" fill="#FEDB7D"></path>
                <path d="M35.7,45.2 L68.9,44.6 C72.5,44.5 75.5,47.4 75.6,51.1 L75.9,71 C76,75.2 72.6,78.7 68.4,78.8 L43.1,79.2 C40.8,79.2 38.7,80.3 37.3,82 L29.3,93.1 L28.6,52.5 C28.6,48.6 31.7,45.3 35.7,45.2 L35.7,45.2 Z" id="Shape" stroke="#34376B" stroke-width="2.5"></path>
            </g>
            <path d="M106,175.4 C107.2,173.3 108.6,171 109.9,168.6 C112,165.3 114.2,162 115.7,159.5 C116.1,158.9 116.5,158.3 116.8,157.8 C117.1,157.3 117.5,156.9 117.7,156.5 C118.2,155.8 118.5,155.4 118.5,155.4 L87.7,134 C87.7,134 87.4,134.5 86.8,135.3 C86.5,135.7 86.2,136.2 85.8,136.8 C85.4,137.4 85,138 84.6,138.7 C82.8,141.6 80.3,145.3 77.9,149.2 C76.2,152.1 74.6,155 73.1,157.5 C85.6,160.5 96.9,166.8 106,175.4 L106,175.4 Z" id="Shape"></path>
            <path d="M97.2,151.3 L100.3,153.3 C100.3,153.3 101.1,152 102,150.7 C102.4,150 102.8,149.4 103.2,148.9 C103.5,148.4 103.7,148.1 103.7,148.1 L100.6,146 C100.6,146 100.4,146.3 100,146.8 C99.7,147.3 99.3,148 98.8,148.6 C98,149.9 97.2,151.3 97.2,151.3 L97.2,151.3 Z" id="Shape" fill="#4E507E"></path>
            <path d="M91.2,160.9 L94.4,162.8 C94.4,162.8 95.2,161.5 96,160.1 C96.8,158.8 97.7,157.5 97.7,157.5 L94.5,155.5 C94.5,155.5 93.6,156.8 92.8,158.2 C92,159.5 91.2,160.9 91.2,160.9 L91.2,160.9 Z" id="Shape" fill="#4E507E"></path>
            <path d="M118.6,155.3 C118.6,155.3 119.7,153.7 121.5,151.3 C122.4,150.1 123.4,148.7 124.4,147.2 C125.5,145.7 126.8,144.2 128,142.6 C129.2,141 130.4,139.5 131.6,138 C132.8,136.6 133.9,135.3 134.9,134.2 C136.8,132 138.1,130.5 138.1,130.5 L110,105.6 C110,105.6 108.5,107.3 106.3,109.9 C105.2,111.2 103.9,112.6 102.5,114.3 C101.2,116 99.8,117.7 98.4,119.5 C97,121.3 95.6,123 94.3,124.7 C93.1,126.4 91.9,128 90.9,129.4 C88.9,132.2 87.6,134 87.6,134 L118.6,155.3 L118.6,155.3 Z" id="Shape"></path>
            <polygon id="Shape" fill="#4E507E" points="117.2 123.9 120.1 126.3 124.2 121.6 121.4 119.1"></polygon>
            <polygon id="Shape" fill="#4E507E" points="110.2 132.7 113.2 135 117 130.1 114.1 127.8"></polygon>
            <polygon id="Shape" fill="#4E507E" points="103.5 141.8 106.6 144 110.2 138.9 107.2 136.7"></polygon>
            <path d="M138,130.5 C138,130.5 138.3,130.1 138.9,129.5 C139.5,128.8 140.3,127.9 141.3,126.9 C143.3,124.8 146.1,121.9 148.8,119 C151.7,116.3 154.5,113.6 156.7,111.5 C157.8,110.5 158.7,109.7 159.3,109.1 C160,108.5 160.3,108.2 160.3,108.2 L135.4,80.1 C135.4,80.1 135,80.5 134.2,81.1 C133.5,81.7 132.4,82.7 131.2,83.8 C128.8,86.1 125.5,89.2 122.2,92.4 C119.1,95.7 116,98.9 113.6,101.4 C112.4,102.6 111.5,103.7 110.9,104.4 C110.3,105.1 109.9,105.6 109.9,105.6 L138,130.5 L138,130.5 Z" id="Shape"></path>
            <path d="M140.5,99.1 L143.1,101.8 C143.1,101.8 144.2,100.7 145.4,99.7 C146,99.2 146.5,98.6 146.9,98.2 C147.3,97.8 147.6,97.6 147.6,97.6 L145.1,94.8 C145.1,94.8 144.8,95.1 144.4,95.4 C144,95.8 143.4,96.4 142.8,96.9 C141.7,98.1 140.5,99.1 140.5,99.1 L140.5,99.1 Z" id="Shape" fill="#4E507E"></path>
            <path d="M132.5,107.1 L135.2,109.7 C135.2,109.7 136.3,108.6 137.3,107.4 C138.4,106.3 139.6,105.3 139.6,105.3 L137,102.6 C137,102.6 135.9,103.7 134.7,104.8 C133.5,105.9 132.5,107.1 132.5,107.1 L132.5,107.1 Z" id="Shape" fill="#4E507E"></path>
            <path d="M124.7,115.3 L127.5,117.8 C127.5,117.8 127.8,117.5 128.1,117.1 C128.5,116.7 129,116.1 129.6,115.6 C130.7,114.5 131.7,113.3 131.7,113.3 L129,110.7 C129,110.7 127.9,111.8 126.8,113 C126.3,113.6 125.7,114.1 125.3,114.6 C125,115 124.7,115.3 124.7,115.3 L124.7,115.3 Z" id="Shape" fill="#4E507E"></path>
            <path d="M152,67.5 L152,66.5 C151.1,67.2 150.2,67.9 149.4,68.6 C147.6,70 145.9,71.4 144.2,72.7 C142.6,74 141.1,75.4 139.8,76.5 C137.2,78.7 135.5,80.2 135.5,80.2 L160.4,108.3 C160.4,108.3 161.9,107 164.1,105.1 C165,104.3 166.1,103.4 167.2,102.4 C157.9,93.5 152,81.1 152,67.5 L152,67.5 Z" id="Shape"></path>
            <polygon id="Shape" fill="#4E507E" points="149 91.5 151.4 94.3 156.2 90.2 153.8 87.4"></polygon>
            <path d="M267.5,36.2 C267.6,36.3 267.6,36.4 267.7,36.5 L262.1,13.7 C262.1,13.7 261.6,13.8 260.6,14.1 C260.1,14.2 259.5,14.3 258.9,14.5 C258.2,14.7 257.5,14.9 256.7,15.1 C255.5,15.4 254.1,15.8 252.6,16.3 C259.1,21.4 264.3,28.3 267.5,36.2 L267.5,36.2 Z" id="Shape"></path>
            <path d="M297.6,7.2 C297.6,7.2 295.4,7.5 292,7.9 C288.6,8.2 284.2,9.1 279.8,9.9 C277.6,10.3 275.4,10.7 273.3,11.1 C271.2,11.6 269.3,12 267.7,12.4 C264.4,13.2 262.2,13.7 262.2,13.7 L267.8,36.5 C270.9,40.3 273.5,44.5 275.4,49.1 C275.6,49.1 275.8,49 275.9,49 C277.3,48.7 279,48.3 280.8,47.9 C282.6,47.6 284.6,47.2 286.5,46.9 C290.4,46.2 294.3,45.4 297.2,45.2 C300.1,44.8 302.1,44.6 302.1,44.6 L297.6,7.2 L297.6,7.2 Z" id="Shape"></path>
            <polygon id="Shape" fill="#4E507E" points="290.9 25.6 291.4 29.3 297.6 28.5 297.1 24.8"></polygon>
            <polygon id="Shape" fill="#4E507E" points="279.7 27.6 280.5 31.3 286.6 30.2 286 26.5"></polygon>
            <polygon id="Shape" fill="#4E507E" points="268.7 30 269.6 33.6 275.7 32.2 274.9 28.6"></polygon>
            <path d="M302,44.4 C302,44.4 304,44.2 306.9,43.8 C309.9,43.6 313.8,43.3 317.7,43 C319.7,42.8 321.6,42.8 323.5,42.7 C325.4,42.7 327.1,42.6 328.6,42.6 C331.6,42.5 333.5,42.5 333.5,42.5 L333.5,5 C333.5,5 331.2,5.1 327.9,5.1 C326.2,5.1 324.2,5.2 322.1,5.2 C320,5.2 317.7,5.3 315.5,5.5 C311,5.8 306.5,6.2 303.1,6.4 C299.7,6.8 297.5,7.1 297.5,7.1 L302,44.4 L302,44.4 Z" id="Shape"></path>
            <polygon id="Shape" fill="#4E507E" points="324.7 22.6 324.8 26.4 331.1 26.2 331 22.5"></polygon>
            <path d="M313.4,23.2 L313.7,26.9 C313.7,26.9 315.3,26.8 316.8,26.7 C317.6,26.6 318.4,26.6 318.9,26.5 L319.9,26.5 L319.7,22.8 L318.7,22.8 C318.1,22.8 317.3,22.9 316.5,23 C315,23.1 313.4,23.2 313.4,23.2 L313.4,23.2 Z" id="Shape" fill="#4E507E"></path>
            <path d="M302.2,24.2 L302.6,27.9 C302.6,27.9 303,27.9 303.6,27.8 C304.2,27.7 304.9,27.6 305.7,27.6 C307.3,27.5 308.8,27.4 308.8,27.4 L308.5,23.7 C308.5,23.7 306.9,23.8 305.4,23.9 C304.6,23.9 303.8,24.1 303.2,24.1 C302.6,24.1 302.2,24.2 302.2,24.2 L302.2,24.2 Z" id="Shape" fill="#4E507E"></path>
            <path d="M333.5,42.5 C333.5,42.5 335.5,42.6 338.4,42.6 C339.9,42.6 341.6,42.7 343.5,42.7 C345.4,42.7 347.3,42.8 349.3,43 C353.2,43.3 357.2,43.6 360.1,43.8 C363,44.2 365,44.4 365,44.4 L369.5,7.2 C369.5,7.2 367.3,6.9 363.9,6.5 C360.5,6.2 356,5.9 351.5,5.6 C349.3,5.4 347,5.3 344.9,5.3 C342.8,5.2 340.8,5.2 339.1,5.2 C335.7,5.1 333.5,5.1 333.5,5.1 L333.5,42.5 L333.5,42.5 Z" id="Shape"></path>
            <path d="M358.7,23.6 L358.4,27.3 C358.4,27.3 360,27.4 361.5,27.5 C362.3,27.6 363,27.7 363.6,27.7 C364.2,27.8 364.6,27.8 364.6,27.8 L365,24.1 C365,24.1 364.6,24.1 364,24 C363.4,23.9 362.6,23.8 361.8,23.8 C360.2,23.7 358.7,23.6 358.7,23.6 L358.7,23.6 Z" id="Shape" fill="#4E507E"></path>
            <path d="M347.4,22.7 L347.2,26.4 L348.2,26.4 C348.8,26.4 349.6,26.5 350.3,26.6 C351.9,26.7 353.4,26.8 353.4,26.8 L353.7,23.1 C353.7,23.1 352.1,23 350.6,22.9 C349.8,22.8 349,22.8 348.4,22.7 L347.4,22.7 L347.4,22.7 Z" id="Shape" fill="#4E507E"></path>
            <polygon id="Shape" fill="#4E507E" points="336.1 22.5 336.1 26.2 342.3 26.4 342.4 22.6"></polygon>
            <path d="M365,44.4 C365,44.4 367,44.6 369.9,45 C372.8,45.3 376.7,46.1 380.6,46.7 C382.5,47 384.5,47.4 386.3,47.7 C388.1,48.1 389.8,48.5 391.2,48.8 C394.1,49.5 396,49.9 396,49.9 L404.9,13.5 C404.9,13.5 402.7,13 399.4,12.2 C397.8,11.8 395.8,11.4 393.8,10.9 C391.7,10.5 389.5,10.1 387.3,9.7 C382.9,8.9 378.4,8.1 375.1,7.7 C371.7,7.3 369.5,7 369.5,7 L365,44.4 L365,44.4 Z" id="Shape"></path>
            <polygon id="Shape" fill="#4E507E" points="392.3 28.6 391.5 32.2 397.6 33.6 398.4 30"></polygon>
            <polygon id="Shape" fill="#4E507E" points="381.1 26.5 380.5 30.2 386.6 31.3 387.4 27.6"></polygon>
            <polygon id="Shape" fill="#4E507E" points="370 24.8 369.5 28.5 375.7 29.3 376.3 25.6"></polygon>
            <path d="M421.3,18.1 C417.4,17 413.5,15.9 410.5,15 C409.7,14.8 408.9,14.6 408.3,14.4 C407.6,14.2 407,14.1 406.6,14 C405.6,13.8 405.1,13.6 405.1,13.6 L396.2,50 C396.2,50 396.7,50.1 397.5,50.3 C397.9,50.4 398.4,50.5 399,50.7 C399.6,50.9 400.2,51.1 400.9,51.3 C402.4,51.7 404.1,52.2 406,52.8 C406,39.2 411.9,26.8 421.3,18.1 L421.3,18.1 Z" id="Shape"></path>
            <path d="M403.4,31.1 L402.5,34.7 C402.5,34.7 402.9,34.8 403.4,34.9 C404,35.1 404.7,35.3 405.5,35.5 C407,35.9 408.5,36.4 408.5,36.4 L409.5,32.8 C409.5,32.8 408,32.4 406.5,31.9 C405.7,31.7 405,31.5 404.4,31.3 C403.8,31.2 403.4,31.1 403.4,31.1 L403.4,31.1 Z" id="Shape" fill="#4E507E"></path>
            <path d="M527.3,76.5 C526.8,76.1 526.2,75.6 525.6,75.1 C522.7,87.9 514.6,98.9 503.6,105.7 C505.4,107.3 506.6,108.3 506.6,108.3 L531.5,80.2 C531.6,80.1 529.9,78.7 527.3,76.5 L527.3,76.5 Z" id="Shape"></path>
            <path d="M506.7,108.2 C506.7,108.2 507.1,108.5 507.7,109.1 C508.4,109.7 509.3,110.5 510.3,111.5 C512.4,113.5 515.3,116.3 518.2,119 C520.9,121.9 523.6,124.7 525.7,126.9 C526.7,128 527.5,128.9 528.1,129.5 C528.7,130.2 529,130.5 529,130.5 L557.1,105.6 C557.1,105.6 556.7,105.2 556.1,104.4 C555.5,103.7 554.5,102.6 553.4,101.4 C551.1,99 548,95.7 544.8,92.4 C541.5,89.3 538.3,86.2 535.8,83.8 C534.6,82.6 533.5,81.7 532.8,81.1 C532.1,80.5 531.6,80.1 531.6,80.1 L506.7,108.2 L506.7,108.2 Z" id="Shape"></path>
            <path d="M538.1,110.7 L535.4,113.3 C535.4,113.3 536.5,114.4 537.5,115.6 C538,116.2 538.6,116.7 539,117.1 C539.4,117.5 539.6,117.8 539.6,117.8 L542.4,115.3 C542.4,115.3 542.1,115 541.8,114.6 C541.4,114.2 540.8,113.6 540.3,113 C539.2,111.8 538.1,110.7 538.1,110.7 L538.1,110.7 Z" id="Shape" fill="#4E507E"></path>
            <path d="M530.2,102.6 L527.6,105.3 C527.6,105.3 528.7,106.4 529.9,107.4 C531,108.5 532,109.7 532,109.7 L534.7,107.1 C534.7,107.1 533.6,106 532.5,104.8 C531.3,103.7 530.2,102.6 530.2,102.6 L530.2,102.6 Z" id="Shape" fill="#4E507E"></path>
            <path d="M522,94.9 L519.5,97.7 C519.5,97.7 519.8,98 520.2,98.3 C520.6,98.7 521.2,99.2 521.7,99.8 C522.8,100.9 524,101.9 524,101.9 L526.6,99.2 C526.6,99.2 525.5,98.1 524.3,97 C523.7,96.5 523.2,95.9 522.7,95.5 C522.3,95.1 522,94.9 522,94.9 L522,94.9 Z" id="Shape" fill="#4E507E"></path>
            <path d="M529,130.5 C529,130.5 530.3,132 532.2,134.2 C533.2,135.3 534.3,136.6 535.5,138 C536.6,139.5 537.9,141 539.1,142.6 C540.3,144.2 541.5,145.7 542.7,147.2 C543.8,148.7 544.8,150.1 545.6,151.3 C547.3,153.7 548.5,155.3 548.5,155.3 L579.3,134 C579.3,134 578,132.2 576,129.4 C575,128 573.9,126.4 572.6,124.7 C571.3,123 569.9,121.3 568.5,119.5 C567.1,117.7 565.7,116 564.4,114.3 C563.1,112.7 561.7,111.2 560.6,109.9 C558.4,107.3 556.9,105.6 556.9,105.6 L529,130.5 L529,130.5 Z" id="Shape"></path>
            <polygon id="Shape" fill="#4E507E" points="559.9 136.7 556.9 139 560.5 144 563.6 141.9"></polygon>
            <polygon id="Shape" fill="#4E507E" points="553 127.8 550.1 130.1 553.9 135 556.9 132.7"></polygon>
            <polygon id="Shape" fill="#4E507E" points="545.7 119.1 542.9 121.6 547 126.3 549.9 123.9"></polygon>
            <path d="M550.2,157.7 C550.5,158.2 550.9,158.8 551.3,159.4 C552.9,161.9 555,165.2 557.1,168.5 C559.1,171.9 561,175.3 562.5,177.9 C562.7,178.2 562.9,178.6 563.1,178.9 L571.2,178.9 L598,164.8 C598,164.8 597.7,164.3 597.3,163.4 C596.8,162.5 596.2,161.3 595.4,159.8 C593.7,156.9 591.5,153 589.2,149 C586.8,145.2 584.3,141.4 582.5,138.5 C582,137.8 581.6,137.1 581.3,136.6 C580.9,136 580.6,135.5 580.3,135.1 C579.7,134.3 579.4,133.8 579.4,133.8 L548.6,155.1 C548.6,155.1 548.9,155.5 549.4,156.2 C549.5,156.8 549.9,157.2 550.2,157.7 L550.2,157.7 Z" id="Shape"></path>
            <path d="M578.4,165.2 L575.1,167 C575.1,167 575.9,168.3 576.7,169.7 C577.1,170.4 577.5,171 577.8,171.6 C578.1,172.1 578.2,172.5 578.2,172.5 L581.5,170.7 C581.5,170.7 581.3,170.3 581.1,169.8 C580.8,169.3 580.4,168.6 580,167.9 C579.2,166.6 578.4,165.2 578.4,165.2 L578.4,165.2 Z" id="Shape" fill="#4E507E"></path>
            <path d="M288.1,610.9 L286.9,610.8 C274.5,609.3 265.3,600.7 266.4,591.7 L283.4,455.6 C284.5,446.6 295.5,440.6 307.9,442.1 L309.1,442.2 C321.5,443.7 330.7,452.3 329.6,461.3 L312.6,597.4 C311.5,606.4 300.6,612.4 288.1,610.9 L288.1,610.9 Z" id="Shape" fill="#D3E5F5"></path>
            <path d="M280.9,493.7 C280.9,479.2 282.4,464.8 285.2,450.7 C284.3,452.2 283.7,453.8 283.5,455.6 L266.5,591.7 C265.4,600.7 274.5,609.3 287,610.8 L288.2,610.9 C297.6,612.1 306.2,608.9 310.3,603.4 C291.2,570.2 280.9,532.3 280.9,493.7 L280.9,493.7 Z" id="Shape" fill="#B4CDE0"></path>
            <circle id="Oval" fill="#B5CEE2" cx="286.4" cy="619.2" r="32.9"></circle>
            <path d="M262.7,597 C269.8,589.4 275.5,586.4 286.4,586.4 C304.5,586.4 319.3,601.1 319.3,619.3 C319.3,637.4 304.6,652.2 286.4,652.2 C268.3,652.2 253.5,637.5 253.5,619.3 C253.5,612.1 255.8,605.4 259.8,599.9" id="Shape" stroke="#34376B" stroke-width="2.5"></path>
            <circle id="Oval" stroke="#34376B" stroke-width="2.5" cx="286.4" cy="619.2" r="7.9"></circle>
            <g id="body_1_" transform="translate(250.000000, 236.000000)">
                <path d="M116.7,239.4 L44.6,239.4 C33.3,239.4 24.2,231.1 24.2,221 L24.2,195.4 C24.2,185.2 33.3,177 44.6,177 L116.7,177 C128,177 137.1,185.3 137.1,195.4 L137.1,221 C137.1,231.1 128,239.4 116.7,239.4 L116.7,239.4 Z" id="Shape" fill="#34376B"></path>
                <path d="M139.1,0.7 C119.8,7.9 99.8,11.7 79.5,11.7 C60.7,11.7 42.1,8.4 24.1,2.2 C9.5,32.2 0.5,73.5 0.5,119.2 C0.5,143.6 3.1,167.6 7.7,188.5 L100.4,187.5 L100.4,205.8 L151.6,205.8 C159.2,180.6 163.6,150.9 163.6,119.1 C163.5,72.7 154.1,30.8 139.1,0.7 L139.1,0.7 Z" id="Shape" fill="#D3E5F5"></path>
                <path d="M5.2,94.6 C5.2,62.7 12.3,31.3 25.4,2.6 C24.9,2.4 24.5,2.3 24,2.1 C9.4,32.1 0.4,73.4 0.4,119.1 C0.4,143.5 3,167.5 7.6,188.4 L26.2,188.2 C12.6,159.1 5.2,127.2 5.2,94.6 L5.2,94.6 Z" id="Shape" fill="#B4CDE0"></path>
                <path d="M13.3,187.5 L100.3,187.5 L100.3,205.8 L151.5,205.8 C159.1,180.6 163.5,150.9 163.5,119.1 C163.5,72.7 154.2,30.8 139.1,0.6 C119.8,7.8 99.8,11.4 79.5,11.6 C72.4,11.7 68.4,12 59.1,11.1" id="Shape" stroke="#34376B" stroke-width="2.5"></path>
                <path d="M51.4,9.2 C42.1,7.6 33,5.2 24,2.1 C9.4,32.1 0.4,73.4 0.4,119.1 C0.4,143.5 3,166.6 7.6,187.4" id="Shape" stroke="#34376B" stroke-width="2.5"></path>
                <polygon id="Shape" fill="#F4888E" points="37 66.2 82 66.2 58.5 110.1"></polygon>
                <polygon id="Shape" stroke="#34376B" stroke-width="2.5" points="33.2 64.3 78.2 64.3 54.7 108.2"></polygon>
            </g>
            <path d="M382.7,612.2 L381.5,612.4 C369.4,614.6 358.2,609.2 356.6,600.3 L331.6,465.5 C329.9,456.6 338.4,447.5 350.5,445.3 L351.7,445.1 C363.8,442.9 375,448.3 376.6,457.2 L401.6,592 C403.3,600.9 394.9,609.9 382.7,612.2 L382.7,612.2 Z" id="Shape" fill="#D3E5F5"></path>
            <path d="M401.3,590.2 C399.1,588.2 396.9,586.1 394.8,584 C360.8,550 338.9,505.5 332.4,458.3 C331.5,460.6 331.1,463.1 331.6,465.5 L356.6,600.3 C358.3,609.2 369.4,614.6 381.5,612.4 L382.7,612.2 C394.8,609.9 403.3,600.9 401.6,592 L401.3,590.2 L401.3,590.2 Z" id="Shape" fill="#B4CDE0"></path>
            <circle id="Oval" fill="#B5CEE2" cx="383.6" cy="619.2" r="32.9"></circle>
            <path d="M360.7,642.4 C354.9,636.4 350.8,629.8 350.8,619.2 C350.8,601.1 365.5,586.3 383.7,586.3 C401.9,586.3 416.6,601 416.6,619.2 C416.6,637.3 401.9,652.1 383.7,652.1 C376.1,652.1 369.2,649.6 363.6,645.3" id="Shape" stroke="#34376B" stroke-width="2.5"></path>
            <circle id="Oval" stroke="#34376B" stroke-width="2.5" cx="385" cy="619.2" r="7.9"></circle>
            <path d="M572.6,155.5 L569.4,157.5 C569.4,157.5 570.3,158.8 571.1,160.1 C571.9,161.4 572.7,162.8 572.7,162.8 L575.9,160.9 C575.9,160.9 575.1,159.5 574.3,158.2 C573.5,156.8 572.6,155.5 572.6,155.5 L572.6,155.5 Z" id="Shape" fill="#4E507E"></path>
            <path d="M566.5,146 L563.4,148.1 C563.4,148.1 563.6,148.4 563.9,148.9 C564.2,149.4 564.6,150 565.1,150.7 C565.9,152 566.8,153.3 566.8,153.3 L570,151.3 C570,151.3 569.1,150 568.3,148.6 C567.9,147.9 567.4,147.3 567.1,146.8 C566.8,146.3 566.5,146 566.5,146 L566.5,146 Z" id="Shape" fill="#4E507E"></path>
            <path d="M599.9,168.5 C598.8,166.3 598,164.8 598,164.8 L571.2,179 L573.5,179 C581.4,173.9 590.4,170.2 599.9,168.5 L599.9,168.5 Z" id="Shape"></path>
            <g id="forearm_4_" transform="translate(455.000000, 282.000000)">
                <rect id="Rectangle-path" fill="#B5CEE2" transform="translate(54.473870, 35.676060) rotate(231.198807) translate(-54.473870, -35.676060) " x="40.5743145" y="-3.82267697" width="27.7991111" height="78.9974739"></rect>
                <circle id="Oval" fill="#D3E5F5" cx="18.8" cy="63" r="18.8"></circle>
            </g>
            <g id="shoulder_4_" transform="translate(364.000000, 229.000000)">
                <rect id="Rectangle-path" fill="#B5CEE2" transform="translate(79.201205, 85.068435) rotate(-43.172506) translate(-79.201205, -85.068435) " x="64.5511454" y="38.4182454" width="29.3001191" height="93.3003793"></rect>
                <path d="M78,31.7 C75.8,28 73.1,24.4 69.9,21 C51.6,1.4 24.6,-3.1 9.7,10.9 C-5.2,24.9 -2.4,52.1 15.9,71.6 C19.1,75 22.5,77.9 26.1,80.4 L78,31.7 L78,31.7 Z" id="Shape" fill="#D3E5F5"></path>
                <path d="M21.4,4.3 C37.8,5.6 53.8,12.7 65.7,25.4 C68.7,28.6 71.4,32.1 73.7,35.8 L78.1,31.7 C75.9,28 73.2,24.4 70,21 C55.7,5.9 36.3,-0.3 21.4,4.3 L21.4,4.3 Z" id="Shape" fill="#B4CDE0"></path>
                <path d="M38.6,67.4 L79.4,29.1 C77.2,25.4 74.5,21.8 71.3,18.4 C53,-1.2 26,-5.7 11.1,8.3 C-3.8,22.3 -1,49.5 17.3,69 C20.5,72.4 23.9,75.3 27.5,77.8 L33.1,72.5" id="Shape" stroke="#34376B" stroke-width="2.5"></path>
                <circle id="Oval" fill="#D3E5F5" cx="109.6" cy="116.7" r="18.8"></circle>
                <circle id="Oval" stroke="#34376B" stroke-width="2.5" cx="109.6" cy="116.7" r="18.8"></circle>
            </g>
        </g>
    </g>
</svg>