<?xml version="1.0" encoding="utf-8"?>
<!-- Generator: Adobe Illustrator 17.1.0, SVG Export Plug-In . SVG Version: 6.00 Build 0)  -->
<!DOCTYPE svg PUBLIC "-//W3C//DTD SVG 1.1//EN" "http://www.w3.org/Graphics/SVG/1.1/DTD/svg11.dtd">
<svg version="1.1" id="Слой_1" xmlns="http://www.w3.org/2000/svg" xmlns:xlink="http://www.w3.org/1999/xlink" x="0px" y="0px"
	 viewBox="0 0 822.8 822.8" enable-background="new 0 0 822.8 822.8" xml:space="preserve">
<g>
	<g>
		<g>
			<g>
				<g>
					<g>
						<path fill="none" d="M467.4,336.8c0,0,0,1.9-0.1,4.7c0,0.7,0,1.5-0.1,2.3c0,0.8,0,1.7-0.1,2.5c-0.1,1.7-0.3,3.6-0.4,5.5
							c-0.1,1.9-0.4,3.7-0.6,5.5c-0.2,1.7-0.4,3.4-0.6,4.7c-0.5,2.8-0.8,4.6-0.8,4.6l36.9,6.8c0,0,0.4-2.3,1-5.7
							c0.3-1.7,0.5-3.7,0.8-5.8c0.2-2.1,0.6-4.4,0.8-6.7c0.2-2.3,0.3-4.6,0.5-6.7c0.1-1.1,0.1-2.1,0.1-3.1c0-1,0.1-1.9,0.1-2.8
							c0.1-3.4,0.1-5.7,0.1-5.7H467.4z"/>
					</g>
					<path fill-rule="evenodd" clip-rule="evenodd" fill="#4E507E" d="M485.7,361.7l-3.7-0.5c0,0-0.2,1.5-0.4,3
						c-0.3,1.5-0.5,3-0.5,3l3.7,0.6c0,0,0.3-1.5,0.5-3.1C485.5,363.2,485.7,361.7,485.7,361.7z"/>
					<path fill-rule="evenodd" clip-rule="evenodd" fill="#4E507E" d="M486.9,350.5l-3.7-0.3c0,0-0.1,1.5-0.2,3
						c-0.1,0.8-0.1,1.5-0.2,2.1c-0.1,0.6-0.1,0.9-0.1,0.9l3.7,0.4c0,0,0-0.4,0.1-1c0.1-0.6,0.1-1.4,0.2-2.1
						C486.8,352.1,486.9,350.5,486.9,350.5z"/>
					<polygon fill-rule="evenodd" clip-rule="evenodd" fill="#4E507E" points="487.4,339.4 483.6,339.3 483.5,345.4 487.2,345.6 
											"/>
				</g>
			</g>
			<g>
				<g>
					<g>
						<path fill="none" d="M464.6,366.6c0,0-0.1,0.5-0.2,1.3c-0.1,0.4-0.2,0.9-0.3,1.5c-0.1,0.6-0.3,1.2-0.4,1.9
							c-0.6,2.7-1.4,6.4-2.5,10c-0.9,3.6-2.2,7.1-3.1,9.8c-0.4,1.3-0.9,2.4-1.2,3.2c-0.3,0.8-0.5,1.2-0.5,1.2l35,13.6
							c0,0,0.2-0.5,0.6-1.5c0.4-0.9,0.9-2.3,1.4-3.9c1.1-3.3,2.7-7.6,3.8-12.1c1.3-4.4,2.3-8.9,3.1-12.3c0.2-0.8,0.4-1.6,0.5-2.3
							c0.1-0.7,0.2-1.3,0.3-1.8c0.2-1,0.3-1.6,0.3-1.6L464.6,366.6z"/>
					</g>
					<path fill-rule="evenodd" clip-rule="evenodd" fill="#4E507E" d="M478.1,394.3l-3.6-1.2c0,0-0.5,1.4-1,2.9
						c-0.2,0.7-0.5,1.4-0.7,2c-0.2,0.5-0.3,0.9-0.3,0.9l3.5,1.3c0,0,0.1-0.4,0.4-0.9c0.2-0.6,0.4-1.3,0.7-2
						C477.6,395.8,478.1,394.3,478.1,394.3z"/>
					<polygon fill-rule="evenodd" clip-rule="evenodd" fill="#4E507E" points="481.3,383.6 477.7,382.7 476,388.6 479.6,389.6 					
						"/>
					<path fill-rule="evenodd" clip-rule="evenodd" fill="#4E507E" d="M483.9,372.8l-3.7-0.7c0,0-0.1,0.4-0.2,0.9
						c-0.1,0.6-0.3,1.3-0.5,2c-0.3,1.5-0.7,3-0.7,3l3.6,0.9c0,0,0.4-1.5,0.7-3c0.2-0.8,0.4-1.5,0.5-2.1
						C483.8,373.2,483.9,372.8,483.9,372.8z"/>
				</g>
			</g>
			<g>
				<g>
					<g>
						<path fill="none" d="M456.4,395.3c0,0-0.7,1.7-1.7,4.3c-0.6,1.3-1.2,2.8-2,4.4c-0.7,1.6-1.5,3.3-2.4,5
							c-0.9,1.7-1.7,3.3-2.5,4.9c-0.9,1.5-1.7,2.9-2.4,4.2c-0.7,1.2-1.3,2.2-1.7,2.9c-0.4,0.7-0.7,1.1-0.7,1.1l31.9,19.8
							c0,0,0.3-0.5,0.9-1.3c0.5-0.9,1.2-2.1,2.1-3.6c0.9-1.5,1.9-3.2,2.9-5.1c1-1.9,2-4,3.1-6c1.1-2,2-4.1,2.9-6.1
							c0.9-2,1.7-3.8,2.4-5.4c1.3-3.2,2.1-5.4,2.1-5.4L456.4,395.3z"/>
					</g>
					<polygon fill-rule="evenodd" clip-rule="evenodd" fill="#4E507E" points="464.6,425.1 461.3,423.3 458.3,428.6 461.5,430.5 
											"/>
					<path fill-rule="evenodd" clip-rule="evenodd" fill="#4E507E" d="M469.8,415.1l-3.4-1.6c0,0-0.1,0.4-0.4,0.9
						c-0.3,0.5-0.6,1.2-1,1.9c-0.7,1.4-1.4,2.7-1.4,2.7l3.3,1.7c0,0,0.7-1.4,1.4-2.8c0.4-0.7,0.7-1.4,1-1.9
						C469.6,415.5,469.8,415.1,469.8,415.1z"/>
					<path fill-rule="evenodd" clip-rule="evenodd" fill="#4E507E" d="M474.2,404.9l-3.5-1.4c0,0-0.6,1.4-1.1,2.8
						c-0.6,1.4-1.3,2.8-1.3,2.8l3.4,1.5c0,0,0.6-1.4,1.3-2.8C473.6,406.4,474.2,404.9,474.2,404.9z"/>
				</g>
			</g>
			<g>
				<g>
					<g>
						<path fill="none" d="M443.1,422c0,0-1,1.6-2.5,3.9c-0.7,1.2-1.7,2.5-2.7,3.9c-1,1.4-2.1,3-3.2,4.5c-2.3,2.9-4.6,5.9-6.5,8
							c-0.9,1.1-1.7,1.9-2.2,2.6c-0.5,0.6-0.9,1-0.9,1l27.7,25.3c0,0,0.4-0.4,1-1.2c0.7-0.8,1.6-1.8,2.7-3.2c2.3-2.6,5.1-6.2,8-9.8
							c1.4-1.8,2.7-3.7,4-5.5c1.2-1.8,2.4-3.4,3.3-4.9c1.9-2.9,3.1-4.8,3.1-4.8L443.1,422z"/>
					</g>
					<polygon fill-rule="evenodd" clip-rule="evenodd" fill="#4E507E" points="445.7,452.8 442.8,450.4 438.8,455 441.6,457.5 					
						"/>
					<path fill-rule="evenodd" clip-rule="evenodd" fill="#4E507E" d="M452.5,444l-3-2.2c0,0-0.2,0.3-0.6,0.8
						c-0.3,0.5-0.8,1.1-1.3,1.7c-0.9,1.2-1.9,2.4-1.9,2.4l3,2.3c0,0,1-1.2,1.9-2.5c0.5-0.6,0.9-1.2,1.3-1.7
						C452.3,444.3,452.5,444,452.5,444z"/>
					<path fill-rule="evenodd" clip-rule="evenodd" fill="#4E507E" d="M458.8,434.7l-3.2-2c0,0-0.8,1.3-1.6,2.6
						c-0.4,0.6-0.8,1.3-1.2,1.7c-0.3,0.5-0.6,0.8-0.6,0.8l3.1,2.1c0,0,0.2-0.3,0.6-0.8c0.4-0.5,0.8-1.1,1.2-1.8
						C458,436.1,458.8,434.7,458.8,434.7z"/>
				</g>
			</g>
			<g>
				<g>
					<g>
						<path fill="none" d="M425.1,445.9c0,0-1.3,1.4-3.2,3.4c-1.9,2.1-4.7,4.6-7.3,7.2c-1.4,1.2-2.8,2.5-4.1,3.6
							c-0.7,0.6-1.3,1.1-1.9,1.7c-0.6,0.5-1.2,1-1.8,1.4c-2.2,1.7-3.7,2.9-3.7,2.9l22.6,29.9c0,0,1.8-1.4,4.5-3.6
							c0.7-0.5,1.4-1.1,2.2-1.7c0.7-0.6,1.5-1.3,2.4-2c1.6-1.4,3.4-2.9,5.1-4.4c3.3-3.2,6.7-6.3,9-8.8c2.4-2.5,4-4.2,4-4.2
							L425.1,445.9z"/>
					</g>
					<path fill-rule="evenodd" clip-rule="evenodd" fill="#4E507E" d="M422,476.6l-2.4-2.9c0,0-0.3,0.3-0.7,0.6
						c-0.5,0.4-1.1,0.8-1.7,1.3c-1.2,0.9-2.4,1.9-2.4,1.9l2.3,3c0,0,1.2-1,2.5-1.9c0.6-0.5,1.2-1,1.7-1.3
						C421.7,476.8,422,476.6,422,476.6z"/>
					<path fill-rule="evenodd" clip-rule="evenodd" fill="#4E507E" d="M430.3,469.1l-2.6-2.7c0,0-1.1,1.1-2.2,2.1
						c-1.1,1-2.3,2-2.3,2l2.5,2.8c0,0,1.2-1,2.3-2.1C429.2,470.2,430.3,469.1,430.3,469.1z"/>
					<path fill-rule="evenodd" clip-rule="evenodd" fill="#4E507E" d="M438.2,461.2l-2.7-2.6c0,0-1.1,1.1-2.1,2.2
						c-0.5,0.6-1.1,1.1-1.4,1.5c-0.4,0.4-0.7,0.7-0.7,0.7l2.6,2.7c0,0,0.3-0.3,0.7-0.7c0.4-0.4,0.9-1,1.5-1.6
						C437.1,462.4,438.2,461.2,438.2,461.2z"/>
				</g>
			</g>
			<g>
				<g>
					<g>
						<path fill="none" d="M403,466c0,0-0.1,0.1-0.3,0.2c-0.2,0.1-0.4,0.3-0.8,0.6c-0.7,0.5-1.6,1.1-2.8,2c-1.2,0.8-2.5,1.8-3.9,2.7
							c-1.5,0.9-3,2-4.6,3c-1.5,1.1-3.2,1.9-4.7,2.8c-1.5,0.9-2.9,1.7-4.2,2.3c-2.5,1.3-4.2,2.1-4.2,2.1l16.7,33.6
							c0,0,2-1.1,5.1-2.6c1.5-0.8,3.3-1.8,5.1-2.9c1.9-1.1,3.9-2.2,5.8-3.5c1.9-1.2,3.9-2.5,5.7-3.7c1.8-1.2,3.4-2.4,4.8-3.4
							c1.4-1,2.6-1.8,3.4-2.4c0.4-0.3,0.7-0.5,0.9-0.7c0.2-0.2,0.3-0.3,0.3-0.3L403,466z"/>
					</g>
					<path fill-rule="evenodd" clip-rule="evenodd" fill="#4E507E" d="M394.3,495.6l-1.8-3.3c0,0-0.3,0.2-0.8,0.5
						c-0.5,0.3-1.1,0.7-1.8,1c-1.4,0.7-2.7,1.4-2.7,1.4l1.7,3.3c0,0,1.4-0.7,2.8-1.4c0.7-0.3,1.4-0.8,1.9-1
						C394,495.8,394.3,495.6,394.3,495.6z"/>
					<path fill-rule="evenodd" clip-rule="evenodd" fill="#4E507E" d="M403.9,489.8l-2-3.2c0,0-1.3,0.8-2.6,1.6
						c-1.3,0.9-2.6,1.6-2.6,1.6l1.9,3.2c0,0,1.4-0.8,2.7-1.6C402.6,490.7,403.9,489.8,403.9,489.8z"/>
					<polygon fill-rule="evenodd" clip-rule="evenodd" fill="#4E507E" points="413.1,483.5 410.9,480.5 405.9,484 408,487.1 					
						"/>
				</g>
			</g>
			<g>
				<g>
					<g>
						<path fill="none" d="M377.6,481.7c0,0-0.4,0.2-1.1,0.6c-0.7,0.4-1.8,0.9-3.1,1.4c-1.3,0.6-2.8,1.3-4.4,2
							c-1.6,0.7-3.4,1.3-5.1,2c-0.9,0.3-1.7,0.7-2.6,1c-0.9,0.3-1.7,0.6-2.6,0.9c-1.7,0.6-3.2,1.1-4.5,1.5c-1.3,0.5-2.5,0.7-3.2,1
							c-0.8,0.2-1.2,0.4-1.2,0.4l10.2,36.1c0,0,0.6-0.2,1.5-0.4c1-0.3,2.4-0.6,4-1.2c1.6-0.6,3.5-1.2,5.6-1.9c1-0.4,2.1-0.7,3.1-1.1
							c1.1-0.4,2.1-0.8,3.2-1.3c2.1-0.9,4.3-1.7,6.3-2.5c2-0.9,3.8-1.7,5.4-2.4c1.6-0.7,2.9-1.3,3.8-1.8c0.9-0.5,1.4-0.7,1.4-0.7
							L377.6,481.7z"/>
					</g>
					<path fill-rule="evenodd" clip-rule="evenodd" fill="#4E507E" d="M363.6,509.2l-1.2-3.6c0,0-1.4,0.5-2.9,1
						c-0.7,0.3-1.5,0.5-2,0.6c-0.6,0.2-0.9,0.3-0.9,0.3l1.1,3.6c0,0,0.4-0.1,0.9-0.3c0.6-0.1,1.3-0.4,2-0.6
						C362.2,509.7,363.6,509.2,363.6,509.2z"/>
					<polygon fill-rule="evenodd" clip-rule="evenodd" fill="#4E507E" points="374.1,505.3 372.7,501.9 367,504.1 368.3,507.6 					
						"/>
					<polygon fill-rule="evenodd" clip-rule="evenodd" fill="#4E507E" points="384.3,500.8 382.7,497.5 377.1,500 378.6,503.4 					
						"/>
				</g>
			</g>
			<g>
				<g>
					<g>
						<path fill="none" d="M349.8,492.5c0,0-0.4,0.1-1.2,0.4c-0.8,0.2-1.9,0.6-3.3,0.9c-1.4,0.3-3,0.7-4.7,1.1
							c-0.9,0.2-1.7,0.4-2.6,0.6c-0.9,0.2-1.8,0.3-2.7,0.5c-1.8,0.3-3.7,0.7-5.4,1c-1.7,0.2-3.4,0.4-4.8,0.6
							c-1.4,0.2-2.5,0.3-3.4,0.4c-0.8,0.1-1.3,0.1-1.3,0.1l3.4,37.3c0,0,0.6,0,1.6-0.1c1-0.1,2.4-0.3,4.1-0.5
							c1.7-0.2,3.7-0.5,5.9-0.7c2.1-0.3,4.4-0.8,6.7-1.2c1.1-0.2,2.3-0.4,3.4-0.6c1.1-0.3,2.2-0.5,3.2-0.7c2.1-0.5,4.1-0.9,5.8-1.3
							c1.7-0.4,3.1-0.8,4-1.1c1-0.3,1.5-0.4,1.5-0.4L349.8,492.5z"/>
					</g>
					<polygon fill-rule="evenodd" clip-rule="evenodd" fill="#4E507E" points="331,517 330.4,513.2 324.4,514 324.8,517.7 					"/>
					<polygon fill-rule="evenodd" clip-rule="evenodd" fill="#4E507E" points="342,515.1 341.3,511.4 335.2,512.5 335.9,516.2 					
						"/>
					<path fill-rule="evenodd" clip-rule="evenodd" fill="#4E507E" d="M352.8,512.5l-1-3.6c0,0-0.4,0.1-0.9,0.3
						c-0.5,0.2-1.3,0.4-2,0.5c-1.5,0.3-3,0.7-3,0.7l0.8,3.7c0,0,1.5-0.4,3-0.7c0.8-0.2,1.5-0.4,2.1-0.5
						C352.5,512.6,352.8,512.5,352.8,512.5z"/>
				</g>
			</g>
			<g>
				<g>
					<g>
						<path fill="none" d="M320.5,498c0,0-1.9,0.1-4.7,0.4c-0.7,0-1.5,0.1-2.3,0.2c-0.8,0-1.7,0-2.5,0.1c-1.8,0-3.6,0.1-5.5,0.1
							c-1.9,0-3.7-0.1-5.5-0.1c-0.9,0-1.7,0-2.5-0.1c-0.8,0-1.6-0.1-2.3-0.2c-2.8-0.2-4.7-0.4-4.7-0.4l-3.4,37.3
							c0,0,2.3,0.2,5.7,0.4c0.9,0.1,1.8,0.2,2.8,0.2c1,0,2,0.1,3.1,0.1c2.2,0.1,4.5,0.1,6.8,0.2c2.3-0.1,4.6-0.1,6.8-0.2
							c1.1,0,2.1-0.1,3.1-0.1c1,0,1.9-0.1,2.8-0.2c3.4-0.3,5.7-0.4,5.7-0.4L320.5,498z"/>
					</g>
					<path fill-rule="evenodd" clip-rule="evenodd" fill="#4E507E" d="M297.4,518.6l0.2-3.7c0,0-0.4,0-1,0c-0.6,0-1.3-0.1-2.1-0.1
						c-1.5-0.1-3-0.2-3-0.2l-0.3,3.7c0,0,1.6,0.1,3.1,0.2c0.8,0.1,1.6,0.1,2.1,0.1C297,518.5,297.4,518.6,297.4,518.6z"/>
					<path fill-rule="evenodd" clip-rule="evenodd" fill="#4E507E" d="M308.6,518.7l-0.1-3.7c0,0-1.5,0-3.1,0.1
						c-1.5,0-3.1-0.1-3.1-0.1l-0.1,3.7c0,0,1.6,0,3.1,0.1C307.1,518.7,308.6,518.7,308.6,518.7z"/>
					<path fill-rule="evenodd" clip-rule="evenodd" fill="#4E507E" d="M319.8,518.2l-0.3-3.7c0,0-1.5,0.1-3,0.2
						c-1.5,0.1-3.1,0.2-3.1,0.2l0.2,3.7c0,0,1.6,0,3.1-0.2C318.2,518.3,319.8,518.2,319.8,518.2z"/>
				</g>
			</g>
			<g>
				<g>
					<g>
						<path fill="none" d="M290.6,498c0,0-0.5,0-1.3-0.1c-0.8-0.1-2-0.2-3.4-0.4c-1.4-0.2-3-0.4-4.8-0.6c-1.7-0.3-3.6-0.6-5.4-1
							c-0.9-0.2-1.8-0.3-2.7-0.5c-0.9-0.2-1.8-0.4-2.6-0.6c-1.7-0.4-3.3-0.8-4.7-1.1c-1.4-0.3-2.5-0.7-3.3-0.9
							c-0.8-0.2-1.2-0.4-1.2-0.4L251,528.6c0,0,0.6,0.2,1.5,0.4c1,0.3,2.3,0.7,4,1.1c1.7,0.4,3.6,0.8,5.8,1.3
							c1.1,0.2,2.1,0.5,3.2,0.7c1.1,0.2,2.2,0.4,3.4,0.6c2.3,0.4,4.5,0.8,6.7,1.2c2.1,0.3,4.1,0.5,5.9,0.7c1.7,0.2,3.1,0.4,4.1,0.5
							c1,0.1,1.6,0.1,1.6,0.1L290.6,498z"/>
					</g>
					<path fill-rule="evenodd" clip-rule="evenodd" fill="#4E507E" d="M264.2,514l0.8-3.7c0,0-1.5-0.3-3-0.7c-0.7-0.2-1.5-0.4-2-0.5
						c-0.6-0.2-0.9-0.3-0.9-0.3l-1,3.6c0,0,0.4,0.1,0.9,0.3c0.6,0.2,1.3,0.4,2.1,0.5C262.7,513.6,264.2,514,264.2,514z"/>
					<polygon fill-rule="evenodd" clip-rule="evenodd" fill="#4E507E" points="275.1,516.2 275.8,512.5 269.8,511.4 269,515.1 					
						"/>
					<polygon fill-rule="evenodd" clip-rule="evenodd" fill="#4E507E" points="286.2,517.7 286.6,514 280.5,513.2 280,516.9 					
						"/>
				</g>
			</g>
			<g>
				<g>
					<g>
						<path fill="none" d="M261.2,492.5c0,0-0.4-0.1-1.2-0.4c-0.8-0.2-1.9-0.5-3.2-1c-1.3-0.4-2.9-1-4.5-1.5
							c-0.8-0.3-1.7-0.6-2.6-0.9c-0.9-0.3-1.7-0.7-2.6-1c-1.7-0.7-3.5-1.3-5.1-2c-1.6-0.7-3.1-1.4-4.4-2c-1.3-0.6-2.4-1-3.1-1.4
							c-0.7-0.4-1.1-0.6-1.1-0.6l-16.7,33.6c0,0,0.5,0.3,1.4,0.7c0.9,0.5,2.2,1.1,3.8,1.8c1.6,0.7,3.4,1.5,5.4,2.4
							c2,0.9,4.1,1.7,6.3,2.5c1.1,0.4,2.1,0.8,3.2,1.3c1.1,0.4,2.1,0.7,3.1,1.1c2,0.7,4,1.3,5.6,1.9c1.6,0.5,3,0.9,4,1.2
							c1,0.3,1.5,0.4,1.5,0.4L261.2,492.5z"/>
					</g>
					<polygon fill-rule="evenodd" clip-rule="evenodd" fill="#4E507E" points="232.3,503.4 233.8,500 228.3,497.4 226.6,500.8 					
						"/>
					<polygon fill-rule="evenodd" clip-rule="evenodd" fill="#4E507E" points="242.7,507.6 244,504.1 238.3,501.9 236.9,505.3 					
						"/>
					<path fill-rule="evenodd" clip-rule="evenodd" fill="#4E507E" d="M253.3,511.1l1.1-3.6c0,0-0.4-0.1-0.9-0.3
						c-0.6-0.1-1.3-0.4-2-0.6c-1.4-0.5-2.9-1-2.9-1l-1.2,3.6c0,0,1.5,0.5,3,1c0.7,0.3,1.5,0.5,2,0.6
						C252.9,511,253.3,511.1,253.3,511.1z"/>
				</g>
			</g>
			<g>
				<g>
					<g>
						<path fill="none" d="M233.4,481.7c0,0-1.7-0.9-4.2-2.1c-1.3-0.6-2.6-1.5-4.2-2.3c-1.5-0.9-3.2-1.7-4.7-2.8c-1.6-1-3.1-2-4.6-3
							c-1.5-0.9-2.8-2-3.9-2.7c-1.1-0.8-2.1-1.5-2.8-2c-0.3-0.2-0.6-0.4-0.8-0.6c-0.2-0.1-0.3-0.2-0.3-0.2l-22.6,29.9
							c0,0,0.1,0.1,0.3,0.3c0.2,0.2,0.5,0.4,0.9,0.7c0.8,0.6,2,1.4,3.4,2.4c1.4,1,3,2.2,4.8,3.4c1.8,1.2,3.8,2.4,5.7,3.7
							c1.9,1.3,4,2.3,5.8,3.5c1.9,1.1,3.6,2.1,5.1,2.9c3.1,1.6,5.1,2.6,5.1,2.6L233.4,481.7z"/>
					</g>
					<polygon fill-rule="evenodd" clip-rule="evenodd" fill="#4E507E" points="203,487.1 205.1,484 200.1,480.5 197.9,483.5 					
						"/>
					<path fill-rule="evenodd" clip-rule="evenodd" fill="#4E507E" d="M212.4,493.1l1.9-3.2c0,0-1.3-0.7-2.6-1.6
						c-1.3-0.8-2.6-1.6-2.6-1.6l-2,3.2c0,0,1.3,0.8,2.6,1.7C211,492.4,212.4,493.1,212.4,493.1z"/>
					<path fill-rule="evenodd" clip-rule="evenodd" fill="#4E507E" d="M222.2,498.5l1.7-3.3c0,0-1.4-0.7-2.7-1.4
						c-0.7-0.3-1.3-0.7-1.8-1c-0.5-0.3-0.8-0.5-0.8-0.5l-1.8,3.3c0,0,0.3,0.2,0.8,0.5c0.5,0.3,1.2,0.7,1.9,1
						C220.8,497.8,222.2,498.5,222.2,498.5z"/>
				</g>
			</g>
			<g>
				<g>
					<g>
						<path fill="none" d="M208,466c0,0-1.5-1.2-3.7-2.9c-0.6-0.4-1.1-0.9-1.8-1.4c-0.6-0.5-1.2-1.1-1.9-1.7
							c-1.3-1.2-2.7-2.4-4.1-3.6c-2.7-2.6-5.5-5.1-7.3-7.2c-1.9-2-3.2-3.4-3.2-3.4l-27.7,25.3c0,0,1.6,1.7,4,4.2
							c2.3,2.6,5.7,5.7,9,8.8c1.7,1.5,3.5,3,5.1,4.4c0.8,0.7,1.6,1.4,2.4,2c0.8,0.6,1.5,1.2,2.2,1.7c2.7,2.1,4.5,3.6,4.5,3.6
							L208,466z"/>
					</g>
					<path fill-rule="evenodd" clip-rule="evenodd" fill="#4E507E" d="M177.1,465.7l2.6-2.7c0,0-0.3-0.3-0.7-0.7
						c-0.4-0.4-0.9-1-1.4-1.5c-1.1-1.1-2.1-2.2-2.1-2.2l-2.7,2.6c0,0,1.1,1.1,2.2,2.3c0.5,0.6,1.1,1.1,1.5,1.6
						C176.8,465.4,177.1,465.7,177.1,465.7z"/>
					<path fill-rule="evenodd" clip-rule="evenodd" fill="#4E507E" d="M185.3,473.3l2.5-2.8c0,0-1.2-1-2.3-2
						c-1.1-1.1-2.2-2.1-2.2-2.1l-2.6,2.7c0,0,1.1,1.1,2.3,2.2C184.1,472.3,185.3,473.3,185.3,473.3z"/>
					<path fill-rule="evenodd" clip-rule="evenodd" fill="#4E507E" d="M193.9,480.4l2.3-3c0,0-1.2-0.9-2.4-1.9
						c-0.6-0.5-1.2-0.9-1.7-1.3c-0.4-0.4-0.7-0.6-0.7-0.6l-2.4,2.9c0,0,0.3,0.3,0.7,0.6c0.5,0.4,1.1,0.8,1.7,1.3
						C192.7,479.5,193.9,480.4,193.9,480.4z"/>
				</g>
			</g>
			<g>
				<g>
					<g>
						<path fill="none" d="M185.9,445.9c0,0-0.3-0.3-0.9-1c-0.5-0.6-1.3-1.5-2.2-2.6c-1.9-2.1-4.2-5-6.5-8c-1.2-1.5-2.2-3-3.2-4.5
							c-1-1.4-2-2.7-2.7-3.9c-1.5-2.4-2.5-3.9-2.5-3.9L136,441.8c0,0,1.2,1.9,3.1,4.8c0.9,1.5,2.1,3.1,3.3,4.9
							c1.3,1.7,2.5,3.7,4,5.5c2.8,3.6,5.7,7.3,8,9.8c1.1,1.3,2.1,2.4,2.7,3.2c0.7,0.8,1,1.2,1,1.2L185.9,445.9z"/>
					</g>
					<path fill-rule="evenodd" clip-rule="evenodd" fill="#4E507E" d="M155.6,439.9l3.1-2.1c0,0-0.9-1.2-1.7-2.5
						c-0.8-1.3-1.6-2.6-1.6-2.6l-3.2,2c0,0,0.8,1.3,1.7,2.6C154.7,438.7,155.6,439.9,155.6,439.9z"/>
					<path fill-rule="evenodd" clip-rule="evenodd" fill="#4E507E" d="M162.3,448.9l3-2.3c0,0-0.9-1.2-1.9-2.4
						c-0.5-0.6-0.9-1.2-1.3-1.7c-0.3-0.5-0.6-0.8-0.6-0.8l-3,2.2c0,0,0.2,0.3,0.6,0.8c0.3,0.5,0.8,1.1,1.3,1.7
						C161.3,447.7,162.3,448.9,162.3,448.9z"/>
					<polygon fill-rule="evenodd" clip-rule="evenodd" fill="#4E507E" points="169.4,457.5 172.2,455 168.2,450.4 165.3,452.8 					
						"/>
				</g>
			</g>
			<g>
				<g>
					<g>
						<path fill="none" d="M167.9,422c0,0-0.3-0.4-0.7-1.1c-0.4-0.7-1-1.7-1.7-2.9c-0.7-1.2-1.5-2.6-2.4-4.2
							c-0.8-1.6-1.6-3.2-2.5-4.9c-0.9-1.6-1.6-3.4-2.4-5c-0.7-1.6-1.4-3.1-2-4.4c-1-2.6-1.7-4.3-1.7-4.3l-35,13.6
							c0,0,0.8,2.1,2.1,5.4c0.7,1.6,1.5,3.4,2.4,5.4c0.9,2,1.8,4.1,2.9,6.1c1.1,2,2.1,4.1,3.1,6c1.1,1.9,2.1,3.6,2.9,5.1
							c0.9,1.5,1.6,2.7,2.1,3.6c0.5,0.8,0.9,1.3,0.9,1.3L167.9,422z"/>
					</g>
					<path fill-rule="evenodd" clip-rule="evenodd" fill="#4E507E" d="M139.2,410.6l3.4-1.5c0,0-0.6-1.4-1.3-2.8
						c-0.6-1.4-1.1-2.8-1.1-2.8l-3.5,1.4c0,0,0.6,1.5,1.2,2.9C138.6,409.2,139.2,410.6,139.2,410.6z"/>
					<path fill-rule="evenodd" clip-rule="evenodd" fill="#4E507E" d="M144.1,420.7l3.3-1.7c0,0-0.7-1.4-1.4-2.7
						c-0.3-0.7-0.7-1.4-1-1.9c-0.3-0.5-0.4-0.9-0.4-0.9l-3.4,1.6c0,0,0.1,0.4,0.4,0.9c0.3,0.5,0.6,1.2,1,1.9
						C143.4,419.3,144.1,420.7,144.1,420.7z"/>
					<polygon fill-rule="evenodd" clip-rule="evenodd" fill="#4E507E" points="149.5,430.4 152.7,428.5 149.7,423.2 146.4,425 					
						"/>
				</g>
			</g>
			<g>
				<g>
					<g>
						<path fill="none" d="M154.6,395.3c0,0-0.2-0.4-0.5-1.2c-0.3-0.8-0.7-1.8-1.2-3.2c-0.9-2.7-2.2-6.2-3.1-9.8
							c-1.1-3.6-1.9-7.2-2.5-10c-0.2-0.7-0.3-1.3-0.4-1.9c-0.1-0.6-0.2-1-0.3-1.5c-0.1-0.8-0.2-1.3-0.2-1.3l-36.9,6.8
							c0,0,0.1,0.6,0.3,1.6c0.1,0.5,0.2,1.1,0.3,1.8c0.1,0.7,0.3,1.5,0.5,2.3c0.8,3.4,1.7,7.9,3.1,12.3c1.2,4.5,2.7,8.8,3.8,12.1
							c0.5,1.6,1.1,3,1.4,3.9c0.4,0.9,0.6,1.5,0.6,1.5L154.6,395.3z"/>
					</g>
					<path fill-rule="evenodd" clip-rule="evenodd" fill="#4E507E" d="M128.5,378.8l3.6-0.9c0,0-0.3-1.5-0.7-3
						c-0.2-0.7-0.3-1.5-0.5-2c-0.1-0.6-0.2-0.9-0.2-0.9l-3.7,0.7c0,0,0.1,0.4,0.2,1c0.1,0.6,0.3,1.3,0.5,2.1
						C128.2,377.3,128.5,378.8,128.5,378.8z"/>
					<polygon fill-rule="evenodd" clip-rule="evenodd" fill="#4E507E" points="131.4,389.6 135,388.5 133.3,382.6 129.7,383.6 					
						"/>
					<path fill-rule="evenodd" clip-rule="evenodd" fill="#4E507E" d="M134.9,400.2l3.5-1.3c0,0-0.1-0.4-0.3-0.9
						c-0.2-0.5-0.4-1.3-0.7-2c-0.5-1.4-1-2.9-1-2.9l-3.6,1.2c0,0,0.5,1.5,1,3c0.3,0.7,0.5,1.5,0.7,2
						C134.8,399.8,134.9,400.2,134.9,400.2z"/>
				</g>
			</g>
			<g>
				<g>
					<g>
						<path fill="none" d="M146.4,366.6c0,0-0.3-1.8-0.8-4.6c-0.2-1.4-0.4-3-0.6-4.7c-0.2-1.7-0.5-3.6-0.6-5.5
							c-0.1-1.9-0.3-3.7-0.4-5.5c-0.1-0.9-0.1-1.7-0.1-2.5c0-0.8,0-1.6-0.1-2.3c-0.1-2.8-0.1-4.7-0.1-4.7h-37.5c0,0,0.1,2.3,0.1,5.7
							c0,0.9,0,1.8,0.1,2.8c0,1,0.1,2,0.1,3.1c0.2,2.2,0.3,4.4,0.5,6.7c0.1,2.3,0.5,4.6,0.8,6.7c0.3,2.1,0.5,4.1,0.8,5.8
							c0.6,3.4,1,5.7,1,5.7L146.4,366.6z"/>
					</g>
					<polygon fill-rule="evenodd" clip-rule="evenodd" fill="#4E507E" points="123.8,345.6 127.6,345.4 127.4,339.3 123.7,339.3 
											"/>
					<path fill-rule="evenodd" clip-rule="evenodd" fill="#4E507E" d="M124.7,356.7l3.7-0.4c0,0,0-0.4-0.1-0.9
						c-0.1-0.6-0.1-1.3-0.2-2.1c-0.1-1.5-0.2-3-0.2-3l-3.7,0.3c0,0,0.1,1.6,0.2,3.1c0.1,0.8,0.1,1.6,0.2,2.1
						C124.6,356.3,124.7,356.7,124.7,356.7z"/>
					<path fill-rule="evenodd" clip-rule="evenodd" fill="#4E507E" d="M126.3,367.8l3.7-0.6c0,0-0.3-1.5-0.5-3c-0.2-1.5-0.4-3-0.4-3
						l-3.7,0.5c0,0,0.2,1.5,0.4,3.1C126,366.2,126.3,367.8,126.3,367.8z"/>
				</g>
			</g>
			<g>
				<g>
					<g>
						<path fill="none" d="M143.7,336.8c0,0,0-1.9,0.1-4.7c0-0.7,0-1.5,0.1-2.3c0-0.8,0-1.7,0.1-2.5c0.1-1.7,0.3-3.6,0.4-5.5
							c0.1-1.9,0.4-3.7,0.6-5.5c0.2-1.7,0.4-3.4,0.6-4.7c0.5-2.8,0.8-4.6,0.8-4.6l-36.9-6.8c0,0-0.4,2.3-1,5.7
							c-0.3,1.7-0.5,3.7-0.8,5.8c-0.2,2.1-0.6,4.4-0.8,6.7c-0.2,2.3-0.3,4.6-0.5,6.7c-0.1,1.1-0.1,2.1-0.1,3.1c0,1-0.1,1.9-0.1,2.8
							c-0.1,3.4-0.1,5.7-0.1,5.7H143.7z"/>
					</g>
					<path fill-rule="evenodd" clip-rule="evenodd" fill="#4E507E" d="M125.3,312l3.7,0.5c0,0,0.2-1.5,0.4-3c0.3-1.5,0.5-3,0.5-3
						l-3.7-0.6c0,0-0.3,1.5-0.5,3.1C125.5,310.5,125.3,312,125.3,312z"/>
					<path fill-rule="evenodd" clip-rule="evenodd" fill="#4E507E" d="M124.2,323.2l3.7,0.3c0,0,0.1-1.5,0.2-3
						c0.1-0.8,0.1-1.5,0.2-2.1c0.1-0.6,0.1-0.9,0.1-0.9l-3.7-0.4c0,0,0,0.4-0.1,1c-0.1,0.6-0.1,1.4-0.2,2.1
						C124.3,321.6,124.2,323.2,124.2,323.2z"/>
					<polygon fill-rule="evenodd" clip-rule="evenodd" fill="#4E507E" points="123.7,334.3 127.4,334.3 127.6,328.2 123.8,328.1 
											"/>
				</g>
			</g>
			<g>
				<g>
					<g>
						<path fill="none" d="M146.4,307.1c0,0,0.1-0.5,0.2-1.3c0.1-0.4,0.2-0.9,0.3-1.5c0.1-0.6,0.3-1.2,0.4-1.9
							c0.6-2.7,1.4-6.4,2.5-10c0.9-3.6,2.2-7.1,3.1-9.8c0.4-1.3,0.9-2.4,1.2-3.2c0.3-0.8,0.5-1.2,0.5-1.2l-35-13.6
							c0,0-0.2,0.5-0.6,1.5c-0.4,0.9-0.9,2.3-1.4,3.9c-1.1,3.3-2.7,7.6-3.8,12.1c-1.3,4.4-2.3,8.9-3.1,12.3
							c-0.2,0.8-0.4,1.6-0.5,2.3c-0.1,0.7-0.2,1.3-0.3,1.8c-0.2,1-0.3,1.6-0.3,1.6L146.4,307.1z"/>
					</g>
					<path fill-rule="evenodd" clip-rule="evenodd" fill="#4E507E" d="M132.9,279.3l3.6,1.2c0,0,0.5-1.4,1-2.9
						c0.2-0.7,0.5-1.4,0.7-2c0.2-0.5,0.3-0.9,0.3-0.9l-3.5-1.3c0,0-0.1,0.4-0.4,0.9c-0.2,0.6-0.4,1.3-0.7,2
						C133.4,277.9,132.9,279.3,132.9,279.3z"/>
					<polygon fill-rule="evenodd" clip-rule="evenodd" fill="#4E507E" points="129.7,290 133.3,291 135,285.1 131.4,284 					"/>
					<path fill-rule="evenodd" clip-rule="evenodd" fill="#4E507E" d="M127.2,300.9l3.7,0.7c0,0,0.1-0.4,0.2-0.9
						c0.1-0.6,0.3-1.3,0.5-2c0.3-1.5,0.7-3,0.7-3l-3.6-0.9c0,0-0.4,1.5-0.7,3c-0.2,0.8-0.4,1.5-0.5,2.1
						C127.2,300.5,127.2,300.9,127.2,300.9z"/>
				</g>
			</g>
			<g>
				<g>
					<g>
						<path fill="none" d="M154.6,278.4c0,0,0.7-1.7,1.7-4.3c0.6-1.3,1.2-2.8,2-4.4c0.7-1.6,1.5-3.3,2.4-5c0.9-1.7,1.7-3.3,2.5-4.9
							c0.9-1.5,1.7-2.9,2.4-4.2c0.7-1.2,1.3-2.2,1.7-2.9c0.4-0.7,0.7-1.1,0.7-1.1L136,231.9c0,0-0.3,0.5-0.9,1.3
							c-0.5,0.9-1.2,2.1-2.1,3.6c-0.9,1.5-1.9,3.2-2.9,5.1c-1,1.9-2,4-3.1,6c-1.1,2-2,4.1-2.9,6.1c-0.9,2-1.7,3.8-2.4,5.4
							c-1.3,3.2-2.1,5.4-2.1,5.4L154.6,278.4z"/>
					</g>
					<polygon fill-rule="evenodd" clip-rule="evenodd" fill="#4E507E" points="146.4,248.6 149.7,250.4 152.7,245.1 149.5,243.2 
											"/>
					<path fill-rule="evenodd" clip-rule="evenodd" fill="#4E507E" d="M141.3,258.5l3.4,1.6c0,0,0.1-0.4,0.4-0.9
						c0.3-0.5,0.6-1.2,1-1.9c0.7-1.4,1.4-2.7,1.4-2.7l-3.3-1.7c0,0-0.7,1.4-1.4,2.8c-0.4,0.7-0.7,1.4-1,1.9
						C141.4,258.2,141.3,258.5,141.3,258.5z"/>
					<path fill-rule="evenodd" clip-rule="evenodd" fill="#4E507E" d="M136.8,268.8l3.5,1.4c0,0,0.6-1.4,1.1-2.8
						c0.6-1.4,1.3-2.8,1.3-2.8l-3.4-1.5c0,0-0.6,1.4-1.3,2.8C137.4,267.3,136.8,268.8,136.8,268.8z"/>
				</g>
			</g>
			<g>
				<g>
					<g>
						<path fill="none" d="M167.9,251.7c0,0,1-1.6,2.5-3.9c0.7-1.2,1.7-2.5,2.7-3.9c1-1.4,2.1-3,3.2-4.5c2.3-2.9,4.6-5.9,6.5-8
							c0.9-1.1,1.7-1.9,2.2-2.6c0.5-0.6,0.9-1,0.9-1l-27.7-25.3c0,0-0.4,0.4-1,1.2c-0.7,0.8-1.6,1.8-2.7,3.2c-2.3,2.6-5.1,6.2-8,9.8
							c-1.4,1.8-2.7,3.7-4,5.5c-1.2,1.8-2.4,3.4-3.3,4.9c-1.9,2.9-3.1,4.8-3.1,4.8L167.9,251.7z"/>
					</g>
					<polygon fill-rule="evenodd" clip-rule="evenodd" fill="#4E507E" points="165.4,220.9 168.2,223.3 172.2,218.6 169.4,216.1 
											"/>
					<path fill-rule="evenodd" clip-rule="evenodd" fill="#4E507E" d="M158.5,229.7l3,2.2c0,0,0.2-0.3,0.6-0.8
						c0.3-0.5,0.8-1.1,1.3-1.7c0.9-1.2,1.9-2.4,1.9-2.4l-3-2.3c0,0-1,1.2-1.9,2.5c-0.5,0.6-0.9,1.2-1.3,1.7
						C158.7,229.4,158.5,229.7,158.5,229.7z"/>
					<path fill-rule="evenodd" clip-rule="evenodd" fill="#4E507E" d="M152.2,238.9l3.2,2c0,0,0.8-1.3,1.6-2.6
						c0.4-0.6,0.8-1.3,1.2-1.7c0.3-0.5,0.6-0.8,0.6-0.8l-3.1-2.1c0,0-0.2,0.3-0.6,0.8c-0.4,0.5-0.8,1.1-1.2,1.8
						C153.1,237.6,152.2,238.9,152.2,238.9z"/>
				</g>
			</g>
			<g>
				<g>
					<g>
						<path fill="none" d="M185.9,227.8c0,0,1.3-1.4,3.2-3.4c1.9-2.1,4.7-4.6,7.3-7.2c1.4-1.2,2.8-2.5,4.1-3.6
							c0.7-0.6,1.3-1.1,1.9-1.7c0.6-0.5,1.2-1,1.8-1.4c2.2-1.7,3.7-2.9,3.7-2.9l-22.6-29.9c0,0-1.8,1.4-4.5,3.6
							c-0.7,0.5-1.4,1.1-2.2,1.7c-0.7,0.6-1.5,1.3-2.4,2c-1.6,1.4-3.4,2.9-5.1,4.4c-3.3,3.2-6.7,6.3-9,8.8c-2.4,2.5-4,4.2-4,4.2
							L185.9,227.8z"/>
					</g>
					<path fill-rule="evenodd" clip-rule="evenodd" fill="#4E507E" d="M189.1,197.1l2.4,2.9c0,0,0.3-0.3,0.7-0.6
						c0.5-0.4,1.1-0.8,1.7-1.3c1.2-0.9,2.4-1.9,2.4-1.9l-2.3-3c0,0-1.2,1-2.5,1.9c-0.6,0.5-1.2,1-1.7,1.3
						C189.4,196.8,189.1,197.1,189.1,197.1z"/>
					<path fill-rule="evenodd" clip-rule="evenodd" fill="#4E507E" d="M180.7,204.5l2.6,2.7c0,0,1.1-1.1,2.2-2.1c1.1-1,2.3-2,2.3-2
						l-2.5-2.8c0,0-1.2,1-2.3,2.1C181.8,203.5,180.7,204.5,180.7,204.5z"/>
					<path fill-rule="evenodd" clip-rule="evenodd" fill="#4E507E" d="M172.8,212.4l2.7,2.6c0,0,1.1-1.1,2.1-2.2
						c0.5-0.6,1.1-1.1,1.4-1.5c0.4-0.4,0.7-0.7,0.7-0.7l-2.6-2.7c0,0-0.3,0.3-0.7,0.7c-0.4,0.4-0.9,1-1.5,1.6
						C173.9,211.3,172.8,212.4,172.8,212.4z"/>
				</g>
			</g>
			<g>
				<g>
					<g>
						<path fill="none" d="M208,207.7c0,0,0.1-0.1,0.3-0.2c0.2-0.1,0.4-0.3,0.8-0.6c0.7-0.5,1.6-1.1,2.8-2c1.2-0.8,2.5-1.8,3.9-2.7
							c1.5-0.9,3-2,4.6-3c1.5-1.1,3.2-1.9,4.7-2.8c1.5-0.9,2.9-1.7,4.2-2.3c2.5-1.3,4.2-2.1,4.2-2.1l-16.7-33.6c0,0-2,1.1-5.1,2.6
							c-1.5,0.8-3.3,1.8-5.1,2.9c-1.9,1.1-3.9,2.2-5.8,3.5c-1.9,1.2-3.9,2.5-5.7,3.7c-1.8,1.2-3.4,2.4-4.8,3.4
							c-1.4,1-2.6,1.8-3.4,2.4c-0.4,0.3-0.7,0.5-0.9,0.7c-0.2,0.2-0.3,0.3-0.3,0.3L208,207.7z"/>
					</g>
					<path fill-rule="evenodd" clip-rule="evenodd" fill="#4E507E" d="M216.7,178.1l1.8,3.3c0,0,0.3-0.2,0.8-0.5
						c0.5-0.3,1.1-0.7,1.8-1c1.4-0.7,2.7-1.4,2.7-1.4l-1.7-3.3c0,0-1.4,0.7-2.8,1.4c-0.7,0.3-1.4,0.8-1.9,1
						C217.1,177.9,216.7,178.1,216.7,178.1z"/>
					<path fill-rule="evenodd" clip-rule="evenodd" fill="#4E507E" d="M207.1,183.8l2,3.2c0,0,1.3-0.8,2.6-1.6
						c1.3-0.8,2.6-1.6,2.6-1.6l-1.9-3.2c0,0-1.4,0.8-2.7,1.6C208.4,183,207.1,183.8,207.1,183.8z"/>
					<polygon fill-rule="evenodd" clip-rule="evenodd" fill="#4E507E" points="197.9,190.2 200.2,193.2 205.1,189.6 203,186.5 					
						"/>
				</g>
			</g>
			<g>
				<g>
					<g>
						<path fill="none" d="M233.4,192c0,0,0.4-0.2,1.1-0.6c0.7-0.4,1.8-0.9,3.1-1.4c1.3-0.6,2.8-1.3,4.4-2c1.6-0.7,3.4-1.3,5.1-2
							c0.9-0.3,1.7-0.7,2.6-1c0.9-0.3,1.7-0.6,2.6-0.9c1.7-0.6,3.2-1.1,4.5-1.5c1.3-0.5,2.5-0.7,3.2-1c0.8-0.2,1.2-0.4,1.2-0.4
							L251,145.1c0,0-0.6,0.2-1.5,0.4c-1,0.3-2.4,0.6-4,1.2c-1.6,0.6-3.5,1.2-5.6,1.9c-1,0.4-2.1,0.7-3.1,1.1
							c-1.1,0.4-2.1,0.8-3.2,1.3c-2.1,0.9-4.3,1.7-6.3,2.5c-2,0.9-3.8,1.7-5.4,2.4c-1.6,0.7-2.9,1.3-3.8,1.8
							c-0.9,0.5-1.4,0.7-1.4,0.7L233.4,192z"/>
					</g>
					<path fill-rule="evenodd" clip-rule="evenodd" fill="#4E507E" d="M247.4,164.5l1.2,3.6c0,0,1.4-0.5,2.9-1
						c0.7-0.3,1.5-0.5,2-0.6c0.6-0.2,0.9-0.3,0.9-0.3l-1.1-3.6c0,0-0.4,0.1-0.9,0.3c-0.6,0.1-1.3,0.4-2,0.6
						C248.9,164,247.4,164.5,247.4,164.5z"/>
					<polygon fill-rule="evenodd" clip-rule="evenodd" fill="#4E507E" points="236.9,168.3 238.3,171.8 244,169.6 242.7,166.1 					
						"/>
					<polygon fill-rule="evenodd" clip-rule="evenodd" fill="#4E507E" points="226.7,172.8 228.3,176.2 233.9,173.7 232.4,170.3 
											"/>
				</g>
			</g>
			<g>
				<g>
					<g>
						<path fill="none" d="M261.2,181.2c0,0,0.4-0.1,1.2-0.4c0.8-0.2,1.9-0.6,3.3-0.9c1.4-0.3,3-0.7,4.7-1.1
							c0.9-0.2,1.7-0.4,2.6-0.6c0.9-0.2,1.8-0.3,2.7-0.5c1.8-0.3,3.7-0.7,5.4-1c1.7-0.2,3.4-0.4,4.8-0.6c1.4-0.2,2.5-0.3,3.4-0.4
							c0.8-0.1,1.3-0.1,1.3-0.1l-3.4-37.3c0,0-0.6,0-1.6,0.1c-1,0.1-2.4,0.3-4.1,0.5c-1.7,0.2-3.7,0.5-5.9,0.7
							c-2.1,0.3-4.4,0.8-6.7,1.2c-1.1,0.2-2.3,0.4-3.4,0.6c-1.1,0.3-2.2,0.5-3.2,0.7c-2.1,0.5-4.1,0.9-5.8,1.3
							c-1.7,0.4-3.1,0.8-4,1.1c-1,0.3-1.5,0.4-1.5,0.4L261.2,181.2z"/>
					</g>
					<polygon fill-rule="evenodd" clip-rule="evenodd" fill="#4E507E" points="280.1,156.7 280.6,160.4 286.6,159.7 286.3,155.9 
											"/>
					<polygon fill-rule="evenodd" clip-rule="evenodd" fill="#4E507E" points="269,158.6 269.8,162.3 275.8,161.2 275.2,157.5 					
						"/>
					<path fill-rule="evenodd" clip-rule="evenodd" fill="#4E507E" d="M258.2,161.2l1,3.6c0,0,0.4-0.1,0.9-0.3
						c0.5-0.2,1.3-0.4,2-0.5c1.5-0.3,3-0.7,3-0.7l-0.8-3.7c0,0-1.5,0.4-3,0.7c-0.8,0.2-1.5,0.4-2.1,0.5
						C258.6,161.1,258.2,161.2,258.2,161.2z"/>
				</g>
			</g>
			<g>
				<g>
					<g>
						<path fill="none" d="M290.6,175.7c0,0,1.9-0.1,4.7-0.4c0.7,0,1.5-0.1,2.3-0.2c0.8,0,1.7,0,2.5-0.1c1.8,0,3.6-0.1,5.5-0.1
							c1.9,0,3.7,0.1,5.5,0.1c0.9,0,1.7,0,2.5,0.1c0.8,0,1.6,0.1,2.3,0.2c2.8,0.2,4.7,0.4,4.7,0.4l3.4-37.3c0,0-2.3-0.2-5.7-0.4
							c-0.9-0.1-1.8-0.2-2.8-0.2c-1,0-2-0.1-3.1-0.1c-2.2-0.1-4.5-0.1-6.8-0.2c-2.3,0.1-4.6,0.1-6.8,0.2c-1.1,0-2.1,0.1-3.1,0.1
							c-1,0-1.9,0.1-2.8,0.2c-3.4,0.3-5.7,0.4-5.7,0.4L290.6,175.7z"/>
					</g>
					<path fill-rule="evenodd" clip-rule="evenodd" fill="#4E507E" d="M313.6,155.1l-0.2,3.7c0,0,0.4,0,1,0c0.6,0,1.3,0.1,2.1,0.1
						c1.5,0.1,3,0.2,3,0.2l0.3-3.7c0,0-1.6-0.1-3.1-0.2c-0.8-0.1-1.6-0.1-2.1-0.1C314,155.1,313.6,155.1,313.6,155.1z"/>
					<path fill-rule="evenodd" clip-rule="evenodd" fill="#4E507E" d="M302.4,155l0.1,3.7c0,0,1.5,0,3.1-0.1c1.5,0,3.1,0.1,3.1,0.1
						l0.1-3.7c0,0-1.6,0-3.1-0.1C304,155,302.4,155,302.4,155z"/>
					<path fill-rule="evenodd" clip-rule="evenodd" fill="#4E507E" d="M291.3,155.5l0.3,3.7c0,0,1.5-0.1,3-0.2
						c1.5-0.1,3.1-0.2,3.1-0.2l-0.2-3.7c0,0-1.6,0-3.1,0.2C292.8,155.4,291.3,155.5,291.3,155.5z"/>
				</g>
			</g>
			<g>
				<g>
					<g>
						<path fill="none" d="M320.5,175.7c0,0,0.5,0,1.3,0.1c0.8,0.1,2,0.2,3.4,0.4c1.4,0.2,3,0.4,4.8,0.6c1.7,0.3,3.6,0.6,5.4,1
							c0.9,0.2,1.8,0.3,2.7,0.5c0.9,0.2,1.8,0.4,2.6,0.6c1.7,0.4,3.3,0.8,4.7,1.1c1.4,0.3,2.5,0.7,3.3,0.9c0.8,0.2,1.2,0.4,1.2,0.4
							l10.2-36.1c0,0-0.6-0.2-1.5-0.4c-1-0.3-2.3-0.7-4-1.1c-1.7-0.4-3.6-0.8-5.8-1.3c-1.1-0.2-2.1-0.5-3.2-0.7
							c-1.1-0.2-2.2-0.4-3.4-0.6c-2.3-0.4-4.5-0.8-6.7-1.2c-2.1-0.3-4.1-0.5-5.9-0.7c-1.7-0.2-3.1-0.4-4.1-0.5
							c-1-0.1-1.6-0.1-1.6-0.1L320.5,175.7z"/>
					</g>
					<path fill-rule="evenodd" clip-rule="evenodd" fill="#4E507E" d="M346.9,159.7l-0.8,3.7c0,0,1.5,0.3,3,0.7
						c0.7,0.2,1.5,0.4,2,0.5c0.6,0.2,0.9,0.3,0.9,0.3l1-3.6c0,0-0.4-0.1-0.9-0.3c-0.6-0.2-1.3-0.4-2.1-0.5
						C348.4,160,346.9,159.7,346.9,159.7z"/>
					<polygon fill-rule="evenodd" clip-rule="evenodd" fill="#4E507E" points="335.9,157.5 335.3,161.2 341.3,162.3 342,158.6 					
						"/>
					<polygon fill-rule="evenodd" clip-rule="evenodd" fill="#4E507E" points="324.8,155.9 324.4,159.7 330.5,160.4 331,156.7 					
						"/>
				</g>
			</g>
			<g>
				<g>
					<g>
						<path fill="none" d="M349.8,181.2c0,0,0.4,0.1,1.2,0.4c0.8,0.2,1.9,0.5,3.2,1c1.3,0.4,2.9,1,4.5,1.5c0.8,0.3,1.7,0.6,2.6,0.9
							c0.9,0.3,1.7,0.7,2.6,1c1.7,0.7,3.5,1.3,5.1,2c1.6,0.7,3.1,1.4,4.4,2c1.3,0.6,2.4,1,3.1,1.4c0.7,0.4,1.1,0.6,1.1,0.6
							l16.7-33.6c0,0-0.5-0.3-1.4-0.7c-0.9-0.5-2.2-1.1-3.8-1.8c-1.6-0.7-3.4-1.5-5.4-2.4c-2-0.9-4.1-1.7-6.3-2.5
							c-1.1-0.4-2.1-0.8-3.2-1.3c-1.1-0.4-2.1-0.7-3.1-1.1c-2-0.7-4-1.3-5.6-1.9c-1.6-0.5-3-0.9-4-1.2c-1-0.3-1.5-0.4-1.5-0.4
							L349.8,181.2z"/>
					</g>
					<polygon fill-rule="evenodd" clip-rule="evenodd" fill="#4E507E" points="378.7,170.3 377.2,173.7 382.8,176.2 384.4,172.9 
											"/>
					<polygon fill-rule="evenodd" clip-rule="evenodd" fill="#4E507E" points="368.3,166.1 367,169.6 372.7,171.8 374.1,168.4 					
						"/>
					<path fill-rule="evenodd" clip-rule="evenodd" fill="#4E507E" d="M357.7,162.6l-1.1,3.6c0,0,0.4,0.1,0.9,0.3
						c0.6,0.1,1.3,0.4,2,0.6c1.4,0.5,2.9,1,2.9,1l1.2-3.6c0,0-1.5-0.5-3-1c-0.7-0.3-1.5-0.5-2-0.6
						C358.1,162.7,357.7,162.6,357.7,162.6z"/>
				</g>
			</g>
			<g>
				<g>
					<g>
						<path fill="none" d="M377.6,192c0,0,1.7,0.9,4.2,2.1c1.3,0.6,2.6,1.5,4.2,2.3c1.5,0.9,3.2,1.7,4.7,2.8c1.6,1,3.1,2,4.6,3
							c1.5,0.9,2.8,2,3.9,2.7c1.1,0.8,2.1,1.5,2.8,2c0.3,0.2,0.6,0.4,0.8,0.6c0.2,0.1,0.3,0.2,0.3,0.2l22.6-29.9
							c0,0-0.1-0.1-0.3-0.3c-0.2-0.2-0.5-0.4-0.9-0.7c-0.8-0.6-2-1.4-3.4-2.4c-1.4-1-3-2.2-4.8-3.4c-1.8-1.2-3.8-2.4-5.7-3.7
							c-1.9-1.3-4-2.3-5.8-3.5c-1.9-1.1-3.6-2.1-5.1-2.9c-3.1-1.6-5.1-2.6-5.1-2.6L377.6,192z"/>
					</g>
					<polygon fill-rule="evenodd" clip-rule="evenodd" fill="#4E507E" points="408.1,186.6 405.9,189.7 410.9,193.2 413.1,190.2 
											"/>
					<path fill-rule="evenodd" clip-rule="evenodd" fill="#4E507E" d="M398.6,180.6l-1.9,3.2c0,0,1.3,0.7,2.6,1.6
						c1.3,0.8,2.6,1.6,2.6,1.6l2-3.2c0,0-1.3-0.8-2.6-1.7C400,181.3,398.6,180.6,398.6,180.6z"/>
					<path fill-rule="evenodd" clip-rule="evenodd" fill="#4E507E" d="M388.9,175.2l-1.7,3.3c0,0,1.4,0.7,2.7,1.4
						c0.7,0.3,1.3,0.7,1.8,1c0.5,0.3,0.8,0.5,0.8,0.5l1.8-3.3c0,0-0.3-0.2-0.8-0.5c-0.5-0.3-1.2-0.7-1.9-1
						C390.3,175.9,388.9,175.2,388.9,175.2z"/>
				</g>
			</g>
			<g>
				<g>
					<g>
						<path fill="none" d="M403,207.7c0,0,1.5,1.2,3.7,2.9c0.6,0.4,1.1,0.9,1.8,1.4c0.6,0.5,1.2,1.1,1.9,1.7
							c1.3,1.2,2.7,2.4,4.1,3.6c2.7,2.6,5.5,5.1,7.3,7.2c1.9,2,3.2,3.4,3.2,3.4l27.7-25.3c0,0-1.6-1.7-4-4.2c-2.3-2.6-5.7-5.7-9-8.8
							c-1.7-1.5-3.5-3-5.1-4.4c-0.8-0.7-1.6-1.4-2.4-2c-0.8-0.6-1.5-1.2-2.2-1.7c-2.7-2.1-4.5-3.6-4.5-3.6L403,207.7z"/>
					</g>
					<path fill-rule="evenodd" clip-rule="evenodd" fill="#4E507E" d="M433.9,208l-2.6,2.7c0,0,0.3,0.3,0.7,0.7
						c0.4,0.4,0.9,1,1.4,1.5c1.1,1.1,2.1,2.2,2.1,2.2l2.7-2.6c0,0-1.1-1.1-2.2-2.3c-0.5-0.6-1.1-1.1-1.5-1.6
						C434.2,208.2,433.9,208,433.9,208z"/>
					<path fill-rule="evenodd" clip-rule="evenodd" fill="#4E507E" d="M425.7,200.4l-2.5,2.8c0,0,1.2,1,2.3,2
						c1.1,1.1,2.2,2.1,2.2,2.1l2.6-2.7c0,0-1.1-1.1-2.3-2.2C426.9,201.4,425.7,200.4,425.7,200.4z"/>
					<path fill-rule="evenodd" clip-rule="evenodd" fill="#4E507E" d="M417.1,193.2l-2.3,3c0,0,1.2,0.9,2.4,1.9
						c0.6,0.5,1.2,0.9,1.7,1.3c0.4,0.4,0.7,0.6,0.7,0.6l2.4-2.9c0,0-0.3-0.3-0.7-0.6c-0.5-0.4-1.1-0.8-1.7-1.3
						C418.4,194.2,417.1,193.2,417.1,193.2z"/>
				</g>
			</g>
			<g>
				<g>
					<g>
						<path fill="none" d="M425.1,227.8c0,0,0.3,0.3,0.9,1c0.5,0.6,1.3,1.5,2.2,2.6c1.9,2.1,4.2,5,6.5,8c1.2,1.5,2.2,3,3.2,4.5
							c1,1.4,2,2.7,2.7,3.9c1.5,2.4,2.5,3.9,2.5,3.9l31.9-19.8c0,0-1.2-1.9-3.1-4.8c-0.9-1.5-2.1-3.1-3.3-4.9
							c-1.3-1.7-2.5-3.7-4-5.5c-2.8-3.6-5.7-7.3-8-9.8c-1.1-1.3-2.1-2.4-2.7-3.2c-0.7-0.8-1-1.2-1-1.2L425.1,227.8z"/>
					</g>
					<path fill-rule="evenodd" clip-rule="evenodd" fill="#4E507E" d="M455.4,233.8l-3.1,2.1c0,0,0.9,1.2,1.7,2.5
						c0.8,1.3,1.6,2.6,1.6,2.6l3.2-2c0,0-0.8-1.3-1.7-2.6C456.3,235,455.4,233.8,455.4,233.8z"/>
					<path fill-rule="evenodd" clip-rule="evenodd" fill="#4E507E" d="M448.8,224.8l-3,2.3c0,0,0.9,1.2,1.9,2.4
						c0.5,0.6,0.9,1.2,1.3,1.7c0.3,0.5,0.6,0.8,0.6,0.8l3-2.2c0,0-0.2-0.3-0.6-0.8c-0.3-0.5-0.8-1.1-1.3-1.7
						C449.7,226,448.8,224.8,448.8,224.8z"/>
					<polygon fill-rule="evenodd" clip-rule="evenodd" fill="#4E507E" points="441.6,216.2 438.8,218.7 442.8,223.3 445.7,220.9 
											"/>
				</g>
			</g>
			<g>
				<g>
					<g>
						<path fill="none" d="M443.1,251.7c0,0,0.3,0.4,0.7,1.1c0.4,0.7,1,1.7,1.7,2.9c0.7,1.2,1.5,2.6,2.4,4.2
							c0.8,1.6,1.6,3.2,2.5,4.9c0.9,1.6,1.6,3.4,2.4,5c0.7,1.6,1.4,3.1,2,4.4c1,2.6,1.7,4.3,1.7,4.3l35-13.6c0,0-0.8-2.1-2.1-5.4
							c-0.7-1.6-1.5-3.4-2.4-5.4c-0.9-2-1.8-4.1-2.9-6.1c-1.1-2-2.1-4.1-3.1-6c-1.1-1.9-2.1-3.6-2.9-5.1c-0.9-1.5-1.6-2.7-2.1-3.6
							c-0.5-0.8-0.9-1.3-0.9-1.3L443.1,251.7z"/>
					</g>
					<path fill-rule="evenodd" clip-rule="evenodd" fill="#4E507E" d="M471.8,263.1l-3.4,1.5c0,0,0.6,1.4,1.3,2.8
						c0.6,1.4,1.1,2.8,1.1,2.8l3.5-1.4c0,0-0.6-1.5-1.2-2.9C472.4,264.5,471.8,263.1,471.8,263.1z"/>
					<path fill-rule="evenodd" clip-rule="evenodd" fill="#4E507E" d="M466.9,253l-3.3,1.7c0,0,0.7,1.4,1.4,2.7
						c0.3,0.7,0.7,1.4,1,1.9c0.3,0.5,0.4,0.9,0.4,0.9l3.4-1.6c0,0-0.1-0.4-0.4-0.9c-0.3-0.5-0.6-1.2-1-1.9
						C467.7,254.4,466.9,253,466.9,253z"/>
					<polygon fill-rule="evenodd" clip-rule="evenodd" fill="#4E507E" points="461.5,243.2 458.3,245.2 461.4,250.5 464.6,248.7 
											"/>
				</g>
			</g>
			<g>
				<g>
					<g>
						<path fill="none" d="M456.4,278.4c0,0,0.2,0.4,0.5,1.2c0.3,0.8,0.7,1.8,1.2,3.2c0.9,2.7,2.2,6.2,3.1,9.8
							c1.1,3.6,1.9,7.2,2.5,10c0.2,0.7,0.3,1.3,0.4,1.9c0.1,0.6,0.2,1,0.3,1.5c0.1,0.8,0.2,1.3,0.2,1.3l36.9-6.8
							c0,0-0.1-0.6-0.3-1.6c-0.1-0.5-0.2-1.1-0.3-1.8c-0.1-0.7-0.3-1.5-0.5-2.3c-0.8-3.4-1.7-7.9-3.1-12.3
							c-1.2-4.5-2.7-8.8-3.8-12.1c-0.5-1.6-1.1-3-1.4-3.9c-0.4-0.9-0.6-1.5-0.6-1.5L456.4,278.4z"/>
					</g>
					<path fill-rule="evenodd" clip-rule="evenodd" fill="#4E507E" d="M482.5,294.9l-3.6,0.9c0,0,0.3,1.5,0.7,3
						c0.2,0.7,0.3,1.5,0.5,2c0.1,0.6,0.2,0.9,0.2,0.9l3.7-0.7c0,0-0.1-0.4-0.2-1c-0.1-0.6-0.3-1.3-0.5-2.1
						C482.9,296.4,482.5,294.9,482.5,294.9z"/>
					<polygon fill-rule="evenodd" clip-rule="evenodd" fill="#4E507E" points="479.6,284.1 476,285.2 477.7,291 481.3,290.1 					
						"/>
					<path fill-rule="evenodd" clip-rule="evenodd" fill="#4E507E" d="M476.1,273.5l-3.5,1.3c0,0,0.1,0.4,0.3,0.9
						c0.2,0.5,0.4,1.3,0.7,2c0.5,1.4,1,2.9,1,2.9l3.6-1.2c0,0-0.5-1.5-1-3c-0.3-0.7-0.5-1.5-0.7-2
						C476.2,273.9,476.1,273.5,476.1,273.5z"/>
				</g>
			</g>
			<g>
				<g>
					<g>
						<path fill="none" d="M464.6,307.1c0,0,0.3,1.8,0.8,4.6c0.2,1.4,0.4,3,0.6,4.7c0.2,1.7,0.5,3.6,0.6,5.5
							c0.1,1.9,0.3,3.7,0.4,5.5c0.1,0.9,0.1,1.7,0.1,2.5c0,0.8,0,1.6,0.1,2.3c0.1,2.8,0.1,4.7,0.1,4.7h37.5c0,0-0.1-2.3-0.1-5.7
							c0-0.9,0-1.8-0.1-2.8c0-1-0.1-2-0.1-3.1c-0.2-2.2-0.3-4.4-0.5-6.7c-0.1-2.3-0.5-4.6-0.8-6.7c-0.3-2.1-0.5-4.1-0.8-5.8
							c-0.6-3.4-1-5.7-1-5.7L464.6,307.1z"/>
					</g>
					<polygon fill-rule="evenodd" clip-rule="evenodd" fill="#4E507E" points="487.2,328.1 483.5,328.3 483.6,334.4 487.4,334.4 
											"/>
					<path fill-rule="evenodd" clip-rule="evenodd" fill="#4E507E" d="M486.3,317l-3.7,0.4c0,0,0,0.4,0.1,0.9
						c0.1,0.6,0.1,1.3,0.2,2.1c0.1,1.5,0.2,3,0.2,3l3.7-0.3c0,0-0.1-1.6-0.2-3.1c-0.1-0.8-0.1-1.6-0.2-2.1
						C486.4,317.4,486.3,317,486.3,317z"/>
					<path fill-rule="evenodd" clip-rule="evenodd" fill="#4E507E" d="M484.8,305.9l-3.7,0.6c0,0,0.3,1.5,0.5,3c0.2,1.5,0.4,3,0.4,3
						l3.7-0.5c0,0-0.2-1.5-0.4-3.1C485,307.5,484.8,305.9,484.8,305.9z"/>
				</g>
			</g>
		</g>
	</g>
</g>
<ellipse fill="#E8F2FB" cx="420.3" cy="734.5" rx="377.5" ry="48"/>
<ellipse fill="#C8E2FC" cx="598.4" cy="736.9" rx="152.1" ry="26.6"/>
<g>
	<g id="PALM_3_">
		<g>
			<polygon fill="#34376B" points="398.6,328.1 395.2,336.9 424.3,351.5 427.7,342.6 			"/>
			<polygon fill="#34376B" points="400.5,308.8 389.6,308.2 394.7,336.7 405.6,337.2 			"/>
		</g>
		<g>
			<circle fill="#FFFFFF" cx="389.6" cy="218.6" r="109.6"/>
			<path fill="none" stroke="#34376B" stroke-width="2.5" stroke-linecap="round" stroke-miterlimit="10" d="M297.9,157.2
				c13.1-20.9,29.6-33.8,57.6-42.7c57.7-18.4,119.4,12.5,138.3,70c18.9,57.5-12.5,119.4-70,138.3s-119.4-12.5-138.3-70
				c-8.9-27.2-6.6-55.4,4.4-79.6"/>
			<path fill="#65D8F0" d="M457.1,206.1c-0.2,0-0.5,0-0.7,0c-2.4-15.6-15.8-27.5-32-27.5c-4.4,0-8.6,0.9-12.5,2.5
				c-5-12.4-17.1-21.2-31.3-21.2c-17.1,0-31.2,12.7-33.4,29.2c-17.5,0.4-31.6,14.7-31.6,32.4c0,16.7,12.7,30.5,29,32.2
				c4.2,13.3,16.6,22.9,31.3,22.9c12.3,0,23-6.8,28.6-16.8c4.7,5.9,11.9,9.6,20,9.6c11.1,0,20.6-7.1,24.1-17.1
				c2.7,1,5.6,1.6,8.6,1.6c13.2,0,24-10.7,24-24C481,216.9,470.3,206.1,457.1,206.1z"/>
			<path fill="none" stroke="#34376B" stroke-width="2.5" stroke-linecap="round" stroke-miterlimit="10" d="M452.1,207.1
				c-0.2,0-0.5,0-0.7,0c-2.4-15.6-15.8-27.5-32-27.5c-4.4,0-8.6,0.9-12.5,2.5c-5-12.4-17.1-21.2-31.3-21.2
				c-17.1,0-31.2,12.7-33.4,29.2c-17.5,0.4-31.6,14.7-31.6,32.4c0,16.7,12.7,30.5,29,32.2c4.2,13.3,16.6,22.9,31.3,22.9
				c12.3,0,23-6.8,28.6-16.8c4.7,5.9,11.9,9.6,20,9.6c11.1,0,20.6-7.1,24.1-17.1c2.7,1,5.6,1.6,8.6,1.6c13.2,0,24-10.7,24-24
				C476,217.9,465.3,207.1,452.1,207.1z"/>
			<g>
				<path fill="none" stroke="#34376B" stroke-width="2.5" stroke-linecap="round" stroke-miterlimit="10" d="M351.4,216.8
					c6,0,6,16,12,16c6,0,6-16,12-16c6,0,6,16,12,16c6,0,6-16,12-16c6,0,6,16,12,16c6,0,6-16,12-16c6,0,6,16,12,16"/>
			</g>
		</g>
		<g>
			<polygon fill="#34376B" points="424.2,312.6 435.2,314.5 436.4,342.5 425.3,340.6 			"/>
			<polygon fill="#34376B" points="402.8,304.5 407.5,296.4 435.2,314 430.5,322.1 			"/>
		</g>
	</g>
	<g id="shoulder_3_">
		
			<rect x="494.3" y="312.4" transform="matrix(0.9089 0.417 -0.417 0.9089 199.2841 -179.8021)" fill="#B5CEE2" width="33.7" height="107.5"/>
		<path fill="#D3E5F5" d="M567.5,341.7c3-4,5.7-8.4,7.9-13.3c12.9-28.1,6-58.8-15.4-68.7s-49.2,5-62.1,33.1
			c-2.2,4.9-3.8,9.8-4.9,14.7L567.5,341.7z"/>
		<path fill="#B4CDE0" d="M576.9,325c10.8-27.1,3.6-55.8-16.9-65.2c-6.1-2.8-12.7-3.6-19.3-2.7C563.5,272,577.2,298,576.9,325z"/>
		<path fill="none" stroke="#34376B" stroke-width="2.5" stroke-linecap="round" stroke-miterlimit="10" d="M511.3,314.8l58.6,26.9
			c3-4,5.7-8.4,7.9-13.3c12.9-28.1,6-58.8-15.4-68.7c-21.4-9.8-49.2,5-62.1,33.1c-2.2,4.9-3.8,9.8-4.9,14.7l8.1,3.7"/>
		<circle fill="#D3E5F5" cx="490.5" cy="412.4" r="21.7"/>
	</g>
	<g id="forearm_3_">
		
			<rect x="439.9" y="326.5" transform="matrix(-0.7467 0.6652 -0.6652 -0.7467 1043.8129 346.6276)" fill="#B5CEE2" width="32" height="91.1"/>
		<circle fill="#D3E5F5" cx="489.5" cy="411.5" r="21.7"/>
		<path fill="none" stroke="#34376B" stroke-width="2.5" stroke-linecap="round" stroke-miterlimit="10" d="M510.9,409.6
			c0.7,6.3,0.3,8.9-3.9,14.7c-7.1,9.7-20.7,11.8-30.3,4.7s-11.8-20.7-4.7-30.3c7.1-9.7,20.7-11.8,30.3-4.7c3.9,2.9,6.6,6.8,7.9,11.1
			"/>
	</g>
	<g id="head_1_">
		<ellipse fill="#D3E5F5" cx="624.7" cy="213" rx="85.8" ry="95.6"/>
		<path fill="none" stroke="#34376B" stroke-width="2.5" stroke-linecap="round" stroke-miterlimit="10" d="M542,174.5
			c12.8-34.8,45.7-60.3,81.6-60.3c36.2,0,70.4,24.9,83,60.1"/>
		<path fill="#FFFFFF" d="M594.9,245.2c15.1,2.2,38,2,50,0.9c27.5-2.4,53.8-6.8,63-9.6c1.7-7.5,2.7-15.4,2.7-23.6
			c0-10.9-1.7-21.4-4.7-31.1c-26.3,8.2-53.7,12.5-81.4,12.5c-27.5,0-54.8-4.2-81-12.4c-3,9.7-4.6,20.1-4.6,31
			c0,6.7,0.6,13.2,1.8,19.5C547.1,235.8,584,243.6,594.9,245.2z"/>
		<ellipse fill="#65D8F0" cx="597.2" cy="218.6" rx="22.8" ry="25.4"/>
		
			<ellipse fill="none" stroke="#34376B" stroke-width="2.5" stroke-linecap="round" stroke-miterlimit="10" cx="597.2" cy="218.6" rx="22.8" ry="25.4"/>
		<path fill="none" stroke="#34376B" stroke-width="2.5" stroke-linecap="round" stroke-miterlimit="10" d="M594.9,245.2
			c15.1,2.2,38,2,50,0.9c27.5-2.4,53.8-6.8,63-9.6c1.7-7.5,2.7-15.4,2.7-23.6c0-10.9-1.7-21.4-4.7-31.1
			c-26.3,8.2-53.7,12.5-81.4,12.5c-27.5,0-54.8-4.2-81-12.4c-3,9.7-4.6,20.1-4.6,31c0,6.7,0.6,13.2,1.8,19.5
			C547.1,235.8,584,243.6,594.9,245.2z"/>
		<polyline fill="none" stroke="#34376B" stroke-width="2.5" stroke-linecap="round" stroke-miterlimit="10" points="624.7,131.7 
			649.4,115 624.7,100 649.4,68.2 630.6,47.9 		"/>
	</g>
	<g>
		<path fill="#D3E5F5" d="M567.1,695.3l-1.4-0.2c-14.2-1.8-24.6-11.5-23.4-21.8l19.4-155.5c1.3-10.3,13.8-17.2,28-15.4l1.4,0.2
			c14.2,1.8,24.6,11.5,23.4,21.8l-19.4,155.5C593.8,690.2,581.3,697.1,567.1,695.3z"/>
	</g>
	<g>
		<path fill="#B4CDE0" d="M558.8,561.4c0-16.6,1.7-33,4.9-49.1c-1,1.7-1.7,3.6-1.9,5.6l-19.4,155.5c-1.3,10.3,9.2,20.1,23.4,21.8
			l1.4,0.2c10.7,1.3,20.5-2.3,25.2-8.6C570.6,648.9,558.8,605.6,558.8,561.4z"/>
	</g>
	<circle fill="#B5CEE2" cx="565.1" cy="704.8" r="37.5"/>
	<path fill="none" stroke="#34376B" stroke-width="2.5" stroke-linecap="round" stroke-miterlimit="10" d="M538,679.4
		c8.1-8.7,14.6-12.1,27.1-12.1c20.7,0,37.5,16.8,37.5,37.5s-16.8,37.5-37.5,37.5s-37.5-16.8-37.5-37.5c0-8.3,2.7-15.9,7.2-22.1"/>
	
		<circle fill="none" stroke="#34376B" stroke-width="2.5" stroke-linecap="round" stroke-miterlimit="10" cx="565.1" cy="704.8" r="9.1"/>
	<g id="body_1_">
		<path fill="#34376B" d="M656.8,540.5h-82.4c-12.9,0-23.3-9.4-23.3-21.1v-29.3c0-11.6,10.4-21.1,23.3-21.1h82.4
			c12.9,0,23.3,9.4,23.3,21.1v29.3C680.1,531.1,669.7,540.5,656.8,540.5z"/>
		<path fill="#D3E5F5" d="M682.4,267.8c-22,8.2-44.9,12.5-68.1,12.5c-21.5,0-42.8-3.7-63.3-10.8c-16.7,34.3-27,81.5-27,133.6
			c0,27.8,3,55.3,8.2,79.2l105.9-1.1v20.9h58.5c8.7-28.8,13.7-62.7,13.7-99C710.3,350.2,699.6,302.2,682.4,267.8z"/>
		<path fill="#B4CDE0" d="M529.5,375.1c0-36.5,8.1-72.3,23.1-105.1c-0.5-0.2-1.1-0.4-1.6-0.5c-16.7,34.3-27,81.5-27,133.6
			c0,27.8,3,55.3,8.2,79.2l21.2-0.2C537.9,448.9,529.5,412.3,529.5,375.1z"/>
		<path fill="none" stroke="#34376B" stroke-width="2.5" stroke-linecap="round" stroke-miterlimit="10" d="M538.7,481.2h99.4v20.9
			h58.5c8.7-28.8,13.7-62.7,13.7-99c0-53-10.7-100.9-27.8-135.3c-22,8.2-44.9,12.4-68.1,12.5c-8.1,0.1-12.7,0.4-23.3-0.6"/>
		<path fill="none" stroke="#34376B" stroke-width="2.5" stroke-linecap="round" stroke-miterlimit="10" d="M582.3,277.6
			c-10.6-1.8-21-4.5-31.3-8.1c-16.7,34.3-27,81.5-27,133.6c0,27.8,3,54.3,8.2,78.1"/>
		<polygon fill="#F4888E" points="565.7,342.7 617.2,342.7 590.4,392.8 		"/>
		<polygon fill="none" stroke="#34376B" stroke-width="2.5" stroke-linecap="round" stroke-miterlimit="10" points="561.4,340.5 
			612.9,340.5 586,390.7 		"/>
	</g>
	<g>
		<g>
			<path fill="#D3E5F5" d="M675.2,696.8l-1.3,0.2c-13.8,2.6-26.6-3.6-28.5-13.8l-28.6-154c-1.9-10.2,7.8-20.5,21.6-23.1l1.3-0.2
				c13.8-2.6,26.6,3.6,28.5,13.8l28.6,154C698.7,683.9,689,694.2,675.2,696.8z"/>
		</g>
	</g>
	<g>
		<g>
			<path fill="#B4CDE0" d="M696.4,671.7c-2.5-2.3-5-4.7-7.4-7.1c-38.8-38.8-63.8-89.6-71.3-143.6c-1.1,2.7-1.4,5.5-0.9,8.3l28.6,154
				c1.9,10.2,14.6,16.4,28.5,13.8l1.3-0.2c13.8-2.6,23.5-12.9,21.6-23.1L696.4,671.7z"/>
		</g>
	</g>
	<g id="PALM_2_">
		<g>
			<polygon fill="#34376B" points="664.7,427.7 670.8,435 697.7,416.7 691.6,409.4 			"/>
			<polygon fill="#34376B" points="648.8,416.6 643,425.9 670.3,435.3 676.1,426.1 			"/>
		</g>
		<g>
			<polygon fill="#34376B" points="663,394.9 670,386.2 695.1,398.9 688,407.6 			"/>
			<polygon fill="#34376B" points="645.5,409.7 640.8,401.6 669.6,386 674.4,394.1 			"/>
		</g>
	</g>
	<g id="shoulder_2_">
		
			<rect x="731" y="304" transform="matrix(0.7293 -0.6842 0.6842 0.7293 -42.316 608.5982)" fill="#B5CEE2" width="33.7" height="107.5"/>
		<path fill="#D3E5F5" d="M746.6,296.4c-2.6-4.3-5.7-8.5-9.3-12.3c-21.1-22.5-52.2-27.7-69.4-11.6c-17.2,16.1-14,47.5,7.2,70
			c3.7,3.9,7.6,7.3,11.7,10.1L746.6,296.4z"/>
		<path fill="#B4CDE0" d="M681.3,264.7c18.9,1.5,37.3,9.7,51.1,24.4c3.5,3.7,6.6,7.8,9.2,12l5-4.7c-2.6-4.3-5.7-8.5-9.3-12.3
			C720.8,266.5,698.5,259.5,681.3,264.7z"/>
		<path fill="none" stroke="#34376B" stroke-width="2.5" stroke-linecap="round" stroke-miterlimit="10" d="M701.2,337.5l47-44.1
			c-2.6-4.3-5.7-8.5-9.3-12.3c-21.1-22.5-52.2-27.7-69.4-11.6c-17.2,16.1-14,47.5,7.2,70c3.7,3.9,7.6,7.3,11.7,10.1l6.5-6.1"/>
		<circle fill="#D3E5F5" cx="782.9" cy="394.3" r="21.7"/>
	</g>
	<g id="forearm_2_">
		
			<rect x="713.2" y="354.1" transform="matrix(0.2169 0.9762 -0.9762 0.2169 961.0894 -398.9268)" fill="#B5CEE2" width="32" height="91.1"/>
		<circle fill="#D3E5F5" cx="780" cy="389.5" r="21.7"/>
		<path fill="none" stroke="#34376B" stroke-width="2.5" stroke-linecap="round" stroke-miterlimit="10" d="M790.2,372.8
			c5.8,2.5,7.9,4.1,10.9,10.6c5,10.9,0.2,23.8-10.7,28.8s-23.8,0.2-28.8-10.7s-0.2-23.8,10.7-28.8c4.4-2,9.1-2.4,13.5-1.5"/>
	</g>
	<circle fill="#B5CEE2" cx="676.1" cy="704.8" r="37.5"/>
	<path fill="none" stroke="#34376B" stroke-width="2.5" stroke-linecap="round" stroke-miterlimit="10" d="M649.9,731.3
		c-6.6-6.8-11.4-14.4-11.4-26.5c0-20.7,16.8-37.5,37.5-37.5s37.5,16.8,37.5,37.5s-16.8,37.5-37.5,37.5c-8.6,0-16.6-2.9-22.9-7.8"/>
	
		<circle fill="none" stroke="#34376B" stroke-width="2.5" stroke-linecap="round" stroke-miterlimit="10" cx="677.8" cy="704.8" r="9.1"/>
</g>
<g>
	<circle fill="#FFFFFF" cx="138.9" cy="346.4" r="108.7"/>
	<path fill="none" stroke="#34376B" stroke-width="2.5" stroke-linecap="round" stroke-miterlimit="10" d="M47.9,285.5
		c13-20.7,29.4-33.6,57.1-42.4c57.2-18.2,118.5,12.4,137.2,69.4S229.8,431,172.8,449.7c-57.1,18.7-118.5-12.4-137.2-69.4
		c-8.9-27-6.6-55,4.4-79"/>
	<g>
		<g>
			
				<rect x="82.4" y="309.1" transform="matrix(0.9725 0.2328 -0.2328 0.9725 85.1512 -22.7307)" fill="none" stroke="#1494E2" stroke-width="14" stroke-linecap="round" stroke-linejoin="round" stroke-miterlimit="10" width="112.9" height="80.7"/>
			
				<polyline fill="none" stroke="#1494E2" stroke-width="14" stroke-linecap="round" stroke-linejoin="round" stroke-miterlimit="10" points="
				93.6,307 138.1,352.6 198.4,332.1 			"/>
		</g>
	</g>
</g>
<g>
	<circle fill="#FFFFFF" cx="360.6" cy="484.3" r="108.7"/>
	<path fill="none" stroke="#34376B" stroke-width="2.5" stroke-linecap="round" stroke-miterlimit="10" d="M269.5,423.4
		c13-20.7,29.4-33.6,57.1-42.4c57.2-18.2,118.5,12.4,137.2,69.4s-12.4,118.5-69.4,137.2c-57.1,18.7-118.5-12.4-137.2-69.4
		c-8.9-27-6.6-55,4.4-79"/>
	<path fill="#6CDDB5" d="M396.2,538.9h-73.2c-9.1,0-16.5-7.4-16.5-16.5v-73.2c0-9.1,7.4-16.5,16.5-16.5h73.2
		c9.1,0,16.5,7.4,16.5,16.5v73.2C412.7,531.6,405.3,538.9,396.2,538.9z"/>
	<path fill="none" stroke="#34376B" stroke-width="2.5" stroke-linecap="round" stroke-miterlimit="10" d="M392.2,536.9h-73.2
		c-9.1,0-16.5-7.4-16.5-16.5v-73.2c0-9.1,7.4-16.5,16.5-16.5h73.2c9.1,0,16.5,7.4,16.5,16.5v73.2
		C408.7,529.6,401.3,536.9,392.2,536.9z"/>
	<path fill="#6CDDB5" stroke="#34376B" stroke-width="2.5" stroke-linecap="round" stroke-miterlimit="10" d="M395,508.6
		c-7.7,11-20.4,18.1-34.9,18.1c-14.6,0-27.5-7.3-35.2-18.5"/>
	
		<line fill="none" stroke="#34376B" stroke-width="2.5" stroke-linecap="round" stroke-miterlimit="10" x1="325" y1="502" x2="325" y2="460.7"/>
	
		<line fill="none" stroke="#34376B" stroke-width="2.5" stroke-linecap="round" stroke-miterlimit="10" x1="360" y1="517.4" x2="360" y2="450"/>
	
		<line fill="none" stroke="#34376B" stroke-width="2.5" stroke-linecap="round" stroke-miterlimit="10" x1="343" y1="513" x2="343" y2="454"/>
	
		<line fill="none" stroke="#34376B" stroke-width="2.5" stroke-linecap="round" stroke-miterlimit="10" x1="395" y1="502" x2="395" y2="460.7"/>
	
		<line fill="none" stroke="#34376B" stroke-width="2.5" stroke-linecap="round" stroke-miterlimit="10" x1="378.6" y1="513" x2="378.6" y2="454"/>
</g>
</svg>
