<?xml version="1.0" encoding="utf-8"?>
<!-- Generator: Adobe Illustrator 17.1.0, SVG Export Plug-In . SVG Version: 6.00 Build 0)  -->
<!DOCTYPE svg PUBLIC "-//W3C//DTD SVG 1.1//EN" "http://www.w3.org/Graphics/SVG/1.1/DTD/svg11.dtd">
<svg version="1.1" id="Слой_1" xmlns="http://www.w3.org/2000/svg" xmlns:xlink="http://www.w3.org/1999/xlink" x="0px" y="0px"
	 viewBox="0 0 733.1 733.1" enable-background="new 0 0 733.1 733.1" xml:space="preserve">
<polygon fill="#34376B" points="204.1,301.6 197.6,311.2 227.1,333.8 233.6,324.1 "/>
<polygon fill="#34376B" points="211.9,279.4 199.5,276.6 197.1,310.8 209.6,313.6 "/>
<g id="shoulder_4_">
	
		<rect x="277.3" y="336.1" transform="matrix(0.7648 0.6443 -0.6443 0.7648 319.0996 -101.1509)" fill="#B4CDE0" width="41.7" height="100.6"/>
	<path fill="#D3E5F5" d="M364.4,386.4c4-2.7,7.6-5.9,10.8-9.7c18.6-22.1,15.7-55.2-6.5-74c-22.2-18.7-55.4-16-74,6.1
		c-3.2,3.8-5.8,8-7.7,12.3L364.4,386.4z"/>
	<path fill="none" stroke="#34376B" stroke-width="2.5" stroke-linecap="round" stroke-miterlimit="10" d="M284.5,317.4
		c0,0,21.8-43.8,61-28.5s49.6,52.7,37.9,74.5c-11.7,21.8-16.5,22.8-16.5,22.8l-79.5-65.9"/>
</g>
<g id="wheel_l_2_">
	<path fill="#D3E5F5" d="M386,614.1c-9.1-15.9-22.9-26.1-38.4-26.1s-29.3,10.2-38.4,26.1H386z"/>
</g>
<g id="wheel_l_1_">
	<path fill="none" stroke="#34376B" stroke-width="2.5" stroke-linecap="round" stroke-miterlimit="10" d="M386,614.1
		c-9.1-15.9-22.9-26.1-38.4-26.1s-29.3,10.2-38.4,26.1H386z"/>
</g>
<g id="head_1_">
	<circle fill="#D3E5F5" cx="422.4" cy="257.3" r="106"/>
	<path fill="#B4CDE0" d="M326.6,253.5c0-30.5,11.8-58.6,31-80.1c-25.1,19.4-41.3,49.7-41.3,83.9c0,45.6,28.8,84.4,69.1,99.4
		C350.5,335.4,326.6,296.8,326.6,253.5z"/>
	<path fill="#FFFFFF" d="M385.6,293c18.6,2.5,46.9,2.2,61.7,1c33.9-2.7,66.4-7.6,77.8-10.6c2.1-8.4,3.3-17.1,3.3-26.1
		c0-12.1-2-23.7-5.8-34.5c-32.5,9.1-66.3,13.8-100.4,13.8c-34,0-67.6-4.7-100-13.7c-3.7,10.8-5.7,22.3-5.7,34.4
		c0,7.4,0.8,14.7,2.2,21.7C326.6,282.6,372.1,291.3,385.6,293z"/>
	<circle fill="#65D8F0" cx="390.3" cy="264.2" r="26.4"/>
	
		<circle fill="none" stroke="#34376B" stroke-width="2.5" stroke-linecap="round" stroke-miterlimit="10" cx="390.3" cy="264.2" r="26.4"/>
	<path fill="none" stroke="#34376B" stroke-width="2.5" stroke-linecap="round" stroke-miterlimit="10" d="M330.3,201.9
		c20.6-41,67.1-60.6,112.5-53.2c38,6.1,68.6,31.9,81.6,66"/>
	<path fill="none" stroke="#34376B" stroke-width="2.5" stroke-linecap="round" stroke-miterlimit="10" d="M385.6,293
		c18.6,2.5,46.9,2.2,61.7,1c33.9-2.7,66.4-7.6,77.8-10.6c2.1-8.4,3.3-17.1,3.3-26.1c0-12.1-2-23.7-5.8-34.5
		c-32.5,9.1-66.3,13.8-100.4,13.8c-34,0-67.6-4.7-100-13.7c-3.7,10.8-5.7,22.3-5.7,34.4c0,7.4,0.8,14.7,2.2,21.7
		C326.6,282.6,372.1,291.3,385.6,293z"/>
</g>
<g id="body_1_">
	<rect x="331.5" y="500.7" fill="#B4CDE0" width="163.4" height="49"/>
	<path fill="#D3E5F5" d="M536,576c-13.7-22.1-39-36.9-68-36.9h-106c-29,0-54.4,14.9-68,36.9H536z"/>
	<path fill="none" stroke="#34376B" stroke-width="2.5" stroke-linecap="round" stroke-miterlimit="10" d="M536,576
		c-13.7-22.1-39-36.9-68-36.9h-106c-29,0-54.4,14.9-68,36.9H536z"/>
	<path fill="#D3E5F5" d="M494,308.3c-27.2,7.7-55.5,11.7-84.1,11.7c-26.5,0-52.8-3.5-78.2-10.1c-20.6,32.1-33.3,76.3-33.3,125
		c0,26,3.6,50.8,10.2,73.1h130.7v19.6h72.2c10.7-27,16.9-58.7,16.9-92.7C528.3,385.4,515.2,340.5,494,308.3z"/>
	<path fill="none" stroke="#34376B" stroke-width="2.5" stroke-linecap="round" stroke-miterlimit="10" d="M307.6,504.7
		c0,0-28.6-129.1,29.7-196.4c0,0,71.6,18.3,148.6,0"/>
	<path fill="none" stroke="#34376B" stroke-width="2.5" stroke-linecap="round" stroke-miterlimit="10" d="M496,314.6
		c0,0,58.1,115.6,10.7,210l-67.4,0.6v-20.5H315.5"/>
	
		<ellipse transform="matrix(0.9899 0.1419 -0.1419 0.9899 59.4774 -46.6507)" fill="#6CDDB5" cx="356.9" cy="393.8" rx="23" ry="37.1"/>
	
		<ellipse transform="matrix(0.9899 0.1419 -0.1419 0.9899 59.4774 -46.6507)" fill="none" stroke="#34376B" stroke-width="2.5" stroke-linecap="round" stroke-miterlimit="10" cx="356.9" cy="393.8" rx="23" ry="37.1"/>
</g>
<g id="wheel_r_1_">
	<g>
		<path fill="#D3E5F5" d="M508.6,614.1c-9.1-16.4-23.1-26.9-38.8-26.9s-29.8,10.5-38.8,26.9H508.6z"/>
		<path fill="#B4CDE0" d="M433.8,614.1c4.6-8.2,10.6-15.6,17.6-21.9c-8.1,4.6-15.2,12.2-20.5,21.9H433.8z"/>
		<path fill="none" stroke="#34376B" stroke-width="2.5" stroke-linecap="round" stroke-miterlimit="10" d="M508.6,614.1
			c-9.1-16.4-23.1-26.9-38.8-26.9s-29.8,10.5-38.8,26.9H508.6z"/>
	</g>
</g>
<g id="shoulder_3_">
	<rect x="506.7" y="358.4" fill="#B5CEE2" width="41.7" height="100.6"/>
	<path fill="#D3E5F5" d="M578.1,365.9c1.3-4.6,2-9.4,2-14.4c0-28.9-23.6-52.4-52.7-52.4c-29.1,0-52.7,23.4-52.7,52.4
		c0,5,0.7,9.8,2,14.4H578.1z"/>
	<path fill="#B4CDE0" d="M527.5,299.2c-10.5,0-20.3,3.1-28.6,8.4c7-3.7,15-5.9,23.4-5.9c27.7,0,50.9,23.1,50.9,50.9
		c0,4.6-0.7,9.1-1.9,13.4h6.7c1.3-4.6,2-9.4,2-14.4C580.2,322.6,556.6,299.2,527.5,299.2z"/>
	<path fill="none" stroke="#34376B" stroke-width="2.5" stroke-linecap="round" stroke-miterlimit="10" d="M476,363.5
		c0,0-11.3-47.6,28.5-60.9s71.8,8.7,76.8,32.9c5,24.2,1.9,28.1,1.9,28.1l-103.2,0.4"/>
</g>
<rect x="54" y="580.1" fill="#FEDB7D" width="629.3" height="38.3"/>
<rect x="18.9" y="540.2" fill="#FEDB7D" width="697.3" height="39.8"/>
<rect x="13.9" y="540.2" fill="none" stroke="#34376B" stroke-width="2.5" stroke-linecap="round" stroke-miterlimit="10" width="697.3" height="39.8"/>
<line fill="none" stroke="#34376B" stroke-width="2.5" stroke-linecap="round" stroke-miterlimit="10" x1="49" y1="580.1" x2="49" y2="613.1"/>
<line fill="none" stroke="#34376B" stroke-width="2.5" stroke-linecap="round" stroke-miterlimit="10" x1="678.3" y1="581.9" x2="678.3" y2="616.3"/>
<g>
	
		<line fill="none" stroke="#34376B" stroke-width="2.5" stroke-linecap="round" stroke-miterlimit="10" x1="703.2" y1="484.1" x2="576.4" y2="484.1"/>
	
		<line fill="none" stroke="#34376B" stroke-width="2.5" stroke-linecap="round" stroke-miterlimit="10" x1="683.5" y1="490.1" x2="564.8" y2="490.1"/>
	
		<line fill="none" stroke="#34376B" stroke-width="2.5" stroke-linecap="round" stroke-miterlimit="10" x1="698" y1="496.8" x2="606.6" y2="496.8"/>
	
		<line fill="none" stroke="#34376B" stroke-width="2.5" stroke-linecap="round" stroke-miterlimit="10" x1="698" y1="503.6" x2="610.9" y2="503.6"/>
	
		<line fill="none" stroke="#34376B" stroke-width="2.5" stroke-linecap="round" stroke-miterlimit="10" x1="683.5" y1="510.3" x2="576.4" y2="510.3"/>
	
		<line fill="none" stroke="#34376B" stroke-width="2.5" stroke-linecap="round" stroke-miterlimit="10" x1="703.2" y1="517.4" x2="610.9" y2="517.4"/>
	
		<line fill="none" stroke="#34376B" stroke-width="2.5" stroke-linecap="round" stroke-miterlimit="10" x1="703.2" y1="525.1" x2="590.1" y2="525.1"/>
	
		<line fill="none" stroke="#34376B" stroke-width="2.5" stroke-linecap="round" stroke-miterlimit="10" x1="676.7" y1="531.8" x2="557.4" y2="531.8"/>
</g>
<g>
	
		<line fill="none" stroke="#34376B" stroke-width="2.5" stroke-linecap="round" stroke-miterlimit="10" x1="571.9" y1="427.7" x2="698.6" y2="427.7"/>
	
		<line fill="none" stroke="#34376B" stroke-width="2.5" stroke-linecap="round" stroke-miterlimit="10" x1="591.5" y1="433.8" x2="710.3" y2="433.8"/>
	
		<line fill="none" stroke="#34376B" stroke-width="2.5" stroke-linecap="round" stroke-miterlimit="10" x1="577" y1="440.5" x2="668.4" y2="440.5"/>
	
		<line fill="none" stroke="#34376B" stroke-width="2.5" stroke-linecap="round" stroke-miterlimit="10" x1="577" y1="447.2" x2="664.1" y2="447.2"/>
	
		<line fill="none" stroke="#34376B" stroke-width="2.5" stroke-linecap="round" stroke-miterlimit="10" x1="591.5" y1="453.9" x2="698.6" y2="453.9"/>
	
		<line fill="none" stroke="#34376B" stroke-width="2.5" stroke-linecap="round" stroke-miterlimit="10" x1="571.9" y1="461.1" x2="664.1" y2="461.1"/>
	
		<line fill="none" stroke="#34376B" stroke-width="2.5" stroke-linecap="round" stroke-miterlimit="10" x1="571.9" y1="468.7" x2="684.9" y2="468.7"/>
	
		<line fill="none" stroke="#34376B" stroke-width="2.5" stroke-linecap="round" stroke-miterlimit="10" x1="598.3" y1="475.5" x2="717.6" y2="475.5"/>
</g>
<g>
	
		<line fill="none" stroke="#34376B" stroke-width="2.5" stroke-linecap="round" stroke-miterlimit="10" x1="183.4" y1="464.4" x2="45.9" y2="464.4"/>
	
		<line fill="none" stroke="#34376B" stroke-width="2.5" stroke-linecap="round" stroke-miterlimit="10" x1="162.1" y1="472.8" x2="33.2" y2="472.8"/>
	
		<line fill="none" stroke="#34376B" stroke-width="2.5" stroke-linecap="round" stroke-miterlimit="10" x1="177.8" y1="482" x2="78.6" y2="482"/>
	
		<line fill="none" stroke="#34376B" stroke-width="2.5" stroke-linecap="round" stroke-miterlimit="10" x1="177.8" y1="491.3" x2="83.3" y2="491.3"/>
	
		<line fill="none" stroke="#34376B" stroke-width="2.5" stroke-linecap="round" stroke-miterlimit="10" x1="162.1" y1="500.6" x2="45.9" y2="500.6"/>
	
		<line fill="none" stroke="#34376B" stroke-width="2.5" stroke-linecap="round" stroke-miterlimit="10" x1="183.4" y1="510.4" x2="83.3" y2="510.4"/>
	
		<line fill="none" stroke="#34376B" stroke-width="2.5" stroke-linecap="round" stroke-miterlimit="10" x1="183.4" y1="521" x2="60.7" y2="521"/>
	
		<line fill="none" stroke="#34376B" stroke-width="2.5" stroke-linecap="round" stroke-miterlimit="10" x1="154.6" y1="530.2" x2="25.3" y2="530.2"/>
</g>
<g>
	<path fill="#FFFFFF" d="M178.1,336c0,0,24.1-3.1,38.1-27.2c14-24.1,39.4-28.7,39.4-28.7s-1.8-60-56.7-100.2c0,0-25,8.9-36.2,29.1
		c-6.9,12.5-17.2,25.1-39.3,24.8C123.3,233.8,178.4,284,178.1,336z"/>
	<path fill="none" stroke="#34376B" stroke-width="2.5" stroke-linecap="round" stroke-miterlimit="10" d="M178.1,336
		c0,0,24.1-3.1,38.1-27.2c14-24.1,39.4-28.7,39.4-28.7s-1.8-60-56.7-100.2c0,0-25,8.9-36.2,29.1c-6.9,12.5-17.2,25.1-39.3,24.8
		C123.3,233.8,178.4,284,178.1,336z"/>
	<path fill="none" stroke="#34376B" stroke-width="2.5" stroke-linecap="round" stroke-miterlimit="10" d="M188.2,300.3
		c13-0.4,24.1-15.9,33-24.5"/>
	<path fill="none" stroke="#34376B" stroke-width="2.5" stroke-linecap="round" stroke-miterlimit="10" d="M199.1,269.5
		c2.6-5.7,14.2-15.7,20.6-15.9"/>
	<path fill="none" stroke="#34376B" stroke-width="2.5" stroke-linecap="round" stroke-miterlimit="10" d="M170.3,264.9
		c2.7-2.8,6.1-4.6,8.9-7.3"/>
	<path fill="none" stroke="#34376B" stroke-width="2.5" stroke-linecap="round" stroke-miterlimit="10" d="M201.9,241
		c7.3-1.8,13.8-6,20.2-9.9"/>
	<path fill="none" stroke="#34376B" stroke-width="2.5" stroke-linecap="round" stroke-miterlimit="10" d="M161.4,246.5
		c3.3-0.5,7.3-1,9.9-3.4c2.8-2.6,2.5-5.9,5.4-8.1c2.7-2.1,7-2.1,9.9-4c2.2-1.5,4.2-4.1,6-5.9"/>
	<path fill="none" stroke="#34376B" stroke-width="2.5" stroke-linecap="round" stroke-miterlimit="10" d="M177.7,214
		c5.8,0.4,7.5-1.9,10.5-6.1c4.3-6.1,7.8-7.8,15.6-4.8"/>
	<path fill="none" stroke="#34376B" stroke-width="2.5" stroke-linecap="round" stroke-miterlimit="10" d="M205.6,202
		c0-0.6-0.2-1.1-0.7-1.4"/>
</g>
<polygon fill="#34376B" points="241.3,286.5 253.5,290.8 246.8,323.8 234.6,319.4 "/>
<polygon fill="#34376B" points="218.9,273 226.7,264.4 253.7,290.2 245.9,298.8 "/>
<g id="forearm_4_">
	<path fill="#D3E5F5" d="M287.7,457.8c-3.5-12.9-4.2-16.7-2.2-29.5c1.4-8.7,6-19.5,9.5-29.6c0,0,3.7-14,1.6-21.7
		c-2.1-5.6-4.5-11.3-7.2-17.1c-10.4-22.5-23.2-41.3-35.5-53.7l-44,20.4c1.5,17.4,7.6,39.4,18.1,61.8
		C245.7,426.7,270.2,454.3,287.7,457.8z"/>
	<path fill="#B4CDE0" d="M230.7,317l-20.8,9.6c1.5,17.4,7.6,39.4,18.1,61.8c3.3,7.1,6.8,13.8,10.4,20
		C223.3,379.8,221.3,346.6,230.7,317z"/>
	<path fill="none" stroke="#34376B" stroke-width="2.5" stroke-linecap="round" stroke-miterlimit="10" d="M255,308.9
		c0,0,29.5,23.6,43.5,69.7c4.2,29-1.9,33.6-7.3,44.1c-6,11.6-1.7,39.3-1.7,39.3s-62.7-19.1-81.9-130.9l44.7-20.9"/>
</g>
<g>
	<circle fill="#FFFFFF" cx="628" cy="321" r="66.5"/>
	<path fill="#FEDB7D" d="M589.4,335.4l-0.2-30.6c0-5.8,6.4-10.5,14.2-10.6l48.8-0.3c7.9-0.1,14.3,4.6,14.4,10.4l0.2,36.7
		c0,5.8-6.4,10.5-14.2,10.6l-48.8,0.3c-7.9,0.1-14.3-4.6-14.4-10.4L589.4,335.4"/>
	<path fill="none" stroke="#34376B" stroke-width="2.5" stroke-linecap="round" stroke-miterlimit="10" d="M589.4,335.4l-0.2-30.6
		c0-5.8,6.4-10.5,14.2-10.6l48.8-0.3c7.9-0.1,14.3,4.6,14.4,10.4l0.2,36.7c0,5.8-6.4,10.5-14.2,10.6l-48.8,0.3
		c-7.9,0.1-14.3-4.6-14.4-10.4L589.4,335.4"/>
	<polyline fill="none" stroke="#34376B" stroke-width="2.5" stroke-linecap="round" stroke-miterlimit="10" points="600.4,308 
		627.9,325.4 655.2,307.6 	"/>
	
		<line fill="none" stroke="#34376B" stroke-width="2.5" stroke-linecap="round" stroke-miterlimit="10" x1="619.2" y1="320.4" x2="602.8" y2="334.6"/>
	
		<line fill="none" stroke="#34376B" stroke-width="2.5" stroke-linecap="round" stroke-miterlimit="10" x1="638.8" y1="320.3" x2="655.4" y2="332.8"/>
	<path fill="none" stroke="#34376B" stroke-width="2.5" stroke-linecap="round" stroke-miterlimit="10" d="M586.4,268.6
		c11.4-9.6,23.4-14,41.2-14c36.7,0.1,66.6,29.3,66.9,66s-29.3,66.6-66,66.9s-66.6-29.3-66.9-66c-0.1-17.4,6.5-33.2,17.3-45.2"/>
</g>
<g>
	<circle fill="#FFFFFF" cx="102.4" cy="332.1" r="67.1"/>
	<path fill="none" stroke="#34376B" stroke-width="2.5" stroke-linecap="round" stroke-miterlimit="10" d="M48.5,291.4
		c6-6.8,12.4-12.7,22.8-18.8c32-18.7,73.4-4.5,90.5,28.4s4.5,73.4-28.4,90.5s-73.4,4.5-90.5-28.4c-10.2-19.6-9.8-41.9-0.9-60.4"/>
	<path fill="#6CDDB5" d="M110.3,304.7l-10.1-19.3c0,0-16.4,3.6-28.6,15c-12.3,11.4,9.4,49.5,9.4,49.5c8.7,16.7,19.5,24.9,29.7,25.4
		c10.2,0.5,28.6-15,28.6-15l-11.6-22.1l-20,10.5l-17.5-33.4L110.3,304.7z"/>
	<path fill="none" stroke="#34376B" stroke-width="2.5" stroke-linecap="round" stroke-miterlimit="10" d="M110.3,304.7l-10.1-19.3
		c0,0-16.4,3.6-28.6,15c-12.3,11.4,9.4,49.5,9.4,49.5c8.7,16.7,19.5,24.9,29.7,25.4c10.2,0.5,28.6-15,28.6-15l-11.6-22.1l-20,10.5
		l-17.5-33.4L110.3,304.7z"/>
</g>
<polygon fill="#F4888E" points="83.2,405.7 121.6,405.7 102.4,427.7 "/>
<polygon fill="#F4888E" points="610,394.6 648.5,394.6 629.2,416.6 "/>
<g id="PALM_3_">
	<g>
		<polygon fill="#34376B" points="411.2,374.3 423.1,369 440.8,397.6 429,402.9 		"/>
		<polygon fill="#34376B" points="385.7,379.9 385.4,368.3 422.8,368.5 423,380.1 		"/>
	</g>
	<g>
		<path fill="#FFFFFF" d="M281.8,365.3c0,0,17.1-17.3,44.7-13.7c27.6,3.5,46.7-13.8,46.7-13.8s46.5,38,45,106
			c0,0-22.2,14.4-45.1,11.1c-14.1-2.1-30.4-1.6-43.6,16.1C329.5,471,323.3,396.7,281.8,365.3z"/>
		<path fill="none" stroke="#34376B" stroke-width="2.5" stroke-linecap="round" stroke-miterlimit="10" d="M281.8,365.3
			c0,0,17.1-17.3,44.7-13.7c27.6,3.5,46.7-13.8,46.7-13.8s46.5,38,45,106c0,0-22.2,14.4-45.1,11.1c-14.1-2.1-30.4-1.6-43.6,16.1
			C329.5,471,323.3,396.7,281.8,365.3z"/>
		<path fill="none" stroke="#34376B" stroke-width="2.5" stroke-linecap="round" stroke-miterlimit="10" d="M316.3,379
			c8.3-10.1,27.3-9.5,39.6-11.3"/>
		<path fill="none" stroke="#34376B" stroke-width="2.5" stroke-linecap="round" stroke-miterlimit="10" d="M347.4,389.1
			c6.1,1.4,21.1-1.8,25.2-6.7"/>
		<path fill="none" stroke="#34376B" stroke-width="2.5" stroke-linecap="round" stroke-miterlimit="10" d="M333.6,414.7
			c3.9-0.5,7.4-2,11.2-2.6"/>
		<path fill="none" stroke="#34376B" stroke-width="2.5" stroke-linecap="round" stroke-miterlimit="10" d="M371.7,404.2
			c5.9-4.7,13.2-7.3,20.2-10"/>
		<path fill="none" stroke="#34376B" stroke-width="2.5" stroke-linecap="round" stroke-miterlimit="10" d="M342.7,433
			c2.4-2.4,5.2-5.2,8.7-5.8c3.7-0.7,6.2,1.6,9.7,0.6c3.3-0.9,5.9-4.3,9.2-5.4c2.5-0.8,5.8-0.8,8.4-1.2"/>
		<path fill="none" stroke="#34376B" stroke-width="2.5" stroke-linecap="round" stroke-miterlimit="10" d="M378.4,439.9
			c3.2-4.8,6-4.8,11.3-4.6c7.4,0.3,10.9-1.4,13.3-9.5"/>
		<path fill="none" stroke="#34376B" stroke-width="2.5" stroke-linecap="round" stroke-miterlimit="10" d="M404.9,425
			c0.5,0.3,0.7,0.8,0.7,1.4"/>
	</g>
	<g>
		<polygon fill="#34376B" points="394.6,410.8 396.5,422.3 433.4,418.4 431.5,406.9 		"/>
		<polygon fill="#34376B" points="385,389.4 374,395.9 395.9,422.3 406.8,415.8 		"/>
	</g>
</g>
<g id="forearm_3_">
	<path fill="#D3E5F5" d="M562.7,466.9c-11.4-6.9-14.6-9.3-21.9-20c-5-7.3-9-18.3-13.4-28c0,0-7-12.7-13.8-16.8
		c-5.4-2.6-11-5.1-16.9-7.5c-23-9.2-45.3-14.1-62.7-14.6L416,425c13.1,11.6,32.6,23.3,55.6,32.5
		C510.8,473.1,547.6,476.3,562.7,466.9z"/>
	<path fill="#B4CDE0" d="M455.2,450.1c-0.9-0.4-1.8-0.8-2.7-1.2c6,3,12.4,5.9,19.1,8.6c39.1,15.6,75.9,18.8,91.1,9.4
		c-9.3-5.7-13.2-8.3-18.3-14.9C516.3,462.4,484.4,462.7,455.2,450.1z"/>
	<path fill="none" stroke="#34376B" stroke-width="2.5" stroke-linecap="round" stroke-miterlimit="10" d="M438.3,379.3
		c0,0,37.7-2.8,79.3,21.4c22.8,18.4,21.5,25.9,24.7,37.3c3.5,12.6,25.5,29.9,25.5,29.9s-58.9,28.8-149.1-40l18.4-45.8"/>
</g>
</svg>
