<?xml version="1.0" encoding="UTF-8" standalone="no"?>
<svg width="614px" height="576px" viewBox="0 0 614 576" version="1.1" xmlns="http://www.w3.org/2000/svg" xmlns:xlink="http://www.w3.org/1999/xlink">
    <!-- Generator: Sketch 40.2 (33826) - http://www.bohemiancoding.com/sketch -->
    <title>4.2</title>
    <desc>Created with Sketch.</desc>
    <defs></defs>
    <g id="Page-1" stroke="none" stroke-width="1" fill="none" fill-rule="evenodd">
        <g id="4.2" transform="translate(1.000000, 2.000000)">
            <rect id="Rectangle-path" fill="#E8F2FB" x="379.8" y="42.5" width="224.2" height="266.2"></rect>
            <rect id="Rectangle-path" stroke="#34376B" stroke-width="2.5" x="372.4" y="31.7" width="232.5" height="283.6"></rect>
            <polyline id="Shape" stroke="#34376B" stroke-width="2.5" points="594.2 44.1 593.9 300.8 386.1 301.5"></polyline>
            <polyline id="Shape" stroke="#34376B" stroke-width="2.5" points="383.9 297.4 383 40.8 587.9 44"></polyline>
            <polygon id="Shape" fill="#F3BA99" points="473.6 194.5 473.6 206.9 505.7 206.9 504.6 196.2"></polygon>
            <ellipse id="Oval" fill="#F6D6B4" cx="437.3" cy="143.5" rx="10.7" ry="14.4"></ellipse>
            <ellipse id="Oval" fill="#F6D6B4" cx="535.8" cy="140.7" rx="10.7" ry="14.4"></ellipse>
            <path d="M499.8,198.8 L476,198.8 C454.6,198.8 437.3,181.5 437.3,160.1 L437.3,127.1 C437.3,105.7 454.6,88.4 476,88.4 L499.8,88.4 C521.2,88.4 538.5,105.7 538.5,127.1 L538.5,160.1 C538.6,181.4 521.2,198.8 499.8,198.8 L499.8,198.8 Z" id="Shape" fill="#F6D6B4"></path>
            <path d="M493.3,198.6 C463.4,198.6 438.4,173.6 438.4,143.7 C438.4,141.1 437.7,129.6 437.4,126.6 L437.4,127 L437.4,160 C437.4,181.4 454.7,198.7 476.1,198.7 L499.9,198.7 C506.9,198.7 513.5,196.8 519.1,193.6 C510.1,197 499.4,198.6 493.3,198.6 L493.3,198.6 Z" id="Shape" fill="#F3BA99"></path>
            <path d="M454.1,121.7 L469.4,121.7" id="Shape" stroke="#CA8A6B" stroke-width="3"></path>
            <path d="M505.3,121.7 L520.7,121.7" id="Shape" stroke="#CA8A6B" stroke-width="3"></path>
            <path d="M483.8,155.8 L494.7,155.8" id="Shape" stroke="#CA8A6B" stroke-width="3"></path>
            <path d="M473.2,170.3 L473.2,171 C473.2,180.4 480.6,188 489.7,188 C498.8,188 506.2,180.4 506.2,171 L506.2,170.3 L473.2,170.3 L473.2,170.3 Z" id="Shape" fill="#FFFFFF"></path>
            <path d="M462.8,144.1 C467.6,144.1 467.6,136.6 462.8,136.6 C457.9,136.6 457.9,144.1 462.8,144.1 L462.8,144.1 L462.8,144.1 Z" id="Shape" fill="#CA8A6B"></path>
            <path d="M513.7,143.5 C518.5,143.5 518.5,136 513.7,136 C508.9,136 508.9,143.5 513.7,143.5 L513.7,143.5 L513.7,143.5 Z" id="Shape" fill="#CA8A6B"></path>
            <path d="M468,75 C468,75 452.5,57.2 435,75 C417.5,92.8 436.9,129.9 436.9,129.9 C436.9,129.9 447,97.4 464.5,96.2 C482.1,95 468,75 468,75 L468,75 Z" id="Shape" fill="#EEBF56"></path>
            <path d="M470.3,72.6 C470.3,72.6 454.8,54.8 437.3,72.6 C419.8,90.4 439.2,127.5 439.2,127.5 C439.2,127.5 449.3,95 466.8,93.8 C484.4,92.6 470.3,72.6 470.3,72.6 L470.3,72.6 Z" id="Shape" stroke="#34376B" stroke-width="2.5"></path>
            <path d="M485.3,58.7 C485.3,58.7 433.4,64.9 461.7,96.5 C485.3,112 492.2,94.5 512.3,98.9 C532.5,103.3 537.8,130 537.8,130 C537.8,130 567.3,56.6 485.3,58.7 L485.3,58.7 Z" id="Shape" fill="#EEBF56"></path>
            <path d="M487.7,56.3 C487.7,56.3 435.8,62.5 464.1,94.1 C487.7,109.6 494.6,92.1 514.7,96.5 C534.9,100.9 540.2,127.6 540.2,127.6 C540.2,127.6 569.6,54.3 487.7,56.3 L487.7,56.3 Z" id="Shape" stroke="#34376B" stroke-width="2.5"></path>
            <path d="M421.9,259.2 L424.9,295.4 L558.7,295.4 L562.6,259.5 C579.1,259.5 583.2,255.1 585.3,244 C585.4,243.5 585.3,242.9 585.3,242.3 C584.1,203.9 520.7,205.9 520.7,205.9 C520.7,205.9 524.3,204.9 464.9,205.9 C405.5,206.9 401,232.4 401,232.4 C399.8,235.6 400.3,240.5 401.3,244 C405,256 407.2,257.4 421.9,259.2 L421.9,259.2 Z" id="Shape" fill="#34376B"></path>
            <path d="M509.2,295.4 L509.2,205.4 C502,205.4 490.6,205.4 472.7,205.7 L472.7,295.4 L509.2,295.4 L509.2,295.4 Z" id="Shape" fill="#FFFFFF"></path>
            <polygon id="Shape" fill="#34376B" points="484.2 205.6 498 205.4 494.8 216 487.1 216"></polygon>
            <rect id="Rectangle-path" fill="#34376B" x="487.1" y="216" width="7.7" height="79.4"></rect>
            <path d="M405.6,297.7 L431.2,242.3 L431.2,242.3 C433.8,236 429.7,228 421.9,224.4 C414.1,220.8 405.4,222.8 402.3,228.9 L402.3,228.9 L386.1,264 L386.1,297.7 L405.6,297.7 L405.6,297.7 Z" id="Shape" fill="#34376B"></path>
            <path d="M589.9,245.3 L582.3,229 L582.3,229 C579.2,222.9 570.5,220.9 562.7,224.5 C554.9,228.1 550.8,236 553.4,242.4 L553.4,242.4 L577.9,295.4 L589.9,295.4 L589.9,245.3 L589.9,245.3 Z" id="Shape" fill="#34376B"></path>
            <g id="PALM_2_" transform="translate(346.000000, 318.000000)">
                <g id="Group" transform="translate(7.000000, 0.000000)" fill="#34376B">
                    <polygon id="Shape" points="31 10.2 26.3 0.6 0 9 4.6 18.6"></polygon>
                    <polygon id="Shape" points="44 27.3 50.3 20.2 26.8 0.4 20.5 7.6"></polygon>
                </g>
                <rect id="Rectangle-path" fill="#FEDB7D" x="36.5" y="15.6" width="220.2" height="47.5"></rect>
                <polyline id="Shape" stroke="#34376B" stroke-width="2.5" points="256.7 19.2 256.7 62.8 37.8 63.4"></polyline>
                <polyline id="Shape" stroke="#34376B" stroke-width="2.5" points="36.6 55.8 36.5 15.6 255.8 15.6"></polyline>
                <path d="M77.2482177,48.0600117 C75.9087222,48.7106238 73.842072,49.1316081 71.8136931,49.1316081 C65.5371999,49.1316081 61.9014264,45.0748503 61.9014264,38.7600858 C61.9014264,31.9860657 65.9199129,28.1206644 71.9667783,28.1206644 C74.1099711,28.1206644 75.9087222,28.57992 77.1716751,29.1922608 L77.9753724,26.4749985 C77.0951325,26.0157429 75.0667536,25.3268595 71.8519644,25.3268595 C63.8532627,25.3268595 58.3804668,30.7996554 58.3804668,38.8748997 C58.3804668,47.332857 63.8532627,51.925413 71.1248097,51.925413 C74.2630563,51.925413 76.7124195,51.3130722 77.9371011,50.7007314 L77.2482177,48.0600117 Z M82.0704015,25.7478438 L82.0704015,40.9415499 C82.0704015,48.9402516 86.0506167,51.9636843 91.3320561,51.9636843 C96.9196659,51.9636843 101.091238,48.7106238 101.091238,40.7884647 L101.091238,25.7478438 L97.7233632,25.7478438 L97.7233632,41.0180925 C97.7233632,46.7205162 95.274,49.246422 91.44687,49.246422 C88.002453,49.246422 85.4382759,46.7970588 85.4382759,41.0180925 L85.4382759,25.7478438 L82.0704015,25.7478438 Z M105.56898,50.2797471 C106.946747,51.1982583 109.664009,51.925413 112.151643,51.925413 C118.23678,51.925413 121.18367,48.480996 121.18367,44.5007808 C121.18367,40.7119221 118.963935,38.6070006 114.601006,36.9230634 C111.041776,35.5452966 109.472652,34.3588863 109.472652,31.9477944 C109.472652,30.1873146 110.812148,28.0823931 114.333107,28.0823931 C116.667657,28.0823931 118.389865,28.8478191 119.231834,29.3070747 L120.150345,26.5898124 C119.002206,25.9392003 117.088641,25.3268595 114.447921,25.3268595 C109.434381,25.3268595 106.104778,28.3120209 106.104778,32.3305074 C106.104778,35.9662809 108.707226,38.147745 112.917069,39.6403257 C116.399758,40.9798212 117.777524,42.357588 117.777524,44.7686799 C117.777524,47.3711283 115.787417,49.1698794 112.381271,49.1698794 C110.084993,49.1698794 107.903529,48.4044534 106.410948,47.4859422 L105.56898,50.2797471 Z M130.636681,51.5427 L134.004556,51.5427 L134.004556,28.57992 L141.888443,28.57992 L141.888443,25.7478438 L122.791065,25.7478438 L122.791065,28.57992 L130.636681,28.57992 L130.636681,51.5427 Z M154.173531,25.3268595 C147.284697,25.3268595 142.194614,30.6848415 142.194614,38.8748997 C142.194614,46.6822449 146.978526,51.9636843 153.790818,51.9636843 C160.373481,51.9636843 165.769735,47.2563144 165.769735,38.3773728 C165.769735,30.7231128 161.21545,25.3268595 154.173531,25.3268595 L154.173531,25.3268595 Z M154.020445,28.0441218 C159.569784,28.0441218 162.248775,33.4021038 162.248775,38.530458 C162.248775,44.3859669 159.263614,49.246422 153.982174,49.246422 C148.739006,49.246422 145.753845,44.3094243 145.753845,38.7983571 C145.753845,33.1342047 148.509378,28.0441218 154.020445,28.0441218 L154.020445,28.0441218 Z M192.483102,51.5427 L195.736162,51.5427 L194.128768,25.7478438 L189.880654,25.7478438 L185.288098,38.2242876 C184.139959,41.4773481 183.221447,44.3094243 182.570835,46.9118727 L182.456021,46.9118727 C181.805409,44.2328817 180.925169,41.4008055 179.853573,38.2242876 L175.452373,25.7478438 L171.204259,25.7478438 L169.405508,51.5427 L172.582026,51.5427 L173.270909,40.4822943 C173.500537,36.616893 173.691894,32.2922361 173.768436,29.0774469 L173.844979,29.0774469 C174.572134,32.1391509 175.605459,35.468754 176.83014,39.1045275 L181.001712,51.3896148 L183.527618,51.3896148 L188.081902,38.8748997 C189.383127,35.3156688 190.454723,32.1008796 191.334963,29.0774469 L191.449777,29.0774469 C191.411506,32.2922361 191.641133,36.616893 191.83249,40.2143952 L192.483102,51.5427 Z M214.2212,36.6934356 L204.19412,36.6934356 L204.19412,28.5416487 L214.79527,28.5416487 L214.79527,25.7478438 L200.864517,25.7478438 L200.864517,51.5427 L215.369339,51.5427 L215.369339,48.7488951 L204.19412,48.7488951 L204.19412,39.4489692 L214.2212,39.4489692 L214.2212,36.6934356 Z M219.693996,51.5427 L223.023599,51.5427 L223.023599,40.3674804 L226.161846,40.3674804 C229.185279,40.4822943 230.563045,41.8217898 231.328471,45.3810207 C232.055626,48.5958099 232.629696,50.8155453 233.05068,51.5427 L236.495097,51.5427 C235.959299,50.5476462 235.346958,48.0600117 234.504989,44.4625095 C233.892649,41.7835185 232.706238,39.9464961 230.716131,39.2576127 L230.716131,39.1427988 C233.433393,38.2242876 235.576586,35.9662809 235.576586,32.5601352 C235.576586,30.5700276 234.849431,28.8095478 233.548207,27.6614088 C231.940812,26.2070994 229.644534,25.5564873 226.085303,25.5564873 C223.789025,25.5564873 221.377933,25.7478438 219.693996,26.0922855 L219.693996,51.5427 Z M223.023599,28.4268348 C223.559398,28.2737496 224.707537,28.1206644 226.314931,28.1206644 C229.835891,28.1589357 232.246983,29.6132451 232.246983,32.9428482 C232.246983,35.8897383 229.988976,37.8415746 226.429745,37.8415746 L223.023599,37.8415746 L223.023599,28.4268348 Z" id="CUSTOMER" fill="#34376B"></path>
                <g id="Group" transform="translate(0.000000, 19.000000)" fill="#34376B">
                    <polygon id="Shape" points="29 23 21.6 29.1 0.5 7 7.8 0.8"></polygon>
                    <polygon id="Shape" points="46.4 14.6 49.8 24.5 22 29.5 18.6 19.6"></polygon>
                </g>
            </g>
            <g id="forearm_2_" transform="translate(275.000000, 295.000000)" fill="#B5CEE2">
                <rect id="Rectangle-path" transform="translate(45.202400, 30.558700) rotate(109.268415) translate(-45.202400, -30.558700) " x="28.1020922" y="-10.6420416" width="34.2006156" height="82.4014832"></rect>
            </g>
            <g id="shoulder_2_" transform="translate(214.000000, 178.000000)">
                <g id="Group" transform="translate(27.000000, 46.000000)">
                    <rect id="Rectangle-path" fill="#B5CEE2" transform="translate(25.236935, 43.878305) rotate(169.215970) translate(-25.236935, -43.878305) " x="8.08762359" y="2.47996724" width="34.2986228" height="82.7966755"></rect>
                    <circle id="Oval" fill="#D3E5F5" cx="30.2" cy="82.9" r="21"></circle>
                    <circle id="Oval" stroke="#34376B" stroke-width="2.5" cx="30.2" cy="82.9" r="21"></circle>
                </g>
                <path d="M4.7,63.1 C2.9,59.6 1.6,55.8 0.8,51.8 C-3.7,28.4 11.8,5.8 35.3,1.3 C58.8,-3.2 81.5,12.1 86,35.5 C86.8,39.5 86.9,43.5 86.6,47.4 L4.7,63.1 L4.7,63.1 Z" id="Shape" fill="#D3E5F5"></path>
                <path d="M71.8,50.3 L4.7,63.1 C2.9,59.6 1.6,55.8 0.8,51.8 C-3.7,28.4 11.8,5.8 35.3,1.3 C58.8,-3.2 81.5,12.1 86,35.5 C86.8,39.5 86.9,43.5 86.6,47.4 L78.6,48.9" id="Shape" stroke="#34376B" stroke-width="2.5"></path>
            </g>
            <ellipse id="Oval" fill="#E8F2FB" cx="317.7" cy="541.6" rx="294.4" ry="32.1"></ellipse>
            <ellipse id="Oval" fill="#C8E2FC" cx="197.3" cy="541.6" rx="127.6" ry="21.9"></ellipse>
            <g id="wheel_l_2_" transform="translate(195.000000, 363.000000)" fill="#D3E5F5">
                <ellipse id="Oval" cx="66.2" cy="93.5" rx="65.3" ry="93.3"></ellipse>
            </g>
            <g id="wheel_l_1_" transform="translate(259.000000, 374.000000)" fill="#B5CEE2">
                <path d="M32.6,0 C49.7,20.3 60.2,46.4 60.2,74.5 C60.2,117.4 36,155.5 0.7,175.7 C1.2,175.7 1.7,175.8 2.2,175.8 C38.3,175.8 67.5,134 67.5,82.5 C67.4,46.7 53.3,15.6 32.6,0 L32.6,0 Z" id="Shape"></path>
            </g>
            <g id="wheel_l_4_" transform="translate(195.000000, 363.000000)" stroke="#34376B" stroke-width="2.5">
                <ellipse id="Oval" cx="66.2" cy="93.5" rx="65.3" ry="93.3"></ellipse>
            </g>
            <circle id="Oval" fill="#D3E5F5" cx="175.5" cy="140.8" r="87.2"></circle>
            <path d="M176.5,66.5 C208.7,66.5 237.7,82.5 255.9,106.8 C242.7,75.5 211.7,53.6 175.6,53.6 C137.1,53.6 104.5,78.5 92.9,113 C110.6,85.2 141.7,66.5 176.5,66.5 L176.5,66.5 Z" id="Shape" fill="#B5CEE2"></path>
            <path d="M254.9,104.7 C241.2,74.6 210.8,53.6 175.5,53.6 C140.3,53.6 109.9,74.5 96.2,104.5" id="Shape" stroke="#34376B" stroke-width="2.5"></path>
            <path d="M205.8,170.2 C190.5,172.2 167.2,172 155.1,171 C127.2,168.8 100.5,164.8 91.1,162.3 C89.4,155.4 88.4,148.2 88.4,140.8 C88.4,130.9 90.1,121.3 93.2,112.4 C119.9,119.9 147.7,123.8 175.8,123.8 C203.8,123.8 231.5,119.9 258.1,112.5 C261.1,121.4 262.8,130.9 262.8,140.8 C262.8,146.9 262.2,152.9 261,158.6 C254.4,161.6 216.9,168.7 205.8,170.2 L205.8,170.2 Z" id="Shape" fill="#FFFFFF"></path>
            <path d="M205.8,170.2 C190.5,172.2 167.2,172 155.1,171 C127.2,168.8 100.5,164.8 91.1,162.3 C89.4,155.4 88.4,148.2 88.4,140.8 C88.4,130.9 90.1,121.3 93.2,112.4 C119.9,119.9 147.7,123.8 175.8,123.8 C203.8,123.8 231.5,119.9 258.1,112.5 C261.1,121.4 262.8,130.9 262.8,140.8 C262.8,146.9 262.2,152.9 261,158.6 C254.4,161.6 216.9,168.7 205.8,170.2 L205.8,170.2 Z" id="Shape" stroke="#34376B" stroke-width="2.5"></path>
            <circle id="Oval" fill="#65D8F0" cx="200" cy="147.1" r="23.2"></circle>
            <circle id="Oval" stroke="#34376B" stroke-width="2.5" cx="203.4" cy="146" r="23.2"></circle>
            <rect id="Rectangle-path" fill="#D3E5F5" x="160.8" y="39" width="20.5" height="17.7"></rect>
            <rect id="Rectangle-path" stroke="#34376B" stroke-width="2.5" x="160.8" y="39" width="20.5" height="17.7"></rect>
            <circle id="Oval" fill="#FEDB7D" cx="172.5" cy="21.4" r="21.2"></circle>
            <path d="M149.8,14.4 C149.3,15.9 149,16.6 149,21.4 C149,33.1 158.5,42.6 170.2,42.6 C181.9,42.6 191.4,33.1 191.4,21.4 C191.4,9.7 181.9,0.2 170.2,0.2 C163.3,0.2 157.2,3.5 153.3,8.6" id="Shape" stroke="#34376B" stroke-width="2.5"></path>
            <rect id="Rectangle-path" fill="#34376B" x="149.4" y="342.3" width="79.3" height="100.7"></rect>
            <path d="M252.7,474.8 L126.4,474.8 C115.9,474.8 107.4,466.3 107.4,455.8 L107.4,455.4 C107.4,444.9 115.9,436.4 126.4,436.4 L252.7,436.4 C263.2,436.4 271.7,444.9 271.7,455.4 L271.7,455.8 C271.7,466.3 263.2,474.8 252.7,474.8 L252.7,474.8 Z" id="Shape" fill="#D3E5F5"></path>
            <path d="M196.1,474.8 L243.4,474.8 C253.9,474.8 262.4,466.3 262.4,455.8 L262.4,455.4 L262.4,454.5 C242.7,466.4 220.1,473.6 196.1,474.8 L196.1,474.8 Z" id="Shape" fill="#B5CEE2"></path>
            <path d="M252.7,474.8 L126.4,474.8 C115.9,474.8 107.4,466.3 107.4,455.8 L107.4,455.4 C107.4,444.9 115.9,436.4 126.4,436.4 L252.7,436.4 C263.2,436.4 271.7,444.9 271.7,455.4 L271.7,455.8 C271.7,466.3 263.2,474.8 252.7,474.8 L252.7,474.8 Z" id="Shape" stroke="#34376B" stroke-width="2.5"></path>
            <path d="M175.3,197.5 C202.4,197.5 229.1,192.5 254.1,183 L283.6,271.7 C285.4,277 285.5,282.7 283.9,288.1 L255.9,384.4 L99.6,383.6 L69.1,288.3 C67.5,283.4 67.4,278.2 68.6,273.2 L91.6,181.1 C118,191.9 146.4,197.5 175.3,197.5 L175.3,197.5 Z" id="Shape" fill="#D3E5F5"></path>
            <path d="M169.6,379.3 C137.6,379.3 108.2,365.8 87,344.3 L99.6,383.7 L255.9,384.5 L283.9,288.2 C284.9,284.9 285.2,281.5 284.9,278.1 C277.3,334.6 227.9,379.3 169.6,379.3 L169.6,379.3 Z" id="Shape" fill="#B5CEE2"></path>
            <path d="M132.1,194.1 C148.5,197.9 158.3,197.5 175.3,197.5 C202.4,197.5 229.1,192.5 254.1,183 L281,263.7 C284.5,274.2 284.7,285.5 281.6,296.2 L256,384.4 L99.7,383.6 L71.5,295.6 C68.4,285.9 68.1,275.6 70.5,265.7 L91.7,181 C102.5,185.4 113.7,188.9 125.1,191.6" id="Shape" stroke="#34376B" stroke-width="2.5"></path>
            <rect id="Rectangle-path" fill="#F4888E" x="205.5" y="235.5" width="38" height="51.9"></rect>
            <g id="Group" transform="translate(209.000000, 232.000000)" stroke-width="2.5" stroke="#34376B">
                <polyline id="Shape" points="33.4 0 0 0 0 19.1"></polyline>
                <polyline id="Shape" points="0 27.2 0 51.8 38 51.8 38 0"></polyline>
            </g>
            <g id="wheel_r_2_" transform="translate(49.000000, 362.000000)" fill="#D3E5F5">
                <g id="Group">
                    <ellipse id="Oval" cx="66" cy="93.5" rx="65.3" ry="93.3"></ellipse>
                    <ellipse id="Oval" cx="60.4" cy="93.7" rx="13.9" ry="19.2"></ellipse>
                </g>
            </g>
            <g id="wheel_r_1_" transform="translate(113.000000, 376.000000)" fill="#B5CEE2">
                <path d="M36.1,0 C51.5,19.8 60.8,44.4 60.8,71 C60.8,114.3 36.1,152.7 0.3,172.7 C0.8,172.7 1.4,172.8 1.9,172.8 C38,172.8 67.2,131 67.2,79.5 C67.2,45.9 54.8,16.4 36.1,0 L36.1,0 Z" id="Shape"></path>
            </g>
            <g id="wheel_r_3_" transform="translate(50.000000, 363.000000)" stroke-width="2.5" stroke="#34376B">
                <g id="Group">
                    <ellipse id="Oval" cx="66.1" cy="93.6" rx="65.3" ry="93.3"></ellipse>
                    <ellipse id="Oval" cx="60.6" cy="93.8" rx="13.9" ry="19.2"></ellipse>
                </g>
            </g>
            <g id="PALM_3_" transform="translate(0.000000, 124.000000)">
                <g id="Group" transform="translate(123.000000, 51.000000)" fill="#34376B">
                    <polygon id="Shape" points="7.8 21.7 0.4 29.4 17.7 51 25.1 43.3"></polygon>
                    <polygon id="Shape" points="19.1 3.3 10.2 0 0.1 29 9.1 32.4"></polygon>
                </g>
                <g id="Group">
                    <path d="M188.6,58.8 C183.4,59.6 178.5,62.2 174.9,66.5 C174.9,66.5 173.2,68.5 171.3,66.8 L132.6,33.6 C130.8,31.7 132.4,30 132.4,30 C136.1,25.7 137.9,20.5 137.9,15.3 L120.8,0.6 C115.7,1.4 110.8,3.9 107.2,8.1 C99.2,17.3 99.9,31.1 108.6,39.4 L108.6,39.4 L172.3,93.8 C181.8,100.2 194.7,98.6 202.3,89.7 C205.9,85.4 207.7,80.2 207.7,75 L188.6,58.8 L188.6,58.8 Z" id="Shape" fill="#6CDDB5"></path>
                    <path d="M189.7,58.6 C184.5,59.4 179.6,62 176,66.3 C176,66.3 174.3,68.3 172.4,66.6 L133.7,33.4 C131.9,31.5 133.5,29.8 133.5,29.8 C137.2,25.5 139,20.3 139,15.1 L121.9,0.4 C116.8,1.2 111.9,3.7 108.2,7.9 C100.2,17.1 100.9,30.9 109.6,39.2 L109.6,39.2 L173.3,93.6 C182.8,100 195.7,98.4 203.3,89.5 C206.9,85.2 208.7,80 208.7,74.8 L189.7,58.6 L189.7,58.6 Z" id="Shape" stroke="#34376B" stroke-width="2.5"></path>
                    <path d="M204.4,89.5 C209.5,95.9 216.4,103.1 211.1,111.8 C204.3,123 195.8,111.1 202.1,109.5 C204.8,108.8 212.1,115 213.1,117.2 C215.4,122.3 213.2,123 210.9,127.6 C207,135.5 200.4,147.5 192,135.1 C197.4,121.6 206.5,139.7 206.6,146.5 C206.7,150.9 206,155.4 201.9,158.3 C198.9,160.4 191.1,162.4 190.4,156.8 C189.9,153.4 195,151.2 197.7,153 C201.8,155.7 198.8,164.1 197,167 C194.4,171.5 188,178.1 182.7,178.6 C178.8,179 172,175.4 175.9,170.4 C183.6,160.5 186.7,181.3 187.2,184.8 C188.1,190.9 189.5,194.1 184.2,198.2 C181.5,200.2 175.9,202.6 172.8,200.2 C164.6,193.8 188.2,188 182.7,206.1 C180.3,213.9 169.5,225.4 160,222.3 C154.9,220.6 149.9,212.8 157.8,211.6 C163.8,210.7 164.9,216.8 165.3,221.9 C165.9,230.8 157.6,239.8 148.3,241.1 C143.5,241.7 139.5,241.8 138,236 C136.3,229.1 141.9,229 145.1,234.7 C150.5,244.2 138.4,252.4 131.4,256.2 C125.7,259.3 123,261 118.3,255.4 C115.7,252.3 113.7,246.9 116.7,244 C125,236.1 128.6,256.9 127.3,261.7 C125.7,267.3 112.3,278 105.7,276.2 C92.2,272.5 106,251.5 107.6,269.7 C108.3,278 94.1,297.4 85.4,290.2 C77.4,283.5 90.3,270.2 94.6,284.6 C97.5,294.3 93.1,301.3 84.3,304.7 C77.9,307.1 62.4,314.8 56.7,309 C50.5,302.6 59.2,288.6 63.5,303 C66.6,313.3 63.8,316.7 55.5,323 C35.8,338 7.6,336.6 0.7,365.6" id="Shape" stroke="#34376B" stroke-width="2.5"></path>
                </g>
                <g id="Group" transform="translate(149.000000, 49.000000)" fill="#34376B">
                    <polygon id="Shape" points="14.7 20.7 23 25.4 9.9 53 1.5 48.3"></polygon>
                    <polygon id="Shape" points="0.6 7.4 8.7 0.7 23.3 24.9 15.2 31.6"></polygon>
                </g>
            </g>
            <g id="shoulder_3_" transform="translate(43.000000, 179.000000)">
                <rect id="Rectangle-path" fill="#B5CEE2" transform="translate(73.317295, 80.354185) rotate(140.469524) translate(-73.317295, -80.354185) " x="56.1669868" y="38.953441" width="34.3006164" height="82.8014879"></rect>
                <path d="M18.8,79.7 C15.6,77.5 12.6,74.8 10,71.6 C-5.2,53.2 -2.5,26 16,10.8 C34.5,-4.4 61.7,-1.9 76.9,16.4 C79.5,19.6 81.6,23 83.2,26.6 L18.8,79.7 L18.8,79.7 Z" id="Shape" fill="#D3E5F5"></path>
                <path d="M71.4,36.2 L18.7,79.7 C15.5,77.5 12.5,74.8 9.9,71.6 C-5.3,53.2 -2.6,26 15.9,10.8 C34.4,-4.4 61.6,-1.9 76.8,16.4 C79.4,19.6 81.5,23 83.1,26.6 L76.8,31.8" id="Shape" stroke="#34376B" stroke-width="2.5"></path>
            </g>
            <g id="forearm_7_" transform="translate(127.000000, 215.000000)">
                <rect id="Rectangle-path" fill="#B5CEE2" transform="translate(24.100991, 42.102556) rotate(-1.640484) translate(-24.100991, -42.102556) " x="7.00082255" y="0.902149679" width="34.2003375" height="82.4008131"></rect>
                <circle id="Oval" fill="#D3E5F5" cx="21.1" cy="86.4" r="21"></circle>
                <circle id="Oval" stroke="#34376B" stroke-width="2.5" cx="21.1" cy="86.4" r="21"></circle>
            </g>
        </g>
    </g>
</svg>