<?xml version="1.0" encoding="utf-8"?>
<!-- Generator: Adobe Illustrator 17.1.0, SVG Export Plug-In . SVG Version: 6.00 Build 0)  -->
<!DOCTYPE svg PUBLIC "-//W3C//DTD SVG 1.1//EN" "http://www.w3.org/Graphics/SVG/1.1/DTD/svg11.dtd">
<svg version="1.1" id="Слой_1" xmlns="http://www.w3.org/2000/svg" xmlns:xlink="http://www.w3.org/1999/xlink" x="0px" y="0px"
	 viewBox="0 0 755.3 755.3" enable-background="new 0 0 755.3 755.3" xml:space="preserve">
<ellipse fill="#E8F2FB" cx="410.3" cy="679.4" rx="332.3" ry="50.2"/>
<ellipse fill="#C8E2FC" cx="215.6" cy="682.4" rx="110.9" ry="24.8"/>
<g>
	<ellipse fill="#D3E5F5" cx="243.5" cy="605.1" rx="22.9" ry="50.1"/>
</g>
<g>
	<g>
		<path fill="#B5CEE2" d="M243.5,555.1c-4,0-7.8,2.3-11.1,6.3c18.5,11.1,31.1,31.3,31.1,54.1c0,13.6-4.5,26.4-12.2,36.8
			c8.8-7,15.1-25.4,15.1-47.1C266.4,577.5,256.1,555.1,243.5,555.1z"/>
	</g>
</g>
<g>
	<path fill="#D3E5F5" d="M241.7,553h8.8c8.8,0,16-7.9,16-17.7v-40c0-9.8-7.2-17.7-16-17.7h-8.8c-8.8,0-16,7.9-16,17.7v40
		C225.7,545.1,232.8,553,241.7,553z"/>
</g>
<g>
	<g>
		<path fill="#B5CEE2" d="M250.5,477.6h-8.8c-2.1,0-4.1,0.5-6,1.3c17.5,11.3,29.3,30.9,29.3,52.9c0,4.8-0.6,9.5-1.6,14
			c2-2.9,3.2-6.6,3.2-10.5v-40C266.5,485.5,259.3,477.6,250.5,477.6z"/>
	</g>
</g>
<g>
	<circle fill="#D3E5F5" cx="246.3" cy="558.8" r="23.9"/>
</g>
<g>
	<path fill="none" stroke="#34376B" stroke-width="2.5" stroke-linecap="round" stroke-miterlimit="10" d="M224.1,550.2
		c-0.9,2.8-1.6,3.9-1.6,8.6c0,13.2,10.7,23.9,23.9,23.9c13.2,0,23.9-10.7,23.9-23.9c0-13.2-10.7-23.9-23.9-23.9
		c-8.5,0-16,4.4-20.2,11.1"/>
</g>
<circle fill="#D3E5F5" cx="245.1" cy="655.2" r="35.5"/>
<path fill="#B5CEE2" d="M250.6,620.2c13.5,4.5,23.4,17.4,23.4,32.2c0,18.5-15.5,34-34,34c-8.5,0-16.3-3.3-22.4-8.6
	c6.5,7.9,16.4,12.9,27.4,12.9c19.6,0,35.5-15.9,35.5-35.5C280.6,637.5,267.6,622.8,250.6,620.2z"/>
<path fill="none" stroke="#34376B" stroke-width="2.5" stroke-linecap="round" stroke-miterlimit="10" d="M210.9,643.2
	c-1,3.4-1.3,5.8-1.3,12c0,19.6,15.9,35.5,35.5,35.5s35.5-15.9,35.5-35.5s-15.9-35.5-35.5-35.5c-13.4,0-25,7.4-31.1,18.4"/>
<circle fill="none" stroke="#34376B" stroke-width="2.5" stroke-linecap="round" stroke-miterlimit="10" cx="243.5" cy="655.3" r="8.6"/>
<g id="PALM_1_">
	<g>
		<polygon fill="#34376B" points="410.9,210.4 401,213.2 402.7,239 412.6,236.2 		"/>
		<polygon fill="#34376B" points="429.7,201 424.6,194 401,212.8 406.1,219.7 		"/>
	</g>
	<g>
		<circle fill="#FFFFFF" cx="465.4" cy="200.1" r="45.2"/>
		<path fill="#FEDB7D" d="M445.7,219l-6.5-19.8c-1.2-3.7,1.9-8.1,7-9.8l31.6-10.4c5.1-1.7,10.2,0,11.5,3.7l7.8,23.7
			c1.2,3.7-1.9,8.1-7,9.8l-31.6,10.4c-5.1,1.7-10.2,0-11.5-3.7L445.7,219"/>
		<path fill="none" stroke="#34376B" stroke-width="2.5" stroke-linecap="round" stroke-miterlimit="10" d="M443.4,217.5l-6.5-19.8
			c-1.2-3.7,1.9-8.1,7-9.8l31.6-10.4c5.1-1.7,10.2,0,11.5,3.7l7.8,23.7c1.2,3.7-1.9,8.1-7,9.8l-31.6,10.4c-5.1,1.7-10.2,0-11.5-3.7
			L443.4,217.5"/>
		<polyline fill="none" stroke="#34376B" stroke-width="2.5" stroke-linecap="round" stroke-miterlimit="10" points="444.9,197.4 
			466.3,203 480.3,185.8 		"/>
		
			<line fill="none" stroke="#34376B" stroke-width="2.5" stroke-linecap="round" stroke-miterlimit="10" x1="459.6" y1="201.6" x2="451.9" y2="214.2"/>
		
			<line fill="none" stroke="#34376B" stroke-width="2.5" stroke-linecap="round" stroke-miterlimit="10" x1="472.3" y1="197.4" x2="485.6" y2="202.1"/>
		<path fill="none" stroke="#34376B" stroke-width="2.5" stroke-linecap="round" stroke-miterlimit="10" d="M427.6,174.8
			c5.4-8.6,12.2-14,23.8-17.6c23.8-7.6,49.3,5.1,57.1,28.9s-5.1,49.3-28.9,57.1c-23.7,7.8-49.3-5.1-57.1-28.9
			c-3.7-11.2-2.7-22.9,1.8-32.9"/>
	</g>
	<g>
		<polygon fill="#34376B" points="438.1,223.8 442.1,231.5 416.8,247.7 412.8,239.9 		"/>
		<polygon fill="#34376B" points="434.5,206.2 444.4,204.7 442.5,231.3 432.6,232.8 		"/>
	</g>
</g>
<g id="forearm_1_">
	
		<rect x="379.9" y="232.7" transform="matrix(0.8923 0.4515 -0.4515 0.8923 167.0911 -148.672)" fill="#B5CEE2" width="30.3" height="86.1"/>
</g>
<g id="shoulder_1_">
	
		<rect x="315.9" y="244.2" transform="matrix(-0.4613 0.8872 -0.8872 -0.4613 746.7455 136.698)" fill="#B5CEE2" width="31.9" height="101.7"/>
	<path fill="#D3E5F5" d="M275.6,309.5c-4.6-1.2-9.1-3-13.6-5.3c-25.9-13.5-38.6-40.4-28.3-60.2c10.3-19.8,39.6-24.9,65.6-11.4
		c4.5,2.3,8.6,5.1,12.2,8.1L275.6,309.5z"/>
	<path fill="#B5CEE2" d="M238.2,237.4c17.3-8.2,38.1-8.6,56.1,0.7c5,2.6,9.5,5.8,13.4,9.5l3.6-7c-3.6-3-7.7-5.8-12.2-8.1
		C276.4,220.7,251,223.2,238.2,237.4z"/>
	<path fill="none" stroke="#34376B" stroke-width="2.5" stroke-linecap="round" stroke-miterlimit="10" d="M303.7,255.4l-28.1,54.1
		c-4.6-1.2-9.1-3-13.6-5.3c-25.9-13.5-38.6-40.4-28.3-60.2c10.3-19.8,39.6-24.9,65.6-11.4c4.5,2.3,8.6,5.1,12.2,8.1l-3.9,7.5"/>
	<circle fill="#D3E5F5" cx="374.1" cy="317.6" r="20.5"/>
	
		<circle fill="none" stroke="#34376B" stroke-width="2.5" stroke-linecap="round" stroke-miterlimit="10" cx="374.1" cy="317.6" r="20.5"/>
</g>
<g>
	<circle fill="#FFFFFF" cx="465.9" cy="488" r="45.2"/>
	<path fill="none" stroke="#34376B" stroke-width="2.5" stroke-linecap="round" stroke-miterlimit="10" d="M429.6,460.6
		c4-4.6,8.4-8.5,15.4-12.6c21.6-12.6,49.5-3,61,19.1s3,49.5-19.1,61c-22.1,11.6-49.5,3-61-19.1c-6.9-13.2-6.6-28.3-0.6-40.7"/>
	<text transform="matrix(1 0 0 1 448.3022 506.5186)" fill="#6CDDB5" font-family="'MyriadPro-Regular'" font-size="60.301">$</text>
	
		<text transform="matrix(1 0 0 1 450.6226 505.7451)" fill="none" stroke="#34376B" stroke-width="2.5" stroke-linecap="round" stroke-miterlimit="10" font-family="'MyriadPro-Regular'" font-size="60.301">$</text>
</g>
<g>
	<circle fill="#FFFFFF" cx="466.6" cy="343.9" r="45.2"/>
	<path fill="none" stroke="#34376B" stroke-width="2.5" stroke-linecap="round" stroke-miterlimit="10" d="M430.3,316.5
		c4-4.6,8.4-8.5,15.4-12.6c21.6-12.6,49.5-3,61,19.1s3,49.5-19.1,61c-22.1,11.6-49.5,3-61-19.1c-6.9-13.2-6.6-28.3-0.6-40.7"/>
	<path fill="#6CDDB5" d="M475.1,326.2l-6.8-13c0,0-11,2.4-19.3,10.1c-8.3,7.7,6.3,33.4,6.3,33.4c5.8,11.2,13.2,16.8,20,17.1
		c6.9,0.3,19.3-10.1,19.3-10.1l-7.8-14.9l-13.5,7.1l-11.8-22.5L475.1,326.2z"/>
	<path fill="none" stroke="#34376B" stroke-width="2.5" stroke-linecap="round" stroke-miterlimit="10" d="M472,325.5l-6.8-13
		c0,0-11,2.4-19.3,10.1c-8.3,7.7,6.3,33.4,6.3,33.4c5.8,11.2,13.2,16.8,20,17.1c6.9,0.3,19.3-10.1,19.3-10.1l-7.8-14.9l-13.5,7.1
		l-11.8-22.5L472,325.5z"/>
</g>
<ellipse fill="#D3E5F5" cx="197.5" cy="196.3" rx="81.2" ry="90.4"/>
<path fill="#B5CEE2" d="M196.9,118.7c32.4,0,61.2,18.3,76.3,45c-11.7-33.8-41.2-57.8-75.8-57.8c-32.8,0-61.1,21.7-73.9,52.9
	C139.4,134.8,166.5,118.7,196.9,118.7z"/>
<path fill="none" stroke="#34376B" stroke-width="2.5" stroke-linecap="round" stroke-miterlimit="10" d="M273.2,162.7
	c-11.7-33.8-41.2-57.8-75.8-57.8c-33.6,0-62.5,22.8-74.8,55.2"/>
<path fill="#FFFFFF" d="M225.7,226.7c-14.2,2.1-35.9,1.9-47.2,0.9c-26-2.3-50.8-6.4-59.6-9c-1.6-7.1-2.5-14.6-2.5-22.3
	c0-10.3,1.6-20.2,4.4-29.4c24.9,7.8,50.8,11.8,76.9,11.8c26,0,51.8-4,76.6-11.7c2.8,9.2,4.4,19.1,4.4,29.3c0,6.3-0.6,12.5-1.7,18.5
	C270.9,217.9,236,225.2,225.7,226.7z"/>
<path fill="none" stroke="#34376B" stroke-width="2.5" stroke-linecap="round" stroke-miterlimit="10" d="M225.7,226.7
	c-14.2,2.1-35.9,1.9-47.2,0.9c-26-2.3-50.8-6.4-59.6-9c-1.6-7.1-2.5-14.6-2.5-22.3c0-10.3,1.6-20.2,4.4-29.4
	c24.9,7.8,50.8,11.8,76.9,11.8c26,0,51.8-4,76.6-11.7c2.8,9.2,4.4,19.1,4.4,29.3c0,6.3-0.6,12.5-1.7,18.5
	C270.9,217.9,236,225.2,225.7,226.7z"/>
<ellipse fill="#65D8F0" cx="223.5" cy="201.7" rx="21.6" ry="24"/>
<ellipse fill="none" stroke="#34376B" stroke-width="2.5" stroke-linecap="round" stroke-miterlimit="10" cx="226.6" cy="201.7" rx="21.6" ry="24"/>
<path fill="none" stroke="#34376B" stroke-width="2.5" stroke-linecap="round" stroke-miterlimit="10" d="M193.2,114.8
	c-5.2,1.4-12.2,1.3-16.5-1.6c-5-3.4-7.1-12.9-2.1-17.3c6.3-5.5,13.8,2.3,6.6,7.6c-4.8,3.6-11.4,2.4-15.7-0.8
	c-5.5-4.2-9.1-9.8-9.3-16.7c-0.2-5.5,5.1-11.9,11.3-7.7c2,1.3,3.3,6.2,2,8.4c-1.7,3-7.3,2.9-10.2,3.4c-6.6,1.2-12,0.9-17-4.6
	c-3.6-3.9-4.9-9.7-4.1-14.9c0.8-5,8.9-15.1,12.8-7c5.8,12.2-20.8,23.4-25.1,9.1"/>
<g id="body_3_">
	<rect x="163.2" y="343.8" fill="#34376B" width="81.8" height="78.3"/>
	<path fill="#34376B" d="M167.1,506.1h77.9c12.2,0,22-8.9,22-19.9v-27.7c0-11-9.9-19.9-22-19.9h-77.9c-12.2,0-22,8.9-22,19.9v27.7
		C145.1,497.1,154.9,506.1,167.1,506.1z"/>
	<path fill="#D3E5F5" d="M117.6,348.6c3-39.1,12.1-74,25.3-100.5c20.8,7.8,42.5,11.9,64.4,11.9c20.3,0,40.5-3.5,59.9-10.2
		c12.8,26.3,21.6,60.6,24.5,98.8H117.6z"/>
	<path fill="#B5CEE2" d="M290.5,348.6h1.3c-2.9-38.3-11.7-72.6-24.5-98.8c-12.8,4.4-25.9,7.5-39.2,9
		C262.5,275.1,287.4,309.2,290.5,348.6z"/>
	<path fill="none" stroke="#34376B" stroke-width="2.5" stroke-linecap="round" stroke-miterlimit="10" d="M258.7,253.2
		c4.9-1.3,3.7-1.7,8.5-3.4c12.8,26.3,21.6,60.6,24.5,98.8H117.6c3-39.1,12.1-74,25.3-100.5c20.8,7.8,42.5,11.9,64.4,11.9
		c15.2,0,30.4-2,45.2-5.8"/>
	<path fill="#D3E5F5" d="M290.9,413c-1.3,12.9-3.3,25.3-5.9,37H184.8v19.8h-55.3c-5.2-17.2-9-36.4-11.1-56.9H290.9z"/>
	<path fill="none" stroke="#34376B" stroke-width="2.5" stroke-linecap="round" stroke-miterlimit="10" d="M280.6,413h10.3
		c-1.3,12.9-3.3,25.3-5.9,37H184.8v19.8h-55.3c-5.2-17.2-9-36.4-11.1-56.9h151.9"/>
	<polygon fill="#FEDB7D" points="211.8,309.6 222.5,318.6 224.9,332.3 236.8,324.9 250.6,326.8 247.2,313.3 253.3,300.8 
		239.4,299.8 229.4,290.1 224.1,303 	"/>
	<polygon fill="none" stroke="#34376B" stroke-width="2.5" stroke-linecap="round" stroke-miterlimit="10" points="215.9,307.5 
		226.6,316.5 229,330.2 240.9,322.8 254.7,324.8 251.3,311.3 257.4,298.7 243.5,297.7 233.5,288.1 228.2,301 	"/>
</g>
<g>
	<ellipse fill="#D3E5F5" cx="168.6" cy="606.7" rx="22.9" ry="50.1"/>
</g>
<g>
	<g>
		<path fill="#B5CEE2" d="M168.6,556.6c-4,0-7.8,2.3-11.1,6.3c18.5,11.1,31.1,31.3,31.1,54.1c0,13.6-4.5,26.4-12.2,36.8
			c8.8-7,15.1-25.4,15.1-47.1C191.4,579,181.2,556.6,168.6,556.6z"/>
	</g>
</g>
<g>
	<path fill="#D3E5F5" d="M166.8,554.5h8.8c8.8,0,16-7.9,16-17.7v-40c0-9.8-7.2-17.7-16-17.7h-8.8c-8.8,0-16,7.9-16,17.7v40
		C150.8,546.6,157.9,554.5,166.8,554.5z"/>
</g>
<g>
	<g>
		<path fill="#B5CEE2" d="M175.6,479.1h-8.8c-2.1,0-4.1,0.5-6,1.3c17.5,11.3,29.3,30.9,29.3,52.9c0,4.8-0.6,9.5-1.6,14
			c2-2.9,3.2-6.6,3.2-10.5v-40C191.6,487,184.4,479.1,175.6,479.1z"/>
	</g>
</g>
<g>
	<circle fill="#D3E5F5" cx="171.4" cy="560.3" r="23.9"/>
</g>
<g>
	<path fill="none" stroke="#34376B" stroke-width="2.5" stroke-linecap="round" stroke-miterlimit="10" d="M149.1,551.7
		c-0.9,2.8-1.6,3.9-1.6,8.6c0,13.2,10.7,23.9,23.9,23.9s23.9-10.7,23.9-23.9s-10.7-23.9-23.9-23.9c-8.5,0-16,4.4-20.2,11.1"/>
</g>
<g id="PALM_7_">
	<g>
		<polygon fill="#34376B" points="106.8,143.4 96.3,143.3 90.5,169.3 101.1,169.3 		"/>
		<polygon fill="#34376B" points="128.1,139.5 125.1,131.2 96.4,142.9 99.4,151.2 		"/>
	</g>
	<g>
		<polygon fill="#34376B" points="129.8,164.4 131.5,173.2 102,181.8 100.3,173 		"/>
		<polygon fill="#34376B" points="131.2,146.1 141.5,147.3 132,173 121.8,171.7 		"/>
	</g>
</g>
<g id="forearm_6_">
	
		<rect x="54.4" y="150.6" transform="matrix(0.6175 0.7865 -0.7865 0.6175 178.9071 19.3459)" fill="#B5CEE2" width="30.3" height="86.1"/>
</g>
<g id="shoulder_7_">
	
		<rect x="57.3" y="196.4" transform="matrix(0.3689 -0.9295 0.9295 0.3689 -183.5948 224.1891)" fill="#B5CEE2" width="31.9" height="101.7"/>
	<path fill="#D3E5F5" d="M127.8,227.2c4.7,0.8,9.4,2.1,14.1,3.9c27.2,10.8,42.5,36.3,34.3,57c-8.2,20.7-36.9,28.8-64.1,18
		c-4.7-1.9-9-4.2-12.9-6.8L127.8,227.2z"/>
	<path fill="#B5CEE2" d="M172.5,294.9c-16.3,9.6-36.7,12-55.2,4.6c-5.4-2.1-10.4-5-14.8-8.4l-3.3,8.3c3.9,2.6,8.3,5,12.9,6.8
		C136.1,315.6,161.3,310.5,172.5,294.9z"/>
	<path fill="none" stroke="#34376B" stroke-width="2.5" stroke-linecap="round" stroke-miterlimit="10" d="M105.3,283.9l22.5-56.7
		c4.7,0.8,9.4,2.1,14.1,3.9c27.2,10.8,42.5,36.3,34.3,57c-8.2,20.7-36.9,28.8-64.1,18c-4.7-1.9-9-4.2-12.9-6.8l3.1-7.8"/>
	<circle fill="#D3E5F5" cx="29" cy="229.2" r="20.5"/>
	
		<circle fill="none" stroke="#34376B" stroke-width="2.5" stroke-linecap="round" stroke-miterlimit="10" cx="29" cy="229.2" r="20.5"/>
</g>
<circle fill="#D3E5F5" cx="170.1" cy="656.8" r="35.5"/>
<path fill="#B5CEE2" d="M175.7,621.7c13.5,4.5,23.4,17.4,23.4,32.2c0,18.5-15.5,34-34,34c-8.5,0-16.3-3.3-22.4-8.6
	c6.5,7.9,16.4,12.9,27.4,12.9c19.6,0,35.5-15.9,35.5-35.5C205.6,639,192.7,624.4,175.7,621.7z"/>
<path fill="none" stroke="#34376B" stroke-width="2.5" stroke-linecap="round" stroke-miterlimit="10" d="M136,644.8
	c-1,3.4-1.3,5.8-1.3,12c0,19.6,15.9,35.5,35.5,35.5s35.5-15.9,35.5-35.5c0-19.6-15.9-35.5-35.5-35.5c-13.4,0-25,7.4-31.1,18.4"/>
<circle fill="none" stroke="#34376B" stroke-width="2.5" stroke-linecap="round" stroke-miterlimit="10" cx="168.6" cy="656.8" r="8.6"/>
<g>
	<circle fill="#FFFFFF" cx="659.2" cy="200.3" r="45.2"/>
	<path fill="#FEDB7D" d="M639.5,219.2l-6.5-19.8c-1.2-3.7,1.9-8.1,7-9.8l31.6-10.4c5.1-1.7,10.2,0,11.5,3.7l7.8,23.7
		c1.2,3.7-1.9,8.1-7,9.8l-31.6,10.4c-5.1,1.7-10.2,0-11.5-3.7L639.5,219.2"/>
	<path fill="none" stroke="#34376B" stroke-width="2.5" stroke-linecap="round" stroke-miterlimit="10" d="M637.1,217.7l-6.5-19.8
		c-1.2-3.7,1.9-8.1,7-9.8l31.6-10.4c5.1-1.7,10.2,0,11.5,3.7l7.8,23.7c1.2,3.7-1.9,8.1-7,9.8l-31.6,10.4c-5.1,1.7-10.2,0-11.5-3.7
		L637.1,217.7"/>
	<polyline fill="none" stroke="#34376B" stroke-width="2.5" stroke-linecap="round" stroke-miterlimit="10" points="638.6,197.6 
		660.1,203.2 674.1,186 	"/>
	
		<line fill="none" stroke="#34376B" stroke-width="2.5" stroke-linecap="round" stroke-miterlimit="10" x1="653.4" y1="201.8" x2="645.7" y2="214.4"/>
	
		<line fill="none" stroke="#34376B" stroke-width="2.5" stroke-linecap="round" stroke-miterlimit="10" x1="666.1" y1="197.6" x2="679.4" y2="202.3"/>
	<path fill="none" stroke="#34376B" stroke-width="2.5" stroke-linecap="round" stroke-miterlimit="10" d="M621.3,175
		c5.4-8.6,12.2-14,23.8-17.6c23.8-7.6,49.3,5.1,57.1,28.9c7.8,23.7-5.1,49.3-28.9,57.1c-23.7,7.8-49.3-5.1-57.1-28.9
		c-3.7-11.2-2.7-22.9,1.8-32.9"/>
</g>
<g>
	<circle fill="#FFFFFF" cx="658.4" cy="344.3" r="45.2"/>
	<path fill="#FEDB7D" d="M638.7,363.2l-6.5-19.8c-1.2-3.7,1.9-8.1,7-9.8l31.6-10.4c5.1-1.7,10.2,0,11.5,3.7l7.8,23.7
		c1.2,3.7-1.9,8.1-7,9.8l-31.6,10.4c-5.1,1.7-10.2,0-11.5-3.7L638.7,363.2"/>
	<path fill="none" stroke="#34376B" stroke-width="2.5" stroke-linecap="round" stroke-miterlimit="10" d="M636.4,361.6l-6.5-19.8
		c-1.2-3.7,1.9-8.1,7-9.8l31.6-10.4c5.1-1.7,10.2,0,11.5,3.7l7.8,23.7c1.2,3.7-1.9,8.1-7,9.8l-31.6,10.4c-5.1,1.7-10.2,0-11.5-3.7
		L636.4,361.6"/>
	<polyline fill="none" stroke="#34376B" stroke-width="2.5" stroke-linecap="round" stroke-miterlimit="10" points="637.8,341.6 
		659.3,347.1 673.3,329.9 	"/>
	
		<line fill="none" stroke="#34376B" stroke-width="2.5" stroke-linecap="round" stroke-miterlimit="10" x1="652.6" y1="345.7" x2="644.9" y2="358.3"/>
	
		<line fill="none" stroke="#34376B" stroke-width="2.5" stroke-linecap="round" stroke-miterlimit="10" x1="665.3" y1="341.6" x2="678.6" y2="346.3"/>
	<path fill="none" stroke="#34376B" stroke-width="2.5" stroke-linecap="round" stroke-miterlimit="10" d="M620.5,318.9
		c5.4-8.6,12.2-14,23.8-17.6c23.8-7.6,49.3,5.1,57.1,28.9c7.8,23.7-5.1,49.3-28.9,57.1c-23.7,7.8-49.3-5.1-57.1-28.9
		c-3.7-11.2-2.7-22.9,1.8-32.9"/>
</g>
<g>
	<circle fill="#FFFFFF" cx="658" cy="488.2" r="45.2"/>
	<path fill="none" stroke="#34376B" stroke-width="2.5" stroke-linecap="round" stroke-miterlimit="10" d="M621.7,460.8
		c4-4.6,8.4-8.5,15.4-12.6c21.6-12.6,49.5-3,61,19.1s3,49.5-19.1,61c-22.1,11.6-49.5,3-61-19.1c-6.9-13.2-6.6-28.3-0.6-40.7"/>
	
		<line fill="none" stroke="#F4888E" stroke-width="12" stroke-linecap="round" stroke-miterlimit="10" x1="632.7" y1="489.6" x2="688" y2="489.6"/>
</g>
<g>
	
		<line fill="none" stroke="#34376B" stroke-width="2.5" stroke-linecap="round" stroke-miterlimit="10" x1="648.8" y1="258.5" x2="648.8" y2="277.7"/>
	
		<line fill="none" stroke="#34376B" stroke-width="2.5" stroke-linecap="round" stroke-miterlimit="10" x1="663.4" y1="258.5" x2="663.4" y2="277.7"/>
	<polyline fill="none" stroke="#34376B" stroke-width="2.5" stroke-linecap="round" stroke-miterlimit="10" points="638.6,277.7 
		656.3,290 672.7,277.7 	"/>
</g>
<g>
	
		<line fill="none" stroke="#34376B" stroke-width="2.5" stroke-linecap="round" stroke-miterlimit="10" x1="651.1" y1="403" x2="651.1" y2="422.2"/>
	
		<line fill="none" stroke="#34376B" stroke-width="2.5" stroke-linecap="round" stroke-miterlimit="10" x1="665.8" y1="403" x2="665.8" y2="422.2"/>
	<polyline fill="none" stroke="#34376B" stroke-width="2.5" stroke-linecap="round" stroke-miterlimit="10" points="641,422.2 
		658.7,434.6 675.1,422.2 	"/>
</g>
<g>
	
		<line fill="none" stroke="#34376B" stroke-width="2.5" stroke-linecap="round" stroke-miterlimit="10" x1="456.2" y1="257.4" x2="456.2" y2="276.6"/>
	
		<line fill="none" stroke="#34376B" stroke-width="2.5" stroke-linecap="round" stroke-miterlimit="10" x1="470.9" y1="257.4" x2="470.9" y2="276.6"/>
	<polyline fill="none" stroke="#34376B" stroke-width="2.5" stroke-linecap="round" stroke-miterlimit="10" points="446.1,276.6 
		463.8,289 480.2,276.6 	"/>
</g>
<g>
	
		<line fill="none" stroke="#34376B" stroke-width="2.5" stroke-linecap="round" stroke-miterlimit="10" x1="458.6" y1="402" x2="458.6" y2="421.2"/>
	
		<line fill="none" stroke="#34376B" stroke-width="2.5" stroke-linecap="round" stroke-miterlimit="10" x1="473.3" y1="402" x2="473.3" y2="421.2"/>
	<polyline fill="none" stroke="#34376B" stroke-width="2.5" stroke-linecap="round" stroke-miterlimit="10" points="448.5,421.2 
		466.2,433.5 482.6,421.2 	"/>
</g>
<ellipse fill="#C8E2FC" cx="472.1" cy="682" rx="63.2" ry="16.2"/>
<ellipse fill="#C8E2FC" cx="661.9" cy="682.4" rx="63.2" ry="16.2"/>
</svg>
