<?xml version="1.0" encoding="utf-8"?>
<!-- Generator: Adobe Illustrator 17.1.0, SVG Export Plug-In . SVG Version: 6.00 Build 0)  -->
<!DOCTYPE svg PUBLIC "-//W3C//DTD SVG 1.1//EN" "http://www.w3.org/Graphics/SVG/1.1/DTD/svg11.dtd">
<svg version="1.1" id="Слой_1" xmlns="http://www.w3.org/2000/svg" xmlns:xlink="http://www.w3.org/1999/xlink" x="0px" y="0px"
	 viewBox="0 0 641.2 641.2" enable-background="new 0 0 641.2 641.2" xml:space="preserve">
<g>
	<rect x="67.1" y="71.9" fill="#E8F2FB" width="314.3" height="300.8"/>
</g>
<rect x="57.9" y="60.6" fill="none" stroke="#34376B" stroke-width="2.5" stroke-linecap="round" stroke-miterlimit="10" width="330.8" height="320.4"/>
<polyline fill="none" stroke="#34376B" stroke-width="2.5" stroke-linecap="round" stroke-miterlimit="10" points="65.1,367 
	63.7,77.1 376.1,80.8 "/>
<rect x="121.3" y="97.8" fill="#65D8F0" width="36.7" height="19.6"/>
<rect x="78.7" y="97.8" fill="#65D8F0" width="36.7" height="19.6"/>
<rect x="162.9" y="97.8" fill="#65D8F0" width="36.7" height="19.6"/>
<rect x="203.8" y="97.8" fill="#65D8F0" width="36.7" height="19.6"/>
<rect x="245.6" y="97.8" fill="#65D8F0" width="36.7" height="19.6"/>
<rect x="287.2" y="97.8" fill="#F4888E" width="36.7" height="19.6"/>
<rect x="328.1" y="97.8" fill="#F4888E" width="36.7" height="19.6"/>
<rect x="121.3" y="133.8" fill="#FFFFFF" width="36.7" height="42.3"/>
<rect x="78.7" y="133.8" fill="#FFFFFF" width="36.7" height="42.3"/>
<rect x="162.9" y="133.8" fill="#FFFFFF" width="36.7" height="42.3"/>
<rect x="203.8" y="133.8" fill="#FFFFFF" width="36.7" height="42.3"/>
<rect x="245.6" y="133.8" fill="#FFFFFF" width="36.7" height="42.3"/>
<rect x="287.2" y="133.8" fill="#FFFFFF" width="36.7" height="42.3"/>
<rect x="328.1" y="133.8" fill="#FFFFFF" width="36.7" height="42.3"/>
<rect x="121.3" y="190.6" fill="#FFFFFF" width="36.7" height="42.3"/>
<rect x="78.7" y="190.6" fill="#FFFFFF" width="36.7" height="42.3"/>
<rect x="162.9" y="190.6" fill="#FFFFFF" width="36.7" height="42.3"/>
<rect x="203.8" y="190.6" fill="#FFFFFF" width="36.7" height="42.3"/>
<rect x="245.6" y="190.6" fill="#FFFFFF" width="36.7" height="42.3"/>
<rect x="287.2" y="190.6" fill="#FFFFFF" width="36.7" height="42.3"/>
<rect x="328.1" y="190.6" fill="#FFFFFF" width="36.7" height="42.3"/>
<rect x="121.3" y="245.4" fill="#FFFFFF" width="36.7" height="42.3"/>
<rect x="78.7" y="245.4" fill="#FFFFFF" width="36.7" height="42.3"/>
<rect x="162.9" y="245.4" fill="#FFFFFF" width="36.7" height="42.3"/>
<rect x="203.8" y="245.4" fill="#FFFFFF" width="36.7" height="42.3"/>
<rect x="245.6" y="245.4" fill="#FFFFFF" width="36.7" height="42.3"/>
<rect x="287.2" y="245.4" fill="#FFFFFF" width="36.7" height="42.3"/>
<rect x="328.1" y="245.4" fill="#FFFFFF" width="36.7" height="42.3"/>
<rect x="121.3" y="300.2" fill="#FFFFFF" width="36.7" height="42.3"/>
<rect x="78.7" y="300.2" fill="#FFFFFF" width="36.7" height="42.3"/>
<rect x="162.9" y="300.2" fill="#FFFFFF" width="36.7" height="42.3"/>
<rect x="203.8" y="300.2" fill="#FFFFFF" width="36.7" height="42.3"/>
<rect x="245" y="300.2" fill="#FFFFFF" width="36.7" height="42.3"/>
<rect x="286.7" y="300.2" fill="#FFFFFF" width="36.7" height="42.3"/>
<rect x="327.6" y="300.2" fill="#FFFFFF" width="36.7" height="42.3"/>
<polyline fill="none" stroke="#34376B" stroke-width="2.5" stroke-linecap="round" stroke-miterlimit="10" points="379.5,80.9 
	379.1,364.5 68.4,365.3 "/>
<ellipse fill="#E8F2FB" cx="328.5" cy="581.9" rx="286.6" ry="35.6"/>
<ellipse fill="#C8E2FC" cx="435.2" cy="582.4" rx="141.5" ry="25.4"/>
<g>
	<polygon fill="#34376B" points="213.3,169.1 225,168.7 230.3,198.7 218.6,199.1 	"/>
	<polygon fill="#34376B" points="190,165.2 193.7,155.4 224.9,168.2 221.2,178 	"/>
	<polygon fill="#34376B" points="187,194.2 184.8,204.5 217.2,213.7 219.4,203.4 	"/>
	<polygon fill="#34376B" points="186.2,173 174.8,174.8 184.3,204.3 195.6,202.5 	"/>
</g>
<g id="shoulder_4_">
	
		<rect x="297.1" y="207.7" transform="matrix(0.5886 0.8084 -0.8084 0.5886 334.6925 -151.2441)" fill="#B4CDE0" width="37.7" height="91"/>
	<path fill="#D3E5F5" d="M374.2,267.5c4-1.5,8-3.5,11.6-6.2c21.2-15.4,25.7-45.1,10.3-66.4s-45.2-26-66.4-10.6
		c-3.7,2.7-6.8,5.8-9.4,9.2L374.2,267.5z"/>
	<path fill="none" stroke="#34376B" stroke-width="2.5" stroke-linecap="round" stroke-miterlimit="10" d="M318.9,189.6
		c0,0,28.6-33.7,59.7-11.8s32.2,57,17.2,73.6s-19.5,16.4-19.5,16.4l-55.6-75.1"/>
</g>
<g id="forearm_4_">
	<path fill="#D3E5F5" d="M309.4,297.8c-7.3-9.6-9.1-12.7-11.7-24.1c-1.7-7.8-1.5-18.4-1.8-28c0,0-1.6-13-5.9-18.8
		c-3.6-4-7.5-8-11.7-12c-16.3-15.4-33.3-27-47.8-33.4l-30.2,31.8c7.1,14.2,19.5,30.6,35.8,46C263.7,285.6,293.6,300.7,309.4,297.8z"
		/>
	<path fill="#B4CDE0" d="M214.6,198.3l-14.3,15c7.1,14.2,19.5,30.6,35.8,46c5.1,4.9,10.3,9.3,15.5,13.4
		C229.3,253.6,216.6,226.4,214.6,198.3z"/>
	<path fill="none" stroke="#34376B" stroke-width="2.5" stroke-linecap="round" stroke-miterlimit="10" d="M232.3,183.4
		c0,0,32.7,10.1,59.8,44.2c13.1,23,9.6,28.9,8.5,39.5c-1.2,11.8,11.6,33.6,11.6,33.6s-59.1,4.8-112.5-82.8l30.6-32.5"/>
</g>
<g id="wheel_l_2_">
	<ellipse fill="#D3E5F5" cx="366.5" cy="494.2" rx="65.1" ry="93"/>
</g>
<g id="wheel_l_1_">
	
		<ellipse fill="none" stroke="#34376B" stroke-width="2.5" stroke-linecap="round" stroke-miterlimit="10" cx="366.5" cy="494.2" rx="65.1" ry="93"/>
</g>
<g id="head_1_">
	<circle fill="#D3E5F5" cx="458.1" cy="147.1" r="95.9"/>
	<path fill="#B4CDE0" d="M371.5,143.7c0-27.6,10.7-53.1,28.1-72.4c-22.7,17.5-37.3,45-37.3,75.9c0,41.2,26,76.4,62.6,89.9
		C393.1,217.8,371.5,182.9,371.5,143.7z"/>
	<path fill="#FFFFFF" d="M424.9,179.4c16.8,2.2,42.4,2,55.8,0.9c30.7-2.4,60-6.8,70.4-9.6c1.9-7.6,3-15.5,3-23.6
		c0-10.9-1.9-21.4-5.2-31.2c-29.4,8.2-60,12.5-90.9,12.5c-30.8,0-61.2-4.3-90.5-12.4c-3.3,9.8-5.2,20.2-5.2,31.1
		c0,6.7,0.7,13.3,2,19.6C371.5,170,412.7,177.8,424.9,179.4z"/>
	<circle fill="#65D8F0" cx="429.1" cy="153.4" r="23.8"/>
	
		<circle fill="none" stroke="#34376B" stroke-width="2.5" stroke-linecap="round" stroke-miterlimit="10" cx="429.1" cy="153.4" r="23.8"/>
	<path fill="none" stroke="#34376B" stroke-width="2.5" stroke-linecap="round" stroke-miterlimit="10" d="M374.8,98.9
		c18.6-37.1,60.8-54.8,101.8-48.2c34.4,5.5,62.1,28.8,73.8,59.7"/>
	<path fill="none" stroke="#34376B" stroke-width="2.5" stroke-linecap="round" stroke-miterlimit="10" d="M424.9,179.4
		c16.8,2.2,42.4,2,55.8,0.9c30.7-2.4,60-6.8,70.4-9.6c1.9-7.6,3-15.5,3-23.6c0-10.9-1.9-21.4-5.2-31.2c-29.4,8.2-60,12.5-90.9,12.5
		c-30.8,0-61.2-4.3-90.5-12.4c-3.3,9.8-5.2,20.2-5.2,31.1c0,6.7,0.7,13.3,2,19.6C371.5,170,412.7,177.8,424.9,179.4z"/>
</g>
<g id="body_1_">
	<rect x="376" y="367.3" fill="#B4CDE0" width="147.9" height="44.3"/>
	<path fill="#D3E5F5" d="M499.4,567.4h-95.9c-39.4,0-71.3-30.2-71.3-67.4v-30.5c0-37.2,31.9-67.4,71.3-67.4h95.9
		c39.4,0,71.3,30.2,71.3,67.4v30.5C570.7,537.2,538.7,567.4,499.4,567.4z"/>
	<path fill="#B4CDE0" d="M459.2,567.2c-7.2,0.2-14.2-0.4-21.1-1.7c-56.3-3.7-102.1-51.7-102.1-108.9c0-3.5,0.2-7,0.5-10.5
		c-2.8,7.3-4.4,15.1-4.4,23.3v30.5c0,37.2,31.9,67.4,71.3,67.4h72.1C470.1,567.1,464.7,567,459.2,567.2z"/>
	<path fill="none" stroke="#34376B" stroke-width="2.5" stroke-linecap="round" stroke-miterlimit="10" d="M499.4,567.4h-95.9
		c-39.4,0-71.3-30.2-71.3-67.4v-30.5c0-37.2,31.9-67.4,71.3-67.4h95.9c39.4,0,71.3,30.2,71.3,67.4v30.5
		C570.7,537.2,538.7,567.4,499.4,567.4z"/>
	<path fill="#D3E5F5" d="M522.9,193.3c-24.6,7-50.2,10.6-76.1,10.6c-24,0-47.8-3.2-70.7-9.2c-18.6,29-30.1,69-30.1,113.1
		c0,23.6,3.3,45.9,9.2,66.1h118.3v17.7h65.3c9.7-24.4,15.3-53.1,15.3-83.8C554,263,542.1,222.4,522.9,193.3z"/>
	<path fill="none" stroke="#34376B" stroke-width="2.5" stroke-linecap="round" stroke-miterlimit="10" d="M354.3,370.9
		c0,0-25.9-116.8,26.8-177.7c0,0,64.8,16.5,134.4,0"/>
	<path fill="none" stroke="#34376B" stroke-width="2.5" stroke-linecap="round" stroke-miterlimit="10" d="M524.7,198.9
		c0,0,52.6,104.6,9.7,190l-61,0.6v-18.5h-112"/>
	
		<ellipse transform="matrix(0.9899 0.1419 -0.1419 0.9899 41.5935 -51.7153)" fill="#6CDDB5" cx="383.5" cy="265.8" rx="20.8" ry="33.5"/>
	
		<ellipse transform="matrix(0.9899 0.1419 -0.1419 0.9899 41.5935 -51.7153)" fill="none" stroke="#34376B" stroke-width="2.5" stroke-linecap="round" stroke-miterlimit="10" cx="383.5" cy="265.8" rx="20.8" ry="33.5"/>
</g>
<g id="wheel_r_1_">
	<g>
		<ellipse fill="#D3E5F5" cx="527.2" cy="493.1" rx="65.1" ry="93"/>
		<path fill="#B4CDE0" d="M466.1,488c0-32,14.4-61.2,37-81.3c-24,13.7-41,47.2-41,86.4c0,51.4,29.2,93,65.1,93c0.3,0,0.5,0,0.8,0
			C491.6,568.2,466.1,530.7,466.1,488z"/>
		
			<ellipse fill="none" stroke="#34376B" stroke-width="2.5" stroke-linecap="round" stroke-miterlimit="10" cx="527.2" cy="493.1" rx="65.1" ry="93"/>
		
			<ellipse fill="none" stroke="#34376B" stroke-width="2.5" stroke-linecap="round" stroke-miterlimit="10" cx="530.9" cy="493.3" rx="15.3" ry="21.1"/>
	</g>
</g>
<g id="PALM_3_">
	<g>
		<polygon fill="#34376B" points="428.1,306.7 436.1,298.1 461,315.5 453,324.1 		"/>
		<polygon fill="#34376B" points="408.8,320.4 404.5,310.9 435.6,297.8 439.9,307.3 		"/>
	</g>
	<g>
		<path fill="#6CDDB5" d="M395.9,354.3c4.7-2.6,10.3-3.6,15.9-2.5c0,0,2.6,0.5,3.1-2l10.3-51.1c0.3-2.6-2.1-3.1-2.1-3.1
			c-5.7-1.1-10.4-4.2-13.7-8.4l4.6-22.6c4.6-2.6,10.2-3.6,15.7-2.5c12.3,2.4,20.4,13.9,18.6,26.1l0,0l-17.1,84.1
			c-3.6,11.1-15.1,18-26.8,15.6c-5.6-1.1-10.3-4.2-13.6-8.5L395.9,354.3z"/>
		<path fill="none" stroke="#34376B" stroke-width="2.5" stroke-linecap="round" stroke-miterlimit="10" d="M394.8,354.9
			c4.7-2.6,10.3-3.6,15.9-2.5c0,0,2.6,0.5,3.1-2l10.3-51.1c0.3-2.6-2.1-3.1-2.1-3.1c-5.7-1.1-10.4-4.2-13.7-8.4l4.6-22.6
			c4.6-2.6,10.2-3.6,15.7-2.5c12.3,2.4,20.4,13.9,18.6,26.1l0,0l-17.1,84.1c-3.6,11.1-15.1,18-26.8,15.6c-5.6-1.1-10.3-4.2-13.6-8.5
			L394.8,354.9z"/>
		<path fill="none" stroke="#34376B" stroke-width="2.5" stroke-linecap="round" stroke-miterlimit="10" d="M404.6,381.3
			c-3.7,7.5-8.9,16.3-1.7,23.8c9.3,9.7,15.1-4.1,8.4-4.3c-2.9-0.1-8.8,7.7-9.3,10.1c-1.2,5.6,1.2,5.8,4.5,9.9
			c5.6,7,15,17.5,20.5,3.3c-8.4-12.3-13.5,7.8-12.1,14.7c0.9,4.4,2.6,8.7,7.3,10.7c3.4,1.5,11.6,1.7,11.2-4
			c-0.3-3.5-5.9-4.5-8.1-2.2c-3.5,3.7,1.4,11.3,3.8,13.8c3.6,3.9,11.4,9.1,16.9,8.4c3.9-0.5,9.9-5.6,5-9.7
			c-9.9-8.2-8.4,13.3-8.1,16.9c0.4,6.3-0.2,9.8,6,12.7c3.1,1.4,9.3,2.6,11.9-0.5c6.7-8.2-18.1-8.8-8.5,8.1
			c4.1,7.3,17.5,16.4,26.3,11.1c4.7-2.8,8-11.7-0.2-11.1c-6.2,0.4-6,6.8-5.2,11.9c1.4,9,11.7,16.2,21.2,15.3c4.9-0.4,9-1.3,9.1-7.4
			c0.2-7.3-5.4-6.1-7.4,0.3c-3.3,10.7,10.6,16.2,18.4,18.4c6.4,1.8,9.4,2.9,12.9-3.7c1.9-3.6,2.7-9.5-0.9-11.7c-10-6-9,15.6-6.6,20
			c2.9,5.3,18.6,12.9,24.8,9.6c12.6-6.7-5.8-24.6-3.3-6.1c1.1,8.4,19.6,24.7,26.7,15.5c6.5-8.4-9.4-18.9-10.5-3.5
			c-0.7,10.3,5.3,16.3,14.8,17.7c6.9,1,24.1,5.2,28.5-1.8c4.8-7.8-7-19.8-8.1-4.5c-0.8,11,2.8,13.8,12.4,18.2"/>
	</g>
	<g>
		<polygon fill="#34376B" points="427.2,343 433,351.8 462.3,335.4 456.6,326.6 		"/>
		<polygon fill="#34376B" points="411.6,328.5 404.9,337.9 432.5,352.1 439.2,342.8 		"/>
	</g>
</g>
<g id="shoulder_3_">
	<rect x="534.4" y="238.6" fill="#B5CEE2" width="37.7" height="91"/>
	<path fill="#D3E5F5" d="M599.1,245.4c1.2-4.1,1.8-8.5,1.8-13c0-26.2-21.3-47.4-47.7-47.4s-47.7,21.2-47.7,47.4
		c0,4.5,0.6,8.9,1.8,13H599.1z"/>
	<path fill="#B4CDE0" d="M553.3,185c-9.5,0-18.4,2.8-25.8,7.6c6.4-3.4,13.6-5.3,21.2-5.3c25.1,0,46,20.9,46,46
		c0,4.2-0.6,8.2-1.7,12.1h6.1c1.2-4.1,1.8-8.5,1.8-13C600.9,206.2,579.6,185,553.3,185z"/>
	<path fill="none" stroke="#34376B" stroke-width="2.5" stroke-linecap="round" stroke-miterlimit="10" d="M506.7,243.2
		c0,0-10.2-43,25.8-55.1c36.1-12.1,65,7.8,69.5,29.7s1.7,25.4,1.7,25.4l-93.4,0.4"/>
</g>
<g id="forearm_3_">
	<path fill="#D3E5F5" d="M587.1,329.6c-12-1.7-15.4-2.5-25.3-8.8c-6.7-4.3-14-12-21.1-18.5c0,0-10.3-8.1-17.5-9.1
		c-5.4-0.3-11-0.3-16.8-0.2c-22.4,0.6-42.7,4.5-57.4,10.2l1.2,43.9c15,5,35.4,7.8,57.8,7.2C546.1,353.3,577.9,342.8,587.1,329.6z"/>
	<path fill="#B4CDE0" d="M491.7,354c-0.9,0-1.8,0-2.7,0c6.1,0.4,12.4,0.5,18.9,0.3c38.1-1,69.9-11.4,79-24.7
		c-9.8-1.4-13.9-2.2-20.5-5.9C546.9,342.4,520.5,354,491.7,354z"/>
	<path fill="none" stroke="#34376B" stroke-width="2.5" stroke-linecap="round" stroke-miterlimit="10" d="M452.4,301.2
		c0,0,30.4-15.8,73.6-10.5c25.5,7.1,27.2,13.8,33.8,22.2c7.4,9.2,31.9,15.8,31.9,15.8s-38.7,44.9-138.2,20l-1-44.6"/>
</g>
<polyline fill="none" stroke="#8BC53F" stroke-width="2.5" stroke-linecap="round" stroke-miterlimit="10" points="166.6,144.5 
	183.6,169.8 199.6,126.4 "/>
</svg>
