<?xml version="1.0" encoding="utf-8"?>
<!-- Generator: Adobe Illustrator 17.1.0, SVG Export Plug-In . SVG Version: 6.00 Build 0)  -->
<!DOCTYPE svg PUBLIC "-//W3C//DTD SVG 1.1//EN" "http://www.w3.org/Graphics/SVG/1.1/DTD/svg11.dtd">
<svg version="1.1" id="Слой_1" xmlns="http://www.w3.org/2000/svg" xmlns:xlink="http://www.w3.org/1999/xlink" x="0px" y="0px"
	 viewBox="0 0 735.6 735.6" enable-background="new 0 0 735.6 735.6" xml:space="preserve">
<g>
	<path fill="#FEDB7D" d="M493.4,508l-5.3-29.1c-1-5.5,4.3-11.1,11.7-12.5l46.4-8.5c7.5-1.4,14.4,2,15.4,7.5l6.4,34.9
		c1,5.5-4.3,11.1-11.7,12.5l-46.4,8.5c-7.5,1.4-14.4-2-15.4-7.5L493.4,508"/>
	<path fill="none" stroke="#34376B" stroke-width="2.5" stroke-linecap="round" stroke-miterlimit="10" d="M493.5,507.8l-5.3-29.1
		c-1-5.5,4.3-11.1,11.7-12.5l46.4-8.5c7.5-1.4,14.4,2,15.4,7.5l6.4,34.9c1,5.5-4.3,11.1-11.7,12.5L510,521c-7.5,1.4-14.4-2-15.4-7.5
		L493.5,507.8"/>
	<polyline fill="none" stroke="#34376B" stroke-width="2.5" stroke-linecap="round" stroke-miterlimit="10" points="499.4,479.8 
		528.5,491.7 551.5,470.3 	"/>
	
		<line fill="none" stroke="#34376B" stroke-width="2.5" stroke-linecap="round" stroke-miterlimit="10" x1="519.3" y1="488.5" x2="506.1" y2="504.7"/>
	
		<line fill="none" stroke="#34376B" stroke-width="2.5" stroke-linecap="round" stroke-miterlimit="10" x1="538" y1="485.1" x2="555.9" y2="494.2"/>
</g>
<g>
	<path fill="#FEDB7D" d="M584.1,509.7l-16.5-24.6c-3.1-4.6-0.5-11.9,5.8-16.1l39.2-26.2c6.3-4.2,14-3.9,17.1,0.7l19.7,29.5
		c3.1,4.6,0.5,11.9-5.8,16.1l-39.2,26.2c-6.3,4.2-14,3.9-17.1-0.7L584.1,509.7"/>
	<path fill="none" stroke="#34376B" stroke-width="2.5" stroke-linecap="round" stroke-miterlimit="10" d="M584.1,509.4l-16.5-24.6
		c-3.1-4.6-0.5-11.9,5.8-16.1l39.2-26.2c6.3-4.2,14-3.9,17.1,0.7l19.7,29.5c3.1,4.6,0.5,11.9-5.8,16.1L604.5,515
		c-6.3,4.2-14,3.9-17.1-0.7L584.1,509.4"/>
	<polyline fill="none" stroke="#34376B" stroke-width="2.5" stroke-linecap="round" stroke-miterlimit="10" points="578.4,481.4 
		609.9,480.8 622.4,452 	"/>
	
		<line fill="none" stroke="#34376B" stroke-width="2.5" stroke-linecap="round" stroke-miterlimit="10" x1="600.2" y1="481.5" x2="594.5" y2="501.6"/>
	
		<line fill="none" stroke="#34376B" stroke-width="2.5" stroke-linecap="round" stroke-miterlimit="10" x1="616" y1="470.9" x2="636" y2="472.2"/>
</g>
<g id="PALM_1_">
	<g>
		<polygon fill="#34376B" points="447.3,282.2 435,285.7 437,317.8 449.4,314.3 		"/>
		<polygon fill="#34376B" points="470.7,270.5 464.3,261.8 434.9,285.2 441.3,293.8 		"/>
	</g>
	<g>
		<path fill="#FEDB7D" d="M436.5,261.1l16.3-29.3c3.1-5.5,11.7-6.6,19.3-2.4l46.7,26c7.5,4.2,11.2,12.1,8.1,17.6l-19.6,35.1
			c-3.1,5.5-11.7,6.6-19.3,2.4l-46.7-26c-7.5-4.2-11.2-12.1-8.1-17.6L436.5,261.1"/>
		<path fill="none" stroke="#34376B" stroke-width="2.5" stroke-linecap="round" stroke-miterlimit="10" d="M435.8,256.7l16.3-29.3
			c3.1-5.5,11.7-6.6,19.3-2.4l46.7,26c7.5,4.2,11.2,12.1,8.1,17.6l-19.6,35.1c-3.1,5.5-11.7,6.6-19.3,2.4l-46.7-26
			c-7.5-4.2-11.2-12.1-8.1-17.6L435.8,256.7"/>
		<polyline fill="none" stroke="#34376B" stroke-width="2.5" stroke-linecap="round" stroke-miterlimit="10" points="461.2,236.5 
			478,268 513.6,265.7 		"/>
		
			<line fill="none" stroke="#34376B" stroke-width="2.5" stroke-linecap="round" stroke-miterlimit="10" x1="472.3" y1="258.5" x2="449.1" y2="263.2"/>
		
			<line fill="none" stroke="#34376B" stroke-width="2.5" stroke-linecap="round" stroke-miterlimit="10" x1="491.1" y1="269" x2="500.1" y2="289.9"/>
	</g>
	<g>
		<polygon fill="#34376B" points="481.1,298.8 486,308.5 454.6,328.6 449.7,318.9 		"/>
		<polygon fill="#34376B" points="476.5,277 488.9,275.1 486.6,308.1 474.2,310.1 		"/>
	</g>
</g>
<g id="forearm_1_">
	
		<rect x="407.8" y="308.2" transform="matrix(0.8869 0.4619 -0.4619 0.8869 214.616 -156.0971)" fill="#B5CEE2" width="36.7" height="104.3"/>
</g>
<g id="shoulder_1_">
	
		<rect x="323" y="322" transform="matrix(-0.4613 0.8872 -0.8872 -0.4613 840.6013 256.9205)" fill="#B5CEE2" width="38.7" height="123.2"/>
	<path fill="#D3E5F5" d="M274.1,401.2c-5.5-1.5-11.1-3.6-16.5-6.5c-31.4-16.3-46.8-49-34.3-73c12.5-24,48-30.1,79.4-13.8
		c5.4,2.8,10.4,6.1,14.8,9.8L274.1,401.2z"/>
	<path fill="#B5CEE2" d="M228.8,313.8c21-9.9,46.2-10.5,68,0.9c6,3.1,11.5,7,16.3,11.5l4.4-8.4c-4.4-3.7-9.3-7-14.8-9.8
		C275.1,293.6,244.3,296.6,228.8,313.8z"/>
	<path fill="none" stroke="#34376B" stroke-width="2.5" stroke-linecap="round" stroke-miterlimit="10" d="M308.2,335.6l-34.1,65.6
		c-5.5-1.5-11.1-3.6-16.5-6.5c-31.4-16.3-46.8-49-34.3-73c12.5-24,48-30.1,79.4-13.8c5.4,2.8,10.4,6.1,14.8,9.8l-4.7,9"/>
	<circle fill="#D3E5F5" cx="393.5" cy="410.9" r="24.9"/>
	
		<circle fill="none" stroke="#34376B" stroke-width="2.5" stroke-linecap="round" stroke-miterlimit="10" cx="393.5" cy="410.9" r="24.9"/>
</g>
<ellipse fill="#D3E5F5" cx="179.5" cy="264" rx="98.4" ry="109.5"/>
<path fill="#B5CEE2" d="M178.8,170c39.2,0,74.1,22.2,92.5,54.5c-14.2-41-50-70.1-91.8-70.1c-39.8,0-74,26.3-89.5,64.1
	C109.1,189.5,142,170,178.8,170z"/>
<path fill="none" stroke="#34376B" stroke-width="2.5" stroke-linecap="round" stroke-miterlimit="10" d="M271.3,223.3
	c-14.2-41-50-70.1-91.8-70.1c-40.7,0-75.7,27.6-90.6,66.9"/>
<path fill="#FFFFFF" d="M213.6,300.9c-17.2,2.5-43.5,2.3-57.2,1.1c-31.5-2.7-61.6-7.8-72.2-11c-2-8.6-3-17.7-3-27
	c0-12.5,1.9-24.5,5.4-35.7c30.2,9.4,61.5,14.3,93.2,14.3c31.6,0,62.8-4.9,92.8-14.2c3.4,11.1,5.3,23.1,5.3,35.5
	c0,7.7-0.7,15.2-2.1,22.4C268.4,290.1,226.1,299.1,213.6,300.9z"/>
<path fill="none" stroke="#34376B" stroke-width="2.5" stroke-linecap="round" stroke-miterlimit="10" d="M213.6,300.9
	c-17.2,2.5-43.5,2.3-57.2,1.1c-31.5-2.7-61.6-7.8-72.2-11c-2-8.6-3-17.7-3-27c0-12.5,1.9-24.5,5.4-35.7
	c30.2,9.4,61.5,14.3,93.2,14.3c31.6,0,62.8-4.9,92.8-14.2c3.4,11.1,5.3,23.1,5.3,35.5c0,7.7-0.7,15.2-2.1,22.4
	C268.4,290.1,226.1,299.1,213.6,300.9z"/>
<ellipse fill="#65D8F0" cx="211" cy="270.5" rx="26.2" ry="29.1"/>
<ellipse fill="none" stroke="#34376B" stroke-width="2.5" stroke-linecap="round" stroke-miterlimit="10" cx="214.7" cy="270.5" rx="26.2" ry="29.1"/>
<path fill="none" stroke="#34376B" stroke-width="2.5" stroke-linecap="round" stroke-miterlimit="10" d="M174.3,165.2
	c-6.3,1.6-14.8,1.6-19.9-1.9c-6.1-4.2-8.6-15.6-2.5-21c7.6-6.7,16.7,2.7,8,9.2c-5.9,4.4-13.8,2.9-19-1c-6.7-5-11.1-11.9-11.3-20.2
	c-0.2-6.7,6.2-14.5,13.7-9.4c2.4,1.6,3.9,7.5,2.4,10.2c-2.1,3.6-8.8,3.5-12.4,4.2c-8,1.4-14.5,1-20.6-5.6c-4.3-4.7-5.9-11.8-4.9-18
	c1-6.1,10.8-18.2,15.5-8.5c7,14.7-25.2,28.4-30.4,11"/>
<g id="body_3_">
	<rect x="138" y="442.8" fill="#34376B" width="99.1" height="94.8"/>
	<path fill="#34376B" d="M142.7,639.3h94.4c14.8,0,26.7-10.8,26.7-24.1v-33.6c0-13.3-12-24.1-26.7-24.1h-94.4
		c-14.8,0-26.7,10.8-26.7,24.1v33.6C116,628.5,128,639.3,142.7,639.3z"/>
	<path fill="#D3E5F5" d="M82.7,448.6c3.6-47.3,14.6-89.6,30.7-121.7c25.2,9.4,51.5,14.4,78.1,14.4c24.6,0,49-4.3,72.6-12.4
		c15.5,31.8,26.2,73.4,29.7,119.7H82.7z"/>
	<path fill="#B5CEE2" d="M292.1,448.6h1.6c-3.5-46.4-14.2-87.9-29.7-119.7c-15.5,5.4-31.4,9-47.5,10.9
		C258.2,359.5,288.4,400.8,292.1,448.6z"/>
	<path fill="none" stroke="#34376B" stroke-width="2.5" stroke-linecap="round" stroke-miterlimit="10" d="M253.7,333
		c6-1.5,4.5-2.1,10.3-4.1c15.5,31.8,26.2,73.4,29.7,119.7H82.7c3.6-47.3,14.6-89.6,30.7-121.7c25.2,9.4,51.5,14.4,78.1,14.4
		c18.5,0,36.8-2.4,54.7-7"/>
	<path fill="#D3E5F5" d="M292.7,526.5c-1.6,15.6-4,30.7-7.2,44.9H164.1v24h-67c-6.3-20.9-10.9-44.1-13.4-68.9H292.7z"/>
	<path fill="none" stroke="#34376B" stroke-width="2.5" stroke-linecap="round" stroke-miterlimit="10" d="M280.2,526.5h12.5
		c-1.6,15.6-4,30.7-7.2,44.9H164.1v24h-67c-6.3-20.9-10.9-44.1-13.4-68.9h184"/>
	<polygon fill="#FEDB7D" points="196.9,401.3 209.8,412.1 212.7,428.8 227.1,419.8 243.8,422.2 239.7,405.8 247.1,390.6 
		230.3,389.4 218.1,377.7 211.8,393.3 	"/>
	<polygon fill="none" stroke="#34376B" stroke-width="2.5" stroke-linecap="round" stroke-miterlimit="10" points="201.9,398.8 
		214.8,409.6 217.7,426.3 232,417.3 248.8,419.7 244.7,403.3 252.1,388.1 235.2,386.9 223.1,375.2 216.8,390.8 	"/>
</g>
<g id="PALM_7_">
	<g>
		<polygon fill="#34376B" points="277.8,482.7 267.9,474.6 242.7,494.7 252.6,502.8 		"/>
		<polygon fill="#34376B" points="300.8,495.2 304.3,485 268.3,474.3 264.8,484.4 		"/>
	</g>
	<g>
		<path fill="#FEDB7D" d="M288.8,505.3l-0.9-29.6c-0.2-5.6,5.9-10.3,13.5-10.5l47.1-1.4c7.6-0.2,13.9,4.1,14.1,9.7l1.1,35.4
			c0.2,5.6-5.9,10.3-13.5,10.5l-47.1,1.4c-7.6,0.2-13.9-4.1-14.1-9.7L288.8,505.3"/>
		<path fill="none" stroke="#34376B" stroke-width="2.5" stroke-linecap="round" stroke-miterlimit="10" d="M288.9,505l-0.9-29.6
			c-0.2-5.6,5.9-10.3,13.5-10.5l47.1-1.4c7.6-0.2,13.9,4.1,14.1,9.7l1.1,35.4c0.2,5.6-5.9,10.3-13.5,10.5l-47.1,1.4
			c-7.6,0.2-13.9-4.1-14.1-9.7L288.9,505"/>
		<polyline fill="none" stroke="#34376B" stroke-width="2.5" stroke-linecap="round" stroke-miterlimit="10" points="299,478.3 
			325.9,494.5 351.9,476.7 		"/>
		
			<line fill="none" stroke="#34376B" stroke-width="2.5" stroke-linecap="round" stroke-miterlimit="10" x1="317.4" y1="489.9" x2="301.8" y2="503.9"/>
		
			<line fill="none" stroke="#34376B" stroke-width="2.5" stroke-linecap="round" stroke-miterlimit="10" x1="336.3" y1="489.4" x2="352.6" y2="501.1"/>
	</g>
	<g>
		<path fill="#FEDB7D" d="M261.7,498.5l-6.7-28.8c-1.3-5.4,3.8-11.3,11.2-13l46-10.6c7.4-1.7,14.5,1.3,15.7,6.8l8,34.5
			c1.3,5.4-3.8,11.3-11.2,13l-46,10.6c-7.4,1.7-14.5-1.3-15.7-6.8L261.7,498.5"/>
		<path fill="none" stroke="#34376B" stroke-width="2.5" stroke-linecap="round" stroke-miterlimit="10" d="M261.7,498.2l-6.7-28.8
			c-1.3-5.4,3.8-11.3,11.2-13l46-10.6c7.4-1.7,14.5,1.3,15.7,6.8l8,34.5c1.3,5.4-3.8,11.3-11.2,13l-46,10.6
			c-7.4,1.7-14.5-1.3-15.7-6.8L261.7,498.2"/>
		<polyline fill="none" stroke="#34376B" stroke-width="2.5" stroke-linecap="round" stroke-miterlimit="10" points="266.4,470 
			296,480.6 317.9,458.1 		"/>
		
			<line fill="none" stroke="#34376B" stroke-width="2.5" stroke-linecap="round" stroke-miterlimit="10" x1="286.7" y1="477.8" x2="274.2" y2="494.6"/>
		
			<line fill="none" stroke="#34376B" stroke-width="2.5" stroke-linecap="round" stroke-miterlimit="10" x1="305.2" y1="473.6" x2="323.4" y2="481.9"/>
	</g>
	<g>
		<path fill="#FEDB7D" d="M263.7,501.9l18.3-23.2c3.4-4.4,11.1-4.1,17.1,0.6l37.1,29.2c6,4.7,8,12.1,4.6,16.5l-21.9,27.9
			c-3.4,4.4-11.1,4.1-17.1-0.6l-37.1-29.2c-6-4.7-8-12.1-4.6-16.5L263.7,501.9"/>
		<path fill="none" stroke="#34376B" stroke-width="2.5" stroke-linecap="round" stroke-miterlimit="10" d="M263.9,501.8l18.3-23.2
			c3.4-4.4,11.1-4.1,17.1,0.6l37.1,29.2c6,4.7,8,12.1,4.6,16.5L319,552.7c-3.4,4.4-11.1,4.1-17.1-0.6L264.9,523
			c-6-4.7-8-12.1-4.6-16.5L263.9,501.8"/>
		<polyline fill="none" stroke="#34376B" stroke-width="2.5" stroke-linecap="round" stroke-miterlimit="10" points="288.8,487.8 
			299.1,517.5 330.3,520.5 		"/>
		
			<line fill="none" stroke="#34376B" stroke-width="2.5" stroke-linecap="round" stroke-miterlimit="10" x1="295.4" y1="508.5" x2="274.5" y2="509.3"/>
		
			<line fill="none" stroke="#34376B" stroke-width="2.5" stroke-linecap="round" stroke-miterlimit="10" x1="310.3" y1="520.3" x2="315.3" y2="539.7"/>
	</g>
	<g>
		<polygon fill="#34376B" points="282.5,516.9 277.4,526.5 243,512.2 248.1,502.6 		"/>
		<polygon fill="#34376B" points="297.8,500.8 306.4,509.7 278,526.8 269.3,517.8 		"/>
	</g>
</g>
<g id="forearm_6_">
	
		<rect x="185.3" y="448.3" transform="matrix(-1.316085e-002 0.9999 -0.9999 -1.316085e-002 706.6625 303.42)" fill="#B5CEE2" width="36.7" height="104.3"/>
</g>
<g id="shoulder_7_">
	
		<rect x="115.9" y="379.7" transform="matrix(-0.9726 0.2323 -0.2323 -0.9726 369.2648 839.0379)" fill="#B5CEE2" width="38.7" height="123.2"/>
	<path fill="#D3E5F5" d="M77.3,401.2c-2.5-5.2-4.5-10.8-5.9-16.7c-8.2-34.4,6.4-67.5,32.7-73.7c26.3-6.3,54.2,16.6,62.5,51
		c1.4,5.9,2.1,11.8,2.3,17.6L77.3,401.2z"/>
	<path fill="#B5CEE2" d="M113.3,309.8c20.8,9.5,37.4,28,43,51.6c1.6,6.9,2.2,13.8,1.9,20.5l10.5-2.5c-0.1-5.7-0.8-11.6-2.3-17.6
		C159.3,331.4,136.6,310.1,113.3,309.8z"/>
	<path fill="none" stroke="#34376B" stroke-width="2.5" stroke-linecap="round" stroke-miterlimit="10" d="M149.2,384.1l-71.9,17.2
		c-2.5-5.2-4.5-10.8-5.9-16.7c-8.2-34.4,6.4-67.5,32.7-73.7c26.3-6.3,54.2,16.6,62.5,51c1.4,5.9,2.1,11.8,2.3,17.6l-9.9,2.4"/>
	<circle fill="#D3E5F5" cx="148.1" cy="497.8" r="24.9"/>
	
		<circle fill="none" stroke="#34376B" stroke-width="2.5" stroke-linecap="round" stroke-miterlimit="10" cx="148.1" cy="497.8" r="24.9"/>
</g>
<g id="wheel_l_2_">
	<path fill="#D3E5F5" d="M391.4,635c-9.1-15.9-22.9-26.1-38.4-26.1S323.7,619,314.6,635H391.4z"/>
</g>
<g id="wheel_l_1_">
	<path fill="none" stroke="#34376B" stroke-width="2.5" stroke-linecap="round" stroke-miterlimit="10" d="M391.4,635
		c-9.1-15.9-22.9-26.1-38.4-26.1S323.7,619,314.6,635H391.4z"/>
</g>
<g id="wheel_r_1_">
	<g>
		<path fill="#D3E5F5" d="M514,635c-9.1-16.4-23.1-26.9-38.8-26.9s-29.8,10.5-38.8,26.9H514z"/>
		<path fill="#B4CDE0" d="M439.2,635c4.6-8.2,10.6-15.6,17.6-21.9c-8.1,4.6-15.2,12.2-20.5,21.9H439.2z"/>
		<path fill="none" stroke="#34376B" stroke-width="2.5" stroke-linecap="round" stroke-miterlimit="10" d="M514,635
			c-9.1-16.4-23.1-26.9-38.8-26.9s-29.8,10.5-38.8,26.9H514z"/>
	</g>
</g>
<rect x="59.4" y="600.9" fill="#FEDB7D" width="629.3" height="38.3"/>
<rect x="24.3" y="561.1" fill="#FEDB7D" width="697.3" height="39.8"/>
<rect x="19.3" y="561.1" fill="none" stroke="#34376B" stroke-width="2.5" stroke-linecap="round" stroke-miterlimit="10" width="697.3" height="39.8"/>
<line fill="none" stroke="#34376B" stroke-width="2.5" stroke-linecap="round" stroke-miterlimit="10" x1="54.4" y1="600.9" x2="54.4" y2="634"/>
<line fill="none" stroke="#34376B" stroke-width="2.5" stroke-linecap="round" stroke-miterlimit="10" x1="683.7" y1="602.8" x2="683.7" y2="637.1"/>
<g>
	<path fill="#FEDB7D" d="M544.9,535.6l4.1-29.3c0.8-5.5,7.6-9.2,15.1-8.1l46.7,6.5c7.5,1.1,13,6.4,12.3,11.9l-4.9,35.1
		c-0.8,5.5-7.6,9.2-15.1,8.1l-46.7-6.5c-7.5-1.1-13-6.4-12.3-11.9L544.9,535.6"/>
	<path fill="none" stroke="#34376B" stroke-width="2.5" stroke-linecap="round" stroke-miterlimit="10" d="M545.1,535.2l4.1-29.3
		c0.8-5.5,7.6-9.2,15.1-8.1l46.7,6.5c7.5,1.1,13,6.4,12.3,11.9l-4.9,35.1c-0.8,5.5-7.6,9.2-15.1,8.1l-46.7-6.5
		c-7.5-1.1-13-6.4-12.3-11.9L545.1,535.2"/>
	<polyline fill="none" stroke="#34376B" stroke-width="2.5" stroke-linecap="round" stroke-miterlimit="10" points="559.6,510.6 
		583.4,531.1 612,517.9 	"/>
	
		<line fill="none" stroke="#34376B" stroke-width="2.5" stroke-linecap="round" stroke-miterlimit="10" x1="575.7" y1="525.1" x2="558.1" y2="536.4"/>
	
		<line fill="none" stroke="#34376B" stroke-width="2.5" stroke-linecap="round" stroke-miterlimit="10" x1="594.5" y1="527.8" x2="608.6" y2="542.1"/>
</g>
<g>
	<path fill="#FEDB7D" d="M608.6,495.9l23.7-17.8c4.5-3.3,11.8-1.1,16.4,5l28.3,37.7c4.6,6.1,4.6,13.8,0.2,17.1l-28.4,21.3
		c-4.5,3.3-11.8,1.1-16.4-5l-28.3-37.7c-4.6-6.1-4.6-13.8-0.2-17.1L608.6,495.9"/>
	<path fill="none" stroke="#34376B" stroke-width="2.5" stroke-linecap="round" stroke-miterlimit="10" d="M608.8,495.9l23.7-17.8
		c4.5-3.3,11.8-1.1,16.4,5l28.3,37.7c4.6,6.1,4.6,13.8,0.2,17.1L649,559.2c-4.5,3.3-11.8,1.1-16.4-5l-28.3-37.7
		c-4.6-6.1-4.6-13.8-0.2-17.1L608.8,495.9"/>
	<polyline fill="none" stroke="#34376B" stroke-width="2.5" stroke-linecap="round" stroke-miterlimit="10" points="636.5,488.7 
		638.8,520.1 668.2,531 	"/>
	
		<line fill="none" stroke="#34376B" stroke-width="2.5" stroke-linecap="round" stroke-miterlimit="10" x1="637.6" y1="510.4" x2="617.2" y2="505.8"/>
	
		<line fill="none" stroke="#34376B" stroke-width="2.5" stroke-linecap="round" stroke-miterlimit="10" x1="649" y1="525.6" x2="648.7" y2="545.7"/>
</g>
<g>
	<path fill="#FEDB7D" d="M480.3,549.1l-6.7-28.8c-1.3-5.4,3.8-11.3,11.2-13l46-10.6c7.4-1.7,14.5,1.3,15.7,6.8l8,34.5
		c1.3,5.4-3.8,11.3-11.2,13l-46,10.6c-7.4,1.7-14.5-1.3-15.7-6.8L480.3,549.1"/>
	<path fill="none" stroke="#34376B" stroke-width="2.5" stroke-linecap="round" stroke-miterlimit="10" d="M480.4,548.9l-6.7-28.8
		c-1.3-5.4,3.8-11.3,11.2-13l46-10.6c7.4-1.7,14.5,1.3,15.7,6.8l8,34.5c1.3,5.4-3.8,11.3-11.2,13l-46,10.6
		c-7.4,1.7-14.5-1.3-15.7-6.8L480.4,548.9"/>
	<polyline fill="none" stroke="#34376B" stroke-width="2.5" stroke-linecap="round" stroke-miterlimit="10" points="485.1,520.7 
		514.7,531.3 536.6,508.8 	"/>
	
		<line fill="none" stroke="#34376B" stroke-width="2.5" stroke-linecap="round" stroke-miterlimit="10" x1="505.4" y1="528.5" x2="492.9" y2="545.3"/>
	
		<line fill="none" stroke="#34376B" stroke-width="2.5" stroke-linecap="round" stroke-miterlimit="10" x1="523.8" y1="524.2" x2="542.1" y2="532.5"/>
</g>
</svg>
