<?xml version="1.0" encoding="UTF-8" standalone="no"?>
<svg width="864px" height="554px" viewBox="0 0 864 554" version="1.1" xmlns="http://www.w3.org/2000/svg" xmlns:xlink="http://www.w3.org/1999/xlink">
    <!-- Generator: Sketch 40.2 (33826) - http://www.bohemiancoding.com/sketch -->
    <title>5.3</title>
    <desc>Created with Sketch.</desc>
    <defs></defs>
    <g id="Page-1" stroke="none" stroke-width="1" fill="none" fill-rule="evenodd">
        <g id="5.3" transform="translate(2.000000, 1.000000)">
            <g id="Group" transform="translate(163.000000, 0.000000)">
                <polygon id="Shape" fill="#F3BA99" points="177.3 244.5 177.3 266.4 233.8 266.4 231.9 247.5"></polygon>
                <ellipse id="Oval" fill="#F6D6B4" cx="113.2" cy="154.6" rx="18.9" ry="25.5"></ellipse>
                <ellipse id="Oval" fill="#F6D6B4" cx="286.9" cy="149.7" rx="18.9" ry="25.5"></ellipse>
                <path d="M223.5,252.1 L181.5,252.1 C143.8,252.1 113.2,221.5 113.2,183.8 L113.2,125.6 C113.2,87.9 143.8,57.3 181.5,57.3 L223.5,57.3 C261.2,57.3 291.8,87.9 291.8,125.6 L291.8,183.8 C291.8,221.5 261.2,252.1 223.5,252.1 L223.5,252.1 Z" id="Shape" fill="#F6D6B4"></path>
                <path d="M211.9,251.8 C159.1,251.8 115,207.7 115,154.9 C115,150.3 113.7,130.1 113.2,124.8 L113.2,125.5 L113.2,183.7 C113.2,221.4 143.8,252 181.5,252 L223.5,252 C235.9,252 247.4,248.7 257.5,242.9 C241.5,249 222.6,251.8 211.9,251.8 L211.9,251.8 Z" id="Shape" fill="#F3BA99"></path>
                <path d="M142.7,116.1 L169.9,116.1" id="Shape" stroke="#CA8A6B" stroke-width="3"></path>
                <path d="M233.2,116.1 L260.3,116.1" id="Shape" stroke="#CA8A6B" stroke-width="3"></path>
                <path d="M195.2,176.3 L214.4,176.3" id="Shape" stroke="#CA8A6B" stroke-width="3"></path>
                <path d="M176.4,201.8 L176.4,203 C176.4,219.6 189.5,233 205.6,233 C221.7,233 234.8,219.6 234.8,203 L234.8,201.8 L176.4,201.8 L176.4,201.8 Z" id="Shape" fill="#FFFFFF"></path>
                <path d="M158.1,152.8 C162.9,152.8 162.9,145.3 158.1,145.3 C153.2,145.3 153.2,152.8 158.1,152.8 L158.1,152.8 L158.1,152.8 Z" id="Shape" fill="#CA8A6B"></path>
                <path d="M248,151.7 C252.8,151.7 252.8,144.2 248,144.2 C243.2,144.2 243.1,151.7 248,151.7 L248,151.7 L248,151.7 Z" id="Shape" fill="#CA8A6B"></path>
                <path d="M167.2,33.7 C167.2,33.7 139.8,2.4 109,33.7 C78.2,65 112.4,130.6 112.4,130.6 C112.4,130.6 130.2,73.2 161.1,71.1 C192.1,68.9 167.2,33.7 167.2,33.7 L167.2,33.7 Z" id="Shape" fill="#EEBF56"></path>
                <path d="M171.4,29.5 C171.4,29.5 144,-1.8 113.2,29.5 C82.4,60.8 116.6,126.4 116.6,126.4 C116.6,126.4 134.4,69 165.3,66.9 C196.3,64.8 171.4,29.5 171.4,29.5 L171.4,29.5 Z" id="Shape" stroke="#34376B" stroke-width="2.5"></path>
                <path d="M197.9,4.9 C197.9,4.9 106.3,15.8 156.3,71.6 C197.9,98.9 210,68.1 245.6,75.9 C281.2,83.7 290.6,130.8 290.6,130.8 C290.6,130.8 342.5,1.3 197.9,4.9 L197.9,4.9 Z" id="Shape" fill="#EEBF56"></path>
                <path d="M202.1,0.7 C202.1,0.7 110.5,11.6 160.5,67.4 C202.1,94.7 214.2,63.9 249.8,71.7 C285.4,79.5 294.8,126.6 294.8,126.6 C294.8,126.6 346.6,-2.9 202.1,0.7 L202.1,0.7 Z" id="Shape" stroke="#34376B" stroke-width="2.5"></path>
                <path d="M86,358.8 L91.4,422.7 L327.5,422.7 L334.4,359.3 C363.6,359.3 370.8,351.6 374.5,331.9 C374.7,330.9 374.5,329.9 374.4,329 C372.3,261.3 260.3,264.8 260.3,264.8 C260.3,264.8 266.6,263 161.9,264.8 C57.1,266.6 49.1,311.5 49.1,311.5 C47,317.2 47.8,325.8 49.7,331.9 C56.2,353 60,355.5 86,358.8 L86,358.8 Z" id="Shape" fill="#34376B"></path>
                <path d="M239.9,422.6 L239.9,263.8 C227.1,263.7 207,263.9 175.4,264.3 L175.4,422.6 L239.9,422.6 L239.9,422.6 Z" id="Shape" fill="#FFFFFF"></path>
                <polygon id="Shape" fill="#34376B" points="196 264.1 220.3 263.9 214.6 282.5 201 282.5"></polygon>
                <rect id="Rectangle-path" fill="#34376B" x="201" y="282.5" width="13.6" height="140.1"></rect>
                <path d="M57.3,426.6 L102.5,328.8 L102.5,328.8 C107.1,317.6 99.9,303.7 86.1,297.3 C72.3,290.9 57,294.5 51.5,305.2 L51.5,305.2 L0.3,426.2 L22.9,426.6 L57.3,426.6 L57.3,426.6 Z" id="Shape" fill="#34376B"></path>
                <path d="M419.6,419.6 L369,305.4 L369,305.4 C363.4,294.7 348.2,291.1 334.4,297.5 C320.6,303.9 313.4,317.8 318,329 L318,329 L361.3,422.6 L382.4,422.6 L419.6,419.6 L419.6,419.6 Z" id="Shape" fill="#34376B"></path>
            </g>
            <g id="shoulder_4_" transform="translate(559.000000, 233.000000)">
                <rect id="Rectangle-path" fill="#B4CDE0" transform="translate(44.303985, 90.896870) rotate(40.112210) translate(-44.303985, -90.896870) " x="25.6035967" y="45.7459325" width="37.4007766" height="90.3018751"></rect>
                <path d="M103.8,90.8 C107.3,88.4 110.6,85.5 113.5,82.1 C130.2,62.2 127.6,32.5 107.6,15.7 C87.6,-1.1 57.9,1.3 41.2,21.2 C38.3,24.6 36,28.4 34.3,32.3 L103.8,90.8 L103.8,90.8 Z" id="Shape" fill="#D3E5F5"></path>
                <path d="M32.1,28.9 C32.1,28.9 51.7,-10.4 86.8,3.3 C121.9,17 131.3,50.6 120.8,70.1 C110.3,89.6 106,90.6 106,90.6 L34.7,31.5" id="Shape" stroke="#34376B" stroke-width="2.5"></path>
            </g>
            <g id="Group" transform="translate(484.000000, 136.000000)">
                <g transform="translate(25.000000, 96.000000)" id="Shape" fill="#34376B">
                    <polygon points="7.1 22.6 1.1 31.2 27.3 51.8 33.3 43.2"></polygon>
                    <polygon points="14.3 2.8 3.2 0.2 0.7 30.9 11.8 33.5"></polygon>
                </g>
                <path d="M0.1,105.6 C0.1,105.6 19.2,116.1 42.1,106 C65,95.9 85.8,106 85.8,106 C85.8,106 116.2,61.5 97.6,3.3 C97.6,3.3 74.8,-3.5 56,5.2 C44.4,10.6 30.3,14.3 14.3,2.4 C14.4,2.5 27.9,68.1 0.1,105.6 L0.1,105.6 Z" id="Shape" fill="#FFFFFF"></path>
                <g transform="translate(45.000000, 85.000000)" id="Shape" fill="#34376B">
                    <polygon points="20.6 20.5 31.5 24.6 25.1 54.1 14.2 50"></polygon>
                    <polygon points="0.7 8.1 7.8 0.6 31.7 24.1 24.6 31.6"></polygon>
                </g>
                <path d="M0.1,105.6 C0.1,105.6 19.2,116.1 42.1,106 C65,95.9 85.8,106 85.8,106 C85.8,106 116.2,61.5 97.6,3.3 C97.6,3.3 74.8,-3.5 56,5.2 C44.4,10.6 30.3,14.3 14.3,2.4 C14.4,2.5 27.9,68.1 0.1,105.6 L0.1,105.6 Z" id="Shape" stroke="#34376B" stroke-width="2.5"></path>
                <path d="M26.4,82 C36.1,88.6 52.3,83.2 63.3,81.6" id="Shape" stroke="#34376B" stroke-width="2.5"></path>
                <path d="M50.6,68.5 C55.5,65.7 69.2,64.7 73.9,67.8" id="Shape" stroke="#34376B" stroke-width="2.5"></path>
                <path d="M32.1,49.9 C35.6,49.3 38.9,49.7 42.4,49.3" id="Shape" stroke="#34376B" stroke-width="2.5"></path>
                <path d="M67.6,49.3 C73.8,51.9 80.8,52.2 87.5,52.7" id="Shape" stroke="#34376B" stroke-width="2.5"></path>
                <path d="M35.4,31.9 C38.1,33.3 41.2,35 44.4,34.7 C47.8,34.3 49.3,31.8 52.6,31.7 C55.7,31.6 58.8,33.9 61.9,34 C64.3,34.1 67.1,33.2 69.4,32.9" id="Shape" stroke="#34376B" stroke-width="2.5"></path>
                <path d="M64.3,16.9 C68.3,20.2 70.7,19.5 75.2,18 C81.5,15.9 85,16.5 89.1,22.8" id="Shape" stroke="#34376B" stroke-width="2.5"></path>
                <path d="M90.9,23 C91.2,22.6 91.3,22.1 91.2,21.6" id="Shape" stroke="#34376B" stroke-width="2.5"></path>
            </g>
            <g id="forearm_4_" transform="translate(517.000000, 254.000000)">
                <path d="M76,135.6 C72.5,124.2 71.8,120.7 73.2,109.2 C74.2,101.4 78,91.6 80.9,82.4 C80.9,82.4 83.8,69.7 81.7,62.9 C79.7,57.9 77.4,52.9 74.8,47.8 C64.8,27.9 52.9,11.4 41.5,0.5 L2.7,20 C4.5,35.6 10.6,55.1 20.6,75 C37.4,108.8 60.2,133 76,135.6 L76,135.6 Z" id="Shape" fill="#D3E5F5"></path>
                <path d="M21,10.8 L2.6,20 C4.4,35.6 10.5,55.1 20.5,75 C23.6,81.3 27,87.2 30.4,92.7 C16.1,67.3 13.4,37.7 21,10.8 L21,10.8 Z" id="Shape" fill="#B4CDE0"></path>
                <path d="M42.6,2.9 C42.6,2.9 69.7,23.3 83.5,64.3 C88,90.2 82.7,94.5 78.1,104 C73,114.5 77.6,139.3 77.6,139.3 C77.6,139.3 20.9,123.9 0.6,24.1 L40.1,4.1" id="Shape" stroke="#34376B" stroke-width="2.5"></path>
            </g>
            <g id="wheel_l_2_" transform="translate(573.000000, 460.000000)" fill="#D3E5F5">
                <path d="M101,34 C89.2,13.2 71.1,0 50.9,0 C30.7,0 12.7,13.3 0.8,34 L101,34 L101,34 Z" id="Shape"></path>
            </g>
            <g id="wheel_l_1_" transform="translate(573.000000, 460.000000)" stroke="#34376B" stroke-width="2.5">
                <path d="M101,34 C89.2,13.2 71.1,0 50.9,0 C30.7,0 12.7,13.3 0.8,34" id="Shape"></path>
            </g>
            <g id="head_1_" transform="translate(619.000000, 109.000000)">
                <circle id="Oval" fill="#D3E5F5" cx="95.8" cy="99" r="95.1"></circle>
                <path d="M9.9,95.6 C9.9,68.2 20.5,43 37.7,23.7 C15.2,41.1 0.7,68.3 0.7,99 C0.7,139.9 26.5,174.8 62.8,188.2 C31.3,169.1 9.9,134.4 9.9,95.6 L9.9,95.6 Z" id="Shape" fill="#B4CDE0"></path>
                <path d="M62.8,131 C79.5,133.2 104.8,133 118.1,131.9 C148.5,129.5 177.7,125.1 187.9,122.4 C189.8,114.9 190.8,107.1 190.8,99 C190.8,88.2 189,77.8 185.6,68 C156.4,76.2 126.1,80.4 95.5,80.4 C65,80.4 34.8,76.2 5.7,68.1 C2.4,77.8 0.6,88.1 0.6,98.9 C0.6,105.6 1.3,112.1 2.6,118.3 C9.8,121.7 50.7,129.4 62.8,131 L62.8,131 Z" id="Shape" fill="#FFFFFF"></path>
                <circle id="Oval" fill="#65D8F0" cx="70.9" cy="105.2" r="23.7"></circle>
                <circle id="Oval" stroke="#34376B" stroke-width="2.5" cx="67" cy="105.2" r="23.7"></circle>
                <path d="M13.1,49.2 C31.6,12.4 73.4,-5.2 114,1.4 C148.1,6.9 175.6,30 187.2,60.6" id="Shape" stroke="#34376B" stroke-width="2.5"></path>
                <path d="M62.8,131 C79.5,133.2 104.8,133 118.1,131.9 C148.5,129.5 177.7,125.1 187.9,122.4 C189.8,114.9 190.8,107.1 190.8,99 C190.8,88.2 189,77.8 185.6,68 C156.4,76.2 126.1,80.4 95.5,80.4 C65,80.4 34.8,76.2 5.7,68.1 C2.4,77.8 0.6,88.1 0.6,98.9 C0.6,105.6 1.3,112.1 2.6,118.3 C9.8,121.7 50.7,129.4 62.8,131 L62.8,131 Z" id="Shape" stroke="#34376B" stroke-width="2.5"></path>
            </g>
            <g id="body_1_" transform="translate(599.000000, 253.000000)">
                <rect id="Rectangle-path" fill="#B4CDE0" x="34.3" y="173.4" width="146.7" height="44"></rect>
                <path d="M217.8,243.2 C205.5,222.1 182.8,207.9 156.8,207.9 L61.7,207.9 C35.7,207.9 12.9,222.1 0.7,243.2 L217.8,243.2 L217.8,243.2 Z" id="Shape" fill="#D3E5F5"></path>
                <path d="M217.8,241 C205.5,221.2 182.8,207.8 156.8,207.8 L61.7,207.8 C35.7,207.8 12.9,221.1 0.7,241" id="Shape" stroke="#34376B" stroke-width="2.5"></path>
                <path d="M180.1,0.7 C155.7,7.6 130.3,11.2 104.6,11.2 C80.8,11.2 57.2,8.1 34.5,2.1 C16,30.9 4.6,70.6 4.6,114.3 C4.6,137.7 7.9,159.9 13.7,179.9 L131,179.9 L131,197.5 L195.8,197.5 C205.4,173.3 210.9,144.8 210.9,114.3 C210.9,69.9 199.1,29.7 180.1,0.7 L180.1,0.7 Z" id="Shape" fill="#D3E5F5"></path>
                <path d="M12.8,177 C12.8,177 -12.9,61.1 39.4,0.7 C39.4,0.7 103.7,17.1 172.7,0.7" id="Shape" stroke="#34376B" stroke-width="2.5"></path>
                <path d="M181.9,6.3 C181.9,6.3 234,110 191.5,194.8 L131,195.4 L131,177 L19.9,177" id="Shape" stroke="#34376B" stroke-width="2.5"></path>
                <ellipse id="Oval" fill="#6CDDB5" transform="translate(62.286650, 78.831990) rotate(8.157652) translate(-62.286650, -78.831990) " cx="62.28665" cy="78.83199" rx="20.6003875" ry="33.3006264"></ellipse>
                <ellipse id="Oval" stroke="#34376B" stroke-width="2.50004702" transform="translate(57.085540, 77.535140) rotate(8.157652) translate(-57.085540, -77.535140) " cx="57.08554" cy="77.53514" rx="20.6003875" ry="33.3006264"></ellipse>
            </g>
            <g id="wheel_r_1_" transform="translate(732.000000, 458.000000)">
                <g id="Group">
                    <path d="M102,38.2 C90.2,15.5 71.9,0.9 51.3,0.9 C30.7,0.9 12.4,15.5 0.6,38.2 L102,38.2 L102,38.2 Z" id="Shape" fill="#D3E5F5"></path>
                    <path d="M4.4,36 C10.4,25.3 18.2,15.6 27.4,7.5 C16.8,13.5 7.6,23.5 0.6,36 L4.4,36 L4.4,36 Z" id="Shape" fill="#B4CDE0"></path>
                    <path d="M102,36 C90.2,14.6 71.9,0.9 51.3,0.9 C30.7,0.9 12.4,14.6 0.6,36" id="Shape" stroke="#34376B" stroke-width="2.5"></path>
                </g>
            </g>
            <g id="PALM_3_" transform="translate(671.000000, 403.000000)" fill="#34376B">
                <g id="Group">
                    <polygon id="Shape" points="21.2 11.2 25.7 0.5 54.9 8.2 50.4 18.9"></polygon>
                    <polygon id="Shape" points="8 30.6 0.7 23.2 25.2 0.3 32.5 7.7"></polygon>
                </g>
                <g id="Group" transform="translate(10.000000, 20.000000)">
                    <polygon id="Shape" points="22.8 25.3 31.2 31.6 52.9 6.3 44.6 0"></polygon>
                    <polygon id="Shape" points="3.4 17.2 0.3 28.2 30.8 32 33.9 21"></polygon>
                </g>
            </g>
            <g id="shoulder_3_" transform="translate(761.000000, 244.000000)">
                <rect id="Rectangle-path" fill="#B5CEE2" x="29.5" y="54.7" width="37.4" height="90.3"></rect>
                <path d="M93.6,61.4 C94.8,57.3 95.4,53 95.4,48.5 C95.4,22.5 74.2,1.5 48.1,1.5 C22,1.5 0.8,22.5 0.8,48.5 C0.8,53 1.4,57.3 2.6,61.4 L93.6,61.4 L93.6,61.4 Z" id="Shape" fill="#D3E5F5"></path>
                <path d="M48.2,1.5 C38.8,1.5 30,4.3 22.6,9 C28.9,5.6 36.1,3.7 43.6,3.7 C68.5,3.7 89.3,24.5 89.3,49.4 C89.3,53.5 88.7,57.6 87.6,61.4 L93.7,61.4 C94.9,57.3 95.5,53 95.5,48.5 C95.4,22.6 74.3,1.5 48.2,1.5 L48.2,1.5 Z" id="Shape" fill="#B4CDE0"></path>
                <path d="M2,59.2 C2,59.2 -8.2,16.5 27.6,4.5 C63.4,-7.5 92.1,12.3 96.6,34 C101.1,55.7 98.3,59.2 98.3,59.2 L5.7,59.6" id="Shape" stroke="#34376B" stroke-width="2.5"></path>
            </g>
            <g id="forearm_3_" transform="translate(710.000000, 365.000000)">
                <path d="M138.1,16.3 C126.4,18.8 122.9,19.2 111.5,16.8 C103.8,15.1 94.3,10.5 85.5,6.8 C85.5,6.8 73.1,2.8 66.1,4.3 C61,5.9 55.7,7.7 50.4,9.8 C29.7,18 12.2,28.5 0.4,38.9 L16.4,79.4 C32.1,78.9 52,74.6 72.7,66.4 C108.1,52.4 134.1,31.8 138.1,16.3 L138.1,16.3 Z" id="Shape" fill="#D3E5F5"></path>
                <path d="M57.7,71.6 C56.9,71.9 56,72.2 55.2,72.5 C61,70.8 66.9,68.7 72.9,66.3 C108,52.4 134.1,31.8 138.1,16.3 C128.5,18.4 124.4,19 117,17.8 C105.1,42 84.4,61.8 57.7,71.6 L57.7,71.6 Z" id="Shape" fill="#B4CDE0"></path>
                <path d="M3,35.8 C3,35.8 25.9,10.7 67.9,0.9 C94.1,-1.1 97.9,4.5 106.9,10 C116.9,16.1 142,13.8 142,13.8 C142,13.8 121.3,68.8 20.1,79.6 L3.9,38.4" id="Shape" stroke="#34376B" stroke-width="2.5"></path>
            </g>
            <g id="Group" transform="translate(0.000000, 211.000000)">
                <rect id="Rectangle-path" fill="#FEDB7D" x="36.2" y="246.7" width="567" height="38.3"></rect>
                <rect id="Rectangle-path" fill="#C8E2FC" x="104.3" y="166.8" width="89.8" height="55.4"></rect>
                <rect id="Rectangle-path" fill="#C8E2FC" x="12.6" y="0.5" width="282.7" height="166.3"></rect>
                <path d="M27.8,154.2 C31,154.2 31,149.2 27.8,149.2 C24.6,149.2 24.6,154.2 27.8,154.2 L27.8,154.2 L27.8,154.2 Z" id="Shape" fill="#34376B"></path>
                <path d="M45.6,154.2 C48.8,154.2 48.8,149.2 45.6,149.2 C42.4,149.2 42.4,154.2 45.6,154.2 L45.6,154.2 L45.6,154.2 Z" id="Shape" fill="#34376B"></path>
                <path d="M64.7,154.2 C67.9,154.2 67.9,149.2 64.7,149.2 C61.5,149.2 61.5,154.2 64.7,154.2 L64.7,154.2 L64.7,154.2 Z" id="Shape" fill="#34376B"></path>
                <g transform="translate(123.000000, 43.000000)" id="Shape" stroke="#34376B" stroke-width="2.5" fill="#E8F2FB">
                    <path d="M50.9,22.3 C41.3,27.8 41.8,43.1 52.9,48.1 C51.7,50.5 50.7,53 49.3,55.4 C47.7,58.3 45.7,60.9 43.1,63.1 C41.2,64.7 39,65.3 36.6,64.6 C34.5,64 32.5,63.4 30.4,62.8 C28.3,62.2 26.2,62.3 24.2,62.9 C22.4,63.5 20.5,64 18.7,64.6 C16.6,65.3 14.6,64.9 13,63.6 C11.5,62.4 10.1,61 8.9,59.5 C4.3,53.8 1.6,47.3 0.6,40.1 C5.17363929e-14,35.7 5.17363929e-14,31.3 1.7,27.1 C3.8,21.9 7.1,18.1 12.7,16.6 C15.6,15.8 18.5,16.3 21.3,17.2 C22.6,17.7 24,18 25.3,18.5 C26.5,19 27.6,18.7 28.7,18.4 C31.5,17.5 34.4,16.6 37.3,16 C42.2,15 48.6,18.1 50.9,22.3 L50.9,22.3 Z"></path>
                    <path d="M39.2,0.5 C40.3,7.4 33,16.3 26.7,15 C25.1,8.9 32.9,-0.1 39.2,0.5 L39.2,0.5 Z"></path>
                </g>
                <polyline id="Shape" stroke="#34376B" stroke-width="2.5" points="8.2 169 8.2 2.8 290.9 2.8"></polyline>
                <polyline id="Shape" stroke="#34376B" stroke-width="2.5" points="290.9 10.7 290.9 169 12.2 169"></polyline>
                <polyline id="Shape" stroke="#34376B" stroke-width="2.5" points="99.9 175.4 99.9 224.4 189.6 224.4 189.6 177.3"></polyline>
                <rect id="Rectangle-path" fill="#FEDB7D" x="4.6" y="206.9" width="628.2" height="39.8"></rect>
                <rect id="Rectangle-path" stroke="#34376B" stroke-width="2.5" x="0.1" y="206.9" width="628.2" height="39.8"></rect>
                <path d="M64.7,151.7 C71.9,171.9 75.5,194.7 73.7,216.1 C72.8,226.2 70.4,236.2 66.2,245.6 C53.5,273.9 8.2,293.8 3.3,341.1" id="Shape" stroke="#34376B" stroke-width="2.5"></path>
                <path d="M31.7,246.7 L31.7,279.7" id="Shape" stroke="#34376B" stroke-width="2.5"></path>
                <path d="M594.9,248.5 L594.9,282.9" id="Shape" stroke="#34376B" stroke-width="2.5"></path>
            </g>
            <polygon id="Shape" fill="#F4888E" points="827.8 21.2 616.5 21.2 616.5 77.4 708 77.4 723.6 95.6 738.2 77.4 827.8 77.4"></polygon>
            <polygon id="Shape" stroke="#34376B" stroke-width="2.5" points="823.9 25.1 612.6 25.1 612.6 81.4 704.1 81.4 719.7 99.5 734.3 81.4 823.9 81.4"></polygon>
            <path d="M634.65459,35.1443872 L634.65459,55.3505756 C634.65459,65.9880904 639.947899,70.0089692 646.971712,70.0089692 C654.402704,70.0089692 659.950498,65.6827072 659.950498,55.1469868 L659.950498,35.1443872 L655.471545,35.1443872 L655.471545,55.45237 C655.471545,63.0360528 652.214124,66.395268 647.124404,66.395268 C642.543656,66.395268 639.133544,63.1378472 639.133544,55.45237 L639.133544,35.1443872 L634.65459,35.1443872 Z M667.635976,69.4491 L672.064032,69.4491 L672.064032,54.5871176 L676.237602,54.5871176 C680.258481,54.7398092 682.09078,56.5212112 683.108724,61.2546508 C684.075771,65.5300156 684.839229,68.4820532 685.399098,69.4491 L689.979846,69.4491 C689.267286,68.1257728 688.45293,64.8174548 687.333192,60.033118 C686.518837,56.470314 684.941024,54.0272484 682.294369,53.1110988 L682.294369,52.9584072 C685.90807,51.7368744 688.758314,48.7339396 688.758314,44.2040888 C688.758314,41.5574344 687.791267,39.2161632 686.060762,37.6892472 C683.92308,35.7551536 680.869248,34.8899012 676.135808,34.8899012 C673.081976,34.8899012 669.875452,35.1443872 667.635976,35.602462 L667.635976,69.4491 Z M672.064032,38.7071912 C672.776593,38.5036024 674.303509,38.3000136 676.441191,38.3000136 C681.123734,38.3509108 684.330257,40.2850044 684.330257,44.7130608 C684.330257,48.6321452 681.327322,51.2279024 676.593883,51.2279024 L672.064032,51.2279024 L672.064032,38.7071912 Z M721.281624,51.4314912 L709.982446,51.4314912 L709.982446,54.9942952 L716.955362,54.9942952 L716.955362,65.2246324 C715.937418,65.7336044 713.952428,66.140782 711.051287,66.140782 C703.060427,66.140782 697.818015,61.0001648 697.818015,52.2967436 C697.818015,43.6951168 703.264016,38.5036024 711.611156,38.5036024 C715.072166,38.5036024 717.36254,39.165266 719.194839,39.9796212 L720.26368,36.36592 C718.787662,35.6533592 715.682932,34.7881068 711.712951,34.7881068 C700.210184,34.7881068 693.18637,42.2699952 693.135473,52.5003324 C693.135473,57.8445384 694.967772,62.4252864 697.91981,65.2755296 C701.279025,68.4820532 705.55439,69.8053804 710.745904,69.8053804 C715.377549,69.8053804 719.296634,68.6347448 721.281624,67.922184 L721.281624,51.4314912 Z M745.814075,49.7009864 L732.479008,49.7009864 L732.479008,38.8598828 L746.577533,38.8598828 L746.577533,35.1443872 L728.050952,35.1443872 L728.050952,69.4491 L747.340991,69.4491 L747.340991,65.7336044 L732.479008,65.7336044 L732.479008,53.3655848 L745.814075,53.3655848 L745.814075,49.7009864 Z M757.265945,69.4491 L757.265945,54.7907064 C757.265945,49.09022 757.16415,44.9675468 756.909664,40.6412848 L757.062356,40.5903876 C758.792861,44.3058832 761.083235,48.2249676 763.475403,52.0422576 L774.367404,69.4491 L778.846358,69.4491 L778.846358,35.1443872 L774.672787,35.1443872 L774.672787,49.4973976 C774.672787,54.8416036 774.774582,59.015174 775.181759,63.595922 L775.079965,63.6468192 C773.451254,60.1349124 771.466264,56.5212112 768.921404,52.5003324 L757.927608,35.1443872 L753.092374,35.1443872 L753.092374,69.4491 L757.265945,69.4491 Z M793.097574,69.4491 L797.576527,69.4491 L797.576527,38.91078 L808.06135,38.91078 L808.06135,35.1443872 L782.663648,35.1443872 L782.663648,38.91078 L793.097574,38.91078 L793.097574,69.4491 Z" id="URGENT" fill="#34376B"></path>
        </g>
    </g>
</svg>