<?xml version="1.0" encoding="UTF-8" standalone="no"?>
<svg width="618px" height="583px" viewBox="0 0 618 583" version="1.1" xmlns="http://www.w3.org/2000/svg" xmlns:xlink="http://www.w3.org/1999/xlink">
    <!-- Generator: Sketch 40.2 (33826) - http://www.bohemiancoding.com/sketch -->
    <title>6.1</title>
    <desc>Created with Sketch.</desc>
    <defs></defs>
    <g id="Page-1" stroke="none" stroke-width="1" fill="none" fill-rule="evenodd">
        <g id="6.1" transform="translate(2.000000, 1.000000)">
            <path d="M512,240.8 L506.8,240.8 C501.8,240.8 497.8,236.8 497.8,231.8 L497.8,211 C497.8,206 501.8,202 506.8,202 L512,202 C517,202 521,206 521,211 L521,231.7 C521,236.7 517,240.8 512,240.8 L512,240.8 Z" id="Shape" fill="#34376B"></path>
            <g id="PALM_2_" transform="translate(350.000000, 269.000000)" fill="#34376B">
                <g id="Group">
                    <path d="M30.4,48.9 L28.6,23.8 C28.5,22.7 27.5,21.8 26.4,21.9 L2.7,23.2 C1.5,23.3 0.7,24.3 0.7,25.4 L2.5,50.5 C2.6,51.6 3.6,52.5 4.7,52.4 L28.4,51.1 C29.6,51 30.5,50 30.4,48.9 L30.4,48.9 Z" id="Shape"></path>
                    <path d="M15.4,0.6 L10,1 C8.9,1.1 8,2.1 8.1,3.2 L9.7,26.7 C9.8,27.9 10.8,28.7 11.9,28.6 L17.3,28.2 C18.4,28.1 19.3,27.1 19.2,26 L17.6,2.5 C17.5,1.4 16.5,0.5 15.4,0.6 L15.4,0.6 Z" id="Shape"></path>
                </g>
            </g>
            <g id="forearm_2_" transform="translate(272.000000, 289.000000)" fill="#B5CEE2">
                <rect id="Rectangle-path" transform="translate(43.087936, 20.980016) rotate(85.751311) translate(-43.087936, -20.980016) " x="25.8871058" y="-20.4719844" width="34.4016599" height="82.9040001"></rect>
            </g>
            <g id="shoulder_2_" transform="translate(213.000000, 180.000000)">
                <g id="Group" transform="translate(28.000000, 46.000000)">
                    <rect id="Rectangle-path" fill="#B5CEE2" transform="translate(25.265550, 44.177900) rotate(169.215970) translate(-25.265550, -44.177900) " x="8.0162426" y="2.52957228" width="34.4986148" height="83.2966554"></rect>
                    <circle id="Oval" fill="#D3E5F5" cx="30.3" cy="83.5" r="21.1"></circle>
                    <circle id="Oval" stroke="#34376B" stroke-width="2.5" cx="30.3" cy="83.5" r="21.1"></circle>
                </g>
                <path d="M5.4,63.3 C3.6,59.8 2.3,56 1.5,51.9 C-3,28.4 12.6,5.6 36.2,1.1 C59.8,-3.4 82.7,12 87.2,35.5 C88,39.6 88.1,43.6 87.8,47.5 L5.4,63.3 L5.4,63.3 Z" id="Shape" fill="#D3E5F5"></path>
                <path d="M72.9,50.4 L5.4,63.3 C3.6,59.8 2.3,56 1.5,51.9 C-3,28.4 12.6,5.6 36.2,1.1 C59.8,-3.4 82.7,12 87.2,35.5 C88,39.6 88.1,43.6 87.8,47.5 L79.8,49" id="Shape" stroke="#34376B" stroke-width="2.5"></path>
            </g>
            <ellipse id="Oval" fill="#E8F2FB" cx="307.3" cy="549.9" rx="304.3" ry="32.1"></ellipse>
            <ellipse id="Oval" fill="#C8E2FC" cx="184.6" cy="550" rx="127.6" ry="18.9"></ellipse>
            <g id="wheel_l_2_" transform="translate(195.000000, 366.000000)" fill="#D3E5F5">
                <ellipse id="Oval" cx="66.1" cy="94" rx="65.7" ry="93.8"></ellipse>
            </g>
            <g id="wheel_l_1_" transform="translate(259.000000, 377.000000)" fill="#B5CEE2">
                <path d="M32.8,0 C50,20.4 60.5,46.7 60.5,75 C60.5,118.2 36.1,156.5 0.6,176.8 C1.1,176.8 1.6,176.9 2.1,176.9 C38.4,176.9 67.8,134.9 67.8,83.1 C67.8,47 53.6,15.7 32.8,0 L32.8,0 Z" id="Shape"></path>
            </g>
            <g id="wheel_l_4_" transform="translate(195.000000, 366.000000)" stroke="#34376B" stroke-width="2.5">
                <ellipse id="Oval" cx="66.1" cy="94" rx="65.7" ry="93.8"></ellipse>
            </g>
            <circle id="Oval" fill="#D3E5F5" cx="175" cy="142.3" r="87.7"></circle>
            <path d="M176,67.6 C208.4,67.6 237.5,83.7 255.8,108.2 C242.5,76.7 211.3,54.7 175,54.7 C136.3,54.7 103.5,79.7 91.8,114.5 C109.6,86.4 140.9,67.6 176,67.6 L176,67.6 Z" id="Shape" fill="#B5CEE2"></path>
            <path d="M254.9,106 C241.1,75.7 210.5,54.6 175,54.6 C139.6,54.6 109,75.6 95.2,105.8" id="Shape" stroke="#34376B" stroke-width="2.5"></path>
            <path d="M205.4,171.9 C190,173.9 166.6,173.7 154.3,172.7 C126.2,170.5 99.4,166.4 89.9,163.9 C88.1,157 87.2,149.7 87.2,142.3 C87.2,132.3 88.9,122.7 92,113.7 C118.9,121.2 146.9,125.2 175.2,125.2 C203.4,125.2 231.2,121.3 258,113.8 C261.1,122.7 262.7,132.3 262.7,142.3 C262.7,148.4 262.1,154.4 260.9,160.2 C254.3,163.3 216.6,170.4 205.4,171.9 L205.4,171.9 Z" id="Shape" fill="#FFFFFF"></path>
            <path d="M205.4,171.9 C190,173.9 166.6,173.7 154.3,172.7 C126.2,170.5 99.4,166.4 89.9,163.9 C88.1,157 87.2,149.7 87.2,142.3 C87.2,132.3 88.9,122.7 92,113.7 C118.9,121.2 146.9,125.2 175.2,125.2 C203.4,125.2 231.2,121.3 258,113.8 C261.1,122.7 262.7,132.3 262.7,142.3 C262.7,148.4 262.1,154.4 260.9,160.2 C254.3,163.3 216.6,170.4 205.4,171.9 L205.4,171.9 Z" id="Shape" stroke="#34376B" stroke-width="2.5"></path>
            <circle id="Oval" fill="#65D8F0" cx="199.6" cy="148.7" r="23.3"></circle>
            <circle id="Oval" stroke="#34376B" stroke-width="2.5" cx="203.1" cy="147.6" r="23.3"></circle>
            <rect id="Rectangle-path" fill="#D3E5F5" x="160.2" y="39.9" width="20.6" height="17.8"></rect>
            <rect id="Rectangle-path" stroke="#34376B" stroke-width="2.5" x="160.2" y="39.9" width="20.6" height="17.8"></rect>
            <circle id="Oval" fill="#F9F070" cx="172" cy="22.2" r="21.3"></circle>
            <path d="M149.1,15.2 C148.6,16.7 148.3,17.4 148.3,22.2 C148.3,34 157.8,43.5 169.6,43.5 C181.4,43.5 190.9,34 190.9,22.2 C190.9,10.4 181.4,0.9 169.6,0.9 C162.7,0.9 156.5,4.2 152.6,9.4" id="Shape" stroke="#34376B" stroke-width="2.5"></path>
            <rect id="Rectangle-path" fill="#34376B" x="148.7" y="345" width="79.8" height="101.3"></rect>
            <path d="M252.7,478.4 L125.6,478.4 C115.1,478.4 106.5,469.9 106.5,459.3 L106.5,458.9 C106.5,448.4 115,439.8 125.6,439.8 L252.7,439.8 C263.2,439.8 271.8,448.3 271.8,458.9 L271.8,459.3 C271.8,469.9 263.2,478.4 252.7,478.4 L252.7,478.4 Z" id="Shape" fill="#D3E5F5"></path>
            <path d="M205.1,478.4 L252.7,478.4 C263.2,478.4 271.8,469.9 271.8,459.3 L271.8,458.9 L271.8,458 C251.9,469.9 229.2,477.2 205.1,478.4 L205.1,478.4 Z" id="Shape" fill="#B5CEE2"></path>
            <path d="M252.7,478.4 L125.6,478.4 C115.1,478.4 106.5,469.9 106.5,459.3 L106.5,458.9 C106.5,448.4 115,439.8 125.6,439.8 L252.7,439.8 C263.2,439.8 271.8,448.3 271.8,458.9 L271.8,459.3 C271.8,469.9 263.2,478.4 252.7,478.4 L252.7,478.4 Z" id="Shape" stroke="#34376B" stroke-width="2.5"></path>
            <path d="M174.7,199.4 C201.9,199.4 228.8,194.4 254,184.9 L283.7,274.1 C285.5,279.4 285.6,285.2 284,290.6 L255.9,387.5 L98.6,386.7 L67.9,290.8 C66.3,285.9 66.2,280.6 67.4,275.6 L90.6,182.9 C117.1,193.7 145.7,199.4 174.7,199.4 L174.7,199.4 Z" id="Shape" fill="#D3E5F5"></path>
            <path d="M169,382.3 C136.8,382.3 107.3,368.7 85.9,347.1 L98.6,386.8 L255.9,387.6 L284,290.7 C285,287.4 285.3,284 285,280.6 C277.4,337.4 227.6,382.3 169,382.3 L169,382.3 Z" id="Shape" fill="#B5CEE2"></path>
            <path d="M131.3,196 C147.8,199.8 157.7,199.5 174.8,199.5 C202,199.5 228.9,194.5 254.1,185 L281.2,266.2 C284.7,276.8 284.9,288.2 281.8,298.9 L256,387.7 L98.7,386.9 L70.4,298.4 C67.3,288.7 66.9,278.2 69.4,268.3 L90.7,183.1 C101.6,187.5 112.9,191.1 124.4,193.7" id="Shape" stroke="#34376B" stroke-width="2.5"></path>
            <rect id="Rectangle-path" fill="#F4888E" x="205.2" y="237.6" width="38.2" height="52.2"></rect>
            <g id="Group" transform="translate(208.000000, 234.000000)" stroke-width="2.5" stroke="#34376B">
                <polyline id="Shape" points="34.3 0.1 0.7 0.1 0.7 19.3"></polyline>
                <polyline id="Shape" points="0.7 27.5 0.7 52.3 38.9 52.3 38.9 0.1"></polyline>
            </g>
            <g id="wheel_r_2_" transform="translate(48.000000, 365.000000)" fill="#D3E5F5">
                <g id="Group">
                    <ellipse id="Oval" cx="66.1" cy="94" rx="65.7" ry="93.8"></ellipse>
                    <ellipse id="Oval" cx="60.5" cy="94.1" rx="14" ry="19.3"></ellipse>
                </g>
            </g>
            <g id="wheel_r_1_" transform="translate(112.000000, 379.000000)" fill="#B5CEE2">
                <path d="M36.4,0 C51.9,19.9 61.2,44.7 61.2,71.4 C61.2,115 36.4,153.6 0.4,173.7 C0.9,173.7 1.5,173.8 2,173.8 C38.3,173.8 67.7,131.8 67.7,80 C67.7,46.2 55.2,16.5 36.4,0 L36.4,0 Z" id="Shape"></path>
            </g>
            <g id="wheel_r_3_" transform="translate(49.000000, 366.000000)" stroke-width="2.5" stroke="#34376B">
                <g id="Group">
                    <ellipse id="Oval" cx="66.2" cy="94.1" rx="65.7" ry="93.8"></ellipse>
                    <ellipse id="Oval" cx="60.6" cy="94.3" rx="14" ry="19.3"></ellipse>
                </g>
            </g>
            <g id="PALM_3_" transform="translate(81.000000, 313.000000)" fill="#34376B">
                <g id="Group" transform="translate(8.000000, 0.000000)">
                    <polygon id="Shape" points="31.1 10.3 27.2 0.3 0.1 6.7 4 16.7"></polygon>
                    <polygon id="Shape" points="42.9 28.5 49.7 21.8 27.7 0.2 20.8 6.9"></polygon>
                </g>
                <g id="Group" transform="translate(0.000000, 17.000000)">
                    <polygon id="Shape" points="27.6 24.5 19.8 30.1 0.3 6.3 8.2 0.7"></polygon>
                    <polygon id="Shape" points="45.7 17.5 48.4 27.7 20.1 30.5 17.5 20.3"></polygon>
                </g>
            </g>
            <g id="shoulder_3_" transform="translate(10.000000, 182.000000)">
                <rect id="Rectangle-path" fill="#B5CEE2" transform="translate(42.498690, 76.809230) rotate(226.920760) translate(-42.498690, -76.809230) " x="25.2489215" y="35.1597889" width="34.499537" height="83.2988821"></rect>
                <path d="M39.8,22 C41.8,18.6 44.3,15.5 47.4,12.6 C64.9,-3.8 92.4,-2.8 108.9,14.8 C125.4,32.4 124.5,59.9 107,76.3 C104,79.1 100.7,81.4 97.1,83.2 L39.8,22 L39.8,22 Z" id="Shape" fill="#D3E5F5"></path>
                <path d="M86.7,72.2 L39.8,22 C41.8,18.6 44.3,15.5 47.4,12.6 C64.9,-3.8 92.4,-2.8 108.9,14.8 C125.4,32.4 124.5,59.9 107,76.3 C104,79.1 100.7,81.4 97.1,83.2 L91.5,77.2" id="Shape" stroke="#34376B" stroke-width="2.5"></path>
            </g>
            <g id="forearm_7_" transform="translate(0.000000, 271.000000)">
                <rect id="Rectangle-path" fill="#B5CEE2" transform="translate(60.190905, 43.702035) rotate(113.696632) translate(-60.190905, -43.702035) " x="42.9906461" y="2.25141118" width="34.4005177" height="82.9012476"></rect>
                <circle id="Oval" fill="#D3E5F5" cx="21.1" cy="21.9" r="21.1"></circle>
                <circle id="Oval" stroke="#34376B" stroke-width="2.5" cx="21.1" cy="21.9" r="21.1"></circle>
            </g>
            <path d="M177.806644,353.725536 C175.84635,354.677678 172.821896,355.293771 169.853451,355.293771 C160.668073,355.293771 155.347275,349.35688 155.347275,340.115494 C155.347275,330.202008 161.228157,324.545159 170.077484,324.545159 C173.213955,324.545159 175.84635,325.21726 177.694627,326.113394 L178.870803,322.136798 C177.58261,321.464697 174.614165,320.456546 169.909459,320.456546 C158.203704,320.456546 150.194502,328.465747 150.194502,340.28352 C150.194502,352.661376 158.203704,359.382384 168.8453,359.382384 C173.437988,359.382384 177.022526,358.48625 178.814795,357.590115 L177.806644,353.725536 Z M184.91971,358.8223 L189.792441,358.8223 L189.792441,342.467847 L194.38513,342.467847 C198.809794,342.635872 200.826096,344.596166 201.946264,349.804948 C203.010424,354.509653 203.85055,357.75814 204.466642,358.8223 L209.507398,358.8223 C208.72328,357.366082 207.827146,353.725536 206.594961,348.460746 C205.698827,344.540158 203.962566,341.851755 201.05013,340.843604 L201.05013,340.675578 C205.026726,339.331377 208.163196,336.026881 208.163196,331.042134 C208.163196,328.129697 207.099037,325.55331 205.194751,323.873058 C202.842398,321.744739 199.481894,320.792596 194.273113,320.792596 C190.912609,320.792596 187.38408,321.072638 184.91971,321.576714 L184.91971,358.8223 Z M189.792441,324.993226 C190.576559,324.769193 192.256811,324.545159 194.609164,324.545159 C199.761936,324.601168 203.290466,326.729487 203.290466,331.602218 C203.290466,335.914864 199.98597,338.771293 194.777189,338.771293 L189.792441,338.771293 L189.792441,324.993226 Z M234.823195,346.948519 L238.8558,358.8223 L244.064581,358.8223 L231.182649,321.072638 L225.301767,321.072638 L212.475843,358.8223 L217.516599,358.8223 L221.437187,346.948519 L234.823195,346.948519 Z M222.445338,343.139948 L226.141893,332.21831 C226.870002,329.921966 227.486094,327.625621 228.046178,325.385285 L228.158195,325.385285 C228.718279,327.569613 229.278363,329.809949 230.118489,332.274318 L233.815044,343.139948 L222.445338,343.139948 Z" id="CRA" fill="#34376B"></path>
            <path d="M227.8,265.3 C227.8,265.3 279.2,218.9 369.2,265.3 C459.2,311.7 508.1,308.4 509.6,227" id="Shape" stroke="#34376B" stroke-width="2.5"></path>
            <path d="M568.6,113.3 C568.2,113.3 567.7,113.4 567.3,113.4 C563,85.4 539,64 509.8,64 C501.9,64 494.3,65.6 487.4,68.5 C478.4,46.2 456.6,30.5 431.2,30.5 C400.5,30.5 375.2,53.4 371.2,83 C339.7,83.7 314.4,109.4 314.4,141.1 C314.4,171.2 337.2,195.9 366.5,198.9 C374,222.7 396.3,240 422.6,240 C444.7,240 463.9,227.8 474,209.8 C482.4,220.3 495.4,227.1 509.9,227.1 C529.9,227.1 546.9,214.3 553.2,196.5 C558,198.4 563.2,199.4 568.7,199.4 C592.5,199.4 611.7,180.1 611.7,156.4 C611.6,132.6 592.3,113.3 568.6,113.3 L568.6,113.3 Z" id="Shape" fill="#65D8F0"></path>
            <path d="M540.7,216.3 C547.4,212 552.2,206.1 556.1,194.3 C560.9,196.2 566.1,197.2 571.6,197.2 C595.4,197.2 614.6,177.9 614.6,154.2 C614.6,130.4 595.3,111.2 571.6,111.2 C571.2,111.2 570.7,111.3 570.3,111.3 C566,83.3 542,61.9 512.8,61.9 C504.9,61.9 497.3,63.5 490.4,66.4 C481.4,44.1 459.6,28.4 434.2,28.4 C411.2,28.4 391.2,41.3 380.9,60.2" id="Shape" stroke="#34376B" stroke-width="2.5"></path>
            <path d="M377.9,66.1 C376.1,69.5 375.4,72.5 374.2,80.8 C342.7,81.5 317.4,107.2 317.4,138.9 C317.4,169 340.2,193.7 369.5,196.7 C377,220.5 399.3,237.8 425.6,237.8 C447.7,237.8 466.9,225.6 477,207.6 C485.4,218.1 498.4,224.9 512.9,224.9 C519.3,224.9 525.3,223.6 530.8,221.3" id="Shape" stroke="#34376B" stroke-width="2.5"></path>
            <path d="M424.1611,152.5695 C421.6411,153.7935 417.7531,154.5855 413.9371,154.5855 C402.1291,154.5855 395.2891,146.9535 395.2891,135.0735 C395.2891,122.3295 402.8491,115.0575 414.2251,115.0575 C418.2571,115.0575 421.6411,115.9215 424.0171,117.0735 L425.5291,111.9615 C423.8731,111.0975 420.0571,109.8015 414.0091,109.8015 C398.9611,109.8015 388.6651,120.0975 388.6651,135.2895 C388.6651,151.2015 398.9611,159.8415 412.6411,159.8415 C418.5451,159.8415 423.1531,158.6895 425.4571,157.5375 L424.1611,152.5695 Z M433.3051,159.1215 L439.5691,159.1215 L439.5691,138.0975 L445.4731,138.0975 C451.1611,138.3135 453.7531,140.8335 455.1931,147.5295 C456.5611,153.5775 457.6411,157.7535 458.4331,159.1215 L464.9131,159.1215 C463.9051,157.2495 462.7531,152.5695 461.1691,145.8015 C460.0171,140.7615 457.7851,137.3055 454.0411,136.0095 L454.0411,135.7935 C459.1531,134.0655 463.1851,129.8175 463.1851,123.4095 C463.1851,119.6655 461.8171,116.3535 459.3691,114.1935 C456.3451,111.4575 452.0251,110.2335 445.3291,110.2335 C441.0091,110.2335 436.4731,110.5935 433.3051,111.2415 L433.3051,159.1215 Z M439.5691,115.6335 C440.5771,115.3455 442.7371,115.0575 445.7611,115.0575 C452.3851,115.1295 456.9211,117.8655 456.9211,124.1295 C456.9211,129.6735 452.6731,133.3455 445.9771,133.3455 L439.5691,133.3455 L439.5691,115.6335 Z M514.1611,159.1215 L520.2811,159.1215 L517.2571,110.5935 L509.2651,110.5935 L500.6251,134.0655 C498.4651,140.1855 496.7371,145.5135 495.5131,150.4095 L495.2971,150.4095 C494.0731,145.3695 492.4171,140.0415 490.4011,134.0655 L482.1211,110.5935 L474.1291,110.5935 L470.7451,159.1215 L476.7211,159.1215 L478.0171,138.3135 C478.4491,131.0415 478.8091,122.9055 478.9531,116.8575 L479.0971,116.8575 C480.4651,122.6175 482.4091,128.8815 484.7131,135.7215 L492.5611,158.8335 L497.3131,158.8335 L505.8811,135.2895 C508.3291,128.5935 510.3451,122.5455 512.0011,116.8575 L512.2171,116.8575 C512.1451,122.9055 512.5771,131.0415 512.9371,137.8095 L514.1611,159.1215 Z" id="CRM" fill="#FFFFFF"></path>
            <ellipse id="Oval" fill="#C8E2FC" cx="471.2" cy="549.9" rx="90.4" ry="16.9"></ellipse>
        </g>
    </g>
</svg>