<?xml version="1.0" encoding="utf-8"?>
<!-- Generator: Adobe Illustrator 17.1.0, SVG Export Plug-In . SVG Version: 6.00 Build 0)  -->
<!DOCTYPE svg PUBLIC "-//W3C//DTD SVG 1.1//EN" "http://www.w3.org/Graphics/SVG/1.1/DTD/svg11.dtd">
<svg version="1.1" id="Слой_1" xmlns="http://www.w3.org/2000/svg" xmlns:xlink="http://www.w3.org/1999/xlink" x="0px" y="0px"
	 viewBox="0 0 813.7 813.7" enable-background="new 0 0 813.7 813.7" xml:space="preserve">
<path fill="#34376B" d="M397.3,535.8l-11.3,4.9c-3.3,1.4-4.8,5.3-3.4,8.6l1.6,3.7c1.4,3.3,5.3,4.8,8.6,3.4l11.3-4.9L397.3,535.8z"/>
<line fill="none" stroke="#34376B" stroke-width="2.5" stroke-linecap="round" stroke-miterlimit="10" x1="414.4" y1="540" x2="405.2" y2="542"/>
<line fill="none" stroke="#34376B" stroke-width="2.5" stroke-linecap="round" stroke-miterlimit="10" x1="416.5" y1="547.9" x2="407.3" y2="549.8"/>
<g>
	<g>
		<g>
			<g>
				<g>
					<g>
						<path fill="none" d="M327.6,317.5c0,0,0.1,2.3,0.1,5.7c0,0.9,0,1.8,0.1,2.8c0,1,0.1,2,0.1,3.1c0.2,2.2,0.3,4.4,0.5,6.7
							c0.1,2.3,0.5,4.6,0.8,6.7c0.3,2.1,0.5,4.1,0.8,5.8c0.6,3.4,1,5.7,1,5.7l36.9-6.8c0,0-0.3-1.8-0.8-4.6c-0.2-1.4-0.4-3-0.6-4.7
							c-0.2-1.7-0.5-3.6-0.6-5.5c-0.1-1.9-0.3-3.7-0.4-5.5c-0.1-0.9-0.1-1.7-0.1-2.5c0-0.8,0-1.6-0.1-2.3c-0.1-2.8-0.1-4.7-0.1-4.7
							H327.6z"/>
					</g>
					<path fill-rule="evenodd" clip-rule="evenodd" fill="#4E507E" d="M349.3,342l-3.7,0.5c0,0,0.2,1.6,0.4,3.1
						c0.3,1.5,0.6,3.1,0.6,3.1l3.7-0.6c0,0-0.3-1.5-0.5-3C349.5,343.5,349.3,342,349.3,342z"/>
					<path fill-rule="evenodd" clip-rule="evenodd" fill="#4E507E" d="M348.2,331l-3.7,0.3c0,0,0.1,1.6,0.2,3.1
						c0.1,0.8,0.1,1.6,0.2,2.1c0.1,0.6,0.1,1,0.1,1l3.7-0.4c0,0,0-0.4-0.1-1c-0.1-0.6-0.1-1.3-0.2-2.1
						C348.3,332.5,348.2,331,348.2,331z"/>
					<polygon fill-rule="evenodd" clip-rule="evenodd" fill="#4E507E" points="347.7,320 344,320.1 344.1,326.4 347.9,326.2 					
						"/>
				</g>
			</g>
			<g>
				<g>
					<g>
						<path fill="none" d="M331,354.1c0,0,0.1,0.6,0.3,1.6c0.1,0.5,0.2,1.1,0.3,1.8c0.1,0.7,0.3,1.5,0.5,2.3
							c0.8,3.4,1.7,7.9,3.1,12.3c1.2,4.5,2.7,8.8,3.8,12.1c0.5,1.6,1.1,3,1.4,3.9c0.4,0.9,0.6,1.5,0.6,1.5l35-13.6
							c0,0-0.2-0.4-0.5-1.2c-0.3-0.8-0.7-1.8-1.2-3.2c-0.9-2.7-2.2-6.2-3.1-9.8c-1.1-3.6-1.9-7.2-2.5-10c-0.2-0.7-0.3-1.3-0.4-1.9
							c-0.1-0.6-0.2-1-0.3-1.5c-0.1-0.8-0.2-1.3-0.2-1.3L331,354.1z"/>
					</g>
					<path fill-rule="evenodd" clip-rule="evenodd" fill="#4E507E" d="M356.8,374.2l-3.6,1.2c0,0,0.5,1.5,1,3c0.3,0.7,0.5,1.5,0.7,2
						c0.2,0.5,0.4,0.9,0.4,0.9l3.5-1.3c0,0-0.1-0.4-0.3-0.9c-0.2-0.5-0.4-1.3-0.7-2C357.3,375.7,356.8,374.2,356.8,374.2z"/>
					<polygon fill-rule="evenodd" clip-rule="evenodd" fill="#4E507E" points="353.7,363.6 350,364.6 351.7,370.6 355.3,369.6 					
						"/>
					<path fill-rule="evenodd" clip-rule="evenodd" fill="#4E507E" d="M351.2,352.9l-3.7,0.7c0,0,0.1,0.4,0.2,1
						c0.1,0.6,0.3,1.3,0.5,2.1c0.4,1.5,0.7,3.1,0.7,3.1l3.6-0.9c0,0-0.3-1.5-0.7-3c-0.2-0.7-0.3-1.5-0.5-2.1
						C351.2,353.3,351.2,352.9,351.2,352.9z"/>
				</g>
			</g>
			<g>
				<g>
					<g>
						<path fill="none" d="M341,389.5c0,0,0.8,2.1,2.1,5.4c0.7,1.6,1.5,3.4,2.4,5.4c0.9,2,1.8,4.1,2.9,6.1c1.1,2,2.1,4.1,3.1,6
							c1.1,1.9,2.1,3.6,2.9,5.1c0.9,1.5,1.6,2.7,2.1,3.6c0.5,0.8,0.9,1.3,0.9,1.3l31.9-19.8c0,0-0.3-0.4-0.7-1.1
							c-0.4-0.7-1-1.7-1.7-2.9c-0.7-1.2-1.5-2.6-2.4-4.2c-0.8-1.6-1.6-3.2-2.5-4.9c-0.9-1.6-1.6-3.4-2.4-5c-0.7-1.6-1.4-3.1-2-4.4
							c-1-2.6-1.7-4.3-1.7-4.3L341,389.5z"/>
					</g>
					<polygon fill-rule="evenodd" clip-rule="evenodd" fill="#4E507E" points="370.1,404.5 366.9,406.3 370,411.7 373.2,409.8 					
						"/>
					<path fill-rule="evenodd" clip-rule="evenodd" fill="#4E507E" d="M365.1,394.7l-3.4,1.6c0,0,0.1,0.4,0.4,0.9
						c0.3,0.5,0.6,1.2,1,1.9c0.7,1.4,1.4,2.8,1.4,2.8l3.3-1.7c0,0-0.7-1.4-1.4-2.7c-0.4-0.7-0.7-1.4-1-1.9
						C365.2,395,365.1,394.7,365.1,394.7z"/>
					<path fill-rule="evenodd" clip-rule="evenodd" fill="#4E507E" d="M360.7,384.6l-3.5,1.4c0,0,0.6,1.5,1.2,2.9
						c0.6,1.4,1.3,2.9,1.3,2.9l3.4-1.5c0,0-0.6-1.4-1.3-2.8C361.2,386,360.7,384.6,360.7,384.6z"/>
				</g>
			</g>
			<g>
				<g>
					<g>
						<path fill="none" d="M357.4,422.5c0,0,1.2,1.9,3.1,4.8c0.9,1.5,2.1,3.1,3.3,4.9c1.3,1.7,2.5,3.7,4,5.5c2.8,3.6,5.7,7.3,8,9.8
							c1.1,1.3,2.1,2.4,2.7,3.2c0.7,0.8,1,1.2,1,1.2l27.7-25.3c0,0-0.3-0.3-0.9-1c-0.5-0.6-1.3-1.5-2.2-2.6c-1.9-2.1-4.2-5-6.5-8
							c-1.2-1.5-2.2-3-3.2-4.5c-1-1.4-2-2.7-2.7-3.9c-1.5-2.4-2.5-3.9-2.5-3.9L357.4,422.5z"/>
					</g>
					<polygon fill-rule="evenodd" clip-rule="evenodd" fill="#4E507E" points="388.8,431.8 385.9,434.2 390,438.9 392.8,436.5 					
						"/>
					<path fill-rule="evenodd" clip-rule="evenodd" fill="#4E507E" d="M382,423.1l-3,2.2c0,0,0.2,0.3,0.6,0.8
						c0.3,0.5,0.8,1.1,1.3,1.7c1,1.2,1.9,2.5,1.9,2.5l3-2.3c0,0-1-1.2-1.9-2.4c-0.5-0.6-0.9-1.2-1.3-1.7
						C382.3,423.4,382,423.1,382,423.1z"/>
					<path fill-rule="evenodd" clip-rule="evenodd" fill="#4E507E" d="M375.8,414l-3.2,2c0,0,0.8,1.3,1.7,2.6
						c0.4,0.7,0.8,1.3,1.2,1.8c0.3,0.5,0.6,0.8,0.6,0.8l3.1-2.1c0,0-0.2-0.3-0.6-0.8c-0.3-0.5-0.8-1.1-1.2-1.8
						C376.7,415.3,375.8,414,375.8,414z"/>
				</g>
			</g>
			<g>
				<g>
					<g>
						<path fill="none" d="M379.6,451.8c0,0,1.6,1.7,4,4.2c2.3,2.6,5.7,5.7,9,8.8c1.7,1.5,3.5,3,5.1,4.4c0.8,0.7,1.6,1.4,2.4,2
							c0.8,0.6,1.5,1.2,2.2,1.7c2.7,2.1,4.5,3.6,4.5,3.6l22.6-29.9c0,0-1.5-1.2-3.7-2.9c-0.6-0.4-1.1-0.9-1.8-1.4
							c-0.6-0.5-1.2-1.1-1.9-1.7c-1.3-1.2-2.7-2.4-4.1-3.6c-2.7-2.6-5.5-5.1-7.3-7.2c-1.9-2-3.2-3.4-3.2-3.4L379.6,451.8z"/>
					</g>
					<path fill-rule="evenodd" clip-rule="evenodd" fill="#4E507E" d="M412.2,455.2l-2.4,2.9c0,0,0.3,0.3,0.7,0.6
						c0.5,0.4,1.1,0.8,1.7,1.3c1.2,1,2.5,1.9,2.5,1.9l2.3-3c0,0-1.2-0.9-2.4-1.9c-0.6-0.5-1.2-0.9-1.7-1.3
						C412.4,455.5,412.2,455.2,412.2,455.2z"/>
					<path fill-rule="evenodd" clip-rule="evenodd" fill="#4E507E" d="M403.9,447.9l-2.6,2.7c0,0,1.1,1.1,2.3,2.2
						c1.2,1,2.4,2.1,2.4,2.1l2.5-2.8c0,0-1.2-1-2.3-2C405,449,403.9,447.9,403.9,447.9z"/>
					<path fill-rule="evenodd" clip-rule="evenodd" fill="#4E507E" d="M396.2,440.1l-2.7,2.6c0,0,1.1,1.1,2.2,2.3
						c0.5,0.6,1.1,1.1,1.5,1.6c0.4,0.4,0.7,0.7,0.7,0.7l2.6-2.7c0,0-0.3-0.3-0.7-0.7c-0.4-0.4-0.9-1-1.5-1.5
						C397.2,441.2,396.2,440.1,396.2,440.1z"/>
				</g>
			</g>
			<g>
				<g>
					<g>
						<path fill="none" d="M406.8,476.6c0,0,0.1,0.1,0.3,0.3c0.2,0.2,0.5,0.4,0.9,0.7c0.8,0.6,2,1.4,3.4,2.4c1.4,1,3,2.2,4.8,3.4
							c1.8,1.2,3.8,2.4,5.7,3.7c1.9,1.3,4,2.3,5.8,3.5c1.9,1.1,3.6,2.1,5.1,2.9c3.1,1.6,5.1,2.6,5.1,2.6l16.7-33.6
							c0,0-1.7-0.9-4.2-2.1c-1.3-0.6-2.6-1.5-4.2-2.3c-1.5-0.9-3.2-1.7-4.7-2.8c-1.6-1-3.1-2-4.6-3c-1.5-0.9-2.8-2-3.9-2.7
							c-1.1-0.8-2.1-1.5-2.8-2c-0.3-0.2-0.6-0.4-0.8-0.6c-0.2-0.1-0.3-0.2-0.3-0.2L406.8,476.6z"/>
					</g>
					<path fill-rule="evenodd" clip-rule="evenodd" fill="#4E507E" d="M439.4,474l-1.8,3.3c0,0,0.3,0.2,0.9,0.5
						c0.5,0.3,1.2,0.7,1.9,1c1.4,0.7,2.8,1.4,2.8,1.4l1.7-3.3c0,0-1.4-0.7-2.7-1.4c-0.7-0.3-1.3-0.7-1.8-1
						C439.7,474.2,439.4,474,439.4,474z"/>
					<path fill-rule="evenodd" clip-rule="evenodd" fill="#4E507E" d="M430,468.3l-2,3.2c0,0,1.3,0.8,2.6,1.7
						c1.3,0.9,2.7,1.6,2.7,1.6l1.9-3.2c0,0-1.3-0.7-2.6-1.6C431.3,469.1,430,468.3,430,468.3z"/>
					<polygon fill-rule="evenodd" clip-rule="evenodd" fill="#4E507E" points="420.9,462.1 418.7,465.1 423.8,468.7 425.9,465.6 
											"/>
				</g>
			</g>
			<g>
				<g>
					<g>
						<path fill="none" d="M438,496c0,0,0.5,0.3,1.4,0.7c0.9,0.5,2.2,1.1,3.8,1.8c1.6,0.7,3.4,1.5,5.4,2.4c2,0.9,4.1,1.7,6.3,2.5
							c1.1,0.4,2.1,0.8,3.2,1.3c1.1,0.4,2.1,0.7,3.1,1.1c2,0.7,4,1.3,5.6,1.9c1.6,0.5,3,0.9,4,1.2c1,0.3,1.5,0.4,1.5,0.4l10.2-36.1
							c0,0-0.4-0.1-1.2-0.4c-0.8-0.2-1.9-0.5-3.2-1c-1.3-0.4-2.9-1-4.5-1.5c-0.8-0.3-1.7-0.6-2.6-0.9c-0.9-0.3-1.7-0.7-2.6-1
							c-1.7-0.7-3.5-1.3-5.1-2c-1.6-0.7-3.1-1.4-4.4-2c-1.3-0.6-2.4-1-3.1-1.4c-0.7-0.4-1.1-0.6-1.1-0.6L438,496z"/>
					</g>
					<path fill-rule="evenodd" clip-rule="evenodd" fill="#4E507E" d="M469.6,487.4l-1.2,3.6c0,0,1.5,0.5,3,1
						c0.7,0.3,1.5,0.5,2.1,0.6c0.6,0.2,0.9,0.3,0.9,0.3l1.1-3.6c0,0-0.4-0.1-0.9-0.3c-0.6-0.1-1.3-0.4-2-0.6
						C471.1,487.9,469.6,487.4,469.6,487.4z"/>
					<polygon fill-rule="evenodd" clip-rule="evenodd" fill="#4E507E" points="459.3,483.6 457.9,487 463.7,489.3 465,485.8 					
						"/>
					<polygon fill-rule="evenodd" clip-rule="evenodd" fill="#4E507E" points="449.2,479.1 447.6,482.5 453.3,485.1 454.8,481.7 
											"/>
				</g>
			</g>
			<g>
				<g>
					<g>
						<path fill="none" d="M472.4,509.3c0,0,0.6,0.2,1.5,0.4c1,0.3,2.3,0.7,4,1.1c1.7,0.4,3.6,0.8,5.8,1.3c1.1,0.2,2.1,0.5,3.2,0.7
							c1.1,0.2,2.2,0.4,3.4,0.6c2.3,0.4,4.5,0.8,6.7,1.2c2.1,0.3,4.1,0.5,5.9,0.7c1.7,0.2,3.1,0.4,4.1,0.5c1,0.1,1.6,0.1,1.6,0.1
							l3.4-37.3c0,0-0.5,0-1.3-0.1c-0.8-0.1-2-0.2-3.4-0.4c-1.4-0.2-3-0.4-4.8-0.6c-1.7-0.3-3.6-0.6-5.4-1c-0.9-0.2-1.8-0.3-2.7-0.5
							c-0.9-0.2-1.8-0.4-2.6-0.6c-1.7-0.4-3.3-0.8-4.7-1.1c-1.4-0.3-2.5-0.7-3.3-0.9c-0.8-0.2-1.2-0.4-1.2-0.4L472.4,509.3z"/>
					</g>
					<polygon fill-rule="evenodd" clip-rule="evenodd" fill="#4E507E" points="501.8,495 501.3,498.7 507.5,499.5 507.9,495.8 					
						"/>
					<polygon fill-rule="evenodd" clip-rule="evenodd" fill="#4E507E" points="491,493.2 490.2,496.9 496.4,498 497,494.3 					"/>
					<path fill-rule="evenodd" clip-rule="evenodd" fill="#4E507E" d="M480.3,490.6l-1,3.6c0,0,0.4,0.1,0.9,0.3
						c0.6,0.2,1.3,0.4,2.1,0.5c1.5,0.4,3.1,0.7,3.1,0.7l0.8-3.7c0,0-1.5-0.3-3-0.7c-0.8-0.2-1.5-0.4-2-0.5
						C480.6,490.7,480.3,490.6,480.3,490.6z"/>
				</g>
			</g>
			<g>
				<g>
					<g>
						<path fill="none" d="M508.5,516c0,0,2.3,0.2,5.7,0.4c0.9,0.1,1.8,0.2,2.8,0.2c1,0,2,0.1,3.1,0.1c2.2,0.1,4.5,0.1,6.8,0.2
							c2.3-0.1,4.6-0.1,6.8-0.2c1.1,0,2.1-0.1,3.1-0.1c1,0,1.9-0.1,2.8-0.2c3.4-0.3,5.7-0.4,5.7-0.4l-3.4-37.3c0,0-1.9,0.1-4.7,0.4
							c-0.7,0-1.5,0.1-2.3,0.2c-0.8,0-1.7,0-2.5,0.1c-1.8,0-3.6,0.1-5.5,0.1c-1.9,0-3.7-0.1-5.5-0.1c-0.9,0-1.7,0-2.5-0.1
							c-0.8,0-1.6-0.1-2.3-0.2c-2.8-0.2-4.7-0.4-4.7-0.4L508.5,516z"/>
					</g>
					<path fill-rule="evenodd" clip-rule="evenodd" fill="#4E507E" d="M534.9,496.6l0.2,3.7c0,0,0.4,0,1,0c0.6,0,1.4-0.1,2.2-0.1
						c1.6-0.1,3.1-0.2,3.1-0.2l-0.3-3.7c0,0-1.5,0.1-3.1,0.2c-0.8,0.1-1.5,0.1-2.1,0.1C535.3,496.6,534.9,496.6,534.9,496.6z"/>
					<path fill-rule="evenodd" clip-rule="evenodd" fill="#4E507E" d="M523.8,496.7l-0.1,3.7c0,0,1.6,0,3.1,0.1
						c1.6,0,3.1-0.1,3.1-0.1l-0.1-3.7c0,0-1.5,0-3.1,0.1C525.4,496.8,523.8,496.7,523.8,496.7z"/>
					<path fill-rule="evenodd" clip-rule="evenodd" fill="#4E507E" d="M512.9,496.2l-0.3,3.7c0,0,1.6,0.1,3.1,0.2
						c1.6,0.1,3.1,0.2,3.1,0.2l0.2-3.7c0,0-1.5,0-3.1-0.2C514.4,496.3,512.9,496.2,512.9,496.2z"/>
				</g>
			</g>
			<g>
				<g>
					<g>
						<path fill="none" d="M545.3,516c0,0,0.6,0,1.6-0.1c1-0.1,2.4-0.3,4.1-0.5c1.7-0.2,3.7-0.5,5.9-0.7c2.1-0.3,4.4-0.8,6.7-1.2
							c1.1-0.2,2.3-0.4,3.4-0.6c1.1-0.3,2.2-0.5,3.2-0.7c2.1-0.5,4.1-0.9,5.8-1.3c1.7-0.4,3.1-0.8,4-1.1c1-0.3,1.5-0.4,1.5-0.4
							l-10.2-36.1c0,0-0.4,0.1-1.2,0.4c-0.8,0.2-1.9,0.6-3.3,0.9c-1.4,0.3-3,0.7-4.7,1.1c-0.9,0.2-1.7,0.4-2.6,0.6
							c-0.9,0.2-1.8,0.3-2.7,0.5c-1.8,0.3-3.7,0.7-5.4,1c-1.7,0.2-3.4,0.4-4.8,0.6c-1.4,0.2-2.5,0.3-3.4,0.4
							c-0.8,0.1-1.3,0.1-1.3,0.1L545.3,516z"/>
					</g>
					<path fill-rule="evenodd" clip-rule="evenodd" fill="#4E507E" d="M567.6,492.1l0.8,3.7c0,0,1.5-0.4,3.1-0.7
						c0.8-0.2,1.5-0.4,2.1-0.5c0.6-0.2,0.9-0.3,0.9-0.3l-1-3.6c0,0-0.4,0.1-0.9,0.3c-0.6,0.2-1.3,0.4-2,0.5
						C569.1,491.7,567.6,492.1,567.6,492.1z"/>
					<polygon fill-rule="evenodd" clip-rule="evenodd" fill="#4E507E" points="556.8,494.3 557.5,498 563.6,496.9 562.9,493.2 					
						"/>
					<polygon fill-rule="evenodd" clip-rule="evenodd" fill="#4E507E" points="546,495.8 546.3,499.5 552.6,498.7 552.1,495 					
						"/>
				</g>
			</g>
			<g>
				<g>
					<g>
						<path fill="none" d="M581.5,509.3c0,0,0.6-0.2,1.5-0.4c1-0.3,2.4-0.6,4-1.2c1.6-0.6,3.5-1.2,5.6-1.9c1-0.4,2.1-0.7,3.1-1.1
							c1.1-0.4,2.1-0.8,3.2-1.3c2.1-0.9,4.3-1.7,6.3-2.5c2-0.9,3.8-1.7,5.4-2.4c1.6-0.7,2.9-1.3,3.8-1.8c0.9-0.5,1.4-0.7,1.4-0.7
							L599,462.4c0,0-0.4,0.2-1.1,0.6c-0.7,0.4-1.8,0.9-3.1,1.4c-1.3,0.6-2.8,1.3-4.4,2c-1.6,0.7-3.4,1.3-5.1,2
							c-0.9,0.3-1.7,0.7-2.6,1c-0.9,0.3-1.7,0.6-2.6,0.9c-1.7,0.6-3.2,1.1-4.5,1.5c-1.3,0.5-2.5,0.7-3.2,1c-0.8,0.2-1.2,0.4-1.2,0.4
							L581.5,509.3z"/>
					</g>
					<polygon fill-rule="evenodd" clip-rule="evenodd" fill="#4E507E" points="599,481.6 600.5,485.1 606.3,482.5 604.6,479.1 					
						"/>
					<polygon fill-rule="evenodd" clip-rule="evenodd" fill="#4E507E" points="588.8,485.8 590.1,489.3 596,487 594.5,483.6 					
						"/>
					<path fill-rule="evenodd" clip-rule="evenodd" fill="#4E507E" d="M578.4,489.3l1.1,3.6c0,0,0.4-0.1,0.9-0.3
						c0.6-0.1,1.3-0.4,2.1-0.6c1.5-0.5,3-1,3-1l-1.2-3.6c0,0-1.5,0.5-2.9,1c-0.7,0.3-1.5,0.5-2,0.6
						C578.8,489.2,578.4,489.3,578.4,489.3z"/>
				</g>
			</g>
			<g>
				<g>
					<g>
						<path fill="none" d="M615.8,496c0,0,2-1.1,5.1-2.6c1.5-0.8,3.3-1.8,5.1-2.9c1.9-1.1,3.9-2.2,5.8-3.5c1.9-1.2,3.9-2.5,5.7-3.7
							c1.8-1.2,3.4-2.4,4.8-3.4c1.4-1,2.6-1.8,3.4-2.4c0.4-0.3,0.7-0.5,0.9-0.7c0.2-0.2,0.3-0.3,0.3-0.3l-22.6-29.9
							c0,0-0.1,0.1-0.3,0.2c-0.2,0.1-0.4,0.3-0.8,0.6c-0.7,0.5-1.6,1.1-2.8,2c-1.2,0.8-2.5,1.8-3.9,2.7c-1.5,0.9-3,2-4.6,3
							c-1.5,1.1-3.2,1.9-4.7,2.8c-1.5,0.9-2.9,1.7-4.2,2.3c-2.5,1.3-4.2,2.1-4.2,2.1L615.8,496z"/>
					</g>
					<polygon fill-rule="evenodd" clip-rule="evenodd" fill="#4E507E" points="628,465.6 630.1,468.7 635.2,465.1 633,462 					"/>
					<path fill-rule="evenodd" clip-rule="evenodd" fill="#4E507E" d="M618.7,471.5l1.9,3.2c0,0,1.4-0.8,2.7-1.6
						c1.3-0.8,2.6-1.7,2.6-1.7l-2-3.2c0,0-1.3,0.8-2.6,1.7C620,470.8,618.7,471.5,618.7,471.5z"/>
					<path fill-rule="evenodd" clip-rule="evenodd" fill="#4E507E" d="M609,476.9l1.7,3.3c0,0,1.4-0.7,2.8-1.4
						c0.7-0.3,1.4-0.8,1.9-1c0.5-0.3,0.9-0.5,0.9-0.5l-1.8-3.3c0,0-0.3,0.2-0.8,0.5c-0.5,0.3-1.2,0.7-1.8,1
						C610.4,476.2,609,476.9,609,476.9z"/>
				</g>
			</g>
			<g>
				<g>
					<g>
						<path fill="none" d="M647,476.6c0,0,1.8-1.4,4.5-3.6c0.7-0.5,1.4-1.1,2.2-1.7c0.7-0.6,1.5-1.3,2.4-2c1.6-1.4,3.4-2.9,5.1-4.4
							c3.3-3.2,6.7-6.3,9-8.8c2.4-2.5,4-4.2,4-4.2l-27.7-25.3c0,0-1.3,1.4-3.2,3.4c-1.9,2.1-4.7,4.6-7.3,7.2
							c-1.4,1.2-2.8,2.5-4.1,3.6c-0.7,0.6-1.3,1.1-1.9,1.7c-0.6,0.5-1.2,1-1.8,1.4c-2.2,1.7-3.7,2.9-3.7,2.9L647,476.6z"/>
					</g>
					<path fill-rule="evenodd" clip-rule="evenodd" fill="#4E507E" d="M653.4,444.5l2.6,2.7c0,0,0.3-0.3,0.7-0.7
						c0.4-0.4,0.9-1,1.5-1.6c1.1-1.1,2.2-2.3,2.2-2.3l-2.7-2.6c0,0-1.1,1.1-2.1,2.2c-0.5,0.6-1.1,1.1-1.5,1.5
						C653.7,444.2,653.4,444.5,653.4,444.5z"/>
					<path fill-rule="evenodd" clip-rule="evenodd" fill="#4E507E" d="M645.4,452l2.5,2.8c0,0,1.2-1,2.4-2.1
						c1.1-1.1,2.3-2.2,2.3-2.2l-2.6-2.7c0,0-1.1,1.1-2.2,2.1C646.5,451,645.4,452,645.4,452z"/>
					<path fill-rule="evenodd" clip-rule="evenodd" fill="#4E507E" d="M636.9,459l2.3,3c0,0,1.2-1,2.5-1.9c0.6-0.5,1.2-1,1.7-1.3
						c0.4-0.4,0.7-0.6,0.7-0.6l-2.4-2.9c0,0-0.3,0.3-0.7,0.6c-0.5,0.4-1.1,0.8-1.7,1.3C638.1,458.1,636.9,459,636.9,459z"/>
				</g>
			</g>
			<g>
				<g>
					<g>
						<path fill="none" d="M674.2,451.8c0,0,0.4-0.4,1-1.2c0.7-0.8,1.6-1.8,2.7-3.2c2.3-2.6,5.1-6.2,8-9.8c1.4-1.8,2.7-3.7,4-5.5
							c1.2-1.8,2.4-3.4,3.3-4.9c1.9-2.9,3.1-4.8,3.1-4.8l-31.9-19.8c0,0-1,1.6-2.5,3.9c-0.7,1.2-1.7,2.5-2.7,3.9
							c-1,1.4-2.1,3-3.2,4.5c-2.3,2.9-4.6,5.9-6.5,8c-0.9,1.1-1.7,1.9-2.2,2.6c-0.5,0.6-0.9,1-0.9,1L674.2,451.8z"/>
					</g>
					<path fill-rule="evenodd" clip-rule="evenodd" fill="#4E507E" d="M674.6,419.1l3.1,2.1c0,0,0.9-1.3,1.8-2.6
						c0.8-1.3,1.7-2.6,1.7-2.6l-3.2-2c0,0-0.8,1.3-1.7,2.6C675.5,417.8,674.6,419.1,674.6,419.1z"/>
					<path fill-rule="evenodd" clip-rule="evenodd" fill="#4E507E" d="M668.1,428l3,2.3c0,0,1-1.2,1.9-2.5c0.5-0.6,1-1.2,1.3-1.7
						c0.3-0.5,0.6-0.8,0.6-0.8l-3-2.2c0,0-0.2,0.3-0.6,0.8c-0.3,0.5-0.8,1.1-1.3,1.7C669,426.7,668.1,428,668.1,428z"/>
					<polygon fill-rule="evenodd" clip-rule="evenodd" fill="#4E507E" points="661,436.4 663.8,438.9 668,434.1 665.1,431.8 					
						"/>
				</g>
			</g>
			<g>
				<g>
					<g>
						<path fill="none" d="M696.4,422.5c0,0,0.3-0.5,0.9-1.3c0.5-0.9,1.2-2.1,2.1-3.6c0.9-1.5,1.9-3.2,2.9-5.1c1-1.9,2-4,3.1-6
							c1.1-2,2-4.1,2.9-6.1c0.9-2,1.7-3.8,2.4-5.4c1.3-3.2,2.1-5.4,2.1-5.4l-35-13.6c0,0-0.7,1.7-1.7,4.3c-0.6,1.3-1.2,2.8-2,4.4
							c-0.7,1.6-1.5,3.3-2.4,5c-0.9,1.7-1.7,3.3-2.5,4.9c-0.9,1.5-1.7,2.9-2.4,4.2c-0.7,1.2-1.3,2.2-1.7,2.9
							c-0.4,0.7-0.7,1.1-0.7,1.1L696.4,422.5z"/>
					</g>
					<path fill-rule="evenodd" clip-rule="evenodd" fill="#4E507E" d="M690.8,390.2l3.4,1.5c0,0,0.6-1.4,1.3-2.9
						c0.6-1.5,1.2-2.9,1.2-2.9l-3.5-1.4c0,0-0.6,1.4-1.1,2.9C691.4,388.8,690.8,390.2,690.8,390.2z"/>
					<path fill-rule="evenodd" clip-rule="evenodd" fill="#4E507E" d="M686,400.2l3.3,1.7c0,0,0.7-1.4,1.4-2.8
						c0.4-0.7,0.7-1.4,1-1.9c0.3-0.5,0.4-0.9,0.4-0.9l-3.4-1.6c0,0-0.1,0.4-0.4,0.9c-0.3,0.5-0.6,1.2-1,1.9
						C686.7,398.8,686,400.2,686,400.2z"/>
					<polygon fill-rule="evenodd" clip-rule="evenodd" fill="#4E507E" points="680.6,409.8 683.9,411.7 687,406.2 683.7,404.4 					
						"/>
				</g>
			</g>
			<g>
				<g>
					<g>
						<path fill="none" d="M712.8,389.5c0,0,0.2-0.5,0.6-1.5c0.4-0.9,0.9-2.3,1.4-3.9c1.1-3.3,2.7-7.6,3.8-12.1
							c1.3-4.4,2.3-8.9,3.1-12.3c0.2-0.8,0.4-1.6,0.5-2.3c0.1-0.7,0.2-1.3,0.3-1.8c0.2-1,0.3-1.6,0.3-1.6l-36.9-6.8
							c0,0-0.1,0.5-0.2,1.3c-0.1,0.4-0.2,0.9-0.3,1.5c-0.1,0.6-0.3,1.2-0.4,1.9c-0.6,2.7-1.4,6.4-2.5,10c-0.9,3.6-2.2,7.1-3.1,9.8
							c-0.4,1.3-0.9,2.4-1.2,3.2c-0.3,0.8-0.5,1.2-0.5,1.2L712.8,389.5z"/>
					</g>
					<path fill-rule="evenodd" clip-rule="evenodd" fill="#4E507E" d="M701.3,358.9l3.6,0.9c0,0,0.4-1.5,0.7-3.1
						c0.2-0.8,0.4-1.5,0.5-2.1c0.1-0.6,0.2-1,0.2-1l-3.7-0.7c0,0-0.1,0.4-0.2,0.9c-0.1,0.6-0.3,1.3-0.5,2.1
						C701.7,357.4,701.3,358.9,701.3,358.9z"/>
					<polygon fill-rule="evenodd" clip-rule="evenodd" fill="#4E507E" points="698.5,369.5 702.1,370.6 703.8,364.6 700.2,363.6 
											"/>
					<path fill-rule="evenodd" clip-rule="evenodd" fill="#4E507E" d="M695,379.9l3.5,1.3c0,0,0.1-0.4,0.4-0.9
						c0.2-0.6,0.4-1.3,0.7-2c0.5-1.5,1-3,1-3l-3.6-1.2c0,0-0.5,1.5-1,2.9c-0.2,0.7-0.5,1.5-0.7,2C695.1,379.6,695,379.9,695,379.9z"
						/>
				</g>
			</g>
			<g>
				<g>
					<g>
						<path fill="none" d="M722.8,354.1c0,0,0.4-2.3,1-5.7c0.3-1.7,0.5-3.7,0.8-5.8c0.2-2.1,0.6-4.4,0.8-6.7
							c0.2-2.3,0.3-4.6,0.5-6.7c0.1-1.1,0.1-2.1,0.1-3.1c0-1,0.1-1.9,0.1-2.8c0.1-3.4,0.1-5.7,0.1-5.7h-37.5c0,0,0,1.9-0.1,4.7
							c0,0.7,0,1.5-0.1,2.3c0,0.8,0,1.7-0.1,2.5c-0.1,1.7-0.3,3.6-0.4,5.5c-0.1,1.9-0.4,3.7-0.6,5.5c-0.2,1.7-0.4,3.4-0.6,4.7
							c-0.5,2.8-0.8,4.6-0.8,4.6L722.8,354.1z"/>
					</g>
					<polygon fill-rule="evenodd" clip-rule="evenodd" fill="#4E507E" points="706,326.1 709.7,326.3 709.9,320 706.1,320 					"/>
					<path fill-rule="evenodd" clip-rule="evenodd" fill="#4E507E" d="M705.1,337.1l3.7,0.4c0,0,0-0.4,0.1-1
						c0.1-0.6,0.1-1.4,0.2-2.2c0.1-1.6,0.2-3.1,0.2-3.1l-3.7-0.3c0,0-0.1,1.5-0.2,3.1c-0.1,0.8-0.1,1.5-0.2,2.1
						C705.1,336.7,705.1,337.1,705.1,337.1z"/>
					<path fill-rule="evenodd" clip-rule="evenodd" fill="#4E507E" d="M703.5,348l3.7,0.6c0,0,0.3-1.5,0.6-3.1
						c0.2-1.6,0.4-3.1,0.4-3.1l-3.7-0.5c0,0-0.2,1.5-0.4,3C703.8,346.5,703.5,348,703.5,348z"/>
				</g>
			</g>
			<g>
				<g>
					<g>
						<path fill="none" d="M726.3,317.5c0,0-0.1-2.3-0.1-5.7c0-0.9,0-1.8-0.1-2.8c0-1-0.1-2-0.1-3.1c-0.2-2.2-0.3-4.4-0.5-6.7
							c-0.1-2.3-0.5-4.6-0.8-6.7c-0.3-2.1-0.5-4.1-0.8-5.8c-0.6-3.4-1-5.7-1-5.7l-36.9,6.8c0,0,0.3,1.8,0.8,4.6
							c0.2,1.4,0.4,3,0.6,4.7c0.2,1.7,0.5,3.6,0.6,5.5c0.1,1.9,0.3,3.7,0.4,5.5c0.1,0.9,0.1,1.7,0.1,2.5c0,0.8,0,1.6,0.1,2.3
							c0.1,2.8,0.1,4.7,0.1,4.7H726.3z"/>
					</g>
					<path fill-rule="evenodd" clip-rule="evenodd" fill="#4E507E" d="M704.5,293.1l3.7-0.5c0,0-0.2-1.6-0.4-3.1
						c-0.3-1.5-0.6-3.1-0.6-3.1l-3.7,0.6c0,0,0.3,1.5,0.5,3C704.3,291.5,704.5,293.1,704.5,293.1z"/>
					<path fill-rule="evenodd" clip-rule="evenodd" fill="#4E507E" d="M705.6,304l3.7-0.3c0,0-0.1-1.6-0.2-3.1
						c-0.1-0.8-0.1-1.6-0.2-2.1c-0.1-0.6-0.1-1-0.1-1l-3.7,0.4c0,0,0,0.4,0.1,1c0.1,0.6,0.1,1.3,0.2,2.1
						C705.5,302.5,705.6,304,705.6,304z"/>
					<polygon fill-rule="evenodd" clip-rule="evenodd" fill="#4E507E" points="706.1,315 709.9,315 709.7,308.7 706,308.9 					"/>
				</g>
			</g>
			<g>
				<g>
					<g>
						<path fill="none" d="M722.8,280.9c0,0-0.1-0.6-0.3-1.6c-0.1-0.5-0.2-1.1-0.3-1.8c-0.1-0.7-0.3-1.5-0.5-2.3
							c-0.8-3.4-1.7-7.9-3.1-12.3c-1.2-4.5-2.7-8.8-3.8-12.1c-0.5-1.6-1.1-3-1.4-3.9c-0.4-0.9-0.6-1.5-0.6-1.5l-35,13.6
							c0,0,0.2,0.4,0.5,1.2c0.3,0.8,0.7,1.8,1.2,3.2c0.9,2.7,2.2,6.2,3.1,9.8c1.1,3.6,1.9,7.2,2.5,10c0.2,0.7,0.3,1.3,0.4,1.9
							c0.1,0.6,0.2,1,0.3,1.5c0.1,0.8,0.2,1.3,0.2,1.3L722.8,280.9z"/>
					</g>
					<path fill-rule="evenodd" clip-rule="evenodd" fill="#4E507E" d="M697,260.9l3.6-1.2c0,0-0.5-1.5-1-3c-0.3-0.7-0.5-1.5-0.7-2
						c-0.2-0.5-0.4-0.9-0.4-0.9L695,255c0,0,0.1,0.4,0.3,0.9c0.2,0.5,0.4,1.3,0.7,2C696.5,259.4,697,260.9,697,260.9z"/>
					<polygon fill-rule="evenodd" clip-rule="evenodd" fill="#4E507E" points="700.2,271.4 703.8,270.4 702.1,264.4 698.5,265.5 
											"/>
					<path fill-rule="evenodd" clip-rule="evenodd" fill="#4E507E" d="M702.7,282.1l3.7-0.7c0,0-0.1-0.4-0.2-1
						c-0.1-0.6-0.3-1.3-0.5-2.1c-0.4-1.5-0.7-3.1-0.7-3.1l-3.6,0.9c0,0,0.3,1.5,0.7,3c0.2,0.7,0.3,1.5,0.5,2.1
						C702.6,281.7,702.7,282.1,702.7,282.1z"/>
				</g>
			</g>
			<g>
				<g>
					<g>
						<path fill="none" d="M712.8,245.5c0,0-0.8-2.1-2.1-5.4c-0.7-1.6-1.5-3.4-2.4-5.4c-0.9-2-1.8-4.1-2.9-6.1c-1.1-2-2.1-4.1-3.1-6
							c-1.1-1.9-2.1-3.6-2.9-5.1c-0.9-1.5-1.6-2.7-2.1-3.6c-0.5-0.8-0.9-1.3-0.9-1.3l-31.9,19.8c0,0,0.3,0.4,0.7,1.1
							c0.4,0.7,1,1.7,1.7,2.9c0.7,1.2,1.5,2.6,2.4,4.2c0.8,1.6,1.6,3.2,2.5,4.9c0.9,1.6,1.6,3.4,2.4,5c0.7,1.6,1.4,3.1,2,4.4
							c1,2.6,1.7,4.3,1.7,4.3L712.8,245.5z"/>
					</g>
					<polygon fill-rule="evenodd" clip-rule="evenodd" fill="#4E507E" points="683.7,230.6 687,228.7 683.8,223.3 680.6,225.2 					
						"/>
					<path fill-rule="evenodd" clip-rule="evenodd" fill="#4E507E" d="M688.8,240.4l3.4-1.6c0,0-0.1-0.4-0.4-0.9
						c-0.3-0.5-0.6-1.2-1-1.9c-0.7-1.4-1.4-2.8-1.4-2.8l-3.3,1.7c0,0,0.7,1.4,1.4,2.7c0.4,0.7,0.7,1.4,1,1.9
						C688.6,240,688.8,240.4,688.8,240.4z"/>
					<path fill-rule="evenodd" clip-rule="evenodd" fill="#4E507E" d="M693.2,250.4l3.5-1.4c0,0-0.6-1.5-1.2-2.9
						c-0.6-1.4-1.3-2.9-1.3-2.9l-3.4,1.5c0,0,0.6,1.4,1.3,2.8C692.6,249,693.2,250.4,693.2,250.4z"/>
				</g>
			</g>
			<g>
				<g>
					<g>
						<path fill="none" d="M696.4,212.6c0,0-1.2-1.9-3.1-4.8c-0.9-1.5-2.1-3.1-3.3-4.9c-1.3-1.7-2.5-3.7-4-5.5
							c-2.8-3.6-5.7-7.3-8-9.8c-1.1-1.3-2.1-2.4-2.7-3.2c-0.7-0.8-1-1.2-1-1.2l-27.7,25.3c0,0,0.3,0.3,0.9,1
							c0.5,0.6,1.3,1.5,2.2,2.6c1.9,2.1,4.2,5,6.5,8c1.2,1.5,2.2,3,3.2,4.5c1,1.4,2,2.7,2.7,3.9c1.5,2.4,2.5,3.9,2.5,3.9
							L696.4,212.6z"/>
					</g>
					<polygon fill-rule="evenodd" clip-rule="evenodd" fill="#4E507E" points="665,203.2 667.9,200.8 663.8,196.1 661,198.6 					
						"/>
					<path fill-rule="evenodd" clip-rule="evenodd" fill="#4E507E" d="M671.8,212l3-2.2c0,0-0.2-0.3-0.6-0.8
						c-0.3-0.5-0.8-1.1-1.3-1.7c-1-1.2-1.9-2.5-1.9-2.5l-3,2.3c0,0,1,1.2,1.9,2.4c0.5,0.6,0.9,1.2,1.3,1.7
						C671.6,211.7,671.8,212,671.8,212z"/>
					<path fill-rule="evenodd" clip-rule="evenodd" fill="#4E507E" d="M678,221l3.2-2c0,0-0.8-1.3-1.7-2.6c-0.4-0.7-0.8-1.3-1.2-1.8
						c-0.3-0.5-0.6-0.8-0.6-0.8l-3.1,2.1c0,0,0.2,0.3,0.6,0.8c0.3,0.5,0.8,1.1,1.2,1.8C677.1,219.7,678,221,678,221z"/>
				</g>
			</g>
			<g>
				<g>
					<g>
						<path fill="none" d="M674.2,183.2c0,0-1.6-1.7-4-4.2c-2.3-2.6-5.7-5.7-9-8.8c-1.7-1.5-3.5-3-5.1-4.4c-0.8-0.7-1.6-1.4-2.4-2
							c-0.8-0.6-1.5-1.2-2.2-1.7c-2.7-2.1-4.5-3.6-4.5-3.6l-22.6,29.9c0,0,1.5,1.2,3.7,2.9c0.6,0.4,1.1,0.9,1.8,1.4
							c0.6,0.5,1.2,1.1,1.9,1.7c1.3,1.2,2.7,2.4,4.1,3.6c2.7,2.6,5.5,5.1,7.3,7.2c1.9,2,3.2,3.4,3.2,3.4L674.2,183.2z"/>
					</g>
					<path fill-rule="evenodd" clip-rule="evenodd" fill="#4E507E" d="M641.7,179.8l2.4-2.9c0,0-0.3-0.3-0.7-0.6
						c-0.5-0.4-1.1-0.8-1.7-1.3c-1.2-1-2.5-1.9-2.5-1.9l-2.3,3c0,0,1.2,0.9,2.4,1.9c0.6,0.5,1.2,0.9,1.7,1.3
						C641.4,179.6,641.7,179.8,641.7,179.8z"/>
					<path fill-rule="evenodd" clip-rule="evenodd" fill="#4E507E" d="M649.9,187.2l2.6-2.7c0,0-1.1-1.1-2.3-2.2
						c-1.2-1-2.4-2.1-2.4-2.1l-2.5,2.8c0,0,1.2,1,2.3,2C648.8,186.1,649.9,187.2,649.9,187.2z"/>
					<path fill-rule="evenodd" clip-rule="evenodd" fill="#4E507E" d="M657.7,194.9l2.7-2.6c0,0-1.1-1.1-2.2-2.3
						c-0.5-0.6-1.1-1.1-1.5-1.6c-0.4-0.4-0.7-0.7-0.7-0.7l-2.6,2.7c0,0,0.3,0.3,0.7,0.7c0.4,0.4,0.9,1,1.5,1.5
						C656.6,193.8,657.7,194.9,657.7,194.9z"/>
				</g>
			</g>
			<g>
				<g>
					<g>
						<path fill="none" d="M647,158.5c0,0-0.1-0.1-0.3-0.3c-0.2-0.2-0.5-0.4-0.9-0.7c-0.8-0.6-2-1.4-3.4-2.4c-1.4-1-3-2.2-4.8-3.4
							c-1.8-1.2-3.8-2.4-5.7-3.7c-1.9-1.3-4-2.3-5.8-3.5c-1.9-1.1-3.6-2.1-5.1-2.9c-3.1-1.6-5.1-2.6-5.1-2.6L599,172.6
							c0,0,1.7,0.9,4.2,2.1c1.3,0.6,2.6,1.5,4.2,2.3c1.5,0.9,3.2,1.7,4.7,2.8c1.6,1,3.1,2,4.6,3c1.5,0.9,2.8,2,3.9,2.7
							c1.1,0.8,2.1,1.5,2.8,2c0.3,0.2,0.6,0.4,0.8,0.6c0.2,0.1,0.3,0.2,0.3,0.2L647,158.5z"/>
					</g>
					<path fill-rule="evenodd" clip-rule="evenodd" fill="#4E507E" d="M614.4,161.1l1.8-3.3c0,0-0.3-0.2-0.9-0.5
						c-0.5-0.3-1.2-0.7-1.9-1c-1.4-0.7-2.8-1.4-2.8-1.4l-1.7,3.3c0,0,1.4,0.7,2.7,1.4c0.7,0.3,1.3,0.7,1.8,1
						C614.1,160.9,614.4,161.1,614.4,161.1z"/>
					<path fill-rule="evenodd" clip-rule="evenodd" fill="#4E507E" d="M623.9,166.8l2-3.2c0,0-1.3-0.8-2.6-1.7
						c-1.3-0.9-2.7-1.6-2.7-1.6l-1.9,3.2c0,0,1.3,0.7,2.6,1.6C622.6,165.9,623.9,166.8,623.9,166.8z"/>
					<polygon fill-rule="evenodd" clip-rule="evenodd" fill="#4E507E" points="632.9,173 635.1,170 630,166.3 627.9,169.4 					"/>
				</g>
			</g>
			<g>
				<g>
					<g>
						<path fill="none" d="M615.8,139.1c0,0-0.5-0.3-1.4-0.7c-0.9-0.5-2.2-1.1-3.8-1.8c-1.6-0.7-3.4-1.5-5.4-2.4
							c-2-0.9-4.1-1.7-6.3-2.5c-1.1-0.4-2.1-0.8-3.2-1.3c-1.1-0.4-2.1-0.7-3.1-1.1c-2-0.7-4-1.3-5.6-1.9c-1.6-0.5-3-0.9-4-1.2
							c-1-0.3-1.5-0.4-1.5-0.4l-10.2,36.1c0,0,0.4,0.1,1.2,0.4c0.8,0.2,1.9,0.5,3.2,1c1.3,0.4,2.9,1,4.5,1.5
							c0.8,0.3,1.7,0.6,2.6,0.9c0.9,0.3,1.7,0.7,2.6,1c1.7,0.7,3.5,1.3,5.1,2c1.6,0.7,3.1,1.4,4.4,2c1.3,0.6,2.4,1,3.1,1.4
							c0.7,0.4,1.1,0.6,1.1,0.6L615.8,139.1z"/>
					</g>
					<path fill-rule="evenodd" clip-rule="evenodd" fill="#4E507E" d="M584.2,147.6l1.2-3.6c0,0-1.5-0.5-3-1
						c-0.7-0.3-1.5-0.5-2.1-0.6c-0.6-0.2-0.9-0.3-0.9-0.3l-1.1,3.6c0,0,0.4,0.1,0.9,0.3c0.6,0.1,1.3,0.4,2,0.6
						C582.7,147.2,584.2,147.6,584.2,147.6z"/>
					<polygon fill-rule="evenodd" clip-rule="evenodd" fill="#4E507E" points="594.5,151.5 595.9,148 590.1,145.7 588.8,149.2 					
						"/>
					<polygon fill-rule="evenodd" clip-rule="evenodd" fill="#4E507E" points="604.6,155.9 606.2,152.5 600.5,149.9 599,153.4 					
						"/>
				</g>
			</g>
			<g>
				<g>
					<g>
						<path fill="none" d="M581.5,125.8c0,0-0.6-0.2-1.5-0.4c-1-0.3-2.3-0.7-4-1.1c-1.7-0.4-3.6-0.8-5.8-1.3
							c-1.1-0.2-2.1-0.5-3.2-0.7c-1.1-0.2-2.2-0.4-3.4-0.6c-2.3-0.4-4.5-0.8-6.7-1.2c-2.1-0.3-4.1-0.5-5.9-0.7
							c-1.7-0.2-3.1-0.4-4.1-0.5c-1-0.1-1.6-0.1-1.6-0.1l-3.4,37.3c0,0,0.5,0,1.3,0.1c0.8,0.1,2,0.2,3.4,0.4c1.4,0.2,3,0.4,4.8,0.6
							c1.7,0.3,3.6,0.6,5.4,1c0.9,0.2,1.8,0.3,2.7,0.5c0.9,0.2,1.8,0.4,2.6,0.6c1.7,0.4,3.3,0.8,4.7,1.1c1.4,0.3,2.5,0.7,3.3,0.9
							c0.8,0.2,1.2,0.4,1.2,0.4L581.5,125.8z"/>
					</g>
					<polygon fill-rule="evenodd" clip-rule="evenodd" fill="#4E507E" points="552,140 552.5,136.3 546.3,135.5 545.9,139.3 					
						"/>
					<polygon fill-rule="evenodd" clip-rule="evenodd" fill="#4E507E" points="562.9,141.9 563.6,138.2 557.4,137.1 556.8,140.8 
											"/>
					<path fill-rule="evenodd" clip-rule="evenodd" fill="#4E507E" d="M573.6,144.4l1-3.6c0,0-0.4-0.1-0.9-0.3
						c-0.6-0.2-1.3-0.4-2.1-0.5c-1.5-0.4-3.1-0.7-3.1-0.7l-0.8,3.7c0,0,1.5,0.3,3,0.7c0.8,0.2,1.5,0.4,2,0.5
						C573.2,144.3,573.6,144.4,573.6,144.4z"/>
				</g>
			</g>
			<g>
				<g>
					<g>
						<path fill="none" d="M545.3,119.1c0,0-2.3-0.2-5.7-0.4c-0.9-0.1-1.8-0.2-2.8-0.2c-1,0-2-0.1-3.1-0.1c-2.2-0.1-4.5-0.1-6.8-0.2
							c-2.3,0.1-4.6,0.1-6.8,0.2c-1.1,0-2.1,0.1-3.1,0.1c-1,0-1.9,0.1-2.8,0.2c-3.4,0.3-5.7,0.4-5.7,0.4l3.4,37.3
							c0,0,1.9-0.1,4.7-0.4c0.7,0,1.5-0.1,2.3-0.2c0.8,0,1.7,0,2.5-0.1c1.8,0,3.6-0.1,5.5-0.1c1.9,0,3.7,0.1,5.5,0.1
							c0.9,0,1.7,0,2.5,0.1c0.8,0,1.6,0.1,2.3,0.2c2.8,0.2,4.7,0.4,4.7,0.4L545.3,119.1z"/>
					</g>
					<path fill-rule="evenodd" clip-rule="evenodd" fill="#4E507E" d="M518.9,138.5l-0.2-3.7c0,0-0.4,0-1,0c-0.6,0-1.4,0.1-2.2,0.1
						c-1.6,0.1-3.1,0.2-3.1,0.2l0.3,3.7c0,0,1.5-0.1,3.1-0.2c0.8-0.1,1.5-0.1,2.1-0.1C518.6,138.5,518.9,138.5,518.9,138.5z"/>
					<path fill-rule="evenodd" clip-rule="evenodd" fill="#4E507E" d="M530,138.3l0.1-3.7c0,0-1.6,0-3.1-0.1c-1.6,0-3.1,0.1-3.1,0.1
						l0.1,3.7c0,0,1.5,0,3.1-0.1C528.4,138.3,530,138.3,530,138.3z"/>
					<path fill-rule="evenodd" clip-rule="evenodd" fill="#4E507E" d="M540.9,138.9l0.3-3.7c0,0-1.6-0.1-3.1-0.2
						c-1.6-0.1-3.1-0.2-3.1-0.2l-0.2,3.7c0,0,1.5,0,3.1,0.2C539.4,138.7,540.9,138.9,540.9,138.9z"/>
				</g>
			</g>
			<g>
				<g>
					<g>
						<path fill="none" d="M508.5,119.1c0,0-0.6,0-1.6,0.1c-1,0.1-2.4,0.3-4.1,0.5c-1.7,0.2-3.7,0.5-5.9,0.7
							c-2.1,0.3-4.4,0.8-6.7,1.2c-1.1,0.2-2.3,0.4-3.4,0.6c-1.1,0.3-2.2,0.5-3.2,0.7c-2.1,0.5-4.1,0.9-5.8,1.3
							c-1.7,0.4-3.1,0.8-4,1.1c-1,0.3-1.5,0.4-1.5,0.4l10.2,36.1c0,0,0.4-0.1,1.2-0.4c0.8-0.2,1.9-0.6,3.3-0.9
							c1.4-0.3,3-0.7,4.7-1.1c0.9-0.2,1.7-0.4,2.6-0.6c0.9-0.2,1.8-0.3,2.7-0.5c1.8-0.3,3.7-0.7,5.4-1c1.7-0.2,3.4-0.4,4.8-0.6
							c1.4-0.2,2.5-0.3,3.4-0.4c0.8-0.1,1.3-0.1,1.3-0.1L508.5,119.1z"/>
					</g>
					<path fill-rule="evenodd" clip-rule="evenodd" fill="#4E507E" d="M486.2,143l-0.8-3.7c0,0-1.5,0.4-3.1,0.7
						c-0.8,0.2-1.5,0.4-2.1,0.5c-0.6,0.2-0.9,0.3-0.9,0.3l1,3.6c0,0,0.4-0.1,0.9-0.3c0.6-0.2,1.3-0.4,2-0.5
						C484.7,143.3,486.2,143,486.2,143z"/>
					<polygon fill-rule="evenodd" clip-rule="evenodd" fill="#4E507E" points="497,140.8 496.4,137.1 490.2,138.2 490.9,141.9 					
						"/>
					<polygon fill-rule="evenodd" clip-rule="evenodd" fill="#4E507E" points="507.9,139.3 507.5,135.5 501.2,136.3 501.8,140 					
						"/>
				</g>
			</g>
			<g>
				<g>
					<g>
						<path fill="none" d="M472.4,125.8c0,0-0.6,0.2-1.5,0.4c-1,0.3-2.4,0.6-4,1.2c-1.6,0.6-3.5,1.2-5.6,1.9c-1,0.4-2.1,0.7-3.1,1.1
							c-1.1,0.4-2.1,0.8-3.2,1.3c-2.1,0.9-4.3,1.7-6.3,2.5c-2,0.9-3.8,1.7-5.4,2.4c-1.6,0.7-2.9,1.3-3.8,1.8
							c-0.9,0.5-1.4,0.7-1.4,0.7l16.7,33.6c0,0,0.4-0.2,1.1-0.6c0.7-0.4,1.8-0.9,3.1-1.4c1.3-0.6,2.8-1.3,4.4-2
							c1.6-0.7,3.4-1.3,5.1-2c0.9-0.3,1.7-0.7,2.6-1c0.9-0.3,1.7-0.6,2.6-0.9c1.7-0.6,3.2-1.1,4.5-1.5c1.3-0.5,2.5-0.7,3.2-1
							c0.8-0.2,1.2-0.4,1.2-0.4L472.4,125.8z"/>
					</g>
					<polygon fill-rule="evenodd" clip-rule="evenodd" fill="#4E507E" points="454.8,153.4 453.3,150 447.6,152.6 449.2,155.9 					
						"/>
					<polygon fill-rule="evenodd" clip-rule="evenodd" fill="#4E507E" points="465,149.2 463.7,145.7 457.9,148 459.3,151.5 					
						"/>
					<path fill-rule="evenodd" clip-rule="evenodd" fill="#4E507E" d="M475.4,145.8l-1.1-3.6c0,0-0.4,0.1-0.9,0.3
						c-0.6,0.1-1.3,0.4-2.1,0.6c-1.5,0.5-3,1-3,1l1.2,3.6c0,0,1.5-0.5,2.9-1c0.7-0.3,1.5-0.5,2-0.6
						C475.1,145.9,475.4,145.8,475.4,145.8z"/>
				</g>
			</g>
			<g>
				<g>
					<g>
						<path fill="none" d="M438,139.1c0,0-2,1.1-5.1,2.6c-1.5,0.8-3.3,1.8-5.1,2.9c-1.9,1.1-3.9,2.2-5.8,3.5
							c-1.9,1.2-3.9,2.5-5.7,3.7c-1.8,1.2-3.4,2.4-4.8,3.4c-1.4,1-2.6,1.8-3.4,2.4c-0.4,0.3-0.7,0.5-0.9,0.7
							c-0.2,0.2-0.3,0.3-0.3,0.3l22.6,29.9c0,0,0.1-0.1,0.3-0.2c0.2-0.1,0.4-0.3,0.8-0.6c0.7-0.5,1.6-1.1,2.8-2
							c1.2-0.8,2.5-1.8,3.9-2.7c1.5-0.9,3.1-2,4.6-3c1.5-1.1,3.2-1.9,4.7-2.8c1.5-0.9,2.9-1.7,4.2-2.3c2.5-1.3,4.2-2.1,4.2-2.1
							L438,139.1z"/>
					</g>
					<polygon fill-rule="evenodd" clip-rule="evenodd" fill="#4E507E" points="425.9,169.4 423.7,166.4 418.6,170 420.8,173 					
						"/>
					<path fill-rule="evenodd" clip-rule="evenodd" fill="#4E507E" d="M435.2,163.5l-1.9-3.2c0,0-1.4,0.8-2.7,1.6
						c-1.3,0.8-2.6,1.7-2.6,1.7l2,3.2c0,0,1.3-0.8,2.6-1.7C433.8,164.3,435.2,163.5,435.2,163.5z"/>
					<path fill-rule="evenodd" clip-rule="evenodd" fill="#4E507E" d="M444.8,158.2l-1.7-3.3c0,0-1.4,0.7-2.8,1.4
						c-0.7,0.3-1.4,0.8-1.9,1c-0.5,0.3-0.9,0.5-0.9,0.5l1.8,3.3c0,0,0.3-0.2,0.8-0.5c0.5-0.3,1.2-0.7,1.8-1
						C443.4,158.9,444.8,158.2,444.8,158.2z"/>
				</g>
			</g>
			<g>
				<g>
					<g>
						<path fill="none" d="M406.8,158.5c0,0-1.8,1.4-4.5,3.6c-0.7,0.5-1.4,1.1-2.2,1.7c-0.7,0.6-1.5,1.3-2.4,2
							c-1.6,1.4-3.4,2.9-5.1,4.4c-3.3,3.2-6.7,6.3-9,8.8c-2.4,2.5-4,4.2-4,4.2l27.7,25.3c0,0,1.3-1.4,3.2-3.4
							c1.9-2.1,4.7-4.6,7.3-7.2c1.4-1.2,2.8-2.5,4.1-3.6c0.7-0.6,1.3-1.1,1.9-1.7c0.6-0.5,1.2-1,1.8-1.4c2.2-1.7,3.7-2.9,3.7-2.9
							L406.8,158.5z"/>
					</g>
					<path fill-rule="evenodd" clip-rule="evenodd" fill="#4E507E" d="M400.4,190.5l-2.6-2.7c0,0-0.3,0.3-0.7,0.7
						c-0.4,0.4-0.9,1-1.5,1.6c-1.1,1.1-2.2,2.3-2.2,2.3l2.7,2.6c0,0,1.1-1.1,2.1-2.2c0.5-0.6,1.1-1.1,1.5-1.5
						C400.1,190.8,400.4,190.5,400.4,190.5z"/>
					<path fill-rule="evenodd" clip-rule="evenodd" fill="#4E507E" d="M408.4,183l-2.5-2.8c0,0-1.2,1-2.4,2.1
						c-1.1,1.1-2.3,2.2-2.3,2.2l2.6,2.7c0,0,1.1-1.1,2.2-2.1C407.3,184,408.4,183,408.4,183z"/>
					<path fill-rule="evenodd" clip-rule="evenodd" fill="#4E507E" d="M416.9,176l-2.3-3c0,0-1.2,1-2.5,1.9c-0.6,0.5-1.2,1-1.7,1.3
						c-0.4,0.4-0.7,0.6-0.7,0.6l2.4,2.9c0,0,0.3-0.3,0.7-0.6c0.5-0.4,1.1-0.8,1.7-1.3C415.7,177,416.9,176,416.9,176z"/>
				</g>
			</g>
			<g>
				<g>
					<g>
						<path fill="none" d="M379.6,183.2c0,0-0.4,0.4-1,1.2c-0.7,0.8-1.6,1.8-2.7,3.2c-2.3,2.6-5.1,6.2-8,9.8c-1.4,1.8-2.7,3.7-4,5.5
							c-1.2,1.8-2.4,3.4-3.3,4.9c-1.9,2.9-3.1,4.8-3.1,4.8l31.9,19.8c0,0,1-1.6,2.5-3.9c0.7-1.2,1.7-2.5,2.7-3.9
							c1-1.4,2.1-3,3.2-4.5c2.3-2.9,4.6-5.9,6.5-8c0.9-1.1,1.7-1.9,2.2-2.6c0.5-0.6,0.9-1,0.9-1L379.6,183.2z"/>
					</g>
					<path fill-rule="evenodd" clip-rule="evenodd" fill="#4E507E" d="M379.2,216l-3.1-2.1c0,0-0.9,1.3-1.8,2.6
						c-0.8,1.3-1.7,2.6-1.7,2.6l3.2,2c0,0,0.8-1.3,1.7-2.6C378.3,217.2,379.2,216,379.2,216z"/>
					<path fill-rule="evenodd" clip-rule="evenodd" fill="#4E507E" d="M385.7,207.1l-3-2.3c0,0-1,1.2-1.9,2.5
						c-0.5,0.6-1,1.2-1.3,1.7c-0.3,0.5-0.6,0.8-0.6,0.8l3,2.2c0,0,0.2-0.3,0.6-0.8c0.3-0.5,0.8-1.1,1.3-1.7
						C384.8,208.3,385.7,207.1,385.7,207.1z"/>
					<polygon fill-rule="evenodd" clip-rule="evenodd" fill="#4E507E" points="392.8,198.6 390,196.2 385.9,200.9 388.7,203.3 					
						"/>
				</g>
			</g>
			<g>
				<g>
					<g>
						<path fill="none" d="M357.4,212.6c0,0-0.3,0.5-0.9,1.3c-0.5,0.9-1.2,2.1-2.1,3.6c-0.9,1.5-1.9,3.2-2.9,5.1c-1,1.9-2,4-3.1,6
							c-1.1,2-2,4.1-2.9,6.1c-0.9,2-1.7,3.8-2.4,5.4c-1.3,3.2-2.1,5.4-2.1,5.4l35,13.6c0,0,0.7-1.7,1.7-4.3c0.6-1.3,1.2-2.8,2-4.4
							c0.7-1.6,1.5-3.3,2.4-5c0.9-1.7,1.7-3.3,2.5-4.9c0.9-1.5,1.7-2.9,2.4-4.2c0.7-1.2,1.3-2.2,1.7-2.9c0.4-0.7,0.7-1.1,0.7-1.1
							L357.4,212.6z"/>
					</g>
					<path fill-rule="evenodd" clip-rule="evenodd" fill="#4E507E" d="M363,244.8l-3.4-1.5c0,0-0.6,1.4-1.3,2.9
						c-0.6,1.5-1.2,2.9-1.2,2.9l3.5,1.4c0,0,0.6-1.4,1.1-2.9C362.4,246.2,363,244.8,363,244.8z"/>
					<path fill-rule="evenodd" clip-rule="evenodd" fill="#4E507E" d="M367.8,234.9l-3.3-1.7c0,0-0.7,1.4-1.4,2.8
						c-0.4,0.7-0.7,1.4-1,1.9c-0.3,0.5-0.4,0.9-0.4,0.9l3.4,1.6c0,0,0.1-0.4,0.4-0.9c0.3-0.5,0.6-1.2,1-1.9
						C367.1,236.3,367.8,234.9,367.8,234.9z"/>
					<polygon fill-rule="evenodd" clip-rule="evenodd" fill="#4E507E" points="373.2,225.3 370,223.4 366.8,228.8 370.1,230.6 					
						"/>
				</g>
			</g>
			<g>
				<g>
					<g>
						<path fill="none" d="M341,245.5c0,0-0.2,0.5-0.6,1.5c-0.4,0.9-0.9,2.3-1.4,3.9c-1.1,3.3-2.7,7.6-3.8,12.1
							c-1.3,4.4-2.3,8.9-3.1,12.3c-0.2,0.8-0.4,1.6-0.5,2.3c-0.1,0.7-0.2,1.3-0.3,1.8c-0.2,1-0.3,1.6-0.3,1.6l36.9,6.8
							c0,0,0.1-0.5,0.2-1.3c0.1-0.4,0.2-0.9,0.3-1.5c0.1-0.6,0.3-1.2,0.4-1.9c0.6-2.7,1.4-6.4,2.5-10c0.9-3.6,2.2-7.1,3.1-9.8
							c0.4-1.3,0.9-2.4,1.2-3.2c0.3-0.8,0.5-1.2,0.5-1.2L341,245.5z"/>
					</g>
					<path fill-rule="evenodd" clip-rule="evenodd" fill="#4E507E" d="M352.5,276.2l-3.6-0.9c0,0-0.4,1.5-0.7,3.1
						c-0.2,0.8-0.4,1.5-0.5,2.1c-0.1,0.6-0.2,1-0.2,1l3.7,0.7c0,0,0.1-0.4,0.2-0.9c0.1-0.6,0.3-1.3,0.5-2.1
						C352.1,277.7,352.5,276.2,352.5,276.2z"/>
					<polygon fill-rule="evenodd" clip-rule="evenodd" fill="#4E507E" points="355.3,265.5 351.7,264.4 350,270.5 353.6,271.4 					
						"/>
					<path fill-rule="evenodd" clip-rule="evenodd" fill="#4E507E" d="M358.8,255.1l-3.5-1.3c0,0-0.1,0.4-0.4,0.9
						c-0.2,0.6-0.4,1.3-0.7,2c-0.5,1.5-1,3-1,3l3.6,1.2c0,0,0.5-1.5,1-2.9c0.2-0.7,0.5-1.5,0.7-2
						C358.7,255.5,358.8,255.1,358.8,255.1z"/>
				</g>
			</g>
			<g>
				<g>
					<g>
						<path fill="none" d="M331,280.9c0,0-0.4,2.3-1,5.7c-0.3,1.7-0.5,3.7-0.8,5.8c-0.2,2.1-0.6,4.4-0.8,6.7
							c-0.2,2.3-0.3,4.6-0.5,6.7c-0.1,1.1-0.1,2.1-0.1,3.1c0,1-0.1,1.9-0.1,2.8c-0.1,3.4-0.1,5.7-0.1,5.7h37.5c0,0,0-1.9,0.1-4.7
							c0-0.7,0-1.5,0.1-2.3c0-0.8,0-1.7,0.1-2.5c0.1-1.7,0.3-3.6,0.4-5.5c0.1-1.9,0.4-3.7,0.6-5.5c0.2-1.7,0.4-3.4,0.6-4.7
							c0.5-2.8,0.8-4.6,0.8-4.6L331,280.9z"/>
					</g>
					<polygon fill-rule="evenodd" clip-rule="evenodd" fill="#4E507E" points="347.9,308.9 344.1,308.8 343.9,315 347.7,315.1 					
						"/>
					<path fill-rule="evenodd" clip-rule="evenodd" fill="#4E507E" d="M348.7,297.9l-3.7-0.4c0,0,0,0.4-0.1,1
						c-0.1,0.6-0.1,1.4-0.2,2.2c-0.1,1.6-0.2,3.1-0.2,3.1l3.7,0.3c0,0,0.1-1.5,0.2-3.1c0.1-0.8,0.1-1.5,0.2-2.1
						C348.7,298.3,348.7,297.9,348.7,297.9z"/>
					<path fill-rule="evenodd" clip-rule="evenodd" fill="#4E507E" d="M350.3,287.1l-3.7-0.6c0,0-0.3,1.5-0.6,3.1
						c-0.2,1.6-0.4,3.1-0.4,3.1l3.7,0.5c0,0,0.2-1.5,0.4-3C350,288.6,350.3,287.1,350.3,287.1z"/>
				</g>
			</g>
		</g>
	</g>
</g>
<ellipse fill="#E8F2FB" cx="408.6" cy="744.6" rx="382.2" ry="37.9"/>
<ellipse fill="#C8E2FC" cx="202.7" cy="743.6" rx="143.6" ry="20.9"/>
<g>
	<g id="PALM_3_">
		<g>
			<polygon fill="#34376B" points="433.3,303.6 438,311.7 411.8,330.5 407.1,322.3 			"/>
			<polygon fill="#34376B" points="428.4,285 438.9,282.7 438.4,311.4 427.9,313.6 			"/>
		</g>
		<g>
			<polygon fill="#34376B" points="403.4,290.8 392.9,294.4 396.1,322 406.6,318.4 			"/>
			<polygon fill="#34376B" points="423,279.6 417.2,272.4 392.8,293.9 398.7,301.1 			"/>
		</g>
	</g>
	<g id="shoulder_3_">
		
			<rect x="308" y="306.9" transform="matrix(-0.7507 0.6606 -0.6606 -0.7507 806.423 416.0571)" fill="#B5CEE2" width="33.4" height="106.5"/>
		<path fill="#D3E5F5" d="M264.3,353c-4-2.9-7.8-6.4-11.3-10.4c-20.2-23-22.4-54.1-4.9-69.5c17.5-15.4,48.1-9.3,68.3,13.7
			c3.5,4,6.4,8.2,8.8,12.5L264.3,353z"/>
		<path fill="#B4CDE0" d="M250.7,339.8c-18-22.6-19.3-51.9-2.5-66.7c5-4.4,11-7,17.6-8C248.3,285.7,242.7,314.3,250.7,339.8z"/>
		<path fill="none" stroke="#34376B" stroke-width="2.5" stroke-linecap="round" stroke-miterlimit="10" d="M309.9,311.5L262,353.6
			c-4-2.9-7.8-6.4-11.3-10.4c-20.2-23-22.4-54.1-4.9-69.5c17.5-15.4,48.1-9.3,68.3,13.7c3.5,4,6.4,8.2,8.8,12.5l-6.6,5.8"/>
		<circle fill="#D3E5F5" cx="357.4" cy="398.1" r="21.5"/>
	</g>
	<g id="forearm_3_">
		
			<rect x="369.3" y="308.9" transform="matrix(0.842 0.5395 -0.5395 0.842 251.8037 -151.8642)" fill="#B5CEE2" width="31.7" height="90.2"/>
		<circle fill="#D3E5F5" cx="358.4" cy="397.7" r="21.5"/>
		<path fill="none" stroke="#34376B" stroke-width="2.5" stroke-linecap="round" stroke-miterlimit="10" d="M337.2,399.2
			c0.3,6.2,1.1,8.8,6.1,13.7c8.4,8.4,22,8.3,30.4-0.1c8.4-8.4,8.3-22-0.1-30.4s-22-8.3-30.4,0.1c-3.4,3.4-5.4,7.7-6,12.1"/>
	</g>
	<g id="head_1_">
		<ellipse fill="#D3E5F5" cx="188.1" cy="224.6" rx="85" ry="94.7"/>
		<path fill="none" stroke="#34376B" stroke-width="2.5" stroke-linecap="round" stroke-miterlimit="10" d="M270,186.5
			c-12.7-34.4-45.3-59.7-80.8-59.7c-35.8,0-69.7,24.7-82.2,59.6"/>
		<path fill="#FFFFFF" d="M217.6,256.5c-14.9,2.2-37.6,1.9-49.5,0.9c-27.2-2.4-53.2-6.7-62.4-9.5c-1.7-7.5-2.6-15.3-2.6-23.3
			c0-10.8,1.6-21.1,4.6-30.8c26.1,8.1,53.2,12.4,80.6,12.4c27.3,0,54.3-4.2,80.2-12.2c3,9.6,4.6,20,4.6,30.7
			c0,6.6-0.6,13.1-1.8,19.4C265,247.2,228.4,254.9,217.6,256.5z"/>
		<ellipse fill="#65D8F0" cx="215.3" cy="230.2" rx="22.6" ry="25.2"/>
		
			<ellipse fill="none" stroke="#34376B" stroke-width="2.5" stroke-linecap="round" stroke-miterlimit="10" cx="215.3" cy="230.2" rx="22.6" ry="25.2"/>
		<path fill="none" stroke="#34376B" stroke-width="2.5" stroke-linecap="round" stroke-miterlimit="10" d="M217.6,256.5
			c-14.9,2.2-37.6,1.9-49.5,0.9c-27.2-2.4-53.2-6.7-62.4-9.5c-1.7-7.5-2.6-15.3-2.6-23.3c0-10.8,1.6-21.1,4.6-30.8
			c26.1,8.1,53.2,12.4,80.6,12.4c27.3,0,54.3-4.2,80.2-12.2c3,9.6,4.6,20,4.6,30.7c0,6.6-0.6,13.1-1.8,19.4
			C265,247.2,228.4,254.9,217.6,256.5z"/>
		<polyline fill="none" stroke="#34376B" stroke-width="2.5" stroke-linecap="round" stroke-miterlimit="10" points="188.1,144.2 
			163.7,127.6 188.1,112.8 163.7,81.3 182.3,61.2 		"/>
	</g>
	<g>
		<path fill="#D3E5F5" d="M245.2,702.2l1.3-0.2c14-1.8,24.4-11.4,23.1-21.6l-19.2-153.9c-1.3-10.2-13.7-17-27.7-15.3l-1.3,0.2
			c-14,1.8-24.4,11.4-23.1,21.6l19.2,153.9C218.7,697.1,231.2,703.9,245.2,702.2z"/>
	</g>
	<g>
		<path fill="#B4CDE0" d="M253.4,569.6c0-16.4-1.6-32.7-4.8-48.6c1,1.7,1.7,3.5,1.9,5.5l19.2,153.9c1.3,10.2-9.1,19.9-23.1,21.6
			l-1.3,0.2c-10.6,1.3-20.3-2.3-25-8.5C241.7,656.2,253.4,613.4,253.4,569.6z"/>
	</g>
	<circle fill="#B5CEE2" cx="247.2" cy="711.6" r="37.2"/>
	<path fill="none" stroke="#34376B" stroke-width="2.5" stroke-linecap="round" stroke-miterlimit="10" d="M274,686.5
		c-8-8.6-14.5-12-26.8-12c-20.5,0-37.2,16.6-37.2,37.2s16.6,37.2,37.2,37.2s37.2-16.6,37.2-37.2c0-8.2-2.7-15.8-7.1-21.9"/>
	
		<circle fill="none" stroke="#34376B" stroke-width="2.5" stroke-linecap="round" stroke-miterlimit="10" cx="247.2" cy="711.6" r="9"/>
	<g id="body_1_">
		<path fill="#34376B" d="M156.4,548.9h81.6c12.7,0,23.1-9.3,23.1-20.9v-29c0-11.5-10.3-20.9-23.1-20.9h-81.6
			c-12.7,0-23.1,9.3-23.1,20.9v29C133.3,539.6,143.6,548.9,156.4,548.9z"/>
		<path fill="#D3E5F5" d="M131,278.9c21.8,8.2,44.5,12.4,67.4,12.4c21.3,0,42.4-3.7,62.7-10.7c16.5,34,26.7,80.7,26.7,132.3
			c0,27.6-2.9,54.8-8.2,78.4l-104.9-1.1V511H117c-8.6-28.5-13.5-62.1-13.5-98C103.5,360.4,114,313,131,278.9z"/>
		<path fill="#B4CDE0" d="M282.4,385.2c0-36.1-8-71.6-22.9-104c0.5-0.2,1.1-0.4,1.6-0.5c16.5,34,26.7,80.7,26.7,132.3
			c0,27.6-2.9,54.8-8.2,78.4l-21-0.2C274.1,458.2,282.4,422,282.4,385.2z"/>
		<path fill="none" stroke="#34376B" stroke-width="2.5" stroke-linecap="round" stroke-miterlimit="10" d="M273.3,490.2h-98.4V511
			H117c-8.6-28.5-13.5-62.1-13.5-98c0-52.5,10.6-99.9,27.6-134c21.8,8.2,44.5,12.2,67.4,12.4c8.1,0.1,12.5,0.4,23.1-0.6"/>
		<path fill="none" stroke="#34376B" stroke-width="2.5" stroke-linecap="round" stroke-miterlimit="10" d="M230.2,288.6
			c10.5-1.8,20.8-4.5,31-8c16.5,34,26.7,80.7,26.7,132.3c0,27.6-2.9,53.7-8.2,77.3"/>
		<polygon fill="#F4888E" points="246.5,353 195.5,353 222.2,402.7 		"/>
		<polygon fill="none" stroke="#34376B" stroke-width="2.5" stroke-linecap="round" stroke-miterlimit="10" points="250.8,350.9 
			199.8,350.9 226.5,400.6 		"/>
	</g>
	<g>
		<g>
			<path fill="#D3E5F5" d="M138.2,703.7l1.3,0.2c13.7,2.5,26.3-3.6,28.2-13.7L196,537.7c1.9-10.1-7.7-20.3-21.4-22.9l-1.3-0.2
				c-13.7-2.5-26.3,3.6-28.2,13.7l-28.3,152.5C114.9,690.9,124.5,701.1,138.2,703.7z"/>
		</g>
	</g>
	<g>
		<g>
			<path fill="#B4CDE0" d="M117.2,678.8c2.5-2.3,4.9-4.6,7.4-7c38.4-38.4,63.2-88.7,70.6-142.2c1.1,2.6,1.4,5.4,0.9,8.2l-28.3,152.5
				c-1.9,10.1-14.5,16.2-28.2,13.7l-1.3-0.2c-13.7-2.5-23.3-12.8-21.4-22.9L117.2,678.8z"/>
		</g>
	</g>
	<g id="PALM_2_">
		<g>
			<polygon fill="#34376B" points="148.5,437.3 142.5,444.5 115.9,426.3 121.9,419.1 			"/>
			<polygon fill="#34376B" points="164.3,426.3 170,435.4 143,444.8 137.2,435.7 			"/>
		</g>
		<g>
			<polygon fill="#34376B" points="150.2,404.8 143.3,396.2 118.5,408.7 125.4,417.3 			"/>
			<polygon fill="#34376B" points="167.5,419.4 172.3,411.4 143.7,395.9 139,403.9 			"/>
		</g>
	</g>
	<g id="shoulder_2_">
		
			<rect x="49.5" y="314.8" transform="matrix(-0.7293 -0.6842 0.6842 -0.7293 -137.3774 681.6218)" fill="#B5CEE2" width="33.4" height="106.5"/>
		<path fill="#D3E5F5" d="M67.5,307.2c2.5-4.3,5.6-8.4,9.2-12.2c20.9-22.3,51.7-27.5,68.7-11.5s13.8,47-7.1,69.3
			c-3.6,3.9-7.5,7.2-11.6,10L67.5,307.2z"/>
		<path fill="#B4CDE0" d="M132.2,275.9c-18.7,1.5-37,9.6-50.6,24.1c-3.5,3.7-6.5,7.7-9.1,11.8l-5-4.7c2.5-4.3,5.6-8.4,9.2-12.2
			C93,277.7,115.1,270.7,132.2,275.9z"/>
		<path fill="none" stroke="#34376B" stroke-width="2.5" stroke-linecap="round" stroke-miterlimit="10" d="M112.5,347.9l-46.6-43.7
			c2.5-4.3,5.6-8.4,9.2-12.2c20.9-22.3,51.7-27.5,68.7-11.5c17,16,13.8,47-7.1,69.3c-3.6,3.9-7.5,7.2-11.6,10l-6.4-6"/>
		<circle fill="#D3E5F5" cx="31.5" cy="404.2" r="21.5"/>
	</g>
	<g id="forearm_2_">
		
			<rect x="68.8" y="364.3" transform="matrix(-0.2169 0.9762 -0.9762 -0.2169 502.7114 415.51)" fill="#B5CEE2" width="31.7" height="90.2"/>
		<circle fill="#D3E5F5" cx="34.4" cy="399.4" r="21.5"/>
		<path fill="none" stroke="#34376B" stroke-width="2.5" stroke-linecap="round" stroke-miterlimit="10" d="M24.3,382.9
			c-5.7,2.5-7.9,4.1-10.8,10.5c-4.9,10.8-0.2,23.5,10.6,28.5s23.5,0.2,28.5-10.6s0.2-23.5-10.6-28.5c-4.4-2-9-2.4-13.4-1.5"/>
	</g>
	<circle fill="#B5CEE2" cx="137.3" cy="711.6" r="37.2"/>
	<path fill="none" stroke="#34376B" stroke-width="2.5" stroke-linecap="round" stroke-miterlimit="10" d="M163.2,737.8
		c6.5-6.7,11.2-14.2,11.2-26.2c0-20.5-16.6-37.2-37.2-37.2s-37.2,16.6-37.2,37.2s16.6,37.2,37.2,37.2c8.5,0,16.4-2.9,22.7-7.7"/>
	
		<circle fill="none" stroke="#34376B" stroke-width="2.5" stroke-linecap="round" stroke-miterlimit="10" cx="135.6" cy="711.6" r="9"/>
</g>
<g>
	<circle fill="#FFFFFF" cx="693.5" cy="327.1" r="108.7"/>
	<path fill="none" stroke="#34376B" stroke-width="2.5" stroke-linecap="round" stroke-miterlimit="10" d="M784.6,266.2
		c-13-20.7-29.4-33.6-57.1-42.4c-57.2-18.2-118.5,12.4-137.2,69.4c-18.7,57.1,12.4,118.5,69.4,137.2
		c57.1,18.7,118.5-12.4,137.2-69.4c8.9-27,6.6-55-4.4-79"/>
</g>
<g>
	<circle fill="#FFFFFF" cx="471.9" cy="465" r="108.7"/>
	<path fill="none" stroke="#34376B" stroke-width="2.5" stroke-linecap="round" stroke-miterlimit="10" d="M562.9,404.1
		c-13-20.7-29.4-33.6-57.1-42.4c-57.2-18.2-118.5,12.4-137.2,69.4s12.4,118.5,69.4,137.2c57.1,18.7,118.5-12.4,137.2-69.4
		c8.9-27,6.6-55-4.4-79"/>
	<path fill="#6CDDB5" d="M436.2,519.6h73.2c9.1,0,16.5-7.4,16.5-16.5v-73.2c0-9.1-7.4-16.5-16.5-16.5h-73.2
		c-9.1,0-16.5,7.4-16.5,16.5v73.2C419.8,512.2,427.1,519.6,436.2,519.6z"/>
	<path fill="none" stroke="#34376B" stroke-width="2.5" stroke-linecap="round" stroke-miterlimit="10" d="M440.2,517.6h73.2
		c9.1,0,16.5-7.4,16.5-16.5v-73.2c0-9.1-7.4-16.5-16.5-16.5h-73.2c-9.1,0-16.5,7.4-16.5,16.5v73.2
		C423.8,510.2,431.1,517.6,440.2,517.6z"/>
	<path fill="#6CDDB5" stroke="#34376B" stroke-width="2.5" stroke-linecap="round" stroke-miterlimit="10" d="M437.4,489.3
		c7.7,11,20.4,18.1,34.9,18.1c14.6,0,27.5-7.3,35.2-18.5"/>
	
		<line fill="none" stroke="#34376B" stroke-width="2.5" stroke-linecap="round" stroke-miterlimit="10" x1="507.5" y1="482.7" x2="507.5" y2="441.4"/>
	
		<line fill="none" stroke="#34376B" stroke-width="2.5" stroke-linecap="round" stroke-miterlimit="10" x1="472.4" y1="498.1" x2="472.4" y2="430.7"/>
	
		<line fill="none" stroke="#34376B" stroke-width="2.5" stroke-linecap="round" stroke-miterlimit="10" x1="489.4" y1="493.7" x2="489.4" y2="434.6"/>
	
		<line fill="none" stroke="#34376B" stroke-width="2.5" stroke-linecap="round" stroke-miterlimit="10" x1="437.5" y1="482.7" x2="437.5" y2="441.4"/>
	
		<line fill="none" stroke="#34376B" stroke-width="2.5" stroke-linecap="round" stroke-miterlimit="10" x1="453.8" y1="493.7" x2="453.8" y2="434.6"/>
</g>
<g>
	<circle fill="#FFFFFF" cx="484.6" cy="170.1" r="109.7"/>
	<path fill="none" stroke="#34376B" stroke-width="2.5" stroke-linecap="round" stroke-miterlimit="10" d="M576.4,108.6
		c-13.1-20.9-29.7-33.9-57.7-42.8c-57.7-18.4-119.6,12.5-138.4,70c-18.9,57.6,12.5,119.6,70,138.4s119.6-12.5,138.4-70
		c8.9-27.3,6.6-55.5-4.4-79.7"/>
	<path fill="#65D8F0" d="M417.1,157.6c0.2,0,0.5,0,0.7,0c2.4-15.6,15.8-27.6,32.1-27.6c4.4,0,8.6,0.9,12.5,2.5
		c5-12.4,17.1-21.2,31.4-21.2c17.1,0,31.2,12.7,33.5,29.3c17.6,0.4,31.7,14.7,31.7,32.4c0,16.8-12.7,30.6-29,32.3
		c-4.2,13.3-16.6,22.9-31.3,22.9c-12.3,0-23-6.8-28.6-16.8c-4.7,5.9-11.9,9.6-20,9.6c-11.2,0-20.6-7.1-24.1-17.1
		c-2.7,1-5.6,1.6-8.7,1.6c-13.2,0-24-10.7-24-24C393.1,168.3,403.8,157.6,417.1,157.6z"/>
	<path fill="none" stroke="#34376B" stroke-width="2.5" stroke-linecap="round" stroke-miterlimit="10" d="M422.1,158.6
		c0.2,0,0.5,0,0.7,0c2.4-15.6,15.8-27.6,32.1-27.6c4.4,0,8.6,0.9,12.5,2.5c5-12.4,17.1-21.2,31.4-21.2c17.1,0,31.2,12.7,33.5,29.3
		c17.6,0.4,31.7,14.7,31.7,32.4c0,16.8-12.7,30.6-29,32.3c-4.2,13.3-16.6,22.9-31.3,22.9c-12.3,0-23-6.8-28.6-16.8
		c-4.7,5.9-11.9,9.6-20,9.6c-11.2,0-20.6-7.1-24.1-17.1c-2.7,1-5.6,1.6-8.7,1.6c-13.2,0-24-10.7-24-24
		C398.1,169.3,408.8,158.6,422.1,158.6z"/>
	<g>
		<path fill="none" stroke="#34376B" stroke-width="2.5" stroke-linecap="round" stroke-miterlimit="10" d="M522.9,184.3
			c-6,0-6-16-12.1-16c-6,0-6,16-12,16c-6,0-6-16-12.1-16c-6,0-6,16-12.1,16c-6,0-6-16-12.1-16c-6,0-6,16-12.1,16c-6,0-6-16-12.1-16"
			/>
	</g>
</g>
<path fill="none" stroke="#34376B" stroke-width="2.5" stroke-linecap="round" stroke-miterlimit="10" d="M221.2,375.7
	c0,0,65.7-15.8,102.6,69.1c32.5,74.8,27.4,116.9,65,105"/>
<path fill="none" stroke="#34376B" stroke-width="2.5" stroke-linecap="round" stroke-miterlimit="10" d="M210,359
	c0,0,77.1,61.8,94.2,126.4s-2.3,109.7,15.5,151.6"/>
<path fill="none" stroke="#34376B" stroke-width="2.5" stroke-linecap="round" stroke-miterlimit="10" d="M230.2,368
	c0,0,115.9,99.5,167.9,55.8s6.8-88.8,30.7-143.8"/>
<g>
	<path fill="#34376B" d="M424.9,258.7l-4,11.7c-1.2,3.4,0.6,7.1,4.1,8.3l3.8,1.3c3.4,1.2,7.1-0.6,8.3-4.1l4-11.7L424.9,258.7z"/>
	
		<line fill="none" stroke="#34376B" stroke-width="2.5" stroke-linecap="round" stroke-miterlimit="10" x1="430.8" y1="253.4" x2="428.1" y2="262.4"/>
	
		<line fill="none" stroke="#34376B" stroke-width="2.5" stroke-linecap="round" stroke-miterlimit="10" x1="438.8" y1="255.4" x2="436" y2="264.4"/>
</g>
<g>
	<path fill="#34376B" d="M331.5,644.3l-5-11.2c-1.5-3.3-5.3-4.8-8.6-3.3l-3.7,1.6c-3.3,1.5-4.8,5.3-3.3,8.6l5,11.2L331.5,644.3z"/>
	
		<line fill="none" stroke="#34376B" stroke-width="2.5" stroke-linecap="round" stroke-miterlimit="10" x1="330.8" y1="652.2" x2="326.6" y2="643.8"/>
	
		<line fill="none" stroke="#34376B" stroke-width="2.5" stroke-linecap="round" stroke-miterlimit="10" x1="323.6" y1="656.2" x2="319.5" y2="647.7"/>
</g>
<g>
	<g>
		
			<rect x="644.4" y="284.4" transform="matrix(0.9725 0.2328 -0.2328 0.9725 94.8338 -154.2046)" fill="none" stroke="#1494E2" stroke-width="14" stroke-linecap="round" stroke-linejoin="round" stroke-miterlimit="10" width="112.9" height="80.7"/>
		
			<polyline fill="none" stroke="#1494E2" stroke-width="14" stroke-linecap="round" stroke-linejoin="round" stroke-miterlimit="10" points="
			655.6,282.3 700.1,327.9 760.4,307.4 		"/>
	</g>
</g>
</svg>
