<?xml version="1.0" encoding="UTF-8" standalone="no"?>
<svg width="805px" height="936px" viewBox="0 0 805 936" version="1.1" xmlns="http://www.w3.org/2000/svg" xmlns:xlink="http://www.w3.org/1999/xlink">
    <!-- Generator: Sketch 40.2 (33826) - http://www.bohemiancoding.com/sketch -->
    <title>6.3</title>
    <desc>Created with Sketch.</desc>
    <defs></defs>
    <g id="Page-1" stroke="none" stroke-width="1" fill="none" fill-rule="evenodd">
        <g id="6.3" transform="translate(1.000000, 1.000000)">
            <g id="Group" transform="translate(151.000000, 633.000000)">
                <path d="M0.1,11.9 L4.8,23.3 C6.2,26.6 10,28.2 13.3,26.9 L17,25.4 C20.3,24 21.9,20.2 20.6,16.9 L15.9,5.5 L0.1,11.9 L0.1,11.9 Z" id="Shape" fill="#34376B"></path>
                <path d="M1,4 L4.9,12.5" id="Shape" stroke="#34376B" stroke-width="2.5"></path>
                <path d="M8.3,0.2 L12.2,8.8" id="Shape" stroke="#34376B" stroke-width="2.5"></path>
            </g>
            <g id="Group" transform="translate(628.000000, 438.000000)">
                <path d="M4.6,5.4 L0.6,17.1 C-0.6,20.5 1.2,24.2 4.7,25.4 L8.5,26.7 C11.9,27.9 15.6,26.1 16.8,22.6 L20.8,10.9 L4.6,5.4 L4.6,5.4 Z" id="Shape" fill="#34376B"></path>
                <path d="M10.5,0 L7.9,9" id="Shape" stroke="#34376B" stroke-width="2.5"></path>
                <path d="M18.5,2 L15.8,11" id="Shape" stroke="#34376B" stroke-width="2.5"></path>
            </g>
            <path d="M605,720.4 L593.7,725.3 C590.4,726.7 588.9,730.6 590.3,733.9 L591.9,737.6 C593.3,740.9 597.2,742.4 600.5,741 L611.8,736.1 L605,720.4 L605,720.4 Z" id="Shape" fill="#34376B"></path>
            <path d="M622.1,724.6 L613,726.6" id="Shape" stroke="#34376B" stroke-width="2.5"></path>
            <path d="M624.2,732.6 L615,734.5" id="Shape" stroke="#34376B" stroke-width="2.5"></path>
            <ellipse id="Oval" fill="#E8F2FB" cx="402.8" cy="899.2" rx="399.3" ry="34.9"></ellipse>
            <ellipse id="Oval" fill="#C8E2FC" cx="404.5" cy="903.5" rx="152.1" ry="26.6"></ellipse>
            <g id="Group" transform="translate(250.000000, 271.000000)">
                <path d="M98.3,606.5 L99.5,606.7 C112.3,609.1 124,603.4 125.7,594 L152.1,452.1 C153.8,442.7 144.9,433.2 132.2,430.8 L131,430.6 C118.2,428.2 106.5,433.9 104.8,443.3 L78.4,585.2 C76.7,594.6 85.6,604.1 98.3,606.5 L98.3,606.5 Z" id="Shape" fill="#D3E5F5"></path>
                <path d="M78.8,583.3 C81.1,581.2 83.4,579 85.6,576.8 C121.4,541 144.4,494.2 151.3,444.5 C152.3,446.9 152.6,449.5 152.1,452.1 L125.8,594 C124.1,603.4 112.3,609.1 99.6,606.7 L98.4,606.5 C85.6,604.1 76.7,594.6 78.5,585.2 L78.8,583.3 L78.8,583.3 Z" id="Shape" fill="#B4CDE0"></path>
                <g id="PALM_3_" transform="translate(213.000000, 0.000000)" fill="#34376B">
                    <g id="Group" transform="translate(15.000000, 0.000000)">
                        <polygon id="Shape" points="18.1 14 26.8 13.7 30.8 43.4 22.1 43.7"></polygon>
                        <polygon id="Shape" points="0.7 10 3.4 0.3 26.8 13.2 24 22.8"></polygon>
                    </g>
                    <g id="Group" transform="translate(0.000000, 12.000000)">
                        <polygon id="Shape" points="9.6 21.1 7.9 31.2 32.1 40.6 33.7 30.4"></polygon>
                        <polygon id="Shape" points="8.9 0 0.4 1.7 7.5 31.1 16 29.4"></polygon>
                    </g>
                </g>
                <g id="shoulder_3_" transform="translate(194.000000, 95.000000)">
                    <rect id="Rectangle-path" fill="#B5CEE2" transform="translate(70.147540, 61.188270) rotate(28.756325) translate(-70.147540, -61.188270) " x="54.5970727" y="11.636781" width="31.1009345" height="99.1029779"></rect>
                    <path d="M83,116.3 C81.7,120.7 79.9,125.1 77.5,129.5 C63.8,154.5 37.3,166.2 18.2,155.8 C-0.8,145.4 -5.2,116.6 8.5,91.7 C10.9,87.4 13.6,83.5 16.6,80 L83,116.3 L83,116.3 Z" id="Shape" fill="#D3E5F5"></path>
                    <path d="M75.8,132.4 C61.7,155.3 36.5,165.8 18.3,155.7 C12.9,152.7 8.7,148.3 5.7,142.9 C29.2,151.6 56,147.4 75.8,132.4 L75.8,132.4 Z" id="Shape" fill="#B4CDE0"></path>
                    <path d="M32.2,89.5 L84.3,118.1 C83,122.5 81.2,126.9 78.8,131.3 C65.1,156.3 38.6,168 19.5,157.6 C0.5,147.2 -3.9,118.4 9.8,93.5 C12.2,89.2 14.9,85.3 17.9,81.8 L25.1,85.7" id="Shape" stroke="#34376B" stroke-width="2.5"></path>
                    <circle id="Oval" fill="#D3E5F5" cx="93" cy="20.5" r="20"></circle>
                </g>
                <g id="forearm_3_" transform="translate(232.000000, 31.000000)">
                    <rect id="Rectangle-path" fill="#B5CEE2" transform="translate(33.607885, 44.539375) rotate(-29.476973) translate(-33.607885, -44.539375) " x="18.8570976" y="2.58713556" width="29.5015748" height="83.9044789"></rect>
                    <circle id="Oval" fill="#D3E5F5" cx="58" cy="85.6" r="20"></circle>
                    <path d="M50,103.7 C55.3,106.1 57.7,106.6 64,104.6 C74.5,101.3 80.4,90.1 77.1,79.6 C73.8,69.1 62.6,63.2 52.1,66.5 C41.6,69.8 35.7,81 39,91.5 C40.3,95.8 43,99.3 46.3,101.7" id="Shape" stroke="#34376B" stroke-width="2.5"></path>
                </g>
                <g id="head_1_" transform="translate(65.000000, 8.000000)">
                    <ellipse id="Oval" fill="#D3E5F5" cx="79.8" cy="152.7" rx="79.1" ry="88.1"></ellipse>
                    <path d="M156,117.2 C144.2,85.2 113.9,61.6 80.8,61.6 C47.5,61.6 16,84.5 4.3,117" id="Shape" stroke="#34376B" stroke-width="2.5"></path>
                    <path d="M107.3,182.4 C93.4,184.4 72.3,184.2 61.3,183.2 C36,181 11.8,176.9 3.2,174.4 C1.6,167.5 0.8,160.2 0.8,152.7 C0.8,142.7 2.3,133 5.1,124 C29.4,131.6 54.6,135.5 80.1,135.5 C105.5,135.5 130.6,131.6 154.8,124.1 C157.6,133.1 159.1,142.7 159.1,152.7 C159.1,158.9 158.5,164.9 157.4,170.7 C151.3,173.7 117.3,180.9 107.3,182.4 L107.3,182.4 Z" id="Shape" fill="#FFFFFF"></path>
                    <ellipse id="Oval" fill="#65D8F0" cx="87.1" cy="157.9" rx="21" ry="23.4"></ellipse>
                    <ellipse id="Oval" stroke="#34376B" stroke-width="2.5" cx="87.1" cy="157.9" rx="21" ry="23.4"></ellipse>
                    <path d="M107.3,182.4 C93.4,184.4 72.3,184.2 61.3,183.2 C36,181 11.8,176.9 3.2,174.4 C1.6,167.5 0.8,160.2 0.8,152.7 C0.8,142.7 2.3,133 5.1,124 C29.4,131.6 54.6,135.5 80.1,135.5 C105.5,135.5 130.6,131.6 154.8,124.1 C157.6,133.1 159.1,142.7 159.1,152.7 C159.1,158.9 158.5,164.9 157.4,170.7 C151.3,173.7 117.3,180.9 107.3,182.4 L107.3,182.4 Z" id="Shape" stroke="#34376B" stroke-width="2.5"></path>
                    <polyline id="Shape" stroke="#34376B" stroke-width="2.5" points="79.8 77.8 57 62.4 79.8 48.6 57 19.3 74.4 0.6"></polyline>
                </g>
                <path d="M197.9,605.1 L199.2,604.9 C212.3,603.3 221.9,594.3 220.7,584.8 L202.8,441.6 C201.6,432.1 190.1,425.8 177,427.4 L175.7,427.6 C162.6,429.2 153,438.2 154.2,447.7 L172.1,590.9 C173.3,600.4 184.8,606.8 197.9,605.1 L197.9,605.1 Z" id="Shape" fill="#D3E5F5"></path>
                <path d="M205.5,481.8 C205.5,466.5 204,451.4 201,436.5 C201.9,438.1 202.6,439.8 202.8,441.6 L220.7,584.8 C221.9,594.3 212.2,603.3 199.2,604.9 L197.9,605.1 C188,606.3 179,603 174.7,597.2 C194.7,562.3 205.5,522.5 205.5,481.8 L205.5,481.8 Z" id="Shape" fill="#B4CDE0"></path>
                <circle id="Oval" fill="#B5CEE2" cx="199.7" cy="613.9" r="34.6"></circle>
                <path d="M224.7,590.5 C217.3,582.5 211.2,579.3 199.8,579.3 C180.7,579.3 165.2,594.8 165.2,613.9 C165.2,633 180.7,648.5 199.8,648.5 C218.9,648.5 234.4,633 234.4,613.9 C234.4,606.3 231.9,599.2 227.8,593.5" id="Shape" stroke="#34376B" stroke-width="2.5"></path>
                <circle id="Oval" stroke="#34376B" stroke-width="2.5" cx="199.7" cy="613.9" r="8.4"></circle>
                <g id="body_1_" transform="translate(65.000000, 211.000000)">
                    <path d="M50.2,251.5 L126.1,251.5 C138,251.5 147.6,242.8 147.6,232.1 L147.6,205.1 C147.6,194.4 138,185.7 126.1,185.7 L50.2,185.7 C38.3,185.7 28.7,194.4 28.7,205.1 L28.7,232.1 C28.7,242.8 38.4,251.5 50.2,251.5 L50.2,251.5 Z" id="Shape" fill="#34376B"></path>
                    <path d="M26.7,0.2 C47,7.8 68.1,11.8 89.5,11.8 C109.3,11.8 128.9,8.4 147.8,1.8 C163.2,33.4 172.7,76.9 172.7,124.9 C172.7,150.5 170,175.9 165.1,197.8 L67.5,196.8 L67.5,216.1 L13.6,216.1 C5.6,189.5 1,158.3 1,124.9 C1,76.1 10.8,32 26.7,0.2 L26.7,0.2 Z" id="Shape" fill="#D3E5F5"></path>
                    <path d="M167.5,99.1 C167.5,65.5 160.1,32.4 146.2,2.3 C146.7,2.1 147.2,2 147.7,1.8 C163.1,33.4 172.6,76.9 172.6,124.9 C172.6,150.5 169.9,175.9 165,197.8 L145.4,197.6 C159.8,167.1 167.5,133.4 167.5,99.1 L167.5,99.1 Z" id="Shape" fill="#B4CDE0"></path>
                    <path d="M159,196.9 L67.4,196.9 L67.4,216.2 L13.5,216.2 C5.5,189.6 0.9,158.4 0.9,125 C0.9,76.2 10.7,32 26.6,0.3 C46.9,7.9 68,11.7 89.4,11.9 C96.9,12 101.1,12.3 110.9,11.4" id="Shape" stroke="#34376B" stroke-width="2.5"></path>
                    <path d="M118.9,9.3 C128.6,7.6 138.3,5.1 147.7,1.9 C163.1,33.5 172.6,77 172.6,125 C172.6,150.6 169.9,175 165,196.9" id="Shape" stroke="#34376B" stroke-width="2.5"></path>
                    <polygon id="Shape" fill="#F4888E" points="116.2 69.2 68.7 69.2 93.5 115.4"></polygon>
                    <polygon id="Shape" stroke="#34376B" stroke-width="2.5" points="120.2 67.2 72.7 67.2 97.5 113.4"></polygon>
                </g>
                <g id="PALM_2_" transform="translate(29.000000, 0.000000)" fill="#34376B">
                    <g id="Group" transform="translate(19.000000, 4.000000)">
                        <polygon id="Shape" points="19.8 20.9 25.9 27.3 6.3 50 0.3 43.7"></polygon>
                        <polygon id="Shape" points="11.3 5.2 20.4 0.9 26.2 26.9 17.2 31.2"></polygon>
                    </g>
                    <g id="Group">
                        <polygon id="Shape" points="9 20 0.3 25.5 9.3 49.8 18 44.2"></polygon>
                        <polygon id="Shape" points="24.3 5.5 17.4 0.3 0.1 25.1 7 30.3"></polygon>
                    </g>
                </g>
                <g id="shoulder_2_" transform="translate(4.000000, 106.000000)">
                    <rect id="Rectangle-path" fill="#B5CEE2" transform="translate(40.691375, 62.328115) rotate(-26.211457) translate(-40.691375, -62.328115) " x="25.1408562" y="12.7764618" width="31.1010376" height="99.1033064"></rect>
                    <path d="M95.2,83.4 C98.1,87 100.6,91 102.8,95.4 C115.4,121 109.8,149.4 90.3,159 C70.8,168.6 44.8,155.7 32.2,130.1 C30,125.7 28.4,121.2 27.3,116.7 L95.2,83.4 L95.2,83.4 Z" id="Shape" fill="#D3E5F5"></path>
                    <path d="M99.3,150 C104.1,133.2 103,114.7 94.9,98 C92.8,93.8 90.3,89.8 87.6,86.2 L93.3,83.4 C96.2,87 98.7,91 100.9,95.4 C110.5,115.3 109.4,136.8 99.3,150 L99.3,150 Z" id="Shape" fill="#B4CDE0"></path>
                    <path d="M43,109.2 L96.3,83 C99.2,86.6 101.7,90.6 103.9,95 C116.5,120.6 110.9,149 91.4,158.6 C71.9,168.2 45.9,155.3 33.3,129.7 C31.1,125.3 29.5,120.8 28.4,116.3 L35.7,112.7" id="Shape" stroke="#34376B" stroke-width="2.5"></path>
                    <circle id="Oval" fill="#D3E5F5" cx="20.5" cy="20.3" r="20"></circle>
                </g>
                <g id="forearm_2_" transform="translate(0.000000, 36.000000)">
                    <rect id="Rectangle-path" fill="#B5CEE2" transform="translate(35.357290, 45.044870) rotate(18.953137) translate(-35.357290, -45.044870) " x="20.607049" y="3.09418454" width="29.500482" height="83.9013709"></rect>
                    <circle id="Oval" fill="#D3E5F5" cx="20.9" cy="90.6" r="20"></circle>
                    <path d="M4.6,98.2 C6.3,103.8 7.5,105.9 13.2,109.3 C22.7,115 34.9,111.9 40.6,102.5 C46.3,93.1 43.2,80.8 33.8,75.1 C24.3,69.4 12.1,72.5 6.4,81.9 C4.1,85.7 3.2,90 3.6,94.1" id="Shape" stroke="#34376B" stroke-width="2.5"></path>
                </g>
                <circle id="Oval" fill="#B5CEE2" cx="97.5" cy="613.9" r="34.6"></circle>
                <path d="M121.6,638.3 C127.7,632 132.1,625.1 132.1,613.9 C132.1,594.8 116.6,579.3 97.5,579.3 C78.4,579.3 62.9,594.8 62.9,613.9 C62.9,633 78.4,648.5 97.5,648.5 C105.5,648.5 112.8,645.8 118.6,641.3" id="Shape" stroke="#34376B" stroke-width="2.5"></path>
                <circle id="Oval" stroke="#34376B" stroke-width="2.5" cx="95.9" cy="613.9" r="8.4"></circle>
            </g>
            <g id="Group" transform="translate(0.000000, 440.000000)">
                <circle id="Oval" fill="#FFFFFF" cx="109.7" cy="109.2" r="108.7"></circle>
                <path d="M200.7,48.3 C187.7,27.6 171.3,14.7 143.6,5.9 C86.4,-12.3 25.1,18.3 6.4,75.3 C-12.3,132.3 18.8,193.8 75.8,212.5 C132.9,231.2 194.3,200.1 213,143.1 C221.9,116.1 219.6,88.1 208.6,64.1" id="Shape" stroke="#34376B" stroke-width="2.5"></path>
                <g transform="translate(45.000000, 56.000000)" stroke="#1494E2">
                    <rect id="Rectangle-path" stroke-width="13.9996646" transform="translate(64.709875, 53.244125) rotate(13.462304) translate(-64.709875, -53.244125) " x="8.26122728" y="12.8950916" width="112.897295" height="80.6980668"></rect>
                    <polyline id="Shape" stroke-width="14" points="19.5 10.8 64 56.4 124.3 35.9"></polyline>
                </g>
            </g>
            <g id="Group" transform="translate(570.000000, 540.000000)">
                <circle id="Oval" fill="#FFFFFF" cx="109.6" cy="109.6" r="108.7"></circle>
                <path d="M200.6,48.7 C187.6,28 171.2,15.1 143.5,6.3 C86.3,-11.9 25,18.7 6.3,75.7 C-12.4,132.7 18.7,194.2 75.7,212.9 C132.8,231.6 194.2,200.5 212.9,143.5 C221.8,116.5 219.5,88.5 208.5,64.5" id="Shape" stroke="#34376B" stroke-width="2.5"></path>
                <path d="M74,164.2 L147.2,164.2 C156.3,164.2 163.7,156.8 163.7,147.7 L163.7,74.5 C163.7,65.4 156.3,58 147.2,58 L74,58 C64.9,58 57.5,65.4 57.5,74.5 L57.5,147.7 C57.5,156.9 64.9,164.2 74,164.2 L74,164.2 Z" id="Shape" fill="#6CDDB5"></path>
                <path d="M78,162.2 L151.2,162.2 C160.3,162.2 167.7,154.8 167.7,145.7 L167.7,72.5 C167.7,63.4 160.3,56 151.2,56 L78,56 C68.9,56 61.5,63.4 61.5,72.5 L61.5,145.7 C61.5,154.9 68.9,162.2 78,162.2 L78,162.2 Z" id="Shape" stroke="#34376B" stroke-width="2.5"></path>
                <path d="M75.2,133.9 C82.9,144.9 95.6,152 110.1,152 C124.7,152 137.6,144.7 145.3,133.5" id="Shape" stroke="#34376B" stroke-width="2.5" fill="#6CDDB5"></path>
                <path d="M145.2,127.3 L145.2,86.1" id="Shape" stroke="#34376B" stroke-width="2.5"></path>
                <path d="M110.2,142.7 L110.2,75.3" id="Shape" stroke="#34376B" stroke-width="2.5"></path>
                <path d="M127.2,138.3 L127.2,79.3" id="Shape" stroke="#34376B" stroke-width="2.5"></path>
                <path d="M75.2,127.3 L75.2,86.1" id="Shape" stroke="#34376B" stroke-width="2.5"></path>
                <path d="M91.5,138.3 L91.5,79.3" id="Shape" stroke="#34376B" stroke-width="2.5"></path>
            </g>
            <g id="Group" transform="translate(582.000000, 245.000000)">
                <circle id="Oval" fill="#FFFFFF" cx="110.3" cy="109.7" r="109.7"></circle>
                <path d="M202.2,48.3 C189.1,27.4 172.5,14.4 144.5,5.5 C86.8,-12.9 24.9,18 6.1,75.5 C-12.7,133 18.6,195.1 76.1,213.9 C133.7,232.8 195.7,201.4 214.5,143.9 C223.4,116.6 221.1,88.4 210.1,64.2" id="Shape" stroke="#34376B" stroke-width="2.5"></path>
                <path d="M42.8,97.2 L43.5,97.2 C45.9,81.6 59.3,69.6 75.6,69.6 C80,69.6 84.2,70.5 88.1,72.1 C93.1,59.7 105.2,50.9 119.5,50.9 C136.6,50.9 150.7,63.6 153,80.2 C170.6,80.6 184.7,94.9 184.7,112.6 C184.7,129.4 172,143.2 155.7,144.9 C151.5,158.2 139.1,167.8 124.4,167.8 C112.1,167.8 101.4,161 95.8,151 C91.1,156.9 83.9,160.6 75.8,160.6 C64.6,160.6 55.2,153.5 51.7,143.5 C49,144.5 46.1,145.1 43,145.1 C29.8,145.1 19,134.4 19,121.1 C18.8,108 29.5,97.2 42.8,97.2 L42.8,97.2 Z" id="Shape" fill="#65D8F0"></path>
                <path d="M47.8,98.2 L48.5,98.2 C50.9,82.6 64.3,70.6 80.6,70.6 C85,70.6 89.2,71.5 93.1,73.1 C98.1,60.7 110.2,51.9 124.5,51.9 C141.6,51.9 155.7,64.6 158,81.2 C175.6,81.6 189.7,95.9 189.7,113.6 C189.7,130.4 177,144.2 160.7,145.9 C156.5,159.2 144.1,168.8 129.4,168.8 C117.1,168.8 106.4,162 100.8,152 C96.1,157.9 88.9,161.6 80.8,161.6 C69.6,161.6 60.2,154.5 56.7,144.5 C54,145.5 51.1,146.1 48,146.1 C34.8,146.1 24,135.4 24,122.1 C23.8,109 34.6,98.2 47.8,98.2 L47.8,98.2 Z" id="Shape" stroke="#34376B" stroke-width="2.5"></path>
                <path d="M148.6,123.9 C142.6,123.9 142.6,107.9 136.5,107.9 C130.5,107.9 130.5,123.9 124.5,123.9 C118.5,123.9 118.5,107.9 112.4,107.9 C106.4,107.9 106.4,123.9 100.3,123.9 C94.3,123.9 94.3,107.9 88.2,107.9 C82.2,107.9 82.2,123.9 76.1,123.9 C70,123.9 70.1,107.9 64,107.9" id="Shape" stroke="#34376B" stroke-width="2.5"></path>
            </g>
            <path d="M411.4,574.3 C411.4,574.3 478.4,561.8 521,636.6 C563.6,711.4 565.7,744.6 600.8,733.5" id="Shape" stroke="#34376B" stroke-width="2.5"></path>
            <path d="M412,568 C412,568 368.1,582.2 300.8,658 C245.3,720.4 174.1,679 163.2,654.6" id="Shape" stroke="#34376B" stroke-width="2.5"></path>
            <path d="M411.4,557.6 C411.4,557.6 541.8,657.7 590.2,617 C638.6,576.3 613.1,507.8 635.4,456.7" id="Shape" stroke="#34376B" stroke-width="2.5"></path>
            <g id="Group" transform="translate(285.000000, 0.000000)">
                <rect id="Rectangle-path" fill="#E8F2FB" x="7.9" y="11.2" width="224.2" height="266.2"></rect>
                <rect id="Rectangle-path" stroke="#34376B" stroke-width="2.5" x="0.6" y="0.5" width="232.5" height="283.6"></rect>
                <polyline id="Shape" stroke="#34376B" stroke-width="2.5" points="222.3 12.9 222.1 269.5 14.2 270.2"></polyline>
                <polyline id="Shape" stroke="#34376B" stroke-width="2.5" points="12 266.1 11.1 9.5 216.1 12.8"></polyline>
                <polygon id="Shape" fill="#F3BA99" points="101.8 163.2 101.8 175.6 133.8 175.6 132.8 164.9"></polygon>
                <ellipse id="Oval" fill="#F6D6B4" cx="65.5" cy="112.3" rx="10.7" ry="14.4"></ellipse>
                <ellipse id="Oval" fill="#F6D6B4" cx="163.9" cy="109.5" rx="10.7" ry="14.4"></ellipse>
                <path d="M128,167.5 L104.2,167.5 C82.8,167.5 65.5,150.2 65.5,128.8 L65.5,95.8 C65.5,74.4 82.8,57.1 104.2,57.1 L128,57.1 C149.4,57.1 166.7,74.4 166.7,95.8 L166.7,128.8 C166.7,150.1 149.4,167.5 128,167.5 L128,167.5 Z" id="Shape" fill="#F6D6B4"></path>
                <path d="M121.4,167.3 C91.5,167.3 66.5,142.3 66.5,112.4 C66.5,109.8 65.8,98.3 65.5,95.3 L65.5,95.7 L65.5,128.7 C65.5,150.1 82.8,167.4 104.2,167.4 L128,167.4 C135,167.4 141.6,165.5 147.2,162.3 C138.2,165.8 127.5,167.3 121.4,167.3 L121.4,167.3 Z" id="Shape" fill="#F3BA99"></path>
                <path d="M82.2,90.4 L97.6,90.4" id="Shape" stroke="#CA8A6B" stroke-width="3"></path>
                <path d="M133.5,90.4 L148.8,90.4" id="Shape" stroke="#CA8A6B" stroke-width="3"></path>
                <path d="M112,124.5 L122.8,124.5" id="Shape" stroke="#CA8A6B" stroke-width="3"></path>
                <path d="M101.3,139 L101.3,139.7 C101.3,149.1 108.7,156.7 117.8,156.7 C126.9,156.7 134.3,149.1 134.3,139.7 L134.3,139 L101.3,139 L101.3,139 Z" id="Shape" fill="#FFFFFF"></path>
                <path d="M90.9,112.8 C95.7,112.8 95.7,105.3 90.9,105.3 C86.1,105.3 86.1,112.8 90.9,112.8 L90.9,112.8 L90.9,112.8 Z" id="Shape" fill="#CA8A6B"></path>
                <path d="M141.9,112.2 C146.7,112.2 146.7,104.7 141.9,104.7 C137,104.7 137,112.2 141.9,112.2 L141.9,112.2 L141.9,112.2 Z" id="Shape" fill="#CA8A6B"></path>
                <path d="M96.1,43.7 C96.1,43.7 80.6,25.9 63.1,43.7 C45.6,61.5 65,98.6 65,98.6 C65,98.6 75.1,66.1 92.6,64.9 C110.2,63.7 96.1,43.7 96.1,43.7 L96.1,43.7 Z" id="Shape" fill="#EEBF56"></path>
                <path d="M98.5,41.4 C98.5,41.4 83,23.6 65.5,41.4 C48,59.2 67.4,96.3 67.4,96.3 C67.4,96.3 77.5,63.8 95,62.6 C112.6,61.3 98.5,41.4 98.5,41.4 L98.5,41.4 Z" id="Shape" stroke="#34376B" stroke-width="2.5"></path>
                <path d="M113.5,27.4 C113.5,27.4 61.6,33.6 89.9,65.2 C113.5,80.7 120.4,63.2 140.5,67.6 C160.7,72 166,98.7 166,98.7 C166,98.7 195.4,25.4 113.5,27.4 L113.5,27.4 Z" id="Shape" fill="#EEBF56"></path>
                <path d="M115.9,25 C115.9,25 64,31.2 92.3,62.8 C115.9,78.3 122.8,60.8 142.9,65.2 C163.1,69.6 168.4,96.3 168.4,96.3 C168.4,96.3 197.8,23 115.9,25 L115.9,25 Z" id="Shape" stroke="#34376B" stroke-width="2.5"></path>
                <path d="M50.1,228 L53.1,264.2 L186.9,264.2 L190.8,228.3 C207.3,228.3 211.4,223.9 213.5,212.8 C213.6,212.3 213.5,211.7 213.5,211.1 C212.3,172.7 148.9,174.7 148.9,174.7 C148.9,174.7 152.5,173.7 93.1,174.7 C33.7,175.7 29.2,201.2 29.2,201.2 C28,204.4 28.5,209.3 29.5,212.8 C33.2,224.7 35.3,226.1 50.1,228 L50.1,228 Z" id="Shape" fill="#34376B"></path>
                <path d="M137.3,264.2 L137.3,174.2 C130.1,174.2 118.7,174.2 100.8,174.5 L100.8,264.2 L137.3,264.2 L137.3,264.2 Z" id="Shape" fill="#FFFFFF"></path>
                <polygon id="Shape" fill="#34376B" points="112.4 174.3 126.2 174.2 122.9 184.7 115.3 184.7"></polygon>
                <rect id="Rectangle-path" fill="#34376B" x="115.3" y="184.7" width="7.7" height="79.4"></rect>
                <path d="M33.8,266.4 L59.4,211 L59.4,211 C62,204.7 57.9,196.7 50.1,193.1 C42.3,189.5 33.6,191.5 30.5,197.6 L30.5,197.6 L14.3,232.7 L14.3,266.4 L33.8,266.4 L33.8,266.4 Z" id="Shape" fill="#34376B"></path>
                <path d="M218,214 L210.4,197.7 L210.4,197.7 C207.3,191.6 198.6,189.6 190.8,193.2 C183,196.8 178.9,204.7 181.5,211.1 L181.5,211.1 L206,264.1 L218,264.1 L218,214 L218,214 Z" id="Shape" fill="#34376B"></path>
            </g>
            <rect id="Rectangle-path" fill="#F4888E" x="303.3" y="191.4" width="192.8" height="53.8"></rect>
            <rect id="Rectangle-path" stroke="#34376B" stroke-width="2.5" x="303.3" y="191.4" width="192.8" height="53.8"></rect>
            <path d="M350.75295,200.478813 L355.417013,200.478813 L355.417013,230.806938 L372.854513,230.806938 L372.854513,234.9085 L350.75295,234.9085 L350.75295,200.478813 Z M377.893575,200.478813 L402.995138,200.478813 L402.995138,204.697563 L382.44045,204.697563 L382.44045,215.150688 L401.448263,215.150688 L401.448263,219.135063 L382.44045,219.135063 L382.44045,230.806938 L403.3467,230.806938 L403.3467,234.9085 L377.893575,234.9085 L377.893575,200.478813 Z M427.135763,220.799125 L421.9092,205.588188 L416.354513,220.799125 L427.135763,220.799125 Z M419.4717,200.478813 L424.745138,200.478813 L437.237325,234.9085 L432.12795,234.9085 L428.635763,224.596 L415.018575,224.596 L411.292013,234.9085 L406.510763,234.9085 L419.4717,200.478813 Z M454.698263,230.924125 C456.276395,230.924125 457.573257,230.760064 458.588888,230.431938 C460.401397,229.822559 461.885757,228.650696 463.042013,226.916313 C463.963892,225.525681 464.627948,223.744448 465.0342,221.572563 C465.268576,220.275681 465.385763,219.072568 465.385763,217.963188 C465.385763,213.697541 464.538115,210.385074 462.842794,208.025688 C461.147473,205.666301 458.417031,204.486625 454.651388,204.486625 L446.37795,204.486625 L446.37795,230.924125 L454.698263,230.924125 Z M441.69045,200.478813 L455.635763,200.478813 C460.370161,200.478813 464.041999,202.158483 466.651388,205.517875 C468.979524,208.54914 470.143575,212.431914 470.143575,217.166313 C470.143575,220.822581 469.456082,224.127235 468.081075,227.080375 C465.659188,232.299151 461.495167,234.9085 455.588888,234.9085 L441.69045,234.9085 L441.69045,200.478813 Z" id="LEAD" fill="#34376B"></path>
        </g>
    </g>
</svg>